<svg version="1.1" viewBox="0.0 0.0 1752.0 1136.0" fill="none" stroke="none" stroke-linecap="square" stroke-miterlimit="10" xmlns:xlink="http://www.w3.org/1999/xlink" xmlns="http://www.w3.org/2000/svg"><clipPath id="p.0"><path d="m0 0l1752.0 0l0 1136.0l-1752.0 0l0 -1136.0z" clip-rule="nonzero"/></clipPath><g clip-path="url(#p.0)"><path fill="#000000" fill-opacity="0.0" d="m0 0l1752.0 0l0 1136.0l-1752.0 0z" fill-rule="evenodd"/><path fill="#cfe2f3" d="m64.90026 90.4271l223.30707 0l0 226.20474l-223.30707 0z" fill-rule="evenodd"/><path stroke="#000000" stroke-width="1.0" stroke-linejoin="round" stroke-linecap="butt" d="m64.90026 90.4271l223.30707 0l0 226.20474l-223.30707 0z" fill-rule="evenodd"/><path fill="#ea9999" d="m511.4859 203.51706l0 0c0 -71.892685 57.533203 -130.17322 128.50397 -130.17322l0 0c34.08136 0 66.766785 13.714638 90.86597 38.126854c24.099182 24.412216 37.63794 57.522293 37.63794 92.04637l0 0c0 71.8927 -57.533142 130.17322 -128.5039 130.17322l0 0c-70.970764 0 -128.50397 -58.280518 -128.50397 -130.17322z" fill-rule="evenodd"/><path stroke="#000000" stroke-width="1.0" stroke-linejoin="round" stroke-linecap="butt" d="m511.4859 203.51706l0 0c0 -71.892685 57.533203 -130.17322 128.50397 -130.17322l0 0c34.08136 0 66.766785 13.714638 90.86597 38.126854c24.099182 24.412216 37.63794 57.522293 37.63794 92.04637l0 0c0 71.8927 -57.533142 130.17322 -128.5039 130.17322l0 0c-70.970764 0 -128.50397 -58.280518 -128.50397 -130.17322z" fill-rule="evenodd"/><path fill="#000000" fill-opacity="0.0" d="m511.4859 203.51706l-223.27557 0" fill-rule="evenodd"/><path stroke="#000000" stroke-width="1.0" stroke-linejoin="round" stroke-linecap="butt" d="m511.4859 203.51706l-223.27557 0" fill-rule="evenodd"/><path fill="#cfe2f3" d="m288.19308 423.03317l223.3071 0l0 226.20474l-223.3071 0z" fill-rule="evenodd"/><path stroke="#000000" stroke-width="1.0" stroke-linejoin="round" stroke-linecap="butt" d="m288.19308 423.03317l223.3071 0l0 226.20474l-223.3071 0z" fill-rule="evenodd"/><path fill="#000000" d="m372.52914 548.2499l8.453125 -0.75q0.609375 5.09375 2.796875 8.359375q2.203125 3.25 6.828125 5.265625q4.625 2.0 10.390625 2.0q5.140625 0 9.0625 -1.515625q3.921875 -1.53125 5.84375 -4.1875q1.921875 -2.65625 1.921875 -5.796875q0 -3.1875 -1.859375 -5.5625q-1.84375 -2.390625 -6.09375 -4.015625q-2.71875 -1.0625 -12.0625 -3.296875q-9.328125 -2.25 -13.078125 -4.234375q-4.859375 -2.53125 -7.234375 -6.296875q-2.375 -3.78125 -2.375 -8.4375q0 -5.140625 2.90625 -9.5937195q2.90625 -4.46875 8.5 -6.765625q5.59375 -2.3125 12.4375 -2.3125q7.53125 0 13.28125 2.421875q5.765625 2.421875 8.859375 7.140625q3.09375 4.7187195 3.328125 10.6718445l-8.59375 0.65625q-0.703125 -6.4375 -4.703125 -9.71875q-3.984375 -3.2812195 -11.796875 -3.2812195q-8.140625 0 -11.859375 2.984375q-3.71875 2.9843445 -3.71875 7.1874695q0 3.65625 2.640625 6.015625q2.578125 2.359375 13.5 4.828125q10.9375 2.46875 15.015625 4.3125q5.90625 2.734375 8.71875 6.921875q2.828125 4.171875 2.828125 9.625q0 5.40625 -3.09375 10.203125q-3.09375 4.78125 -8.90625 7.4375q-5.796875 2.65625 -13.046875 2.65625q-9.203125 0 -15.421875 -2.671875q-6.203125 -2.6875 -9.75 -8.0625q-3.53125 -5.390625 -3.71875 -12.1875z" fill-rule="nonzero"/><path fill="#ea9999" d="m1079.9799 536.1231l0 0c0 -71.89267 57.533203 -130.17322 128.5039 -130.17322l0 0c34.08142 0 66.766846 13.714661 90.86609 38.12686c24.099121 24.412231 37.63794 57.52231 37.63794 92.04636l0 0c0 71.8927 -57.533203 130.17328 -128.50403 130.17328l0 0c-70.9707 0 -128.5039 -58.28058 -128.5039 -130.17328z" fill-rule="evenodd"/><path stroke="#000000" stroke-width="1.0" stroke-linejoin="round" stroke-linecap="butt" d="m1079.9799 536.1231l0 0c0 -71.89267 57.533203 -130.17322 128.5039 -130.17322l0 0c34.08142 0 66.766846 13.714661 90.86609 38.12686c24.099121 24.412231 37.63794 57.52231 37.63794 92.04636l0 0c0 71.8927 -57.533203 130.17328 -128.50403 130.17328l0 0c-70.9707 0 -128.5039 -58.28058 -128.5039 -130.17328z" fill-rule="evenodd"/><path fill="#000000" fill-opacity="0.0" d="m511.50018 536.13556l568.4725 0" fill-rule="evenodd"/><path stroke="#000000" stroke-width="1.0" stroke-linejoin="round" stroke-linecap="butt" d="m511.50018 536.13556l568.4725 0" fill-rule="evenodd"/><path fill="#000000" fill-opacity="0.0" d="m511.4859 203.51706l-111.653534 0l0 219.52756" fill-rule="evenodd"/><path stroke="#000000" stroke-width="1.0" stroke-linejoin="round" stroke-linecap="butt" d="m511.4859 203.51706l-111.653534 0l0 219.52756" fill-rule="evenodd"/><path fill="#ea9999" d="m1296.9388 203.51706l0 0c0 -71.892685 57.533203 -130.17322 128.5039 -130.17322l0 0c34.08142 0 66.766846 13.714638 90.86609 38.126854c24.099121 24.412216 37.637817 57.522293 37.637817 92.04637l0 0c0 71.8927 -57.53308 130.17322 -128.5039 130.17322l0 0c-70.9707 0 -128.5039 -58.280518 -128.5039 -130.17322z" fill-rule="evenodd"/><path stroke="#000000" stroke-width="1.0" stroke-linejoin="round" stroke-linecap="butt" d="m1296.9388 203.51706l0 0c0 -71.892685 57.533203 -130.17322 128.5039 -130.17322l0 0c34.08142 0 66.766846 13.714638 90.86609 38.126854c24.099121 24.412216 37.637817 57.522293 37.637817 92.04637l0 0c0 71.8927 -57.53308 130.17322 -128.5039 130.17322l0 0c-70.9707 0 -128.5039 -58.280518 -128.5039 -130.17322z" fill-rule="evenodd"/><path fill="#000000" fill-opacity="0.0" d="m1296.9388 203.51706l-179.05518 0" fill-rule="evenodd"/><path stroke="#000000" stroke-width="1.0" stroke-linejoin="round" stroke-linecap="butt" d="m1296.9388 203.51706l-179.05518 0" fill-rule="evenodd"/><path fill="#000000" fill-opacity="0.0" d="m1296.9388 203.51706l-88.44092 0l0 202.4252" fill-rule="evenodd"/><path stroke="#000000" stroke-width="1.0" stroke-linejoin="round" stroke-linecap="butt" d="m1296.9388 203.51706l-88.44092 0l0 202.4252" fill-rule="evenodd"/><path fill="#ea9999" d="m351.49557 917.8125l0 0c0 -71.8927 57.533173 -130.17328 128.50394 -130.17328l0 0c34.08136 0 66.766846 13.714661 90.86597 38.126892c24.099182 24.412231 37.63794 57.522278 37.63794 92.04639l0 0c0 71.89264 -57.533142 130.17322 -128.5039 130.17322l0 0c-70.970764 0 -128.50394 -58.28058 -128.50394 -130.17322z" fill-rule="evenodd"/><path stroke="#000000" stroke-width="1.0" stroke-linejoin="round" stroke-linecap="butt" d="m351.49557 917.8125l0 0c0 -71.8927 57.533173 -130.17328 128.50394 -130.17328l0 0c34.08136 0 66.766846 13.714661 90.86597 38.126892c24.099182 24.412231 37.63794 57.522278 37.63794 92.04639l0 0c0 71.89264 -57.533142 130.17322 -128.5039 130.17322l0 0c-70.970764 0 -128.50394 -58.28058 -128.50394 -130.17322z" fill-rule="evenodd"/><path fill="#cfe2f3" d="m700.9484 804.72253l223.30707 0l0 226.20471l-223.30707 0z" fill-rule="evenodd"/><path stroke="#000000" stroke-width="1.0" stroke-linejoin="round" stroke-linecap="butt" d="m700.9484 804.72253l223.30707 0l0 226.20471l-223.30707 0z" fill-rule="evenodd"/><path fill="#ea9999" d="m1041.0186 917.8125l0 0c0 -71.8927 57.533203 -130.17328 128.50403 -130.17328l0 0c34.0813 0 66.766846 13.714661 90.86597 38.126892c24.099121 24.412231 37.63794 57.522278 37.63794 92.04639l0 0c0 71.89264 -57.533203 130.17322 -128.5039 130.17322l0 0c-70.970825 0 -128.50403 -58.28058 -128.50403 -130.17322z" fill-rule="evenodd"/><path stroke="#000000" stroke-width="1.0" stroke-linejoin="round" stroke-linecap="butt" d="m1041.0186 917.8125l0 0c0 -71.8927 57.533203 -130.17328 128.50403 -130.17328l0 0c34.0813 0 66.766846 13.714661 90.86597 38.126892c24.099121 24.412231 37.63794 57.522278 37.63794 92.04639l0 0c0 71.89264 -57.533203 130.17322 -128.5039 130.17322l0 0c-70.970825 0 -128.50403 -58.28058 -128.50403 -130.17322z" fill-rule="evenodd"/><path fill="#000000" fill-opacity="0.0" d="m812.6019 804.72253l0 -268.59845l267.37012 0" fill-rule="evenodd"/><path stroke="#000000" stroke-width="1.0" stroke-linejoin="round" stroke-linecap="butt" d="m812.6019 804.72253l0 -268.59845l267.37012 0" fill-rule="evenodd"/><path fill="#000000" d="m894.5732 90.4271l223.30707 0l0 226.20474l-223.30707 0z" fill-rule="evenodd"/><path stroke="#000000" stroke-width="1.0" stroke-linejoin="round" stroke-linecap="butt" d="m894.5732 90.4271l223.30707 0l0 226.20474l-223.30707 0z" fill-rule="evenodd"/><path fill="#ffffff" d="m964.9971 149.27946l3.0625 -0.265625q0.34375 2.25 1.59375 3.390625q1.25 1.125 3.0 1.125q2.109375 0 3.578125 -1.59375q1.46875 -1.59375 1.46875 -4.234375q0 -2.5 -1.40625 -3.953125q-1.40625 -1.453125 -3.6875 -1.453125q-1.421875 0 -2.5625 0.65625q-1.125 0.640625 -1.78125 1.65625l-2.75 -0.359375l2.3125 -12.25l11.859375 0l0 2.796875l-9.515625 0l-1.296875 6.40625q2.15625 -1.484375 4.515625 -1.484375q3.125 0 5.265625 2.171875q2.15625 2.15625 2.15625 5.546875q0 3.25 -1.890625 5.609375q-2.296875 2.890625 -6.265625 2.890625q-3.25 0 -5.3125 -1.8125q-2.0625 -1.828125 -2.34375 -4.84375zm33.926147 3.4375l0 2.8125l-15.765625 0q-0.046875 -1.0625 0.328125 -2.03125q0.609375 -1.609375 1.9375 -3.171875q1.328125 -1.5625 3.828125 -3.609375q3.890625 -3.203125 5.25 -5.0625q1.375 -1.859375 1.375 -3.515625q0 -1.75 -1.25 -2.9375q-1.234375 -1.203125 -3.234375 -1.203125q-2.125 0 -3.390625 1.28125q-1.265625 1.265625 -1.28125 3.5l-3.015625 -0.296875q0.3125 -3.375 2.328125 -5.140625q2.015625 -1.765625 5.421875 -1.765625q3.421875 0 5.421875 1.90625q2.015625 1.90625 2.015625 4.71875q0 1.421875 -0.59375 2.8125q-0.578125 1.390625 -1.9375 2.921875q-1.359375 1.515625 -4.515625 4.1875q-2.640625 2.21875 -3.390625 3.015625q-0.75 0.78125 -1.234375 1.578125l11.703125 0zm2.8167725 -4.34375l0 -2.953125l9.0 0l0 2.953125l-9.0 0zm11.426636 0.90625l3.0625 -0.265625q0.34375 2.25 1.59375 3.390625q1.25 1.125 3.0 1.125q2.109375 0 3.578125 -1.59375q1.46875 -1.59375 1.46875 -4.234375q0 -2.5 -1.40625 -3.953125q-1.40625 -1.453125 -3.6875 -1.453125q-1.421875 0 -2.5625 0.65625q-1.125 0.640625 -1.78125 1.65625l-2.75 -0.359375l2.3125 -12.25l11.859375 0l0 2.796875l-9.515625 0l-1.296875 6.40625q2.15625 -1.484375 4.515625 -1.484375q3.125 0 5.265625 2.171875q2.15625 2.15625 2.15625 5.546875q0 3.25 -1.890625 5.609375q-2.296875 2.890625 -6.265625 2.890625q-3.25 0 -5.3125 -1.8125q-2.0625 -1.828125 -2.34375 -4.84375zm33.926147 3.4375l0 2.8125l-15.765625 0q-0.046875 -1.0625 0.328125 -2.03125q0.609375 -1.609375 1.9375 -3.171875q1.328125 -1.5625 3.828125 -3.609375q3.890625 -3.203125 5.25 -5.0625q1.375 -1.859375 1.375 -3.515625q0 -1.75 -1.25 -2.9375q-1.234375 -1.203125 -3.234375 -1.203125q-2.125 0 -3.390625 1.28125q-1.265625 1.265625 -1.28125 3.5l-3.015625 -0.296875q0.3125 -3.375 2.328125 -5.140625q2.015625 -1.765625 5.421875 -1.765625q3.421875 0 5.421875 1.90625q2.015625 1.90625 2.015625 4.71875q0 1.421875 -0.59375 2.8125q-0.578125 1.390625 -1.9375 2.921875q-1.359375 1.515625 -4.515625 4.1875q-2.640625 2.21875 -3.390625 3.015625q-0.75 0.78125 -1.234375 1.578125l11.703125 0z" fill-rule="nonzero"/><path fill="#ffffff" d="m968.1497 235.52946l0 -23.859375l3.15625 0l0 9.796875l12.390625 0l0 -9.796875l3.171875 0l0 23.859375l-3.171875 0l0 -11.25l-12.390625 0l0 11.25l-3.15625 0zm35.427917 -5.5625l3.015625 0.375q-0.703125 2.65625 -2.640625 4.125q-1.9375 1.453125 -4.953125 1.453125q-3.796875 0 -6.015625 -2.328125q-2.21875 -2.34375 -2.21875 -6.5625q0 -4.359375 2.25 -6.765625q2.25 -2.40625 5.828125 -2.40625q3.46875 0 5.65625 2.359375q2.203125 2.359375 2.203125 6.640625q0 0.265625 -0.015625 0.78125l-12.890625 0q0.15625 2.84375 1.609375 4.359375q1.453125 1.515625 3.609375 1.515625q1.609375 0 2.75 -0.84375q1.140625 -0.84375 1.8125 -2.703125zm-9.625 -4.734375l9.65625 0q-0.203125 -2.1875 -1.109375 -3.28125q-1.40625 -1.6875 -3.625 -1.6875q-2.015625 0 -3.390625 1.359375q-1.375 1.34375 -1.53125 3.609375zm27.598022 8.171875q-1.625 1.375 -3.125 1.953125q-1.5 0.5625 -3.234375 0.5625q-2.84375 0 -4.375 -1.390625q-1.53125 -1.390625 -1.53125 -3.5625q0 -1.265625 0.578125 -2.3125q0.578125 -1.046875 1.515625 -1.671875q0.9375 -0.640625 2.109375 -0.96875q0.859375 -0.234375 2.59375 -0.4375q3.546875 -0.421875 5.234375 -1.015625q0.015625 -0.609375 0.015625 -0.765625q0 -1.78125 -0.828125 -2.515625q-1.125 -1.0 -3.34375 -1.0q-2.0625 0 -3.046875 0.734375q-0.984375 0.71875 -1.453125 2.546875l-2.875 -0.390625q0.390625 -1.828125 1.28125 -2.953125q0.90625 -1.140625 2.59375 -1.75q1.703125 -0.609375 3.921875 -0.609375q2.21875 0 3.59375 0.53125q1.390625 0.515625 2.03125 1.3125q0.65625 0.78125 0.921875 1.984375q0.140625 0.75 0.140625 2.703125l0 3.90625q0 4.078125 0.1875 5.15625q0.1875 1.078125 0.75 2.078125l-3.0625 0q-0.453125 -0.90625 -0.59375 -2.125zm-0.234375 -6.546875q-1.59375 0.65625 -4.78125 1.109375q-1.8125 0.25 -2.5625 0.578125q-0.75 0.328125 -1.15625 0.953125q-0.40625 0.625 -0.40625 1.390625q0 1.171875 0.890625 1.953125q0.890625 0.78125 2.59375 0.78125q1.6875 0 3.0 -0.734375q1.328125 -0.75 1.953125 -2.03125q0.46875 -0.984375 0.46875 -2.921875l0 -1.078125zm7.4730225 8.671875l0 -17.28125l2.625 0l0 2.625q1.015625 -1.84375 1.859375 -2.421875q0.859375 -0.59375 1.890625 -0.59375q1.484375 0 3.0 0.9375l-1.0 2.71875q-1.078125 -0.625 -2.15625 -0.625q-0.953125 0 -1.71875 0.578125q-0.765625 0.578125 -1.09375 1.59375q-0.484375 1.5625 -0.484375 3.421875l0 9.046875l-2.921875 0zm17.520386 -2.625l0.421875 2.59375q-1.234375 0.265625 -2.21875 0.265625q-1.59375 0 -2.46875 -0.5q-0.875 -0.515625 -1.234375 -1.328125q-0.359375 -0.828125 -0.359375 -3.46875l0 -9.9375l-2.15625 0l0 -2.28125l2.15625 0l0 -4.28125l2.90625 -1.75l0 6.03125l2.953125 0l0 2.28125l-2.953125 0l0 10.109375q0 1.25 0.15625 1.609375q0.15625 0.359375 0.5 0.578125q0.359375 0.203125 1.015625 0.203125q0.484375 0 1.28125 -0.125z" fill-rule="nonzero"/><path fill="#ffffff" d="m975.23627 273.40445q-1.625 1.375 -3.125 1.953125q-1.5 0.5625 -3.234375 0.5625q-2.84375 0 -4.375 -1.390625q-1.53125 -1.390625 -1.53125 -3.5625q0 -1.265625 0.578125 -2.3125q0.578125 -1.046875 1.515625 -1.671875q0.9375 -0.640625 2.109375 -0.96875q0.859375 -0.234375 2.59375 -0.4375q3.546875 -0.421875 5.234375 -1.015625q0.015625 -0.609375 0.015625 -0.765625q0 -1.78125 -0.828125 -2.515625q-1.125 -1.0 -3.34375 -1.0q-2.0625 0 -3.046875 0.734375q-0.984375 0.71875 -1.453125 2.546875l-2.875 -0.390625q0.390625 -1.828125 1.28125 -2.953125q0.90625 -1.140625 2.59375 -1.75q1.703125 -0.609375 3.921875 -0.609375q2.21875 0 3.59375 0.53125q1.390625 0.515625 2.03125 1.3125q0.65625 0.78125 0.921875 1.984375q0.140625 0.75 0.140625 2.703125l0 3.90625q0 4.078125 0.1875 5.15625q0.1875 1.078125 0.75 2.078125l-3.0625 0q-0.453125 -0.90625 -0.59375 -2.125zm-0.234375 -6.546875q-1.59375 0.65625 -4.78125 1.109375q-1.8125 0.25 -2.5625 0.578125q-0.75 0.328125 -1.15625 0.953125q-0.40625 0.625 -0.40625 1.390625q0 1.171875 0.890625 1.953125q0.890625 0.78125 2.59375 0.78125q1.6875 0 3.0 -0.734375q1.328125 -0.75 1.953125 -2.03125q0.46875 -0.984375 0.46875 -2.921875l0 -1.078125zm13.894897 6.046875l0.421875 2.59375q-1.234375 0.265625 -2.21875 0.265625q-1.59375 0 -2.46875 -0.5q-0.875 -0.515625 -1.234375 -1.328125q-0.359375 -0.828125 -0.359375 -3.46875l0 -9.9375l-2.15625 0l0 -2.28125l2.15625 0l0 -4.2812347l2.90625 -1.75l0 6.0312347l2.953125 0l0 2.28125l-2.953125 0l0 10.109375q0 1.25 0.15625 1.609375q0.15625 0.359375 0.5 0.578125q0.359375 0.203125 1.015625 0.203125q0.484375 0 1.28125 -0.125zm9.259644 0l0.421875 2.59375q-1.234375 0.265625 -2.21875 0.265625q-1.59375 0 -2.46875 -0.5q-0.875 -0.515625 -1.234375 -1.328125q-0.359375 -0.828125 -0.359375 -3.46875l0 -9.9375l-2.15625 0l0 -2.28125l2.15625 0l0 -4.2812347l2.90625 -1.75l0 6.0312347l2.953125 0l0 2.28125l-2.953125 0l0 10.109375q0 1.25 0.15625 1.609375q0.15625 0.359375 0.5 0.578125q0.359375 0.203125 1.015625 0.203125q0.484375 0 1.28125 -0.125zm14.1345825 0.5q-1.625 1.375 -3.125 1.953125q-1.5 0.5625 -3.234375 0.5625q-2.84375 0 -4.375 -1.390625q-1.53125 -1.390625 -1.53125 -3.5625q0 -1.265625 0.578125 -2.3125q0.578125 -1.046875 1.515625 -1.671875q0.9375 -0.640625 2.109375 -0.96875q0.859375 -0.234375 2.59375 -0.4375q3.546875 -0.421875 5.234375 -1.015625q0.015625 -0.609375 0.015625 -0.765625q0 -1.78125 -0.828125 -2.515625q-1.125 -1.0 -3.34375 -1.0q-2.0625 0 -3.046875 0.734375q-0.984375 0.71875 -1.453125 2.546875l-2.875 -0.390625q0.390625 -1.828125 1.28125 -2.953125q0.90625 -1.140625 2.59375 -1.75q1.703125 -0.609375 3.921875 -0.609375q2.21875 0 3.59375 0.53125q1.390625 0.515625 2.03125 1.3125q0.65625 0.78125 0.921875 1.984375q0.140625 0.75 0.140625 2.703125l0 3.90625q0 4.078125 0.1875 5.15625q0.1875 1.078125 0.75 2.078125l-3.0625 0q-0.453125 -0.90625 -0.59375 -2.125zm-0.234375 -6.546875q-1.59375 0.65625 -4.78125 1.109375q-1.8125 0.25 -2.5625 0.578125q-0.75 0.328125 -1.15625 0.953125q-0.40625 0.625 -0.40625 1.390625q0 1.171875 0.890625 1.953125q0.890625 0.78125 2.59375 0.78125q1.6875 0 3.0 -0.734375q1.328125 -0.75 1.953125 -2.03125q0.46875 -0.984375 0.46875 -2.921875l0 -1.078125zm18.769897 2.34375l2.890625 0.375q-0.46875 2.96875 -2.421875 4.65625q-1.9375 1.6875 -4.78125 1.6875q-3.546814 0 -5.703125 -2.3125q-2.15625 -2.328125 -2.15625 -6.65625q0 -2.796875 0.921875 -4.890625q0.9375 -2.109375 2.828125 -3.15625q1.90625 -1.046875 4.125 -1.046875q2.828125 0 4.609375 1.421875q1.796875 1.421875 2.296875 4.046875l-2.84375 0.4375q-0.40625 -1.734375 -1.453125 -2.609375q-1.03125 -0.890625 -2.484375 -0.890625q-2.21875 0 -3.609314 1.59375q-1.375061 1.578125 -1.375061 5.015625q0 3.484375 1.328186 5.0625q1.343689 1.578125 3.484314 1.578125q1.734375 0 2.890625 -1.0625q1.15625 -1.0625 1.453125 -3.25zm5.4140625 6.328125l0 -23.85936l2.921875 0l0 13.60936l6.9375 -7.03125l3.78125 0l-6.59375 6.40625l7.265625 10.875l-3.609375 0l-5.71875 -8.84375l-2.0625 2.0l0 6.84375l-2.921875 0z" fill-rule="nonzero"/><path fill="#000000" fill-opacity="0.0" d="m481.00476 787.6392l-1.0038757 0l0 -74.51965l334.51566 0" fill-rule="evenodd"/><path stroke="#000000" stroke-width="1.0" stroke-linejoin="round" stroke-linecap="butt" d="m481.00476 787.6392l-1.0038757 0l0 -74.51965l334.51566 0" fill-rule="evenodd"/><path fill="#000000" fill-opacity="0.0" d="m1169.5226 787.6392l-0.9421387 0l0 -74.51965l-371.43585 0" fill-rule="evenodd"/><path stroke="#000000" stroke-width="1.0" stroke-linejoin="round" stroke-linecap="butt" d="m1169.5226 787.6392l-0.9421387 0l0 -74.51965l-371.43585 0" fill-rule="evenodd"/></g></svg>