<svg version="1.1" viewBox="0.0 0.0 3184.0 1808.0" fill="none" stroke="none" stroke-linecap="square" stroke-miterlimit="10" xmlns:xlink="http://www.w3.org/1999/xlink" xmlns="http://www.w3.org/2000/svg"><clipPath id="p.0"><path d="m0 0l3184.0 0l0 1808.0l-3184.0 0l0 -1808.0z" clip-rule="nonzero"/></clipPath><g clip-path="url(#p.0)"><path fill="#000000" fill-opacity="0.0" d="m0 0l3184.0 0l0 1808.0l-3184.0 0z" fill-rule="evenodd"/><path fill="#ea9999" d="m550.6318 281.38977l0 0c0 -71.8927 57.533142 -130.17323 128.5039 -130.17323l0 0c34.08136 0 66.766846 13.714645 90.86603 38.126846c24.099121 24.412216 37.63794 57.522293 37.63794 92.04639l0 0c0 71.89267 -57.533203 130.17322 -128.50397 130.17322l0 0c-70.970764 0 -128.5039 -58.28055 -128.5039 -130.17322z" fill-rule="evenodd"/><path stroke="#000000" stroke-width="1.0" stroke-linejoin="round" stroke-linecap="butt" d="m550.6318 281.38977l0 0c0 -71.8927 57.533142 -130.17323 128.5039 -130.17323l0 0c34.08136 0 66.766846 13.714645 90.86603 38.126846c24.099121 24.412216 37.63794 57.522293 37.63794 92.04639l0 0c0 71.89267 -57.533203 130.17322 -128.50397 130.17322l0 0c-70.970764 0 -128.5039 -58.28055 -128.5039 -130.17322z" fill-rule="evenodd"/><path fill="#000000" d="m955.4409 168.2893l223.30713 0l0 226.20471l-223.30713 0z" fill-rule="evenodd"/><path stroke="#000000" stroke-width="1.0" stroke-linejoin="round" stroke-linecap="butt" d="m955.4409 168.2893l223.30713 0l0 226.20471l-223.30713 0z" fill-rule="evenodd"/><path fill="#ffffff" d="m1026.0522 232.65729l0 -2.8125l15.4375 0l0 2.28125q-2.265625 2.421875 -4.515625 6.4375q-2.234375 4.015625 -3.453125 8.265625q-0.875 3.0 -1.125 6.5625l-3.0 0q0.046875 -2.8125 1.09375 -6.796875q1.0625 -4.0 3.03125 -7.6875q1.984375 -3.703125 4.21875 -6.25l-11.6875 0zm29.379272 20.734375l-2.9375 0l0 -18.671875q-1.0625 1.015625 -2.78125 2.03125q-1.703125 1.0 -3.078125 1.5l0 -2.828125q2.46875 -1.15625 4.296875 -2.796875q1.84375 -1.640625 2.609375 -3.1875l1.890625 0l0 23.953125zm7.1761475 -7.15625l0 -2.953125l9.0 0l0 2.953125l-9.0 0zm11.614258 -13.578125l0 -2.8125l15.4375 0l0 2.28125q-2.265625 2.421875 -4.515625 6.4375q-2.234375 4.015625 -3.453125 8.265625q-0.875 3.0 -1.125 6.5625l-3.0 0q0.046875 -2.8125 1.09375 -6.796875q1.0625 -4.0 3.03125 -7.6875q1.984375 -3.703125 4.21875 -6.25l-11.6875 0zm18.348022 14.484375l3.0625 -0.265625q0.34375 2.25 1.59375 3.390625q1.25 1.125 3.0 1.125q2.109375 0 3.578125 -1.59375q1.46875 -1.59375 1.46875 -4.234375q0 -2.5 -1.40625 -3.953125q-1.40625 -1.453125 -3.6875 -1.453125q-1.421875 0 -2.5625 0.65625q-1.125 0.640625 -1.78125 1.65625l-2.75 -0.359375l2.3125 -12.25l11.859375 0l0 2.796875l-9.515625 0l-1.296875 6.40625q2.15625 -1.484375 4.515625 -1.484375q3.125 0 5.265625 2.171875q2.15625 2.15625 2.15625 5.546875q0 3.25 -1.890625 5.609375q-2.296875 2.890625 -6.265625 2.890625q-3.25 0 -5.3125 -1.8125q-2.0625 -1.828125 -2.34375 -4.84375z" fill-rule="nonzero"/><path fill="#ffffff" d="m974.1123 333.39166l0 -23.859375l3.15625 0l0 21.046875l11.75 0l0 2.8125l-14.90625 0zm29.613647 0l0 -2.53125q-2.015625 2.921875 -5.46875 2.921875q-1.53125 0 -2.859375 -0.578125q-1.328125 -0.59375 -1.96875 -1.484375q-0.640625 -0.890625 -0.90625 -2.171875q-0.1875 -0.859375 -0.1875 -2.734375l0 -10.703125l2.9375 0l0 9.578125q0 2.296875 0.171875 3.09375q0.28125 1.15625 1.171875 1.828125q0.90625 0.65625 2.21875 0.65625q1.3125 0 2.46875 -0.671875q1.15625 -0.6875 1.640625 -1.84375q0.484375 -1.171875 0.484375 -3.375l0 -9.265625l2.921875 0l0 17.28125l-2.625 0zm7.2230225 0l0 -17.28125l2.625 0l0 2.453125q1.90625 -2.84375 5.5 -2.84375q1.5625 0 2.875 0.5625q1.3125 0.5625 1.953125 1.46875q0.65625 0.90625 0.921875 2.171875q0.15625 0.8125 0.15625 2.84375l0 10.625l-2.921875 0l0 -10.515625q0 -1.78125 -0.34375 -2.671875q-0.34375 -0.890625 -1.21875 -1.421875q-0.859375 -0.53125 -2.03125 -0.53125q-1.875 0 -3.234375 1.1875q-1.359375 1.1875 -1.359375 4.515625l0 9.4375l-2.921875 0zm17.988647 1.4375l2.84375 0.421875q0.1875 1.3125 1.0 1.921875q1.09375 0.8125 2.984375 0.8125q2.03125 0 3.125 -0.8125q1.109375 -0.8125 1.5 -2.28125q0.234375 -0.890625 0.21875 -3.765625q-1.921875 2.265625 -4.78125 2.265625q-3.5625 0 -5.515625 -2.5625q-1.953125 -2.578125 -1.953125 -6.171875q0 -2.484375 0.890625 -4.5625q0.890625 -2.09375 2.59375 -3.234375q1.703125 -1.140625 4.0 -1.140625q3.0625 0 5.046875 2.46875l0 -2.078125l2.703125 0l0 14.9375q0 4.03125 -0.828125 5.71875q-0.828125 1.6875 -2.609375 2.65625q-1.78125 0.984375 -4.375 0.984375q-3.09375 0 -5.0 -1.390625q-1.90625 -1.390625 -1.84375 -4.1875zm2.421875 -10.390625q0 3.40625 1.34375 4.96875q1.359375 1.5625 3.390625 1.5625q2.03125 0 3.390625 -1.546875q1.375 -1.5625 1.375 -4.890625q0 -3.171875 -1.421875 -4.78125q-1.40625 -1.609375 -3.390625 -1.609375q-1.953125 0 -3.328125 1.59375q-1.359375 1.578125 -1.359375 4.703125zm43.31079 0.59375l3.15625 0.796875q-1.0 3.890625 -3.578125 5.9375q-2.578125 2.03125 -6.296875 2.03125q-3.859375 0 -6.28125 -1.5625q-2.40625 -1.578125 -3.671875 -4.546875q-1.265625 -2.984375 -1.265625 -6.40625q0 -3.71875 1.421875 -6.5q1.421875 -2.78125 4.046875 -4.21875q2.640625 -1.4375 5.796875 -1.4375q3.578125 0 6.015625 1.828125q2.453125 1.8125 3.40625 5.125l-3.109375 0.734375q-0.828125 -2.609375 -2.40625 -3.796875q-1.578125 -1.1875 -3.96875 -1.1875q-2.75 0 -4.609375 1.328125q-1.84375 1.3125 -2.59375 3.53125q-0.734375 2.21875 -0.734375 4.578125q0 3.046875 0.875 5.3125q0.890625 2.265625 2.765625 3.390625q1.875 1.125 4.046875 1.125q2.65625 0 4.484375 -1.53125q1.84375 -1.53125 2.5 -4.53125zm17.943481 6.234375q-1.625 1.375 -3.125 1.953125q-1.5 0.5625 -3.234375 0.5625q-2.84375 0 -4.375 -1.390625q-1.53125 -1.390625 -1.53125 -3.5625q0 -1.265625 0.578125 -2.3125q0.578125 -1.046875 1.515625 -1.671875q0.9375 -0.640625 2.109375 -0.96875q0.859375 -0.234375 2.59375 -0.4375q3.546875 -0.421875 5.234375 -1.015625q0.015625 -0.609375 0.015625 -0.765625q0 -1.78125 -0.828125 -2.515625q-1.125 -1.0 -3.34375 -1.0q-2.0625 0 -3.046875 0.734375q-0.984375 0.71875 -1.453125 2.546875l-2.875 -0.390625q0.390625 -1.828125 1.28125 -2.953125q0.90625 -1.140625 2.59375 -1.75q1.703125 -0.609375 3.921875 -0.609375q2.21875 0 3.59375 0.53125q1.390625 0.515625 2.03125 1.3125q0.65625 0.78125 0.921875 1.984375q0.140625 0.75 0.140625 2.703125l0 3.90625q0 4.078125 0.1875 5.15625q0.1875 1.078125 0.75 2.078125l-3.0625 0q-0.453125 -0.90625 -0.59375 -2.125zm-0.234375 -6.546875q-1.59375 0.65625 -4.78125 1.109375q-1.8125 0.25 -2.5625 0.578125q-0.75 0.328125 -1.15625 0.953125q-0.40625 0.625 -0.40625 1.390625q0 1.171875 0.890625 1.953125q0.890625 0.78125 2.59375 0.78125q1.6875 0 3.0 -0.734375q1.328125 -0.75 1.953125 -2.03125q0.46875 -0.984375 0.46875 -2.921875l0 -1.078125zm7.5042725 8.671875l0 -17.28125l2.625 0l0 2.453125q1.90625 -2.84375 5.5 -2.84375q1.5625 0 2.875 0.5625q1.3125 0.5625 1.953125 1.46875q0.65625 0.90625 0.921875 2.171875q0.15625 0.8125 0.15625 2.84375l0 10.625l-2.921875 0l0 -10.515625q0 -1.78125 -0.34375 -2.671875q-0.34375 -0.890625 -1.21875 -1.421875q-0.859375 -0.53125 -2.03125 -0.53125q-1.875 0 -3.234375 1.1875q-1.359375 1.1875 -1.359375 4.515625l0 9.4375l-2.921875 0zm29.801147 -6.328125l2.890625 0.375q-0.46875 2.96875 -2.421875 4.65625q-1.9375 1.6875 -4.78125 1.6875q-3.546875 0 -5.703125 -2.3125q-2.15625 -2.328125 -2.15625 -6.65625q0 -2.796875 0.921875 -4.890625q0.9375 -2.109375 2.828125 -3.15625q1.90625 -1.046875 4.125 -1.046875q2.828125 0 4.609375 1.421875q1.796875 1.421875 2.296875 4.046875l-2.84375 0.4375q-0.40625 -1.734375 -1.453125 -2.609375q-1.03125 -0.890625 -2.484375 -0.890625q-2.21875 0 -3.609375 1.59375q-1.375 1.578125 -1.375 5.015625q0 3.484375 1.328125 5.0625q1.34375 1.578125 3.484375 1.578125q1.734375 0 2.890625 -1.0625q1.15625 -1.0625 1.453125 -3.25zm17.226562 0.765625l3.015625 0.375q-0.703125 2.65625 -2.640625 4.125q-1.9375 1.453125 -4.953125 1.453125q-3.796875 0 -6.015625 -2.328125q-2.21875 -2.34375 -2.21875 -6.5625q0 -4.359375 2.25 -6.765625q2.25 -2.40625 5.828125 -2.40625q3.46875 0 5.65625 2.359375q2.203125 2.359375 2.203125 6.640625q0 0.265625 -0.015625 0.78125l-12.890625 0q0.15625 2.84375 1.609375 4.359375q1.453125 1.515625 3.609375 1.515625q1.609375 0 2.75 -0.84375q1.140625 -0.84375 1.8125 -2.703125zm-9.625 -4.734375l9.65625 0q-0.203125 -2.1875 -1.109375 -3.28125q-1.40625 -1.6875 -3.625 -1.6875q-2.015625 0 -3.390625 1.359375q-1.375 1.34375 -1.53125 3.609375zm16.301147 10.296875l0 -17.28125l2.625 0l0 2.625q1.015625 -1.84375 1.859375 -2.421875q0.859375 -0.59375 1.890625 -0.59375q1.484375 0 3.0 0.9375l-1.0 2.71875q-1.078125 -0.625 -2.15625 -0.625q-0.953125 0 -1.71875 0.578125q-0.765625 0.578125 -1.09375 1.59375q-0.484375 1.5625 -0.484375 3.421875l0 9.046875l-2.921875 0z" fill-rule="nonzero"/><path fill="#000000" d="m1931.4016 168.2893l223.30713 0l0 226.20471l-223.30713 0z" fill-rule="evenodd"/><path stroke="#000000" stroke-width="1.0" stroke-linejoin="round" stroke-linecap="butt" d="m1931.4016 168.2893l223.30713 0l0 226.20471l-223.30713 0z" fill-rule="evenodd"/><path fill="#ffffff" d="m2026.8787 280.28915q-2.34375 -0.84375 -3.46875 -2.421875q-1.125 -1.59375 -1.125 -3.796875q0 -3.34375 2.390625 -5.609375q2.40625 -2.265625 6.375 -2.265625q4.0 0 6.4375 2.328125q2.4375 2.3125 2.4375 5.640625q0 2.125 -1.109375 3.703125q-1.109375 1.578125 -3.390625 2.421875q2.8125 0.921875 4.28125 2.96875q1.46875 2.03125 1.46875 4.859375q0 3.921875 -2.765625 6.59375q-2.765625 2.65625 -7.296875 2.65625q-4.515625 0 -7.28125 -2.671875q-2.765625 -2.671875 -2.765625 -6.671875q0 -2.984375 1.5 -4.984375q1.515625 -2.015625 4.3125 -2.75zm-0.75 -6.34375q0 2.15625 1.390625 3.53125q1.390625 1.375 3.625 1.375q2.15625 0 3.546875 -1.359375q1.390625 -1.359375 1.390625 -3.34375q0 -2.0625 -1.4375 -3.46875q-1.421875 -1.40625 -3.546875 -1.40625q-2.140625 0 -3.5625 1.375q-1.40625 1.375 -1.40625 3.296875zm-1.21875 14.09375q0 1.609375 0.765625 3.109375q0.765625 1.5 2.265625 2.328125q1.5 0.8125 3.21875 0.8125q2.6875 0 4.4375 -1.71875q1.75 -1.734375 1.75 -4.40625q0 -2.703125 -1.8125 -4.46875q-1.796875 -1.78125 -4.5 -1.78125q-2.640625 0 -4.390625 1.75q-1.734375 1.75 -1.734375 4.375zm34.03589 8.8125l-3.75 0l0 -23.890625q-1.359375 1.296875 -3.5625 2.59375q-2.1875 1.28125 -3.9375 1.921875l0 -3.625q3.15625 -1.46875 5.5 -3.578125q2.359375 -2.109375 3.328125 -4.078125l2.421875 0l0 30.65625z" fill-rule="nonzero"/><path fill="#000000" d="m2307.1226 281.38977l0 0c0 -71.8927 57.533203 -130.17323 128.5039 -130.17323l0 0c34.0813 0 66.766846 13.714645 90.86597 38.126846c24.099121 24.412216 37.63794 57.522293 37.63794 92.04639l0 0c0 71.89267 -57.533203 130.17322 -128.5039 130.17322l0 0c-70.9707 0 -128.5039 -58.28055 -128.5039 -130.17322z" fill-rule="evenodd"/><path stroke="#000000" stroke-width="1.0" stroke-linejoin="round" stroke-linecap="butt" d="m2307.1226 281.38977l0 0c0 -71.8927 57.533203 -130.17323 128.5039 -130.17323l0 0c34.0813 0 66.766846 13.714645 90.86597 38.126846c24.099121 24.412216 37.63794 57.522293 37.63794 92.04639l0 0c0 71.89267 -57.533203 130.17322 -128.5039 130.17322l0 0c-70.9707 0 -128.5039 -58.28055 -128.5039 -130.17322z" fill-rule="evenodd"/><path fill="#ffffff" d="m2401.148 239.84789l0 -2.359375l12.96875 0l0 1.90625q-1.90625 2.046875 -3.796875 5.421875q-1.875 3.375 -2.890625 6.9375q-0.75 2.515625 -0.953125 5.5156097l-2.53125 0q0.046875 -2.3593597 0.9375 -5.7031097q0.890625 -3.359375 2.546875 -6.46875q1.65625 -3.109375 3.53125 -5.25l-9.8125 0zm28.33789 15.0625l0 2.3593597l-13.25 0q-0.015625 -0.890625 0.296875 -1.7031097q0.5 -1.359375 1.609375 -2.671875q1.125 -1.3125 3.21875 -3.03125q3.28125 -2.6875 4.421875 -4.25q1.15625 -1.5625 1.15625 -2.953125q0 -1.46875 -1.046875 -2.46875q-1.046875 -1.015625 -2.734375 -1.015625q-1.78125 0 -2.84375 1.078125q-1.0625 1.0625 -1.078125 2.953125l-2.53125 -0.265625q0.265625 -2.828125 1.953125 -4.3125q1.703125 -1.484375 4.5625 -1.484375q2.875 0 4.546875 1.609375q1.6875 1.59375 1.6875 3.953125q0 1.203125 -0.5 2.375q-0.484375 1.15625 -1.625 2.4375q-1.140625 1.28125 -3.78125 3.53125q-2.21875 1.859375 -2.859375 2.53125q-0.625 0.65625 -1.03125 1.328125l9.828125 0zm2.3691406 -3.65625l0 -2.46875l7.5625 0l0 2.46875l-7.5625 0zm13.386719 -4.859375q-1.53125 -0.5625 -2.28125 -1.59375q-0.734375 -1.046875 -0.734375 -2.484375q0 -2.1875 1.578125 -3.671875q1.578125 -1.5 4.1875 -1.5q2.625 0 4.21875 1.53125q1.59375 1.515625 1.59375 3.703125q0 1.390625 -0.734375 2.421875q-0.71875 1.03125 -2.21875 1.59375q1.859375 0.609375 2.8125 1.953125q0.96875 1.328125 0.96875 3.1875q0 2.578125 -1.828125 4.328125q-1.8125 1.7499847 -4.78125 1.7499847q-2.96875 0 -4.78125 -1.7499847q-1.8125 -1.765625 -1.8125 -4.390625q0 -1.953125 0.984375 -3.265625q1.0 -1.328125 2.828125 -1.8125zm-0.5 -4.171875q0 1.421875 0.921875 2.328125q0.921875 0.90625 2.375 0.90625q1.421875 0 2.328125 -0.890625q0.921875 -0.90625 0.921875 -2.203125q0 -1.34375 -0.9375 -2.265625q-0.9375 -0.9375 -2.34375 -0.9375q-1.40625 0 -2.34375 0.90625q-0.921875 0.90625 -0.921875 2.15625zm-0.78125 9.265625q0 1.046875 0.484375 2.03125q0.5 0.984375 1.484375 1.53125q0.984375 0.53125 2.125 0.53125q1.765625 0 2.90625 -1.125q1.15625 -1.140625 1.15625 -2.890625q0 -1.78125 -1.1875 -2.9375q-1.171875 -1.15625 -2.953125 -1.15625q-1.734375 0 -2.875 1.15625q-1.140625 1.140625 -1.140625 2.859375zm20.947266 5.7812347l0 -4.7968597l-8.6875 0l0 -2.265625l9.140625 -12.984375l2.015625 0l0 12.984375l2.703125 0l0 2.265625l-2.703125 0l0 4.7968597l-2.46875 0zm0 -7.0624847l0 -9.03125l-6.265625 9.03125l6.265625 0z" fill-rule="nonzero"/><path fill="#ffffff" d="m2360.0386 325.26978l0 -20.046875l14.484375 0l0 2.375l-11.828125 0l0 6.125l11.078125 0l0 2.359375l-11.078125 0l0 6.828125l12.296875 0l0 2.359375l-14.953125 0zm18.300781 0l0 -14.515625l2.203125 0l0 2.03125q0.6875 -1.0625 1.8125 -1.703125q1.140625 -0.65625 2.59375 -0.65625q1.609375 0 2.640625 0.671875q1.03125 0.65625 1.453125 1.859375q1.734375 -2.53125 4.484375 -2.53125q2.171875 0 3.328125 1.203125q1.15625 1.1875 1.15625 3.671875l0 9.96875l-2.4375 0l0 -9.140625q0 -1.484375 -0.25 -2.125q-0.234375 -0.65625 -0.859375 -1.046875q-0.625 -0.40625 -1.484375 -0.40625q-1.53125 0 -2.546875 1.03125q-1.0 1.015625 -1.0 3.25l0 8.4375l-2.46875 0l0 -9.4375q0 -1.640625 -0.609375 -2.453125q-0.59375 -0.828125 -1.953125 -0.828125q-1.046875 0 -1.9375 0.546875q-0.875 0.546875 -1.265625 1.609375q-0.390625 1.046875 -0.390625 3.03125l0 7.53125l-2.46875 0zm23.324219 5.5625l0 -20.078125l2.25 0l0 1.875q0.78125 -1.09375 1.78125 -1.640625q1.0 -0.5625 2.421875 -0.5625q1.859375 0 3.28125 0.953125q1.421875 0.953125 2.140625 2.703125q0.734375 1.734375 0.734375 3.8125q0 2.234375 -0.796875 4.015625q-0.796875 1.78125 -2.328125 2.734375q-1.53125 0.953125 -3.203125 0.953125q-1.234375 0 -2.21875 -0.515625q-0.96875 -0.53125 -1.59375 -1.3125l0 7.0625l-2.46875 0zm2.234375 -12.734375q0 2.796875 1.125 4.140625q1.140625 1.328125 2.75 1.328125q1.640625 0 2.8125 -1.375q1.171875 -1.390625 1.171875 -4.3125q0 -2.765625 -1.140625 -4.140625q-1.140625 -1.390625 -2.734375 -1.390625q-1.5625 0 -2.78125 1.46875q-1.203125 1.46875 -1.203125 4.28125zm13.337891 7.171875l0 -20.046875l2.46875 0l0 7.1875q1.71875 -1.984375 4.34375 -1.984375q1.609375 0 2.796875 0.640625q1.1875 0.625 1.703125 1.75q0.515625 1.125 0.515625 3.25l0 9.203125l-2.453125 0l0 -9.203125q0 -1.84375 -0.8125 -2.6875q-0.796875 -0.84375 -2.25 -0.84375q-1.09375 0 -2.0625 0.578125q-0.96875 0.5625 -1.375 1.53125q-0.40625 0.96875 -0.40625 2.6875l0 7.9375l-2.46875 0zm15.462891 5.59375l-0.265625 -2.3125q0.796875 0.21875 1.40625 0.21875q0.8125 0 1.296875 -0.28125q0.5 -0.265625 0.8125 -0.75q0.234375 -0.375 0.765625 -1.84375q0.0625 -0.203125 0.21875 -0.59375l-5.515625 -14.546875l2.65625 0l3.015625 8.40625q0.59375 1.59375 1.046875 3.359375q0.4375 -1.6875 1.015625 -3.3125l3.109375 -8.453125l2.453125 0l-5.515625 14.765625q-0.890625 2.390625 -1.390625 3.296875q-0.65625 1.21875 -1.5 1.78125q-0.84375 0.5625 -2.015625 0.5625q-0.71875 0 -1.59375 -0.296875zm13.125 -9.921875l2.4375 -0.390625q0.203125 1.46875 1.140625 2.25q0.9375 0.765625 2.625 0.765625q1.6875 0 2.5 -0.6875q0.828125 -0.6875 0.828125 -1.609375q0 -0.84375 -0.71875 -1.3125q-0.515625 -0.328125 -2.515625 -0.84375q-2.71875 -0.6875 -3.765625 -1.171875q-1.03125 -0.5 -1.578125 -1.375q-0.546875 -0.890625 -0.546875 -1.96875q0 -0.96875 0.4375 -1.796875q0.453125 -0.828125 1.21875 -1.375q0.578125 -0.421875 1.5625 -0.703125q1.0 -0.296875 2.140625 -0.296875q1.703125 0 2.984375 0.5q1.296875 0.484375 1.90625 1.328125q0.625 0.828125 0.859375 2.234375l-2.40625 0.328125q-0.171875 -1.109375 -0.953125 -1.734375q-0.78125 -0.640625 -2.21875 -0.640625q-1.703125 0 -2.421875 0.5625q-0.71875 0.5625 -0.71875 1.3125q0 0.484375 0.296875 0.859375q0.296875 0.40625 0.9375 0.65625q0.375 0.140625 2.171875 0.625q2.625 0.703125 3.65625 1.15625q1.03125 0.4375 1.609375 1.28125q0.59375 0.84375 0.59375 2.109375q0 1.234375 -0.71875 2.328125q-0.71875 1.078125 -2.078125 1.671875q-1.34375 0.59375 -3.0625 0.59375q-2.828125 0 -4.3125 -1.171875q-1.484375 -1.1875 -1.890625 -3.484375zm24.921875 -0.34375l2.546875 0.3125q-0.59375 2.21875 -2.234375 3.453125q-1.625 1.234375 -4.15625 1.234375q-3.171875 0 -5.046875 -1.953125q-1.859375 -1.96875 -1.859375 -5.515625q0 -3.65625 1.875 -5.671875q1.890625 -2.03125 4.90625 -2.03125q2.90625 0 4.75 1.984375q1.84375 1.96875 1.84375 5.578125q0 0.21875 -0.015625 0.65625l-10.828125 0q0.140625 2.390625 1.359375 3.65625q1.21875 1.265625 3.03125 1.265625q1.359375 0 2.3125 -0.703125q0.953125 -0.71875 1.515625 -2.265625zm-8.078125 -3.984375l8.109375 0q-0.15625 -1.828125 -0.921875 -2.75q-1.1875 -1.421875 -3.0625 -1.421875q-1.6875 0 -2.84375 1.140625q-1.15625 1.125 -1.28125 3.03125zm13.712891 8.65625l0 -14.515625l2.203125 0l0 2.03125q0.6875 -1.0625 1.8125 -1.703125q1.140625 -0.65625 2.59375 -0.65625q1.609375 0 2.640625 0.671875q1.03125 0.65625 1.453125 1.859375q1.734375 -2.53125 4.484375 -2.53125q2.171875 0 3.328125 1.203125q1.15625 1.1875 1.15625 3.671875l0 9.96875l-2.4375 0l0 -9.140625q0 -1.484375 -0.25 -2.125q-0.234375 -0.65625 -0.859375 -1.046875q-0.625 -0.40625 -1.484375 -0.40625q-1.53125 0 -2.546875 1.03125q-1.0 1.015625 -1.0 3.25l0 8.4375l-2.46875 0l0 -9.4375q0 -1.640625 -0.609375 -2.453125q-0.59375 -0.828125 -1.953125 -0.828125q-1.046875 0 -1.9375 0.546875q-0.875 0.546875 -1.265625 1.609375q-0.390625 1.046875 -0.390625 3.03125l0 7.53125l-2.46875 0zm32.808594 -1.796875q-1.375 1.171875 -2.640625 1.65625q-1.265625 0.46875 -2.71875 0.46875q-2.390625 0 -3.671875 -1.171875q-1.28125 -1.171875 -1.28125 -2.984375q0 -1.0625 0.484375 -1.9375q0.484375 -0.890625 1.265625 -1.421875q0.796875 -0.53125 1.78125 -0.8125q0.71875 -0.1875 2.1875 -0.375q2.96875 -0.34375 4.375 -0.84375q0.015625 -0.5 0.015625 -0.640625q0 -1.5 -0.6875 -2.125q-0.953125 -0.828125 -2.8125 -0.828125q-1.734375 0 -2.5625 0.609375q-0.828125 0.609375 -1.21875 2.15625l-2.40625 -0.328125q0.328125 -1.546875 1.078125 -2.5q0.75 -0.953125 2.171875 -1.453125q1.421875 -0.515625 3.296875 -0.515625q1.859375 0 3.015625 0.4375q1.171875 0.4375 1.71875 1.109375q0.546875 0.65625 0.765625 1.65625q0.125 0.640625 0.125 2.28125l0 3.28125q0 3.421875 0.15625 4.34375q0.15625 0.90625 0.625 1.734375l-2.578125 0q-0.375 -0.765625 -0.484375 -1.796875zm-0.21875 -5.484375q-1.328125 0.546875 -4.015625 0.921875q-1.515625 0.21875 -2.140625 0.5q-0.625 0.265625 -0.96875 0.796875q-0.34375 0.515625 -0.34375 1.171875q0 0.984375 0.734375 1.640625q0.75 0.65625 2.1875 0.65625q1.421875 0 2.53125 -0.625q1.109375 -0.625 1.625 -1.703125q0.390625 -0.84375 0.390625 -2.46875l0 -0.890625z" fill-rule="nonzero"/><path fill="#cfe2f3" d="m129.03674 600.2998l223.3071 0l0 226.20471l-223.3071 0z" fill-rule="evenodd"/><path stroke="#000000" stroke-width="1.0" stroke-linejoin="round" stroke-linecap="butt" d="m129.03674 600.2998l223.3071 0l0 226.20471l-223.3071 0z" fill-rule="evenodd"/><path fill="#ea9999" d="m872.3946 713.40137l0 0c0 -71.8927 57.533142 -130.17328 128.5039 -130.17328l0 0c34.08136 0 66.76691 13.714661 90.86603 38.126892c24.099121 24.412231 37.63794 57.522278 37.63794 92.04639l0 0c0 71.89264 -57.533203 130.17322 -128.50397 130.17322l0 0c-70.970764 0 -128.5039 -58.28058 -128.5039 -130.17322z" fill-rule="evenodd"/><path stroke="#000000" stroke-width="1.0" stroke-linejoin="round" stroke-linecap="butt" d="m872.3946 713.40137l0 0c0 -71.8927 57.533142 -130.17328 128.5039 -130.17328l0 0c34.08136 0 66.76691 13.714661 90.86603 38.126892c24.099121 24.412231 37.63794 57.522278 37.63794 92.04639l0 0c0 71.89264 -57.533203 130.17322 -128.50397 130.17322l0 0c-70.970764 0 -128.5039 -58.28058 -128.5039 -130.17322z" fill-rule="evenodd"/><path fill="#ea9999" d="m483.86572 713.40137l0 0c0 -71.8927 57.533142 -130.17328 128.5039 -130.17328l0 0c34.08136 0 66.766846 13.714661 90.86603 38.126892c24.099182 24.412231 37.63794 57.522278 37.63794 92.04639l0 0c0 71.89264 -57.533203 130.17322 -128.50397 130.17322l0 0c-70.970764 0 -128.5039 -58.28058 -128.5039 -130.17322z" fill-rule="evenodd"/><path stroke="#000000" stroke-width="1.0" stroke-linejoin="round" stroke-linecap="butt" d="m483.86572 713.40137l0 0c0 -71.8927 57.533142 -130.17328 128.5039 -130.17328l0 0c34.08136 0 66.766846 13.714661 90.86603 38.126892c24.099182 24.412231 37.63794 57.522278 37.63794 92.04639l0 0c0 71.89264 -57.533203 130.17322 -128.50397 130.17322l0 0c-70.970764 0 -128.5039 -58.28058 -128.5039 -130.17322z" fill-rule="evenodd"/><path fill="#ea9999" d="m1260.9221 713.40137l0 0c0 -71.8927 57.533203 -130.17328 128.5039 -130.17328l0 0c34.08142 0 66.766846 13.714661 90.86609 38.126892c24.099121 24.412231 37.63794 57.522278 37.63794 92.04639l0 0c0 71.89264 -57.533203 130.17322 -128.50403 130.17322l0 0c-70.9707 0 -128.5039 -58.28058 -128.5039 -130.17322z" fill-rule="evenodd"/><path stroke="#000000" stroke-width="1.0" stroke-linejoin="round" stroke-linecap="butt" d="m1260.9221 713.40137l0 0c0 -71.8927 57.533203 -130.17328 128.5039 -130.17328l0 0c34.08142 0 66.766846 13.714661 90.86609 38.126892c24.099121 24.412231 37.63794 57.522278 37.63794 92.04639l0 0c0 71.89264 -57.533203 130.17322 -128.50403 130.17322l0 0c-70.9707 0 -128.5039 -58.28058 -128.5039 -130.17322z" fill-rule="evenodd"/><path fill="#cfe2f3" d="m1931.4025 600.29865l223.307 0l0 226.20471l-223.307 0z" fill-rule="evenodd"/><path stroke="#000000" stroke-width="1.0" stroke-linejoin="round" stroke-linecap="butt" d="m1931.4025 600.29865l223.307 0l0 226.20471l-223.307 0z" fill-rule="evenodd"/><path fill="#cfe2f3" d="m2323.9746 600.29865l223.30713 0l0 226.20471l-223.30713 0z" fill-rule="evenodd"/><path stroke="#000000" stroke-width="1.0" stroke-linejoin="round" stroke-linecap="butt" d="m2323.9746 600.29865l223.30713 0l0 226.20471l-223.30713 0z" fill-rule="evenodd"/><path fill="#ea9999" d="m2705.0754 713.40027l0 0c0 -71.8927 57.53296 -130.17322 128.5039 -130.17322l0 0c34.0813 0 66.766846 13.7146 90.86597 38.12683c24.099121 24.412231 37.63794 57.522278 37.63794 92.04639l0 0c0 71.8927 -57.533203 130.17322 -128.5039 130.17322l0 0c-70.97095 0 -128.5039 -58.280518 -128.5039 -130.17322z" fill-rule="evenodd"/><path stroke="#000000" stroke-width="1.0" stroke-linejoin="round" stroke-linecap="butt" d="m2705.0754 713.40027l0 0c0 -71.8927 57.53296 -130.17322 128.5039 -130.17322l0 0c34.0813 0 66.766846 13.7146 90.86597 38.12683c24.099121 24.412231 37.63794 57.522278 37.63794 92.04639l0 0c0 71.8927 -57.533203 130.17322 -128.5039 130.17322l0 0c-70.97095 0 -128.5039 -58.280518 -128.5039 -130.17322z" fill-rule="evenodd"/><path fill="#ea9999" d="m2516.1255 1127.239l0 0c0 -71.8927 57.533203 -130.17328 128.5039 -130.17328l0 0c34.0813 0 66.766846 13.714661 90.86597 38.126892c24.099121 24.412231 37.63794 57.522217 37.63794 92.04639l0 0c0 71.8927 -57.533203 130.17322 -128.5039 130.17322l0 0c-70.9707 0 -128.5039 -58.280518 -128.5039 -130.17322z" fill-rule="evenodd"/><path stroke="#000000" stroke-width="1.0" stroke-linejoin="round" stroke-linecap="butt" d="m2516.1255 1127.239l0 0c0 -71.8927 57.533203 -130.17328 128.5039 -130.17328l0 0c34.0813 0 66.766846 13.714661 90.86597 38.126892c24.099121 24.412231 37.63794 57.522217 37.63794 92.04639l0 0c0 71.8927 -57.533203 130.17322 -128.5039 130.17322l0 0c-70.9707 0 -128.5039 -58.280518 -128.5039 -130.17322z" fill-rule="evenodd"/><path fill="#ea9999" d="m1300.9221 1127.2386l0 0c0 -71.8927 57.533203 -130.17328 128.5039 -130.17328l0 0c34.08142 0 66.766846 13.714661 90.86609 38.126892c24.099121 24.412231 37.63794 57.522217 37.63794 92.04639l0 0c0 71.8927 -57.533203 130.17322 -128.50403 130.17322l0 0c-70.9707 0 -128.5039 -58.280518 -128.5039 -130.17322z" fill-rule="evenodd"/><path stroke="#000000" stroke-width="1.0" stroke-linejoin="round" stroke-linecap="butt" d="m1300.9221 1127.2386l0 0c0 -71.8927 57.533203 -130.17328 128.5039 -130.17328l0 0c34.08142 0 66.766846 13.714661 90.86609 38.126892c24.099121 24.412231 37.63794 57.522217 37.63794 92.04639l0 0c0 71.8927 -57.533203 130.17322 -128.50403 130.17322l0 0c-70.9707 0 -128.5039 -58.280518 -128.5039 -130.17322z" fill-rule="evenodd"/><path fill="#ea9999" d="m1706.5521 1127.2386l0 0c0 -71.8927 57.53308 -130.17328 128.5039 -130.17328l0 0c34.0813 0 66.766846 13.714661 90.86597 38.126892c24.099121 24.412231 37.63794 57.522217 37.63794 92.04639l0 0c0 71.8927 -57.533203 130.17322 -128.5039 130.17322l0 0c-70.970825 0 -128.5039 -58.280518 -128.5039 -130.17322z" fill-rule="evenodd"/><path stroke="#000000" stroke-width="1.0" stroke-linejoin="round" stroke-linecap="butt" d="m1706.5521 1127.2386l0 0c0 -71.8927 57.53308 -130.17328 128.5039 -130.17328l0 0c34.0813 0 66.766846 13.714661 90.86597 38.126892c24.099121 24.412231 37.63794 57.522217 37.63794 92.04639l0 0c0 71.8927 -57.533203 130.17322 -128.5039 130.17322l0 0c-70.970825 0 -128.5039 -58.280518 -128.5039 -130.17322z" fill-rule="evenodd"/><path fill="#000000" d="m1798.8845 1143.7305l11.203125 -0.96875q0.796875 6.71875 3.703125 11.046875q2.90625 4.3125 9.015625 6.96875q6.125 2.65625 13.78125 2.65625q6.796875 0 11.984375 -2.015625q5.203125 -2.015625 7.734375 -5.53125q2.546875 -3.515625 2.546875 -7.6875q0 -4.21875 -2.453125 -7.359375q-2.4375 -3.15625 -8.0625 -5.296875q-3.609375 -1.421875 -15.96875 -4.375q-12.359375 -2.96875 -17.328125 -5.609375q-6.421875 -3.359375 -9.578125 -8.34375q-3.140625 -5.0 -3.140625 -11.171875q0 -6.796875 3.84375 -12.703125q3.859375 -5.90625 11.265625 -8.96875q7.40625 -3.0625 16.46875 -3.0625q9.96875 0 17.578125 3.21875q7.625 3.21875 11.71875 9.46875q4.109375 6.234375 4.421875 14.125l-11.390625 0.859375q-0.921875 -8.515625 -6.21875 -12.859375q-5.28125 -4.34375 -15.625 -4.34375q-10.765625 0 -15.703125 3.953125q-4.921875 3.9375 -4.921875 9.515625q0 4.828125 3.484375 7.953125q3.4375 3.125 17.90625 6.40625q14.46875 3.265625 19.859375 5.703125q7.828125 3.625 11.5625 9.15625q3.734375 5.53125 3.734375 12.765625q0 7.15625 -4.109375 13.5q-4.09375 6.328125 -11.78125 9.84375q-7.671875 3.515625 -17.28125 3.515625q-12.171875 0 -20.40625 -3.546875q-8.234375 -3.546875 -12.921875 -10.671875q-4.671875 -7.140625 -4.921875 -16.140625z" fill-rule="nonzero"/><path fill="#cfe2f3" d="m2112.1821 1014.1359l223.30688 0l0 226.20465l-223.30688 0z" fill-rule="evenodd"/><path stroke="#000000" stroke-width="1.0" stroke-linejoin="round" stroke-linecap="butt" d="m2112.1821 1014.1359l223.30688 0l0 226.20465l-223.30688 0z" fill-rule="evenodd"/><path fill="#cfe2f3" d="m889.245 1014.1359l223.30713 0l0 226.20465l-223.30713 0z" fill-rule="evenodd"/><path stroke="#000000" stroke-width="1.0" stroke-linejoin="round" stroke-linecap="butt" d="m889.245 1014.1359l223.30713 0l0 226.20465l-223.30713 0z" fill-rule="evenodd"/><path fill="#ea9999" d="m1076.9221 1473.4014l0 0c0 -71.8927 57.533203 -130.17322 128.5039 -130.17322l0 0c34.08142 0 66.766846 13.7146 90.86609 38.12683c24.099121 24.412231 37.63794 57.52234 37.63794 92.04639l0 0c0 71.8927 -57.533203 130.17322 -128.50403 130.17322l0 0c-70.9707 0 -128.5039 -58.280518 -128.5039 -130.17322z" fill-rule="evenodd"/><path stroke="#000000" stroke-width="1.0" stroke-linejoin="round" stroke-linecap="butt" d="m1076.9221 1473.4014l0 0c0 -71.8927 57.533203 -130.17322 128.5039 -130.17322l0 0c34.08142 0 66.766846 13.7146 90.86609 38.12683c24.099121 24.412231 37.63794 57.52234 37.63794 92.04639l0 0c0 71.8927 -57.533203 130.17322 -128.50403 130.17322l0 0c-70.9707 0 -128.5039 -58.280518 -128.5039 -130.17322z" fill-rule="evenodd"/><path fill="#000000" d="m1197.2266 1410.447q0 -4.40625 0.90625 -7.078125q0.90625 -2.6875 2.6875 -4.140625q1.78125 -1.453125 4.5 -1.453125q2.0 0 3.5 0.8125q1.5 0.796875 2.484375 2.3125q0.984375 1.515625 1.53125 3.6875q0.5625 2.171875 0.5625 5.859375q0 4.359375 -0.890625 7.046875q-0.890625 2.6875 -2.6875 4.15625q-1.78125 1.453125 -4.5 1.453125q-3.59375 0 -5.640625 -2.578125q-2.453125 -3.09375 -2.453125 -10.078125zm3.125 0q0 6.109375 1.421875 8.140625q1.4375 2.015625 3.546875 2.015625q2.09375 0 3.515625 -2.03125q1.4375 -2.03125 1.4375 -8.125q0 -6.125 -1.4375 -8.140625q-1.421875 -2.015625 -3.546875 -2.015625q-2.109375 0 -3.359375 1.78125q-1.578125 2.265625 -1.578125 8.375z" fill-rule="nonzero"/><path fill="#000000" d="m1178.631 1497.9783l3.28125 0.828125q-1.03125 4.046875 -3.71875 6.171875q-2.671875 2.125 -6.546875 2.125q-4.015625 0 -6.53125 -1.625q-2.515625 -1.640625 -3.828125 -4.734375q-1.3125 -3.09375 -1.3125 -6.65625q0 -3.875 1.484375 -6.75q1.484375 -2.890625 4.21875 -4.390625q2.734375 -1.5 6.015625 -1.5q3.71875 0 6.25 1.90625q2.546875 1.890625 3.546875 5.328125l-3.234375 0.75q-0.859375 -2.703125 -2.5 -3.9375q-1.640625 -1.234375 -4.125 -1.234375q-2.859375 0 -4.78125 1.375q-1.921875 1.359375 -2.703125 3.671875q-0.78125 2.3125 -0.78125 4.765625q0 3.171875 0.921875 5.53125q0.921875 2.359375 2.859375 3.53125q1.953125 1.15625 4.21875 1.15625q2.765625 0 4.671875 -1.578125q1.921875 -1.59375 2.59375 -4.734375zm6.80896 15.625l-0.34375 -2.859375q1.0 0.265625 1.734375 0.265625q1.015625 0 1.625 -0.34375q0.609375 -0.328125 1.0 -0.9375q0.296875 -0.453125 0.9375 -2.265625q0.078125 -0.25 0.265625 -0.75l-6.8125 -18.0l3.28125 0l3.734375 10.40625q0.734375 1.984375 1.3125 4.15625q0.515625 -2.09375 1.25 -4.09375l3.84375 -10.46875l3.046875 0l-6.84375 18.265625q-1.09375 2.96875 -1.703125 4.078125q-0.8125 1.515625 -1.875 2.21875q-1.046875 0.703125 -2.5 0.703125q-0.875 0 -1.953125 -0.375zm16.234375 -12.28125l3.015625 -0.484375q0.25 1.8125 1.40625 2.78125q1.171875 0.96875 3.25 0.96875q2.09375 0 3.109375 -0.859375q1.015625 -0.859375 1.015625 -2.0q0 -1.03125 -0.890625 -1.625q-0.625 -0.40625 -3.125 -1.03125q-3.34375 -0.859375 -4.640625 -1.46875q-1.296875 -0.625 -1.96875 -1.703125q-0.65625 -1.09375 -0.65625 -2.421875q0 -1.203125 0.546875 -2.21875q0.546875 -1.03125 1.5 -1.703125q0.703125 -0.53125 1.921875 -0.890625q1.234375 -0.359375 2.640625 -0.359375q2.125 0 3.71875 0.609375q1.59375 0.609375 2.359375 1.65625q0.765625 1.03125 1.046875 2.78125l-2.96875 0.40625q-0.203125 -1.390625 -1.1875 -2.171875q-0.96875 -0.78125 -2.75 -0.78125q-2.09375 0 -3.0 0.703125q-0.890625 0.6875 -0.890625 1.625q0 0.578125 0.375 1.0625q0.375 0.484375 1.171875 0.8125q0.453125 0.171875 2.6875 0.78125q3.234375 0.859375 4.5 1.40625q1.28125 0.546875 2.0 1.59375q0.734375 1.046875 0.734375 2.609375q0 1.53125 -0.890625 2.875q-0.875 1.34375 -2.5625 2.078125q-1.671875 0.734375 -3.78125 0.734375q-3.5 0 -5.34375 -1.453125q-1.828125 -1.453125 -2.34375 -4.3125zm25.203125 2.640625l0.4375 2.6875q-1.28125 0.265625 -2.296875 0.265625q-1.65625 0 -2.578125 -0.515625q-0.90625 -0.53125 -1.28125 -1.375q-0.375 -0.859375 -0.375 -3.609375l0 -10.34375l-2.234375 0l0 -2.359375l2.234375 0l0 -4.453125l3.03125 -1.828125l0 6.28125l3.0625 0l0 2.359375l-3.0625 0l0 10.515625q0 1.296875 0.15625 1.671875q0.15625 0.375 0.515625 0.59375q0.375 0.21875 1.046875 0.21875q0.515625 0 1.34375 -0.109375zm2.987915 -18.59375l0 -3.5l3.046875 0l0 3.5l-3.046875 0zm0 21.3125l0 -17.96875l3.046875 0l0 17.96875l-3.046875 0zm19.418335 -6.578125l2.984375 0.390625q-0.484375 3.09375 -2.515625 4.84375q-2.015625 1.75 -4.953125 1.75q-3.6875 0 -5.9375 -2.40625q-2.234375 -2.421875 -2.234375 -6.921875q0 -2.90625 0.953125 -5.078125q0.96875 -2.1875 2.9375 -3.28125q1.96875 -1.09375 4.296875 -1.09375q2.921875 0 4.78125 1.484375q1.859375 1.46875 2.390625 4.203125l-2.96875 0.453125q-0.421875 -1.8125 -1.5 -2.71875q-1.0625 -0.921875 -2.59375 -0.921875q-2.296875 0 -3.734375 1.65625q-1.4375 1.640625 -1.4375 5.21875q0 3.625 1.390625 5.265625q1.390625 1.640625 3.625 1.640625q1.78125 0 2.984375 -1.09375q1.203125 -1.109375 1.53125 -3.390625z" fill-rule="nonzero"/><path fill="#000000" d="m1147.6129 1548.6814l0 -24.8125l16.734375 0l0 2.9375l-13.453125 0l0 7.671875l11.640625 0l0 2.9375l-11.640625 0l0 11.265625l-3.28125 0zm20.622559 -21.3125l0 -3.5l3.046875 0l0 3.5l-3.046875 0zm0 21.3125l0 -17.96875l3.046875 0l0 17.96875l-3.046875 0zm10.496338 0l-2.828125 0l0 -24.8125l3.046875 0l0 8.859375q1.9375 -2.421875 4.921875 -2.421875q1.65625 0 3.140625 0.671875q1.484375 0.65625 2.4375 1.875q0.953125 1.203125 1.5 2.921875q0.546875 1.703125 0.546875 3.65625q0 4.609375 -2.296875 7.140625q-2.28125 2.515625 -5.484375 2.515625q-3.171875 0 -4.984375 -2.65625l0 2.25zm-0.03125 -9.125q0 3.234375 0.875 4.671875q1.4375 2.359375 3.890625 2.359375q2.0 0 3.453125 -1.734375q1.453125 -1.734375 1.453125 -5.171875q0 -3.515625 -1.390625 -5.1875q-1.390625 -1.6875 -3.375 -1.6875q-2.0 0 -3.453125 1.734375q-1.453125 1.734375 -1.453125 5.015625zm16.46167 9.125l0 -17.96875l2.734375 0l0 2.71875q1.0625 -1.90625 1.9375 -2.515625q0.890625 -0.609375 1.96875 -0.609375q1.53125 0 3.125 0.984375l-1.046875 2.828125q-1.125 -0.671875 -2.234375 -0.671875q-1.0 0 -1.796875 0.609375q-0.796875 0.59375 -1.140625 1.65625q-0.5 1.625 -0.5 3.5625l0 9.40625l-3.046875 0zm10.447144 -8.984375q0 -5.0 2.765625 -7.390625q2.328125 -2.0 5.65625 -2.0q3.703125 0 6.046875 2.4375q2.359375 2.421875 2.359375 6.703125q0 3.46875 -1.046875 5.453125q-1.03125 1.984375 -3.015625 3.09375q-1.984375 1.09375 -4.34375 1.09375q-3.78125 0 -6.109375 -2.421875q-2.3125 -2.421875 -2.3125 -6.96875zm3.125 0q0 3.453125 1.5 5.171875q1.515625 1.71875 3.796875 1.71875q2.265625 0 3.765625 -1.71875q1.515625 -1.734375 1.515625 -5.28125q0 -3.328125 -1.515625 -5.046875q-1.515625 -1.71875 -3.765625 -1.71875q-2.28125 0 -3.796875 1.71875q-1.5 1.703125 -1.5 5.15625zm16.055298 3.625l3.015625 -0.484375q0.25 1.8125 1.40625 2.78125q1.171875 0.96875 3.25 0.96875q2.09375 0 3.109375 -0.859375q1.015625 -0.859375 1.015625 -2.0q0 -1.03125 -0.890625 -1.625q-0.625 -0.40625 -3.125 -1.03125q-3.34375 -0.859375 -4.640625 -1.46875q-1.296875 -0.625 -1.96875 -1.703125q-0.65625 -1.09375 -0.65625 -2.421875q0 -1.203125 0.546875 -2.21875q0.546875 -1.03125 1.5 -1.703125q0.703125 -0.53125 1.921875 -0.890625q1.234375 -0.359375 2.640625 -0.359375q2.125 0 3.71875 0.609375q1.59375 0.609375 2.359375 1.65625q0.765625 1.03125 1.046875 2.78125l-2.96875 0.40625q-0.203125 -1.390625 -1.1875 -2.171875q-0.96875 -0.78125 -2.75 -0.78125q-2.09375 0 -3.0 0.703125q-0.890625 0.6875 -0.890625 1.625q0 0.578125 0.375 1.0625q0.375 0.484375 1.171875 0.8125q0.453125 0.171875 2.6875 0.78125q3.234375 0.859375 4.5 1.40625q1.28125 0.546875 2.0 1.59375q0.734375 1.046875 0.734375 2.609375q0 1.53125 -0.890625 2.875q-0.875 1.34375 -2.5625 2.078125q-1.671875 0.734375 -3.78125 0.734375q-3.5 0 -5.34375 -1.453125q-1.828125 -1.453125 -2.34375 -4.3125zm18.5625 -15.953125l0 -3.5l3.046875 0l0 3.5l-3.046875 0zm0 21.3125l0 -17.96875l3.046875 0l0 17.96875l-3.046875 0zm6.46521 -5.359375l3.015625 -0.484375q0.25 1.8125 1.40625 2.78125q1.171875 0.96875 3.25 0.96875q2.09375 0 3.109375 -0.859375q1.015625 -0.859375 1.015625 -2.0q0 -1.03125 -0.890625 -1.625q-0.625 -0.40625 -3.125 -1.03125q-3.34375 -0.859375 -4.640625 -1.46875q-1.296875 -0.625 -1.96875 -1.703125q-0.65625 -1.09375 -0.65625 -2.421875q0 -1.203125 0.546875 -2.21875q0.546875 -1.03125 1.5 -1.703125q0.703125 -0.53125 1.921875 -0.890625q1.234375 -0.359375 2.640625 -0.359375q2.125 0 3.71875 0.609375q1.59375 0.609375 2.359375 1.65625q0.765625 1.03125 1.046875 2.78125l-2.96875 0.40625q-0.203125 -1.390625 -1.1875 -2.171875q-0.96875 -0.78125 -2.75 -0.78125q-2.09375 0 -3.0 0.703125q-0.890625 0.6875 -0.890625 1.625q0 0.578125 0.375 1.0625q0.375 0.484375 1.171875 0.8125q0.453125 0.171875 2.6875 0.78125q3.234375 0.859375 4.5 1.40625q1.28125 0.546875 2.0 1.59375q0.734375 1.046875 0.734375 2.609375q0 1.53125 -0.890625 2.875q-0.875 1.34375 -2.5625 2.078125q-1.671875 0.734375 -3.78125 0.734375q-3.5 0 -5.34375 -1.453125q-1.828125 -1.453125 -2.34375 -4.3125z" fill-rule="nonzero"/><path fill="#ea9999" d="m1914.5521 1473.4014l0 0c0 -71.8927 57.53308 -130.17322 128.5039 -130.17322l0 0c34.08142 0 66.76672 13.7146 90.86609 38.12683c24.099121 24.412231 37.63794 57.52234 37.63794 92.04639l0 0c0 71.8927 -57.533203 130.17322 -128.50403 130.17322l0 0c-70.970825 0 -128.5039 -58.280518 -128.5039 -130.17322z" fill-rule="evenodd"/><path stroke="#000000" stroke-width="1.0" stroke-linejoin="round" stroke-linecap="butt" d="m1914.5521 1473.4014l0 0c0 -71.8927 57.53308 -130.17322 128.5039 -130.17322l0 0c34.08142 0 66.76672 13.7146 90.86609 38.12683c24.099121 24.412231 37.63794 57.52234 37.63794 92.04639l0 0c0 71.8927 -57.533203 130.17322 -128.50403 130.17322l0 0c-70.970825 0 -128.5039 -58.280518 -128.5039 -130.17322z" fill-rule="evenodd"/><path fill="#000000" fill-opacity="0.0" d="m807.63965 281.38977l147.81097 0" fill-rule="evenodd"/><path stroke="#000000" stroke-width="1.0" stroke-linejoin="round" stroke-linecap="butt" d="m807.63965 281.38977l147.81097 0" fill-rule="evenodd"/><path fill="#000000" fill-opacity="0.0" d="m2154.7131 281.38977l152.40942 0" fill-rule="evenodd"/><path stroke="#000000" stroke-width="1.0" stroke-linejoin="round" stroke-linecap="butt" d="m2154.7131 281.38977l152.40942 0" fill-rule="evenodd"/><path fill="#000000" fill-opacity="0.0" d="m1517.9221 713.401l413.48035 0" fill-rule="evenodd"/><path stroke="#000000" stroke-width="1.0" stroke-linejoin="round" stroke-linecap="butt" d="m1517.9221 713.401l413.48035 0" fill-rule="evenodd"/><path fill="#000000" fill-opacity="0.0" d="m2705.0754 713.40027l-157.79541 0" fill-rule="evenodd"/><path stroke="#000000" stroke-width="1.0" stroke-linejoin="round" stroke-linecap="butt" d="m2705.0754 713.40027l-157.79541 0" fill-rule="evenodd"/><path fill="#000000" fill-opacity="0.0" d="m2112.1821 1127.2383l-148.63 0" fill-rule="evenodd"/><path stroke="#000000" stroke-width="1.0" stroke-linejoin="round" stroke-linecap="butt" d="m2112.1821 1127.2383l-148.63 0" fill-rule="evenodd"/><path fill="#000000" fill-opacity="0.0" d="m1112.5521 1127.2383l188.37793 0" fill-rule="evenodd"/><path stroke="#000000" stroke-width="1.0" stroke-linejoin="round" stroke-linecap="butt" d="m1112.5521 1127.2383l188.37793 0" fill-rule="evenodd"/><path fill="#000000" fill-opacity="0.0" d="m240.69029 600.2998l0 -104.29974l1148.7244 0l0 87.22888" fill-rule="evenodd"/><path stroke="#000000" stroke-width="1.0" stroke-linejoin="round" stroke-linecap="butt" d="m240.69029 600.2998l0 -104.29974l1148.7244 0l0 87.22888" fill-rule="evenodd"/><path fill="#000000" fill-opacity="0.0" d="m1000.8985 583.2281l0 -87.22809l-388.5354 0l0 87.29114" fill-rule="evenodd"/><path stroke="#000000" stroke-width="1.0" stroke-linejoin="round" stroke-linecap="butt" d="m1000.8985 583.2281l0 -87.22809l-388.5354 0l0 87.29114" fill-rule="evenodd"/><path fill="#000000" fill-opacity="0.0" d="m1205.426 1343.2281l0 -216.0l95.49609 0" fill-rule="evenodd"/><path stroke="#000000" stroke-width="1.0" stroke-linejoin="round" stroke-linecap="butt" d="m1205.426 1343.2281l0 -216.0l95.49609 0" fill-rule="evenodd"/><path fill="#000000" fill-opacity="0.0" d="m2043.056 1343.2281l0 -216.0l69.13391 0" fill-rule="evenodd"/><path stroke="#000000" stroke-width="1.0" stroke-linejoin="round" stroke-linecap="butt" d="m2043.056 1343.2281l0 -216.0l69.13391 0" fill-rule="evenodd"/><path fill="#000000" fill-opacity="0.0" d="m2043.056 600.29865l0 -88.298645l392.56702 0l0 88.36163" fill-rule="evenodd"/><path stroke="#000000" stroke-width="1.0" stroke-linejoin="round" stroke-linecap="butt" d="m2043.056 600.29865l0 -88.298645l392.56702 0l0 88.36163" fill-rule="evenodd"/><path fill="#000000" fill-opacity="0.0" d="m2236.0 284.0l0 228.0" fill-rule="evenodd"/><path stroke="#000000" stroke-width="1.0" stroke-linejoin="round" stroke-linecap="butt" d="m2236.0 284.0l0 228.0" fill-rule="evenodd"/><path fill="#000000" fill-opacity="0.0" d="m1429.426 997.06537l0 -89.06537l405.63782 0l0 89.12836" fill-rule="evenodd"/><path stroke="#000000" stroke-width="1.0" stroke-linejoin="round" stroke-linecap="butt" d="m1429.426 997.06537l0 -89.06537l405.63782 0l0 89.12836" fill-rule="evenodd"/><path fill="#000000" fill-opacity="0.0" d="m1656.0 908.0l0 -192.0" fill-rule="evenodd"/><path stroke="#000000" stroke-width="1.0" stroke-linejoin="round" stroke-linecap="butt" d="m1656.0 908.0l0 -192.0" fill-rule="evenodd"/><path fill="#000000" fill-opacity="0.0" d="m2644.6294 997.06573l0 -285.07086" fill-rule="evenodd"/><path stroke="#000000" stroke-width="1.0" stroke-linejoin="round" stroke-linecap="butt" d="m2644.6294 997.06573l0 -285.07086" fill-rule="evenodd"/><path fill="#000000" fill-opacity="0.0" d="m876.0 284.0l0 208.0" fill-rule="evenodd"/><path stroke="#000000" stroke-width="1.0" stroke-linejoin="round" stroke-linecap="butt" d="m876.0 284.0l0 208.0" fill-rule="evenodd"/></g></svg>