<svg version="1.1" viewBox="0.0 0.0 2510.9291338582675 1146.8608923884515" fill="none" stroke="none" stroke-linecap="square" stroke-miterlimit="10" xmlns:xlink="http://www.w3.org/1999/xlink" xmlns="http://www.w3.org/2000/svg"><clipPath id="p.0"><path d="m0 0l2510.9292 0l0 1146.8608l-2510.9292 0l0 -1146.8608z" clip-rule="nonzero"/></clipPath><g clip-path="url(#p.0)"><path fill="#000000" fill-opacity="0.0" d="m0 0l2510.9292 0l0 1146.8608l-2510.9292 0z" fill-rule="evenodd"/><path fill="#cfe2f3" d="m521.03674 130.46516l223.30707 0l0 226.20473l-223.30707 0z" fill-rule="evenodd"/><path stroke="#000000" stroke-width="1.0" stroke-linejoin="round" stroke-linecap="butt" d="m521.03674 130.46516l223.30707 0l0 226.20473l-223.30707 0z" fill-rule="evenodd"/><path fill="#ea9999" d="m967.6224 243.55511l0 0c0 -71.892685 57.533142 -130.17322 128.50397 -130.17322l0 0c34.0813 0 66.766846 13.714638 90.86597 38.126854c24.099243 24.412216 37.63794 57.522293 37.63794 92.04637l0 0c0 71.8927 -57.533203 130.17322 -128.5039 130.17322l0 0c-70.970825 0 -128.50397 -58.280518 -128.50397 -130.17322z" fill-rule="evenodd"/><path stroke="#000000" stroke-width="1.0" stroke-linejoin="round" stroke-linecap="butt" d="m967.6224 243.55511l0 0c0 -71.892685 57.533142 -130.17322 128.50397 -130.17322l0 0c34.0813 0 66.766846 13.714638 90.86597 38.126854c24.099243 24.412216 37.63794 57.522293 37.63794 92.04637l0 0c0 71.8927 -57.533203 130.17322 -128.5039 130.17322l0 0c-70.970825 0 -128.50397 -58.280518 -128.50397 -130.17322z" fill-rule="evenodd"/><path fill="#000000" d="m1078.9814 198.30511l3.0625 -0.265625q0.34375 2.25 1.59375 3.390625q1.25 1.125 3.0 1.125q2.109375 0 3.578125 -1.59375q1.46875 -1.59375 1.46875 -4.234375q0 -2.5 -1.40625 -3.953125q-1.40625 -1.453125 -3.6875 -1.453125q-1.421875 0 -2.5625 0.65625q-1.125 0.640625 -1.78125 1.65625l-2.75 -0.359375l2.3125 -12.25l11.859375 0l0 2.796875l-9.515625 0l-1.296875 6.40625q2.15625 -1.484375 4.515625 -1.484375q3.125 0 5.265625 2.171875q2.15625 2.15625 2.15625 5.546875q0 3.25 -1.890625 5.609375q-2.296875 2.890625 -6.265625 2.890625q-3.25 0 -5.3125 -1.8125q-2.0625 -1.828125 -2.34375 -4.84375zm29.566772 6.25l-2.9375 0l0 -18.671875q-1.0625 1.015625 -2.78125 2.03125q-1.703125 1.0 -3.078125 1.5l0 -2.828125q2.46875 -1.15625 4.296875 -2.796875q1.84375 -1.640625 2.609375 -3.1875l1.890625 0l0 23.953125z" fill-rule="nonzero"/><path fill="#000000" d="m1073.7335 275.19574l0 -2.796875l10.109375 -0.015625l0 8.859375q-2.328125 1.84375 -4.8125 2.78125q-2.46875 0.9375 -5.0625 0.9375q-3.515625 0 -6.390625 -1.5q-2.875 -1.515625 -4.34375 -4.359375q-1.453125 -2.84375 -1.453125 -6.359375q0 -3.484375 1.453125 -6.5q1.453125 -3.015625 4.1875 -4.484375q2.734375 -1.46875 6.296875 -1.46875q2.59375 0 4.671875 0.84375q2.09375 0.828125 3.28125 2.328125q1.1875 1.5 1.8125 3.90625l-2.84375 0.78125q-0.546875 -1.8125 -1.34375 -2.859375q-0.796875 -1.046875 -2.28125 -1.671875q-1.46875 -0.625 -3.28125 -0.625q-2.15625 0 -3.75 0.65625q-1.578125 0.65625 -2.546875 1.734375q-0.953125 1.078125 -1.5 2.359375q-0.90625 2.21875 -0.90625 4.796875q0 3.203125 1.09375 5.34375q1.09375 2.140625 3.1875 3.1875q2.109375 1.046875 4.46875 1.046875q2.046875 0 4.0 -0.78125q1.953125 -0.796875 2.96875 -1.703125l0 -4.4375l-7.015625 0zm13.298706 0.71875q0 -4.796875 2.671875 -7.109375q2.21875 -1.921875 5.421875 -1.921875q3.578125 0 5.828125 2.34375q2.265625 2.328125 2.265625 6.4375q0 3.34375 -1.0 5.265625q-1.0 1.90625 -2.921875 2.96875q-1.90625 1.046875 -4.171875 1.046875q-3.625 0 -5.859375 -2.328125q-2.234375 -2.328125 -2.234375 -6.703125zm3.015625 0q0 3.3125 1.4375 4.96875q1.453125 1.65625 3.640625 1.65625q2.1875 0 3.625 -1.65625q1.453125 -1.671875 1.453125 -5.0625q0 -3.203125 -1.453125 -4.859375q-1.453125 -1.65625 -3.625 -1.65625q-2.1875 0 -3.640625 1.640625q-1.4375 1.640625 -1.4375 4.96875zm27.926147 8.640625l0 -2.53125q-2.015625 2.921875 -5.46875 2.921875q-1.53125 0 -2.859375 -0.578125q-1.328125 -0.59375 -1.96875 -1.484375q-0.640625 -0.890625 -0.90625 -2.171875q-0.1875 -0.859375 -0.1875 -2.734375l0 -10.703125l2.9375 0l0 9.578125q0 2.296875 0.171875 3.09375q0.28125 1.15625 1.171875 1.828125q0.90625 0.65625 2.21875 0.65625q1.3125 0 2.46875 -0.671875q1.15625 -0.6875 1.640625 -1.84375q0.484375 -1.171875 0.484375 -3.375l0 -9.265625l2.921875 0l0 17.28125l-2.625 0zm13.613647 -2.625l0.421875 2.59375q-1.234375 0.265625 -2.21875 0.265625q-1.59375 0 -2.46875 -0.5q-0.875 -0.515625 -1.234375 -1.328125q-0.359375 -0.828125 -0.359375 -3.46875l0 -9.9375l-2.15625 0l0 -2.28125l2.15625 0l0 -4.28125l2.90625 -1.75l0 6.03125l2.953125 0l0 2.28125l-2.953125 0l0 10.109375q0 1.25 0.15625 1.609375q0.15625 0.359375 0.5 0.578125q0.359375 0.203125 1.015625 0.203125q0.484375 0 1.28125 -0.125z" fill-rule="nonzero"/><path fill="#000000" fill-opacity="0.0" d="m967.6224 243.55511l-223.27557 0" fill-rule="evenodd"/><path stroke="#000000" stroke-width="1.0" stroke-linejoin="round" stroke-linecap="butt" d="m967.6224 243.55511l-223.27557 0" fill-rule="evenodd"/><path fill="#cfe2f3" d="m1769.9254 507.97675l223.307 0l0 226.20471l-223.307 0z" fill-rule="evenodd"/><path stroke="#000000" stroke-width="1.0" stroke-linejoin="round" stroke-linecap="butt" d="m1769.9254 507.97675l223.307 0l0 226.20471l-223.307 0z" fill-rule="evenodd"/><path fill="#000000" fill-opacity="0.0" d="m967.6224 243.55511l-111.811035 0l0 187.46457" fill-rule="evenodd"/><path stroke="#000000" stroke-width="1.0" stroke-linejoin="round" stroke-linecap="butt" d="m967.6224 243.55511l-111.811035 0l0 187.46457" fill-rule="evenodd"/><path fill="#ea9999" d="m1753.0753 243.55511l0 0c0 -71.892685 57.533203 -130.17322 128.5039 -130.17322l0 0c34.08142 0 66.766846 13.714638 90.86609 38.126854c24.099121 24.412216 37.63794 57.522293 37.63794 92.04637l0 0c0 71.8927 -57.533203 130.17322 -128.50403 130.17322l0 0c-70.9707 0 -128.5039 -58.280518 -128.5039 -130.17322z" fill-rule="evenodd"/><path stroke="#000000" stroke-width="1.0" stroke-linejoin="round" stroke-linecap="butt" d="m1753.0753 243.55511l0 0c0 -71.892685 57.533203 -130.17322 128.5039 -130.17322l0 0c34.08142 0 66.766846 13.714638 90.86609 38.126854c24.099121 24.412216 37.63794 57.522293 37.63794 92.04637l0 0c0 71.8927 -57.533203 130.17322 -128.50403 130.17322l0 0c-70.9707 0 -128.5039 -58.280518 -128.5039 -130.17322z" fill-rule="evenodd"/><path fill="#000000" fill-opacity="0.0" d="m1753.0753 243.55511l-179.05505 0" fill-rule="evenodd"/><path stroke="#000000" stroke-width="1.0" stroke-linejoin="round" stroke-linecap="butt" d="m1753.0753 243.55511l-179.05505 0" fill-rule="evenodd"/><path fill="#000000" fill-opacity="0.0" d="m1753.0753 243.55511l-84.91333 0l0 180.94489" fill-rule="evenodd"/><path stroke="#000000" stroke-width="1.0" stroke-linejoin="round" stroke-linecap="butt" d="m1753.0753 243.55511l-84.91333 0l0 180.94489" fill-rule="evenodd"/><path fill="#ea9999" d="m553.49554 621.07886l0 0c0 -71.89264 57.533203 -130.17322 128.50397 -130.17322l0 0c34.08136 0 66.766846 13.714661 90.86597 38.126892c24.099182 24.41217 37.63794 57.522278 37.63794 92.046326l0 0c0 71.8927 -57.533142 130.17322 -128.5039 130.17322l0 0c-70.970764 0 -128.50397 -58.280518 -128.50397 -130.17322z" fill-rule="evenodd"/><path stroke="#000000" stroke-width="1.0" stroke-linejoin="round" stroke-linecap="butt" d="m553.49554 621.07886l0 0c0 -71.89264 57.533203 -130.17322 128.50397 -130.17322l0 0c34.08136 0 66.766846 13.714661 90.86597 38.126892c24.099182 24.41217 37.63794 57.522278 37.63794 92.046326l0 0c0 71.8927 -57.533142 130.17322 -128.5039 130.17322l0 0c-70.970764 0 -128.50397 -58.280518 -128.50397 -130.17322z" fill-rule="evenodd"/><path fill="#000000" d="m667.5991 591.662l2.46875 -0.328125q0.421875 2.09375 1.4375 3.015625q1.015625 0.921875 2.484375 0.921875q1.734375 0 2.921875 -1.203125q1.203125 -1.203125 1.203125 -2.96875q0 -1.703125 -1.109375 -2.796875q-1.109375 -1.109375 -2.8125 -1.109375q-0.703125 0 -1.734375 0.28125l0.265625 -2.171875q0.25 0.03125 0.40625 0.03125q1.5625 0 2.8125 -0.8125q1.265625 -0.828125 1.265625 -2.53125q0 -1.359375 -0.921875 -2.25q-0.90625 -0.890625 -2.359375 -0.890625q-1.421875 0 -2.390625 0.90625q-0.953125 0.90625 -1.21875 2.703125l-2.46875 -0.4375q0.453125 -2.46875 2.046875 -3.828125q1.609375 -1.359375 3.984375 -1.359375q1.640625 0 3.015625 0.703125q1.390625 0.703125 2.109375 1.921875q0.734375 1.21875 0.734375 2.578125q0 1.296875 -0.703125 2.375q-0.6875 1.0625 -2.046875 1.6875q1.765625 0.40625 2.75 1.703125q0.984375 1.296875 0.984375 3.234375q0 2.625 -1.921875 4.453125q-1.90625 1.828125 -4.828125 1.828125q-2.640625 0 -4.390625 -1.578125q-1.734375 -1.578125 -1.984375 -4.078125zm28.49414 2.9375l0 2.359375l-13.25 0q-0.015625 -0.890625 0.296875 -1.703125q0.5 -1.359375 1.609375 -2.671875q1.125 -1.3125 3.21875 -3.03125q3.28125 -2.6875 4.421875 -4.25q1.15625 -1.5625 1.15625 -2.953125q0 -1.46875 -1.046875 -2.46875q-1.046875 -1.015625 -2.734375 -1.015625q-1.78125 0 -2.84375 1.078125q-1.0625 1.0625 -1.078125 2.953125l-2.53125 -0.265625q0.265625 -2.828125 1.953125 -4.3125q1.703125 -1.484375 4.5625 -1.484375q2.875 0 4.546875 1.609375q1.6875 1.59375 1.6875 3.953125q0 1.203125 -0.5 2.375q-0.484375 1.15625 -1.625 2.4375q-1.140625 1.28125 -3.78125 3.53125q-2.21875 1.859375 -2.859375 2.53125q-0.625 0.65625 -1.03125 1.328125l9.828125 0z" fill-rule="nonzero"/><path fill="#000000" d="m604.1587 664.95886l0 -20.046875l13.515625 0l0 2.375l-10.859375 0l0 6.203125l9.40625 0l0 2.359375l-9.40625 0l0 9.109375l-2.65625 0zm16.666016 -17.21875l0 -2.828125l2.46875 0l0 2.828125l-2.46875 0zm0 17.21875l0 -14.515625l2.46875 0l0 14.515625l-2.46875 0zm8.470703 0l-2.28125 0l0 -20.046875l2.46875 0l0 7.15625q1.5625 -1.953125 3.96875 -1.953125q1.34375 0 2.53125 0.546875q1.203125 0.53125 1.96875 1.515625q0.78125 0.96875 1.21875 2.359375q0.4375 1.375 0.4375 2.9375q0 3.734375 -1.84375 5.78125q-1.84375 2.03125 -4.421875 2.03125q-2.578125 0 -4.046875 -2.140625l0 1.8125zm-0.015625 -7.375q0 2.609375 0.703125 3.78125q1.171875 1.890625 3.140625 1.890625q1.625 0 2.796875 -1.390625q1.171875 -1.40625 1.171875 -4.1875q0 -2.84375 -1.125 -4.1875q-1.125 -1.359375 -2.734375 -1.359375q-1.609375 0 -2.78125 1.40625q-1.171875 1.40625 -1.171875 4.046875zm13.291016 7.375l0 -14.515625l2.21875 0l0 2.203125q0.84375 -1.546875 1.5625 -2.03125q0.71875 -0.5 1.578125 -0.5q1.25 0 2.53125 0.78125l-0.84375 2.296875q-0.90625 -0.546875 -1.796875 -0.546875q-0.8125 0 -1.453125 0.5q-0.640625 0.484375 -0.921875 1.34375q-0.40625 1.3125 -0.40625 2.859375l0 7.609375l-2.46875 0zm8.449219 -7.265625q0 -4.03125 2.234375 -5.96875q1.875 -1.609375 4.5625 -1.609375q3.0 0 4.890625 1.96875q1.90625 1.953125 1.90625 5.40625q0 2.8125 -0.84375 4.421875q-0.828125 1.59375 -2.4375 2.484375q-1.609375 0.890625 -3.515625 0.890625q-3.046875 0 -4.921875 -1.953125q-1.875 -1.953125 -1.875 -5.640625zm2.515625 0q0 2.796875 1.21875 4.1875q1.21875 1.375 3.0625 1.375q1.84375 0 3.046875 -1.390625q1.21875 -1.390625 1.21875 -4.25q0 -2.6875 -1.21875 -4.078125q-1.21875 -1.390625 -3.046875 -1.390625q-1.84375 0 -3.0625 1.390625q-1.21875 1.375 -1.21875 4.15625zm13.962891 7.265625l0 -14.515625l2.203125 0l0 2.03125q0.6875 -1.0625 1.8125 -1.703125q1.140625 -0.65625 2.59375 -0.65625q1.609375 0 2.640625 0.671875q1.03125 0.65625 1.453125 1.859375q1.734375 -2.53125 4.484375 -2.53125q2.171875 0 3.328125 1.203125q1.15625 1.1875 1.15625 3.671875l0 9.96875l-2.4375 0l0 -9.140625q0 -1.484375 -0.25 -2.125q-0.234375 -0.65625 -0.859375 -1.046875q-0.625 -0.40625 -1.484375 -0.40625q-1.53125 0 -2.546875 1.03125q-1.0 1.015625 -1.0 3.25l0 8.4375l-2.46875 0l0 -9.4375q0 -1.640625 -0.609375 -2.453125q-0.59375 -0.828125 -1.953125 -0.828125q-1.046875 0 -1.9375 0.546875q-0.875 0.546875 -1.265625 1.609375q-0.390625 1.046875 -0.390625 3.03125l0 7.53125l-2.46875 0zm23.214844 5.59375l-0.265625 -2.3125q0.796875 0.21875 1.40625 0.21875q0.8125 0 1.296875 -0.28125q0.5 -0.265625 0.8125 -0.75q0.234375 -0.375 0.765625 -1.84375q0.0625 -0.203125 0.21875 -0.59375l-5.515625 -14.546875l2.65625 0l3.015625 8.40625q0.59375 1.59375 1.046875 3.359375q0.4375 -1.6875 1.015625 -3.3125l3.109375 -8.453125l2.453125 0l-5.515625 14.765625q-0.890625 2.390625 -1.390625 3.296875q-0.65625 1.21875 -1.5 1.78125q-0.84375 0.5625 -2.015625 0.5625q-0.71875 0 -1.59375 -0.296875zm23.59375 -7.390625q-1.375 1.171875 -2.640625 1.65625q-1.265625 0.46875 -2.71875 0.46875q-2.390625 0 -3.671875 -1.171875q-1.28125 -1.171875 -1.28125 -2.984375q0 -1.0625 0.484375 -1.9375q0.484375 -0.890625 1.265625 -1.421875q0.796875 -0.53125 1.78125 -0.8125q0.71875 -0.1875 2.1875 -0.375q2.96875 -0.34375 4.375 -0.84375q0.015625 -0.5 0.015625 -0.640625q0 -1.5 -0.6875 -2.125q-0.953125 -0.828125 -2.8125 -0.828125q-1.734375 0 -2.5625 0.609375q-0.828125 0.609375 -1.21875 2.15625l-2.40625 -0.328125q0.328125 -1.546875 1.078125 -2.5q0.75 -0.953125 2.171875 -1.453125q1.421875 -0.515625 3.296875 -0.515625q1.859375 0 3.015625 0.4375q1.171875 0.4375 1.71875 1.109375q0.546875 0.65625 0.765625 1.65625q0.125 0.640625 0.125 2.28125l0 3.28125q0 3.421875 0.15625 4.34375q0.15625 0.90625 0.625 1.734375l-2.578125 0q-0.375 -0.765625 -0.484375 -1.796875zm-0.21875 -5.484375q-1.328125 0.546875 -4.015625 0.921875q-1.515625 0.21875 -2.140625 0.5q-0.625 0.265625 -0.96875 0.796875q-0.34375 0.515625 -0.34375 1.171875q0 0.984375 0.734375 1.640625q0.75 0.65625 2.1875 0.65625q1.421875 0 2.53125 -0.625q1.109375 -0.625 1.625 -1.703125q0.390625 -0.84375 0.390625 -2.46875l0 -0.890625zm6.2597656 7.28125l0 -20.046875l2.453125 0l0 20.046875l-2.453125 0zm5.814453 1.203125l2.390625 0.359375q0.15625 1.109375 0.84375 1.609375q0.90625 0.6875 2.5 0.6875q1.703125 0 2.625 -0.6875q0.9375 -0.6875 1.265625 -1.90625q0.203125 -0.765625 0.1875 -3.171875q-1.625 1.90625 -4.03125 1.90625q-2.984375 0 -4.625 -2.15625q-1.640625 -2.171875 -1.640625 -5.1875q0 -2.078125 0.75 -3.828125q0.75 -1.765625 2.171875 -2.71875q1.4375 -0.953125 3.359375 -0.953125q2.578125 0 4.25 2.078125l0 -1.75l2.265625 0l0 12.546875q0 3.390625 -0.703125 4.796875q-0.6875 1.421875 -2.1875 2.234375q-1.484375 0.828125 -3.671875 0.828125q-2.59375 0 -4.203125 -1.171875q-1.59375 -1.15625 -1.546875 -3.515625zm2.046875 -8.71875q0 2.859375 1.125 4.171875q1.140625 1.3125 2.84375 1.3125q1.703125 0 2.84375 -1.3125q1.15625 -1.3125 1.15625 -4.09375q0 -2.671875 -1.1875 -4.015625q-1.1875 -1.359375 -2.84375 -1.359375q-1.640625 0 -2.796875 1.34375q-1.140625 1.328125 -1.140625 3.953125zm13.994141 -9.703125l0 -2.828125l2.46875 0l0 2.828125l-2.46875 0zm0 17.21875l0 -14.515625l2.46875 0l0 14.515625l-2.46875 0zm15.689453 -1.796875q-1.375 1.171875 -2.640625 1.65625q-1.265625 0.46875 -2.71875 0.46875q-2.390625 0 -3.671875 -1.171875q-1.28125 -1.171875 -1.28125 -2.984375q0 -1.0625 0.484375 -1.9375q0.484375 -0.890625 1.265625 -1.421875q0.796875 -0.53125 1.78125 -0.8125q0.71875 -0.1875 2.1875 -0.375q2.96875 -0.34375 4.375 -0.84375q0.015625 -0.5 0.015625 -0.640625q0 -1.5 -0.6875 -2.125q-0.953125 -0.828125 -2.8125 -0.828125q-1.734375 0 -2.5625 0.609375q-0.828125 0.609375 -1.21875 2.15625l-2.40625 -0.328125q0.328125 -1.546875 1.078125 -2.5q0.75 -0.953125 2.171875 -1.453125q1.421875 -0.515625 3.296875 -0.515625q1.859375 0 3.015625 0.4375q1.171875 0.4375 1.71875 1.109375q0.546875 0.65625 0.765625 1.65625q0.125 0.640625 0.125 2.28125l0 3.28125q0 3.421875 0.15625 4.34375q0.15625 0.90625 0.625 1.734375l-2.578125 0q-0.375 -0.765625 -0.484375 -1.796875zm-0.21875 -5.484375q-1.328125 0.546875 -4.015625 0.921875q-1.515625 0.21875 -2.140625 0.5q-0.625 0.265625 -0.96875 0.796875q-0.34375 0.515625 -0.34375 1.171875q0 0.984375 0.734375 1.640625q0.75 0.65625 2.1875 0.65625q1.421875 0 2.53125 -0.625q1.109375 -0.625 1.625 -1.703125q0.390625 -0.84375 0.390625 -2.46875l0 -0.890625z" fill-rule="nonzero"/><path fill="#cfe2f3" d="m1318.7778 507.97842l223.307 0l0 226.20474l-223.307 0z" fill-rule="evenodd"/><path stroke="#000000" stroke-width="1.0" stroke-linejoin="round" stroke-linecap="butt" d="m1318.7778 507.97842l223.307 0l0 226.20474l-223.307 0z" fill-rule="evenodd"/><path fill="#ea9999" d="m1127.4596 911.99225l0 0c0 -71.8927 57.53308 -130.17322 128.5039 -130.17322l0 0c34.0813 0 66.766846 13.714661 90.86597 38.12683c24.099243 24.412231 37.63794 57.52234 37.63794 92.04639l0 0c0 71.8927 -57.533203 130.17328 -128.5039 130.17328l0 0c-70.970825 0 -128.5039 -58.28058 -128.5039 -130.17328z" fill-rule="evenodd"/><path stroke="#000000" stroke-width="1.0" stroke-linejoin="round" stroke-linecap="butt" d="m1127.4596 911.99225l0 0c0 -71.8927 57.53308 -130.17322 128.5039 -130.17322l0 0c34.0813 0 66.766846 13.714661 90.86597 38.12683c24.099243 24.412231 37.63794 57.52234 37.63794 92.04639l0 0c0 71.8927 -57.533203 130.17328 -128.5039 130.17328l0 0c-70.970825 0 -128.5039 -58.28058 -128.5039 -130.17328z" fill-rule="evenodd"/><path fill="#000000" d="m1250.8287 862.87225l-2.46875 0l0 -15.6875q-0.890625 0.859375 -2.328125 1.703125q-1.4375 0.84375 -2.59375 1.265625l0 -2.375q2.0625 -0.96875 3.609375 -2.34375q1.546875 -1.390625 2.1875 -2.6875l1.59375 0l0 20.125zm19.072266 -15.140625l-2.453125 0.203125q-0.328125 -1.453125 -0.921875 -2.109375q-1.0 -1.0625 -2.46875 -1.0625q-1.171875 0 -2.0625 0.65625q-1.15625 0.859375 -1.828125 2.484375q-0.671875 1.625 -0.703125 4.625q0.890625 -1.34375 2.171875 -2.0q1.28125 -0.65625 2.703125 -0.65625q2.453125 0 4.171875 1.8125q1.734375 1.8125 1.734375 4.671875q0 1.890625 -0.8125 3.515625q-0.8125 1.625 -2.234375 2.484375q-1.421875 0.859375 -3.21875 0.859375q-3.078125 0 -5.03125 -2.265625q-1.9375 -2.265625 -1.9375 -7.453125q0 -5.8125 2.15625 -8.453125q1.875 -2.296875 5.046875 -2.296875q2.359375 0 3.859375 1.328125q1.515625 1.328125 1.828125 3.65625zm-10.046875 8.640625q0 1.28125 0.53125 2.4375q0.546875 1.15625 1.515625 1.765625q0.96875 0.609375 2.03125 0.609375q1.5625 0 2.671875 -1.25q1.125 -1.265625 1.125 -3.421875q0 -2.078125 -1.109375 -3.265625q-1.09375 -1.203125 -2.78125 -1.203125q-1.671875 0 -2.828125 1.203125q-1.15625 1.1875 -1.15625 3.125z" fill-rule="nonzero"/><path fill="#000000" d="m1202.7604 890.43475l2.5 -0.21875q0.171875 1.5 0.8125 2.46875q0.65625 0.953125 2.015625 1.5625q1.375 0.59375 3.09375 0.59375q1.515625 0 2.671875 -0.453125q1.15625 -0.453125 1.71875 -1.234375q0.578125 -0.796875 0.578125 -1.71875q0 -0.953125 -0.546875 -1.65625q-0.546875 -0.703125 -1.796875 -1.171875q-0.8125 -0.328125 -3.578125 -0.984375q-2.765625 -0.65625 -3.859375 -1.25q-1.4375 -0.75 -2.140625 -1.859375q-0.703125 -1.125 -0.703125 -2.5q0 -1.515625 0.859375 -2.828125q0.859375 -1.328125 2.515625 -2.015625q1.65625 -0.6875 3.671875 -0.6875q2.234375 0 3.9375 0.71875q1.703125 0.71875 2.609375 2.125q0.921875 1.390625 0.984375 3.15625l-2.546875 0.1875q-0.203125 -1.90625 -1.390625 -2.875q-1.171875 -0.96875 -3.484375 -0.96875q-2.40625 0 -3.515625 0.890625q-1.09375 0.875 -1.09375 2.109375q0 1.09375 0.78125 1.78125q0.765625 0.703125 4.0 1.4375q3.234375 0.71875 4.4375 1.265625q1.75 0.8125 2.578125 2.046875q0.84375 1.234375 0.84375 2.859375q0 1.59375 -0.921875 3.015625q-0.921875 1.40625 -2.640625 2.203125q-1.703125 0.78125 -3.859375 0.78125q-2.71875 0 -4.5625 -0.796875q-1.828125 -0.796875 -2.875 -2.390625q-1.046875 -1.59375 -1.09375 -3.59375zm29.191406 1.765625l2.546875 0.3125q-0.59375 2.21875 -2.234375 3.453125q-1.625 1.234375 -4.15625 1.234375q-3.171875 0 -5.046875 -1.953125q-1.859375 -1.96875 -1.859375 -5.515625q0 -3.65625 1.875 -5.671875q1.890625 -2.03125 4.90625 -2.03125q2.90625 0 4.75 1.984375q1.84375 1.96875 1.84375 5.578125q0 0.21875 -0.015625 0.65625l-10.828125 0q0.140625 2.390625 1.359375 3.65625q1.21875 1.265625 3.03125 1.265625q1.359375 0 2.3125 -0.703125q0.953125 -0.71875 1.515625 -2.265625zm-8.078125 -3.984375l8.109375 0q-0.15625 -1.828125 -0.921875 -2.75q-1.1875 -1.421875 -3.0625 -1.421875q-1.6875 0 -2.84375 1.140625q-1.15625 1.125 -1.28125 3.03125zm13.728516 -8.5625l0 -2.828125l2.46875 0l0 2.828125l-2.46875 0zm0 17.21875l0 -14.515625l2.46875 0l0 14.515625l-2.46875 0zm4.908203 0l0 -2.0l9.25 -10.609375q-1.578125 0.078125 -2.78125 0.078125l-5.921875 0l0 -1.984375l11.875 0l0 1.625l-7.875 9.21875l-1.515625 1.671875q1.65625 -0.125 3.109375 -0.125l6.71875 0l0 2.125l-12.859375 0zm24.8125 0l0 -2.140625q-1.6875 2.46875 -4.609375 2.46875q-1.28125 0 -2.40625 -0.484375q-1.109375 -0.5 -1.65625 -1.234375q-0.53125 -0.75 -0.75 -1.84375q-0.140625 -0.71875 -0.140625 -2.296875l0 -8.984375l2.453125 0l0 8.046875q0 1.921875 0.15625 2.59375q0.234375 0.96875 0.984375 1.53125q0.75 0.546875 1.859375 0.546875q1.109375 0 2.078125 -0.5625q0.96875 -0.5625 1.375 -1.53125q0.40625 -0.984375 0.40625 -2.84375l0 -7.78125l2.453125 0l0 14.515625l-2.203125 0zm6.0253906 0l0 -14.515625l2.21875 0l0 2.203125q0.84375 -1.546875 1.5625 -2.03125q0.71875 -0.5 1.578125 -0.5q1.25 0 2.53125 0.78125l-0.84375 2.296875q-0.90625 -0.546875 -1.796875 -0.546875q-0.8125 0 -1.453125 0.5q-0.640625 0.484375 -0.921875 1.34375q-0.40625 1.3125 -0.40625 2.859375l0 7.609375l-2.46875 0zm19.292969 -4.671875l2.546875 0.3125q-0.59375 2.21875 -2.234375 3.453125q-1.625 1.234375 -4.15625 1.234375q-3.171875 0 -5.046875 -1.953125q-1.859375 -1.96875 -1.859375 -5.515625q0 -3.65625 1.875 -5.671875q1.890625 -2.03125 4.90625 -2.03125q2.90625 0 4.75 1.984375q1.84375 1.96875 1.84375 5.578125q0 0.21875 -0.015625 0.65625l-10.828125 0q0.140625 2.390625 1.359375 3.65625q1.21875 1.265625 3.03125 1.265625q1.359375 0 2.3125 -0.703125q0.953125 -0.71875 1.515625 -2.265625zm-8.078125 -3.984375l8.109375 0q-0.15625 -1.828125 -0.921875 -2.75q-1.1875 -1.421875 -3.0625 -1.421875q-1.6875 0 -2.84375 1.140625q-1.15625 1.125 -1.28125 3.03125zm12.728516 4.328125l2.4375 -0.390625q0.203125 1.46875 1.140625 2.25q0.9375 0.765625 2.625 0.765625q1.6875 0 2.5 -0.6875q0.828125 -0.6875 0.828125 -1.609375q0 -0.84375 -0.71875 -1.3125q-0.515625 -0.328125 -2.515625 -0.84375q-2.71875 -0.6875 -3.765625 -1.171875q-1.03125 -0.5 -1.578125 -1.375q-0.546875 -0.890625 -0.546875 -1.96875q0 -0.96875 0.4375 -1.796875q0.453125 -0.828125 1.21875 -1.375q0.578125 -0.421875 1.5625 -0.703125q1.0 -0.296875 2.140625 -0.296875q1.703125 0 2.984375 0.5q1.296875 0.484375 1.90625 1.328125q0.625 0.828125 0.859375 2.234375l-2.40625 0.328125q-0.171875 -1.109375 -0.953125 -1.734375q-0.78125 -0.640625 -2.21875 -0.640625q-1.703125 0 -2.421875 0.5625q-0.71875 0.5625 -0.71875 1.3125q0 0.484375 0.296875 0.859375q0.296875 0.40625 0.9375 0.65625q0.375 0.140625 2.171875 0.625q2.625 0.703125 3.65625 1.15625q1.03125 0.4375 1.609375 1.28125q0.59375 0.84375 0.59375 2.109375q0 1.234375 -0.71875 2.328125q-0.71875 1.078125 -2.078125 1.671875q-1.34375 0.59375 -3.0625 0.59375q-2.828125 0 -4.3125 -1.171875q-1.484375 -1.1875 -1.890625 -3.484375z" fill-rule="nonzero"/><path fill="#000000" d="m1227.4995 976.0247l8.8125 -0.765625q0.625 5.296875 2.90625 8.6875q2.296875 3.390625 7.109375 5.5q4.8125 2.09375 10.84375 2.09375q5.34375 0 9.4375 -1.59375q4.09375 -1.59375 6.09375 -4.359375q2.0 -2.765625 2.0 -6.046875q0 -3.328125 -1.9375 -5.796875q-1.921875 -2.484375 -6.34375 -4.171875q-2.84375 -1.109375 -12.578125 -3.4375q-9.734375 -2.34375 -13.625 -4.421875q-5.0625 -2.640625 -7.546875 -6.5625q-2.484375 -3.9375 -2.484375 -8.796875q0 -5.34375 3.03125 -9.984375q3.046875 -4.65625 8.875 -7.0625q5.828125 -2.421875 12.953125 -2.421875q7.859375 0 13.84375 2.53125q6.0 2.53125 9.21875 7.453125q3.234375 4.90625 3.484375 11.125l-8.96875 0.671875q-0.71875 -6.703125 -4.890625 -10.125q-4.15625 -3.421875 -12.296875 -3.421875q-8.484375 0 -12.359375 3.109375q-3.875 3.109375 -3.875 7.5q0 3.796875 2.75 6.25q2.6875 2.46875 14.078125 5.046875q11.390625 2.578125 15.640625 4.5q6.15625 2.84375 9.09375 7.203125q2.953125 4.359375 2.953125 10.046875q0 5.625 -3.234375 10.625q-3.234375 4.984375 -9.28125 7.75q-6.03125 2.765625 -13.59375 2.765625q-9.59375 0 -16.078125 -2.796875q-6.46875 -2.796875 -10.15625 -8.40625q-3.6875 -5.609375 -3.875 -12.6875z" fill-rule="nonzero"/><path fill="#000000" fill-opacity="0.0" d="m1430.4314 507.97842l0 -84.39441l446.24805 0l0 86.8826l2.161377 0" fill-rule="evenodd"/><path stroke="#000000" stroke-width="1.0" stroke-linejoin="round" stroke-linecap="butt" d="m1430.4314 507.97842l0 -84.39441l446.24805 0l0 86.8826l2.161377 0" fill-rule="evenodd"/><path fill="#000000" d="m1350.7097 130.46516l223.307 0l0 226.20473l-223.307 0z" fill-rule="evenodd"/><path stroke="#000000" stroke-width="1.0" stroke-linejoin="round" stroke-linecap="butt" d="m1350.7097 130.46516l223.307 0l0 226.20473l-223.307 0z" fill-rule="evenodd"/><path fill="#ffffff" d="m1445.2339 209.27065l2.921875 -0.390625q0.5 2.484375 1.71875 3.59375q1.21875 1.09375 2.953125 1.09375q2.0625 0 3.484375 -1.421875q1.421875 -1.4375 1.421875 -3.5625q0 -2.015625 -1.3125 -3.328125q-1.3125 -1.3125 -3.34375 -1.3125q-0.84375 0 -2.078125 0.328125l0.328125 -2.5625q0.296875 0.03125 0.46875 0.03125q1.875 0 3.375 -0.96875q1.5 -0.984375 1.5 -3.015625q0 -1.625 -1.09375 -2.671875q-1.09375 -1.0625 -2.8125 -1.0625q-1.71875 0 -2.859375 1.078125q-1.125 1.078125 -1.453125 3.21875l-2.9375 -0.515625q0.546875 -2.953125 2.4375 -4.5625q1.90625 -1.625 4.75 -1.625q1.953125 0 3.59375 0.84375q1.640625 0.828125 2.5 2.28125q0.875 1.453125 0.875 3.078125q0 1.546875 -0.828125 2.8125q-0.828125 1.265625 -2.453125 2.015625q2.109375 0.484375 3.28125 2.03125q1.171875 1.53125 1.171875 3.84375q0 3.125 -2.28125 5.296875q-2.265625 2.171875 -5.75 2.171875q-3.140625 0 -5.21875 -1.859375q-2.078125 -1.875 -2.359375 -4.859375zm18.707397 -14.4375l0 -2.8125l15.4375 0l0 2.28125q-2.265625 2.421875 -4.515625 6.4375q-2.234375 4.015625 -3.453125 8.265625q-0.875 3.0 -1.125 6.5625l-3.0 0q0.046875 -2.8125 1.09375 -6.796875q1.0625 -4.0 3.03125 -7.6875q1.984375 -3.703125 4.21875 -6.25l-11.6875 0z" fill-rule="nonzero"/><path fill="#ffffff" d="m1409.2086 287.89566l2.96875 -0.25q0.21875 1.78125 0.984375 2.9375q0.78125 1.140625 2.40625 1.859375q1.625 0.703125 3.65625 0.703125q1.8125 0 3.1875 -0.53125q1.390625 -0.546875 2.0625 -1.484375q0.671875 -0.9375 0.671875 -2.046875q0 -1.109375 -0.65625 -1.953125q-0.640625 -0.84375 -2.140625 -1.40625q-0.953125 -0.375 -4.25 -1.15625q-3.28125 -0.796875 -4.59375 -1.5q-1.71875 -0.890625 -2.5625 -2.21875q-0.828125 -1.328125 -0.828125 -2.96875q0 -1.8125 1.015625 -3.375q1.03125 -1.578125 3.0 -2.390625q1.96875 -0.8125 4.390625 -0.8125q2.640625 0 4.671875 0.859375q2.03125 0.84375 3.109375 2.515625q1.09375 1.65625 1.171875 3.75l-3.015625 0.234375q-0.25 -2.265625 -1.65625 -3.421875q-1.40625 -1.15625 -4.15625 -1.15625q-2.859375 0 -4.171875 1.0625q-1.3125 1.046875 -1.3125 2.515625q0 1.296875 0.921875 2.125q0.921875 0.828125 4.765625 1.703125q3.84375 0.859375 5.28125 1.515625q2.078125 0.953125 3.0625 2.4375q1.0 1.46875 1.0 3.390625q0 1.90625 -1.09375 3.59375q-1.078125 1.671875 -3.125 2.609375q-2.046875 0.9375 -4.59375 0.9375q-3.25 0 -5.4375 -0.9375q-2.1875 -0.953125 -3.4375 -2.84375q-1.234375 -1.890625 -1.296875 -4.296875zm34.24524 7.671875l0 -2.53125q-2.015625 2.921875 -5.46875 2.921875q-1.53125 0 -2.859375 -0.578125q-1.328125 -0.59375 -1.96875 -1.484375q-0.640625 -0.890625 -0.90625 -2.171875q-0.1875 -0.859375 -0.1875 -2.734375l0 -10.703125l2.9375 0l0 9.578125q0 2.296875 0.171875 3.09375q0.28125 1.15625 1.171875 1.828125q0.90625 0.65625 2.21875 0.65625q1.3125 0 2.46875 -0.671875q1.15625 -0.6875 1.640625 -1.84375q0.484375 -1.171875 0.484375 -3.375l0 -9.265625l2.921875 0l0 17.28125l-2.625 0zm7.2386475 -20.484375l0 -3.375l2.921875 0l0 3.375l-2.921875 0zm0 20.484375l0 -17.28125l2.921875 0l0 17.28125l-2.921875 0zm18.654419 -6.328125l2.890625 0.375q-0.46875 2.96875 -2.421875 4.65625q-1.9375 1.6875 -4.78125 1.6875q-3.546875 0 -5.703125 -2.3125q-2.15625 -2.328125 -2.15625 -6.65625q0 -2.796875 0.921875 -4.890625q0.9375 -2.109375 2.828125 -3.15625q1.90625 -1.046875 4.125 -1.046875q2.828125 0 4.609375 1.421875q1.796875 1.421875 2.296875 4.046875l-2.84375 0.4375q-0.40625 -1.734375 -1.453125 -2.609375q-1.03125 -0.890625 -2.484375 -0.890625q-2.21875 0 -3.609375 1.59375q-1.375 1.578125 -1.375 5.015625q0 3.484375 1.328125 5.0625q1.34375 1.578125 3.484375 1.578125q1.734375 0 2.890625 -1.0625q1.15625 -1.0625 1.453125 -3.25zm5.4140625 -14.15625l0 -3.375l2.921875 0l0 3.375l-2.921875 0zm0 20.484375l0 -17.28125l2.921875 0l0 17.28125l-2.921875 0zm18.592041 0l0 -2.1875q-1.640625 2.578125 -4.828125 2.578125q-2.0625 0 -3.796875 -1.140625q-1.734375 -1.140625 -2.6875 -3.171875q-0.953125 -2.046875 -0.953125 -4.703125q0 -2.59375 0.859375 -4.6875q0.859375 -2.109375 2.578125 -3.234375q1.734375 -1.125 3.875 -1.125q1.5625 0 2.78125 0.65625q1.21875 0.65625 1.984375 1.71875l0 -8.5625l2.90625 0l0 23.859375l-2.71875 0zm-9.25 -8.625q0 3.3125 1.390625 4.96875q1.40625 1.640625 3.3125 1.640625q1.90625 0 3.25 -1.5625q1.34375 -1.578125 1.34375 -4.796875q0 -3.546875 -1.375 -5.203125q-1.359375 -1.671875 -3.359375 -1.671875q-1.953125 0 -3.265625 1.59375q-1.296875 1.59375 -1.296875 5.03125zm28.410522 3.0625l3.015625 0.375q-0.703125 2.65625 -2.640625 4.125q-1.9375 1.453125 -4.953125 1.453125q-3.796875 0 -6.015625 -2.328125q-2.21875 -2.34375 -2.21875 -6.5625q0 -4.359375 2.25 -6.765625q2.25 -2.40625 5.828125 -2.40625q3.46875 0 5.65625 2.359375q2.203125 2.359375 2.203125 6.640625q0 0.265625 -0.015625 0.78125l-12.890625 0q0.15625 2.84375 1.609375 4.359375q1.453125 1.515625 3.609375 1.515625q1.609375 0 2.75 -0.84375q1.140625 -0.84375 1.8125 -2.703125zm-9.625 -4.734375l9.65625 0q-0.203125 -2.1875 -1.109375 -3.28125q-1.40625 -1.6875 -3.625 -1.6875q-2.015625 0 -3.390625 1.359375q-1.375 1.34375 -1.53125 3.609375z" fill-rule="nonzero"/><path fill="#ea9999" d="m936.1374 621.0811l0 0c0 -71.89264 57.533142 -130.17322 128.50397 -130.17322l0 0c34.0813 0 66.766846 13.714661 90.86597 38.126892c24.099121 24.41217 37.63794 57.522278 37.63794 92.046326l0 0c0 71.8927 -57.533203 130.17328 -128.5039 130.17328l0 0c-70.970825 0 -128.50397 -58.28058 -128.50397 -130.17328z" fill-rule="evenodd"/><path stroke="#000000" stroke-width="1.0" stroke-linejoin="round" stroke-linecap="butt" d="m936.1374 621.0811l0 0c0 -71.89264 57.533142 -130.17322 128.50397 -130.17322l0 0c34.0813 0 66.766846 13.714661 90.86597 38.126892c24.099121 24.41217 37.63794 57.522278 37.63794 92.046326l0 0c0 71.8927 -57.533203 130.17328 -128.5039 130.17328l0 0c-70.970825 0 -128.50397 -58.28058 -128.50397 -130.17328z" fill-rule="evenodd"/><path fill="#000000" fill-opacity="0.0" d="m855.7909 429.86853l208.85046 0l0 61.039368" fill-rule="evenodd"/><path stroke="#000000" stroke-width="1.0" stroke-linejoin="round" stroke-linecap="butt" d="m855.7909 429.86853l208.85046 0l0 61.039368" fill-rule="evenodd"/><path fill="#000000" fill-opacity="0.0" d="m681.9995 490.90564l0 -61.039368l173.79529 0" fill-rule="evenodd"/><path stroke="#000000" stroke-width="1.0" stroke-linejoin="round" stroke-linecap="butt" d="m681.9995 490.90564l0 -61.039368l173.79529 0" fill-rule="evenodd"/><path fill="#000000" fill-opacity="0.0" d="m1193.1453 621.0811l125.63782 0" fill-rule="evenodd"/><path stroke="#000000" stroke-width="1.0" stroke-linejoin="round" stroke-linecap="butt" d="m1193.1453 621.0811l125.63782 0" fill-rule="evenodd"/><path fill="#000000" fill-opacity="0.0" d="m1257.6328 619.07886l-1.6693115 162.74017" fill-rule="evenodd"/><path stroke="#000000" stroke-width="1.0" stroke-linejoin="round" stroke-linecap="butt" d="m1257.6328 619.07886l-1.6693115 162.74017" fill-rule="evenodd"/><path fill="#ea9999" d="m2116.1255 621.0815l0 0c0 -71.89264 57.533203 -130.17322 128.5039 -130.17322l0 0c34.0813 0 66.766846 13.714661 90.86597 38.126892c24.099121 24.41217 37.63794 57.522278 37.63794 92.046326l0 0c0 71.8927 -57.533203 130.17322 -128.5039 130.17322l0 0c-70.9707 0 -128.5039 -58.280518 -128.5039 -130.17322z" fill-rule="evenodd"/><path stroke="#000000" stroke-width="1.0" stroke-linejoin="round" stroke-linecap="butt" d="m2116.1255 621.0815l0 0c0 -71.89264 57.533203 -130.17322 128.5039 -130.17322l0 0c34.0813 0 66.766846 13.714661 90.86597 38.126892c24.099121 24.41217 37.63794 57.522278 37.63794 92.046326l0 0c0 71.8927 -57.533203 130.17322 -128.5039 130.17322l0 0c-70.9707 0 -128.5039 -58.280518 -128.5039 -130.17322z" fill-rule="evenodd"/><path fill="#cfe2f3" d="m172.4923 507.97937l223.30708 0l0 226.20471l-223.30708 0z" fill-rule="evenodd"/><path stroke="#000000" stroke-width="1.0" stroke-linejoin="round" stroke-linecap="butt" d="m172.4923 507.97937l223.30708 0l0 226.20471l-223.30708 0z" fill-rule="evenodd"/><path fill="#000000" fill-opacity="0.0" d="m553.49554 621.07886l-157.70078 0" fill-rule="evenodd"/><path stroke="#000000" stroke-width="1.0" stroke-linejoin="round" stroke-linecap="butt" d="m553.49554 621.07886l-157.70078 0" fill-rule="evenodd"/><path fill="#000000" fill-opacity="0.0" d="m1993.2324 621.0791l122.897705 0" fill-rule="evenodd"/><path stroke="#000000" stroke-width="1.0" stroke-linejoin="round" stroke-linecap="butt" d="m1993.2324 621.0791l122.897705 0" fill-rule="evenodd"/></g></svg>