<svg version="1.1" viewBox="0.0 0.0 2392.1732283464567 1389.0971128608924" fill="none" stroke="none" stroke-linecap="square" stroke-miterlimit="10" xmlns:xlink="http://www.w3.org/1999/xlink" xmlns="http://www.w3.org/2000/svg"><clipPath id="p.0"><path d="m0 0l2392.1733 0l0 1389.0972l-2392.1733 0l0 -1389.0972z" clip-rule="nonzero"/></clipPath><g clip-path="url(#p.0)"><path fill="#000000" fill-opacity="0.0" d="m0 0l2392.1733 0l0 1389.0972l-2392.1733 0z" fill-rule="evenodd"/><path fill="#000000" d="m806.272 290.07742l0 0c0 -71.892685 57.533203 -130.17322 128.50397 -130.17322l0 0c34.08136 0 66.766846 13.71463 90.86603 38.126846c24.099121 24.412216 37.63794 57.522293 37.63794 92.04637l0 0c0 71.8927 -57.533203 130.17325 -128.50397 130.17325l0 0c-70.970764 0 -128.50397 -58.28055 -128.50397 -130.17325z" fill-rule="evenodd"/><path stroke="#000000" stroke-width="1.0" stroke-linejoin="round" stroke-linecap="butt" d="m806.272 290.07742l0 0c0 -71.892685 57.533203 -130.17322 128.50397 -130.17322l0 0c34.08136 0 66.766846 13.71463 90.86603 38.126846c24.099121 24.412216 37.63794 57.522293 37.63794 92.04637l0 0c0 71.8927 -57.533203 130.17325 -128.50397 130.17325l0 0c-70.970764 0 -128.50397 -58.28055 -128.50397 -130.17325z" fill-rule="evenodd"/><path fill="#ffffff" d="m932.6607 240.6843l-3.140625 0.234375q-0.421875 -1.859375 -1.1875 -2.703125q-1.296875 -1.359375 -3.171875 -1.359375q-1.515625 0 -2.65625 0.84375q-1.484375 1.09375 -2.359375 3.1875q-0.859375 2.09375 -0.890625 5.953125q1.140625 -1.734375 2.796875 -2.578125q1.65625 -0.84375 3.46875 -0.84375q3.15625 0 5.375 2.328125q2.234375 2.328125 2.234375 6.015625q0 2.4375 -1.046875 4.515625q-1.046875 2.078125 -2.875 3.1875q-1.828125 1.109375 -4.15625 1.109375q-3.953125 0 -6.453125 -2.90625q-2.484375 -2.90625 -2.484375 -9.59375q0 -7.46875 2.75 -10.859375q2.40625 -2.953125 6.484375 -2.953125q3.046875 0 4.984375 1.703125q1.953125 1.703125 2.328125 4.71875zm-12.90625 11.109375q0 1.625 0.6875 3.125q0.6875 1.484375 1.9375 2.28125q1.25 0.78125 2.625 0.78125q2.0 0 3.4375 -1.609375q1.453125 -1.625 1.453125 -4.40625q0 -2.671875 -1.4375 -4.203125q-1.421875 -1.546875 -3.578125 -1.546875q-2.140625 0 -3.640625 1.546875q-1.484375 1.53125 -1.484375 4.03125zm32.927734 -11.109375l-3.140625 0.234375q-0.421875 -1.859375 -1.1875 -2.703125q-1.296875 -1.359375 -3.171875 -1.359375q-1.515625 0 -2.65625 0.84375q-1.484375 1.09375 -2.359375 3.1875q-0.859375 2.09375 -0.890625 5.953125q1.140625 -1.734375 2.796875 -2.578125q1.65625 -0.84375 3.46875 -0.84375q3.15625 0 5.375 2.328125q2.234375 2.328125 2.234375 6.015625q0 2.4375 -1.046875 4.515625q-1.046875 2.078125 -2.875 3.1875q-1.828125 1.109375 -4.15625 1.109375q-3.953125 0 -6.453125 -2.90625q-2.484375 -2.90625 -2.484375 -9.59375q0 -7.46875 2.75 -10.859375q2.40625 -2.953125 6.484375 -2.953125q3.046875 0 4.984375 1.703125q1.953125 1.703125 2.328125 4.71875zm-12.90625 11.109375q0 1.625 0.6875 3.125q0.6875 1.484375 1.9375 2.28125q1.25 0.78125 2.625 0.78125q2.0 0 3.4375 -1.609375q1.453125 -1.625 1.453125 -4.40625q0 -2.671875 -1.4375 -4.203125q-1.421875 -1.546875 -3.578125 -1.546875q-2.140625 0 -3.640625 1.546875q-1.484375 1.53125 -1.484375 4.03125z" fill-rule="nonzero"/><path fill="#ffffff" d="m884.3785 337.85617l3.203125 -0.28125q0.234375 1.9375 1.0625 3.171875q0.84375 1.234375 2.59375 2.0q1.765625 0.765625 3.96875 0.765625q1.9375 0 3.4375 -0.578125q1.5 -0.578125 2.21875 -1.578125q0.734375 -1.015625 0.734375 -2.21875q0 -1.203125 -0.703125 -2.109375q-0.703125 -0.90625 -2.3125 -1.53125q-1.046875 -0.40625 -4.59375 -1.25q-3.546875 -0.859375 -4.96875 -1.609375q-1.859375 -0.96875 -2.765625 -2.390625q-0.890625 -1.4375 -0.890625 -3.21875q0 -1.953125 1.09375 -3.640625q1.109375 -1.703125 3.234375 -2.578125q2.140625 -0.875 4.734375 -0.875q2.859375 0 5.046875 0.921875q2.203125 0.921875 3.375 2.71875q1.171875 1.78125 1.265625 4.046875l-3.265625 0.25q-0.265625 -2.4375 -1.796875 -3.6875q-1.515625 -1.25 -4.484375 -1.25q-3.09375 0 -4.515625 1.140625q-1.40625 1.125 -1.40625 2.71875q0 1.390625 1.0 2.296875q0.984375 0.890625 5.140625 1.828125q4.15625 0.9375 5.703125 1.640625q2.25 1.046875 3.3125 2.640625q1.078125 1.578125 1.078125 3.65625q0 2.0625 -1.171875 3.890625q-1.171875 1.8125 -3.390625 2.828125q-2.203125 1.0 -4.953125 1.0q-3.5 0 -5.875 -1.015625q-2.359375 -1.015625 -3.703125 -3.0625q-1.34375 -2.0625 -1.40625 -4.640625zm31.667969 5.453125l0.453125 2.796875q-1.328125 0.28125 -2.390625 0.28125q-1.71875 0 -2.671875 -0.546875q-0.9375 -0.546875 -1.328125 -1.4375q-0.390625 -0.890625 -0.390625 -3.734375l0 -10.734375l-2.3125 0l0 -2.46875l2.3125 0l0 -4.625l3.140625 -1.890625l0 6.515625l3.1875 0l0 2.46875l-3.1875 0l0 10.90625q0 1.359375 0.171875 1.75q0.171875 0.375 0.546875 0.609375q0.375 0.234375 1.078125 0.234375q0.53125 0 1.390625 -0.125zm3.0644531 2.828125l0 -18.671875l2.84375 0l0 2.828125q1.09375 -1.984375 2.015625 -2.609375q0.921875 -0.640625 2.03125 -0.640625q1.59375 0 3.25 1.015625l-1.09375 2.9375q-1.15625 -0.6875 -2.3125 -0.6875q-1.046875 0 -1.875 0.625q-0.828125 0.625 -1.171875 1.734375q-0.53125 1.6875 -0.53125 3.6875l0 9.78125l-3.15625 0zm10.847656 -9.328125q0 -5.1875 2.875 -7.6875q2.40625 -2.078125 5.875 -2.078125q3.84375 0 6.28125 2.53125q2.453125 2.515625 2.453125 6.96875q0 3.59375 -1.078125 5.671875q-1.078125 2.0625 -3.15625 3.203125q-2.0625 1.140625 -4.5 1.140625q-3.921875 0 -6.34375 -2.515625q-2.40625 -2.515625 -2.40625 -7.234375zm3.25 0q0 3.578125 1.5625 5.359375q1.5625 1.78125 3.9375 1.78125q2.359375 0 3.921875 -1.78125q1.5625 -1.796875 1.5625 -5.46875q0 -3.46875 -1.578125 -5.25q-1.578125 -1.78125 -3.90625 -1.78125q-2.375 0 -3.9375 1.78125q-1.5625 1.765625 -1.5625 5.359375zm17.958984 9.328125l0 -25.765625l3.171875 0l0 14.6875l7.484375 -7.59375l4.09375 0l-7.140625 6.921875l7.859375 11.75l-3.90625 0l-6.171875 -9.546875l-2.21875 2.140625l0 7.40625l-3.171875 0zm30.765625 -6.015625l3.265625 0.40625q-0.765625 2.859375 -2.859375 4.453125q-2.09375 1.578125 -5.34375 1.578125q-4.09375 0 -6.5 -2.515625q-2.40625 -2.53125 -2.40625 -7.078125q0 -4.71875 2.421875 -7.3125q2.4375 -2.609375 6.296875 -2.609375q3.75 0 6.125 2.546875q2.375 2.546875 2.375 7.171875q0 0.28125 -0.015625 0.84375l-13.921875 0q0.171875 3.078125 1.734375 4.71875q1.5625 1.625 3.90625 1.625q1.734375 0 2.96875 -0.90625q1.234375 -0.921875 1.953125 -2.921875zm-10.390625 -5.109375l10.421875 0q-0.203125 -2.359375 -1.1875 -3.53125q-1.515625 -1.828125 -3.921875 -1.828125q-2.1875 0 -3.671875 1.453125q-1.484375 1.453125 -1.640625 3.90625z" fill-rule="nonzero"/><path fill="#000000" d="m1211.71 176.97697l223.30713 0l0 226.20473l-223.30713 0z" fill-rule="evenodd"/><path stroke="#000000" stroke-width="1.0" stroke-linejoin="round" stroke-linecap="butt" d="m1211.71 176.97697l223.30713 0l0 226.20473l-223.30713 0z" fill-rule="evenodd"/><path fill="#ffffff" d="m1305.0452 216.2487l0 -3.046875l16.6875 0l0 2.46875q-2.46875 2.609375 -4.890625 6.953125q-2.40625 4.34375 -3.71875 8.9375q-0.953125 3.234375 -1.21875 7.078125l-3.25 0q0.046875 -3.046875 1.1875 -7.34375q1.140625 -4.3125 3.28125 -8.3125q2.140625 -4.0 4.546875 -6.734375l-12.625 0zm20.28711 16.4375l3.046875 -0.28125q0.375 2.140625 1.46875 3.109375q1.09375 0.96875 2.796875 0.96875q1.453125 0 2.546875 -0.671875q1.109375 -0.671875 1.8125 -1.78125q0.703125 -1.125 1.171875 -3.015625q0.484375 -1.90625 0.484375 -3.875q0 -0.203125 -0.015625 -0.625q-0.953125 1.5 -2.59375 2.453125q-1.640625 0.9375 -3.5625 0.9375q-3.203125 0 -5.421875 -2.3125q-2.203125 -2.328125 -2.203125 -6.125q0 -3.921875 2.3125 -6.3125q2.3125 -2.390625 5.78125 -2.390625q2.515625 0 4.59375 1.359375q2.09375 1.34375 3.171875 3.859375q1.078125 2.5 1.078125 7.25q0 4.9375 -1.078125 7.859375q-1.0625 2.921875 -3.1875 4.453125q-2.109375 1.53125 -4.953125 1.53125q-3.03125 0 -4.953125 -1.671875q-1.90625 -1.6875 -2.296875 -4.71875zm12.953125 -11.375q0 -2.734375 -1.453125 -4.328125q-1.4375 -1.59375 -3.484375 -1.59375q-2.109375 0 -3.671875 1.71875q-1.5625 1.71875 -1.5625 4.46875q0 2.453125 1.484375 4.0q1.484375 1.53125 3.65625 1.53125q2.203125 0 3.609375 -1.53125q1.421875 -1.546875 1.421875 -4.265625z" fill-rule="nonzero"/><path fill="#ffffff" d="m1228.2122 324.6393l0 -25.765625l3.40625 0l0 10.578125l13.390625 0l0 -10.578125l3.40625 0l0 25.765625l-3.40625 0l0 -12.140625l-13.390625 0l0 12.140625l-3.40625 0zm38.26367 -6.015625l3.265625 0.40625q-0.765625 2.859375 -2.859375 4.453125q-2.09375 1.578125 -5.34375 1.578125q-4.09375 0 -6.5 -2.515625q-2.40625 -2.53125 -2.40625 -7.078125q0 -4.71875 2.421875 -7.3125q2.4375 -2.609375 6.296875 -2.609375q3.75 0 6.125 2.546875q2.375 2.546875 2.375 7.171875q0 0.28125 -0.015625 0.84375l-13.921875 0q0.171875 3.078125 1.734375 4.71875q1.5625 1.625 3.90625 1.625q1.734375 0 2.96875 -0.90625q1.234375 -0.921875 1.953125 -2.921875zm-10.390625 -5.109375l10.421875 0q-0.203125 -2.359375 -1.1875 -3.53125q-1.515625 -1.828125 -3.921875 -1.828125q-2.1875 0 -3.671875 1.453125q-1.484375 1.453125 -1.640625 3.90625zm29.81836 8.828125q-1.765625 1.484375 -3.390625 2.109375q-1.625 0.609375 -3.484375 0.609375q-3.078125 0 -4.734375 -1.5q-1.65625 -1.5 -1.65625 -3.84375q0 -1.375 0.625 -2.5q0.625 -1.140625 1.640625 -1.828125q1.015625 -0.6875 2.28125 -1.03125q0.921875 -0.25 2.8125 -0.484375q3.828125 -0.453125 5.640625 -1.078125q0.015625 -0.65625 0.015625 -0.828125q0 -1.9375 -0.90625 -2.734375q-1.203125 -1.0625 -3.59375 -1.0625q-2.234375 0 -3.296875 0.78125q-1.0625 0.78125 -1.578125 2.765625l-3.09375 -0.421875q0.421875 -1.984375 1.390625 -3.203125q0.96875 -1.21875 2.796875 -1.875q1.828125 -0.671875 4.234375 -0.671875q2.390625 0 3.875 0.5625q1.5 0.5625 2.203125 1.421875q0.703125 0.84375 0.984375 2.15625q0.15625 0.796875 0.15625 2.90625l0 4.21875q0 4.421875 0.203125 5.59375q0.203125 1.15625 0.8125 2.234375l-3.3125 0q-0.484375 -0.984375 -0.625 -2.296875zm-0.265625 -7.078125q-1.734375 0.703125 -5.171875 1.203125q-1.953125 0.28125 -2.765625 0.640625q-0.796875 0.34375 -1.25 1.015625q-0.4375 0.671875 -0.4375 1.5q0 1.265625 0.953125 2.109375q0.96875 0.84375 2.8125 0.84375q1.828125 0 3.25 -0.796875q1.421875 -0.796875 2.09375 -2.1875q0.515625 -1.078125 0.515625 -3.15625l0 -1.171875zm8.068359 9.375l0 -18.671875l2.84375 0l0 2.828125q1.09375 -1.984375 2.015625 -2.609375q0.921875 -0.640625 2.03125 -0.640625q1.59375 0 3.25 1.015625l-1.09375 2.9375q-1.15625 -0.6875 -2.3125 -0.6875q-1.046875 0 -1.875 0.625q-0.828125 0.625 -1.171875 1.734375q-0.53125 1.6875 -0.53125 3.6875l0 9.78125l-3.15625 0zm18.925781 -2.828125l0.453125 2.796875q-1.328125 0.28125 -2.390625 0.28125q-1.71875 0 -2.671875 -0.546875q-0.9375 -0.546875 -1.328125 -1.4375q-0.390625 -0.890625 -0.390625 -3.734375l0 -10.734375l-2.3125 0l0 -2.46875l2.3125 0l0 -4.625l3.140625 -1.890625l0 6.515625l3.1875 0l0 2.46875l-3.1875 0l0 10.90625q0 1.359375 0.171875 1.75q0.171875 0.375 0.546875 0.609375q0.375 0.234375 1.078125 0.234375q0.53125 0 1.390625 -0.125zm8.689453 2.828125l9.890625 -25.765625l3.671875 0l10.546875 25.765625l-3.875 0l-3.015625 -7.8125l-10.765625 0l-2.84375 7.8125l-3.609375 0zm7.4375 -10.578125l8.734375 0l-2.6875 -7.140625q-1.234375 -3.25 -1.828125 -5.34375q-0.5 2.484375 -1.390625 4.921875l-2.828125 7.5625zm25.902344 7.75l0.453125 2.796875q-1.328125 0.28125 -2.390625 0.28125q-1.71875 0 -2.671875 -0.546875q-0.9375 -0.546875 -1.328125 -1.4375q-0.390625 -0.890625 -0.390625 -3.734375l0 -10.734375l-2.3125 0l0 -2.46875l2.3125 0l0 -4.625l3.140625 -1.890625l0 6.515625l3.1875 0l0 2.46875l-3.1875 0l0 10.90625q0 1.359375 0.171875 1.75q0.171875 0.375 0.546875 0.609375q0.375 0.234375 1.078125 0.234375q0.53125 0 1.390625 -0.125zm10.001953 0l0.453125 2.796875q-1.328125 0.28125 -2.390625 0.28125q-1.71875 0 -2.671875 -0.546875q-0.9375 -0.546875 -1.328125 -1.4375q-0.390625 -0.890625 -0.390625 -3.734375l0 -10.734375l-2.3125 0l0 -2.46875l2.3125 0l0 -4.625l3.140625 -1.890625l0 6.515625l3.1875 0l0 2.46875l-3.1875 0l0 10.90625q0 1.359375 0.171875 1.75q0.171875 0.375 0.546875 0.609375q0.375 0.234375 1.078125 0.234375q0.53125 0 1.390625 -0.125zm15.283203 0.53125q-1.765625 1.484375 -3.390625 2.109375q-1.625 0.609375 -3.484375 0.609375q-3.078125 0 -4.734375 -1.5q-1.65625 -1.5 -1.65625 -3.84375q0 -1.375 0.625 -2.5q0.625 -1.140625 1.640625 -1.828125q1.015625 -0.6875 2.28125 -1.03125q0.921875 -0.25 2.8125 -0.484375q3.828125 -0.453125 5.640625 -1.078125q0.015625 -0.65625 0.015625 -0.828125q0 -1.9375 -0.90625 -2.734375q-1.203125 -1.0625 -3.59375 -1.0625q-2.234375 0 -3.296875 0.78125q-1.0625 0.78125 -1.578125 2.765625l-3.09375 -0.421875q0.421875 -1.984375 1.390625 -3.203125q0.96875 -1.21875 2.796875 -1.875q1.828125 -0.671875 4.234375 -0.671875q2.390625 0 3.875 0.5625q1.5 0.5625 2.203125 1.421875q0.703125 0.84375 0.984375 2.15625q0.15625 0.796875 0.15625 2.90625l0 4.21875q0 4.421875 0.203125 5.59375q0.203125 1.15625 0.8125 2.234375l-3.3125 0q-0.484375 -0.984375 -0.625 -2.296875zm-0.265625 -7.078125q-1.734375 0.703125 -5.171875 1.203125q-1.953125 0.28125 -2.765625 0.640625q-0.796875 0.34375 -1.25 1.015625q-0.4375 0.671875 -0.4375 1.5q0 1.265625 0.953125 2.109375q0.96875 0.84375 2.8125 0.84375q1.828125 0 3.25 -0.796875q1.421875 -0.796875 2.09375 -2.1875q0.515625 -1.078125 0.515625 -3.15625l0 -1.171875zm20.28711 2.53125l3.109375 0.40625q-0.515625 3.21875 -2.625 5.046875q-2.09375 1.8125 -5.15625 1.8125q-3.828125 0 -6.15625 -2.5q-2.328125 -2.515625 -2.328125 -7.1875q0 -3.015625 1.0 -5.28125q1.0 -2.28125 3.046875 -3.40625q2.046875 -1.140625 4.46875 -1.140625q3.03125 0 4.96875 1.546875q1.9375 1.53125 2.484375 4.359375l-3.078125 0.484375q-0.4375 -1.890625 -1.5625 -2.828125q-1.109375 -0.953125 -2.703125 -0.953125q-2.390625 0 -3.890625 1.71875q-1.484375 1.703125 -1.484375 5.40625q0 3.765625 1.4375 5.46875q1.453125 1.703125 3.765625 1.703125q1.859375 0 3.109375 -1.140625q1.25 -1.140625 1.59375 -3.515625zm5.828125 6.84375l0 -25.765625l3.171875 0l0 14.6875l7.484375 -7.59375l4.09375 0l-7.140625 6.921875l7.859375 11.75l-3.90625 0l-6.171875 -9.546875l-2.21875 2.140625l0 7.40625l-3.171875 0z" fill-rule="nonzero"/><path fill="#ea9999" d="m703.35 695.8029l0 0c0 -71.8927 57.533142 -130.17322 128.5039 -130.17322l0 0c34.08136 0 66.766846 13.714661 90.86603 38.12683c24.099182 24.412231 37.63794 57.522278 37.63794 92.04639l0 0c0 71.8927 -57.533203 130.17322 -128.50397 130.17322l0 0c-70.970764 0 -128.5039 -58.280518 -128.5039 -130.17322z" fill-rule="evenodd"/><path stroke="#000000" stroke-width="1.0" stroke-linejoin="round" stroke-linecap="butt" d="m703.35 695.8029l0 0c0 -71.8927 57.533142 -130.17322 128.5039 -130.17322l0 0c34.08136 0 66.766846 13.714661 90.86603 38.12683c24.099182 24.412231 37.63794 57.522278 37.63794 92.04639l0 0c0 71.8927 -57.533203 130.17322 -128.50397 130.17322l0 0c-70.970764 0 -128.5039 -58.280518 -128.5039 -130.17322z" fill-rule="evenodd"/><path fill="#000000" d="m818.13837 684.4029l2.453125 -0.203125q0.28125 1.796875 1.265625 2.703125q1.0 0.90625 2.40625 0.90625q1.6875 0 2.859375 -1.28125q1.171875 -1.28125 1.171875 -3.390625q0 -2.0 -1.125 -3.15625q-1.125 -1.15625 -2.9375 -1.15625q-1.140625 0 -2.046875 0.515625q-0.90625 0.515625 -1.4375 1.328125l-2.203125 -0.28125l1.859375 -9.8125l9.484375 0l0 2.25l-7.609375 0l-1.03125 5.125q1.71875 -1.203125 3.609375 -1.203125q2.5 0 4.203125 1.734375q1.71875 1.734375 1.71875 4.453125q0 2.59375 -1.5 4.484375q-1.84375 2.3125 -5.015625 2.3125q-2.59375 0 -4.25 -1.453125q-1.640625 -1.46875 -1.875 -3.875zm14.82489 0l2.453125 -0.203125q0.28125 1.796875 1.265625 2.703125q1.0 0.90625 2.40625 0.90625q1.6875 0 2.859375 -1.28125q1.171875 -1.28125 1.171875 -3.390625q0 -2.0 -1.125 -3.15625q-1.125 -1.15625 -2.9375 -1.15625q-1.140625 0 -2.046875 0.515625q-0.90625 0.515625 -1.4375 1.328125l-2.203125 -0.28125l1.859375 -9.8125l9.484375 0l0 2.25l-7.609375 0l-1.03125 5.125q1.71875 -1.203125 3.609375 -1.203125q2.5 0 4.203125 1.734375q1.71875 1.734375 1.71875 4.453125q0 2.59375 -1.5 4.484375q-1.84375 2.3125 -5.015625 2.3125q-2.59375 0 -4.25 -1.453125q-1.640625 -1.46875 -1.875 -3.875z" fill-rule="nonzero"/><path fill="#000000" d="m755.464 721.4029l0 -19.078125l2.515625 0l0 7.828125l9.921875 0l0 -7.828125l2.53125 0l0 19.078125l-2.53125 0l0 -9.0l-9.921875 0l0 9.0l-2.515625 0zm18.76593 5.328125l-0.265625 -2.203125q0.765625 0.203125 1.34375 0.203125q0.78125 0 1.25 -0.265625q0.46875 -0.25 0.765625 -0.71875q0.21875 -0.359375 0.71875 -1.75q0.0625 -0.1875 0.203125 -0.5625l-5.25 -13.859375l2.53125 0l2.875 8.015625q0.5625 1.515625 1.0 3.203125q0.40625 -1.625 0.96875 -3.15625l2.953125 -8.0625l2.34375 0l-5.265625 14.0625q-0.84375 2.28125 -1.3125 3.140625q-0.625 1.15625 -1.4375 1.6875q-0.796875 0.546875 -1.921875 0.546875q-0.671875 0 -1.5 -0.28125zm13.421875 -0.03125l0 -19.125l2.140625 0l0 1.796875q0.75 -1.046875 1.703125 -1.578125q0.953125 -0.53125 2.3125 -0.53125q1.765625 0 3.109375 0.921875q1.359375 0.90625 2.046875 2.5625q0.6875 1.65625 0.6875 3.640625q0 2.125 -0.765625 3.828125q-0.75 1.6875 -2.203125 2.59375q-1.453125 0.90625 -3.046875 0.90625q-1.171875 0 -2.109375 -0.484375q-0.921875 -0.5 -1.53125 -1.265625l0 6.734375l-2.34375 0zm2.125 -12.125q0 2.65625 1.078125 3.9375q1.09375 1.28125 2.625 1.28125q1.5625 0 2.671875 -1.3125q1.109375 -1.328125 1.109375 -4.109375q0 -2.640625 -1.09375 -3.953125q-1.078125 -1.3125 -2.59375 -1.3125q-1.484375 0 -2.640625 1.40625q-1.15625 1.390625 -1.15625 4.0625zm22.168701 2.375l2.421875 0.296875q-0.578125 2.125 -2.125 3.296875q-1.546875 1.171875 -3.953125 1.171875q-3.03125 0 -4.8125 -1.859375q-1.78125 -1.875 -1.78125 -5.25q0 -3.484375 1.796875 -5.40625q1.796875 -1.9375 4.671875 -1.9375q2.765625 0 4.515625 1.890625q1.765625 1.890625 1.765625 5.3125q0 0.203125 -0.015625 0.625l-10.3125 0q0.140625 2.28125 1.296875 3.5q1.15625 1.203125 2.890625 1.203125q1.28125 0 2.1875 -0.671875q0.921875 -0.6875 1.453125 -2.171875zm-7.6875 -3.78125l7.71875 0q-0.15625 -1.75 -0.890625 -2.625q-1.125 -1.34375 -2.90625 -1.34375q-1.609375 0 -2.71875 1.078125q-1.09375 1.078125 -1.203125 2.890625zm13.028076 8.234375l0 -13.828125l2.109375 0l0 2.09375q0.796875 -1.46875 1.484375 -1.9375q0.6875 -0.46875 1.5 -0.46875q1.1875 0 2.40625 0.765625l-0.796875 2.171875q-0.859375 -0.515625 -1.71875 -0.515625q-0.765625 0 -1.390625 0.46875q-0.609375 0.453125 -0.859375 1.28125q-0.390625 1.25 -0.390625 2.734375l0 7.234375l-2.34375 0zm14.017334 -2.09375l0.328125 2.0625q-0.984375 0.21875 -1.765625 0.21875q-1.265625 0 -1.96875 -0.40625q-0.703125 -0.40625 -1.0 -1.0625q-0.28125 -0.65625 -0.28125 -2.765625l0 -7.953125l-1.71875 0l0 -1.828125l1.71875 0l0 -3.421875l2.328125 -1.40625l0 4.828125l2.359375 0l0 1.828125l-2.359375 0l0 8.078125q0 1.0 0.125 1.296875q0.125 0.28125 0.40625 0.453125q0.28125 0.171875 0.796875 0.171875q0.390625 0 1.03125 -0.09375zm11.749695 -2.359375l2.421875 0.296875q-0.578125 2.125 -2.125 3.296875q-1.546875 1.171875 -3.953125 1.171875q-3.03125 0 -4.8125 -1.859375q-1.78125 -1.875 -1.78125 -5.25q0 -3.484375 1.796875 -5.40625q1.796875 -1.9375 4.671875 -1.9375q2.765625 0 4.515625 1.890625q1.765625 1.890625 1.765625 5.3125q0 0.203125 -0.015625 0.625l-10.3125 0q0.140625 2.28125 1.296875 3.5q1.15625 1.203125 2.890625 1.203125q1.28125 0 2.1875 -0.671875q0.921875 -0.6875 1.453125 -2.171875zm-7.6875 -3.78125l7.71875 0q-0.15625 -1.75 -0.890625 -2.625q-1.125 -1.34375 -2.90625 -1.34375q-1.609375 0 -2.71875 1.078125q-1.09375 1.078125 -1.203125 2.890625zm13.043701 8.234375l0 -13.828125l2.109375 0l0 1.96875q1.53125 -2.28125 4.40625 -2.28125q1.25 0 2.296875 0.453125q1.046875 0.453125 1.5625 1.1875q0.53125 0.71875 0.734375 1.71875q0.125 0.65625 0.125 2.28125l0 8.5l-2.34375 0l0 -8.40625q0 -1.4375 -0.28125 -2.140625q-0.265625 -0.71875 -0.96875 -1.140625q-0.6875 -0.421875 -1.625 -0.421875q-1.484375 0 -2.578125 0.953125q-1.09375 0.953125 -1.09375 3.609375l0 7.546875l-2.34375 0zm13.887451 -4.125l2.328125 -0.359375q0.1875 1.390625 1.078125 2.140625q0.890625 0.734375 2.5 0.734375q1.609375 0 2.390625 -0.65625q0.78125 -0.65625 0.78125 -1.546875q0 -0.796875 -0.6875 -1.25q-0.484375 -0.3125 -2.390625 -0.796875q-2.578125 -0.65625 -3.578125 -1.125q-1.0 -0.46875 -1.515625 -1.3125q-0.515625 -0.84375 -0.515625 -1.859375q0 -0.921875 0.421875 -1.703125q0.4375 -0.796875 1.15625 -1.3125q0.546875 -0.40625 1.484375 -0.6875q0.953125 -0.28125 2.03125 -0.28125q1.625 0 2.859375 0.46875q1.234375 0.46875 1.8125 1.28125q0.59375 0.796875 0.8125 2.140625l-2.296875 0.3125q-0.15625 -1.078125 -0.90625 -1.671875q-0.75 -0.59375 -2.109375 -0.59375q-1.609375 0 -2.3125 0.53125q-0.6875 0.53125 -0.6875 1.25q0 0.453125 0.296875 0.8125q0.28125 0.375 0.890625 0.625q0.359375 0.140625 2.078125 0.609375q2.484375 0.65625 3.46875 1.078125q0.984375 0.421875 1.53125 1.234375q0.5625 0.796875 0.5625 2.0q0 1.171875 -0.6875 2.21875q-0.671875 1.03125 -1.96875 1.59375q-1.28125 0.5625 -2.90625 0.5625q-2.703125 0 -4.125 -1.109375q-1.40625 -1.125 -1.796875 -3.328125zm14.28125 -12.265625l0 -2.6875l2.34375 0l0 2.6875l-2.34375 0zm0 16.390625l0 -13.828125l2.34375 0l0 13.828125l-2.34375 0zm5.04718 -6.90625q0 -3.84375 2.125 -5.6875q1.78125 -1.546875 4.34375 -1.546875q2.859375 0 4.65625 1.875q1.8125 1.859375 1.8125 5.15625q0 2.671875 -0.796875 4.203125q-0.796875 1.53125 -2.328125 2.375q-1.53125 0.84375 -3.34375 0.84375q-2.890625 0 -4.6875 -1.859375q-1.78125 -1.859375 -1.78125 -5.359375zm2.40625 0q0 2.65625 1.15625 3.984375q1.15625 1.3125 2.90625 1.3125q1.75 0 2.90625 -1.328125q1.15625 -1.328125 1.15625 -4.046875q0 -2.5625 -1.171875 -3.890625q-1.15625 -1.328125 -2.890625 -1.328125q-1.75 0 -2.90625 1.328125q-1.15625 1.3125 -1.15625 3.96875zm13.278015 6.90625l0 -13.828125l2.109375 0l0 1.96875q1.53125 -2.28125 4.40625 -2.28125q1.25 0 2.296875 0.453125q1.046875 0.453125 1.5625 1.1875q0.53125 0.71875 0.734375 1.71875q0.125 0.65625 0.125 2.28125l0 8.5l-2.34375 0l0 -8.40625q0 -1.4375 -0.28125 -2.140625q-0.265625 -0.71875 -0.96875 -1.140625q-0.6875 -0.421875 -1.625 -0.421875q-1.484375 0 -2.578125 0.953125q-1.09375 0.953125 -1.09375 3.609375l0 7.546875l-2.34375 0z" fill-rule="nonzero"/><path fill="#ea9999" d="m1085.8566 695.80426l0 0c0 -71.8927 57.53308 -130.17328 128.5039 -130.17328l0 0c34.0813 0 66.766846 13.714661 90.86597 38.126892c24.099243 24.412231 37.63794 57.522278 37.63794 92.04639l0 0c0 71.89264 -57.533203 130.17322 -128.5039 130.17322l0 0c-70.970825 0 -128.5039 -58.28058 -128.5039 -130.17322z" fill-rule="evenodd"/><path stroke="#000000" stroke-width="1.0" stroke-linejoin="round" stroke-linecap="butt" d="m1085.8566 695.80426l0 0c0 -71.8927 57.53308 -130.17328 128.5039 -130.17328l0 0c34.0813 0 66.766846 13.714661 90.86597 38.126892c24.099243 24.412231 37.63794 57.522278 37.63794 92.04639l0 0c0 71.89264 -57.533203 130.17322 -128.5039 130.17322l0 0c-70.970825 0 -128.5039 -58.28058 -128.5039 -130.17322z" fill-rule="evenodd"/><path fill="#000000" d="m1212.8011 663.998l-2.328125 0.1875q-0.3125 -1.390625 -0.890625 -2.015625q-0.953125 -1.0 -2.34375 -1.0q-1.109375 0 -1.96875 0.625q-1.09375 0.8125 -1.734375 2.359375q-0.640625 1.546875 -0.671875 4.40625q0.84375 -1.28125 2.0625 -1.90625q1.234375 -0.625 2.578125 -0.625q2.34375 0 3.984375 1.734375q1.640625 1.71875 1.640625 4.4375q0 1.796875 -0.78125 3.34375q-0.765625 1.546875 -2.125 2.375q-1.34375 0.8125 -3.0625 0.8125q-2.921875 0 -4.78125 -2.15625q-1.84375 -2.15625 -1.84375 -7.09375q0 -5.53125 2.046875 -8.046875q1.78125 -2.1875 4.796875 -2.1875q2.25 0 3.6875 1.265625q1.453125 1.25 1.734375 3.484375zm-9.5625 8.21875q0 1.21875 0.5 2.328125q0.515625 1.09375 1.4375 1.6875q0.9375 0.578125 1.953125 0.578125q1.484375 0 2.546875 -1.203125q1.0625 -1.203125 1.0625 -3.25q0 -1.984375 -1.0625 -3.125q-1.046875 -1.140625 -2.640625 -1.140625q-1.59375 0 -2.703125 1.140625q-1.09375 1.140625 -1.09375 2.984375zm24.543701 3.9375l0 2.25l-12.609375 0q-0.03125 -0.84375 0.265625 -1.625q0.484375 -1.296875 1.546875 -2.546875q1.0625 -1.25 3.0625 -2.875q3.109375 -2.5625 4.203125 -4.046875q1.09375 -1.5 1.09375 -2.8125q0 -1.40625 -1.0 -2.359375q-0.984375 -0.953125 -2.59375 -0.953125q-1.6875 0 -2.703125 1.015625q-1.015625 1.015625 -1.03125 2.8125l-2.40625 -0.25q0.25 -2.6875 1.859375 -4.09375q1.609375 -1.421875 4.328125 -1.421875q2.75 0 4.34375 1.53125q1.609375 1.515625 1.609375 3.765625q0 1.140625 -0.46875 2.25q-0.46875 1.109375 -1.5625 2.328125q-1.078125 1.21875 -3.609375 3.359375q-2.09375 1.765625 -2.703125 2.40625q-0.59375 0.625 -0.984375 1.265625l9.359375 0z" fill-rule="nonzero"/><path fill="#000000" d="m1137.9706 710.40424l0 -19.078125l2.515625 0l0 7.828125l9.921875 0l0 -7.828125l2.53125 0l0 19.078125l-2.53125 0l0 -9.0l-9.921875 0l0 9.0l-2.515625 0zm18.76587 5.328125l-0.265625 -2.203125q0.765625 0.203125 1.34375 0.203125q0.78125 0 1.25 -0.265625q0.46875 -0.25 0.765625 -0.71875q0.21875 -0.359375 0.71875 -1.75q0.0625 -0.1875 0.203125 -0.5625l-5.25 -13.859375l2.53125 0l2.875 8.015625q0.5625 1.515625 1.0 3.203125q0.40625 -1.625 0.96875 -3.15625l2.953125 -8.0625l2.34375 0l-5.265625 14.0625q-0.84375 2.28125 -1.3125 3.140625q-0.625 1.15625 -1.4375 1.6875q-0.796875 0.546875 -1.921875 0.546875q-0.671875 0 -1.5 -0.28125zm13.421875 -0.03125l0 -19.125l2.140625 0l0 1.796875q0.75 -1.046875 1.703125 -1.578125q0.953125 -0.53125 2.3125 -0.53125q1.765625 0 3.109375 0.921875q1.359375 0.90625 2.046875 2.5625q0.6875 1.65625 0.6875 3.640625q0 2.125 -0.765625 3.828125q-0.75 1.6875 -2.203125 2.59375q-1.453125 0.90625 -3.046875 0.90625q-1.171875 0 -2.109375 -0.484375q-0.921875 -0.5 -1.53125 -1.265625l0 6.734375l-2.34375 0zm2.125 -12.125q0 2.65625 1.078125 3.9375q1.09375 1.28125 2.625 1.28125q1.5625 0 2.671875 -1.3125q1.109375 -1.328125 1.109375 -4.109375q0 -2.640625 -1.09375 -3.953125q-1.078125 -1.3125 -2.59375 -1.3125q-1.484375 0 -2.640625 1.40625q-1.15625 1.390625 -1.15625 4.0625zm22.168701 2.375l2.421875 0.296875q-0.578125 2.125 -2.125 3.296875q-1.546875 1.171875 -3.953125 1.171875q-3.03125 0 -4.8125 -1.859375q-1.78125 -1.875 -1.78125 -5.25q0 -3.484375 1.796875 -5.40625q1.796875 -1.9375 4.671875 -1.9375q2.765625 0 4.515625 1.890625q1.765625 1.890625 1.765625 5.3125q0 0.203125 -0.015625 0.625l-10.3125 0q0.140625 2.28125 1.296875 3.5q1.15625 1.203125 2.890625 1.203125q1.28125 0 2.1875 -0.671875q0.921875 -0.6875 1.453125 -2.171875zm-7.6875 -3.78125l7.71875 0q-0.15625 -1.75 -0.890625 -2.625q-1.125 -1.34375 -2.90625 -1.34375q-1.609375 0 -2.71875 1.078125q-1.09375 1.078125 -1.203125 2.890625zm13.028076 8.234375l0 -13.828125l2.109375 0l0 2.09375q0.796875 -1.46875 1.484375 -1.9375q0.6875 -0.46875 1.5 -0.46875q1.1875 0 2.40625 0.765625l-0.796875 2.171875q-0.859375 -0.515625 -1.71875 -0.515625q-0.765625 0 -1.390625 0.46875q-0.609375 0.453125 -0.859375 1.28125q-0.390625 1.25 -0.390625 2.734375l0 7.234375l-2.34375 0zm14.017334 -2.09375l0.328125 2.0625q-0.984375 0.21875 -1.765625 0.21875q-1.265625 0 -1.96875 -0.40625q-0.703125 -0.40625 -1.0 -1.0625q-0.28125 -0.65625 -0.28125 -2.765625l0 -7.953125l-1.71875 0l0 -1.828125l1.71875 0l0 -3.421875l2.328125 -1.40625l0 4.828125l2.359375 0l0 1.828125l-2.359375 0l0 8.078125q0 1.0 0.125 1.296875q0.125 0.28125 0.40625 0.453125q0.28125 0.171875 0.796875 0.171875q0.390625 0 1.03125 -0.09375zm11.749756 -2.359375l2.421875 0.296875q-0.578125 2.125 -2.125 3.296875q-1.546875 1.171875 -3.953125 1.171875q-3.03125 0 -4.8125 -1.859375q-1.78125 -1.875 -1.78125 -5.25q0 -3.484375 1.796875 -5.40625q1.796875 -1.9375 4.671875 -1.9375q2.765625 0 4.515625 1.890625q1.765625 1.890625 1.765625 5.3125q0 0.203125 -0.015625 0.625l-10.3125 0q0.140625 2.28125 1.296875 3.5q1.15625 1.203125 2.890625 1.203125q1.28125 0 2.1875 -0.671875q0.921875 -0.6875 1.453125 -2.171875zm-7.6875 -3.78125l7.71875 0q-0.15625 -1.75 -0.890625 -2.625q-1.125 -1.34375 -2.90625 -1.34375q-1.609375 0 -2.71875 1.078125q-1.09375 1.078125 -1.203125 2.890625zm13.043701 8.234375l0 -13.828125l2.109375 0l0 1.96875q1.53125 -2.28125 4.40625 -2.28125q1.25 0 2.296875 0.453125q1.046875 0.453125 1.5625 1.1875q0.53125 0.71875 0.734375 1.71875q0.125 0.65625 0.125 2.28125l0 8.5l-2.34375 0l0 -8.40625q0 -1.4375 -0.28125 -2.140625q-0.265625 -0.71875 -0.96875 -1.140625q-0.6875 -0.421875 -1.625 -0.421875q-1.484375 0 -2.578125 0.953125q-1.09375 0.953125 -1.09375 3.609375l0 7.546875l-2.34375 0zm13.887451 -4.125l2.328125 -0.359375q0.1875 1.390625 1.078125 2.140625q0.890625 0.734375 2.5 0.734375q1.609375 0 2.390625 -0.65625q0.78125 -0.65625 0.78125 -1.546875q0 -0.796875 -0.6875 -1.25q-0.484375 -0.3125 -2.390625 -0.796875q-2.578125 -0.65625 -3.578125 -1.125q-1.0 -0.46875 -1.515625 -1.3125q-0.515625 -0.84375 -0.515625 -1.859375q0 -0.921875 0.421875 -1.703125q0.4375 -0.796875 1.15625 -1.3125q0.546875 -0.40625 1.484375 -0.6875q0.953125 -0.28125 2.03125 -0.28125q1.625 0 2.859375 0.46875q1.234375 0.46875 1.8125 1.28125q0.59375 0.796875 0.8125 2.140625l-2.296875 0.3125q-0.15625 -1.078125 -0.90625 -1.671875q-0.75 -0.59375 -2.109375 -0.59375q-1.609375 0 -2.3125 0.53125q-0.6875 0.53125 -0.6875 1.25q0 0.453125 0.296875 0.8125q0.28125 0.375 0.890625 0.625q0.359375 0.140625 2.078125 0.609375q2.484375 0.65625 3.46875 1.078125q0.984375 0.421875 1.53125 1.234375q0.5625 0.796875 0.5625 2.0q0 1.171875 -0.6875 2.21875q-0.671875 1.03125 -1.96875 1.59375q-1.28125 0.5625 -2.90625 0.5625q-2.703125 0 -4.125 -1.109375q-1.40625 -1.125 -1.796875 -3.328125zm14.28125 -12.265625l0 -2.6875l2.34375 0l0 2.6875l-2.34375 0zm0 16.390625l0 -13.828125l2.34375 0l0 13.828125l-2.34375 0zm5.047119 -6.90625q0 -3.84375 2.125 -5.6875q1.78125 -1.546875 4.34375 -1.546875q2.859375 0 4.65625 1.875q1.8125 1.859375 1.8125 5.15625q0 2.671875 -0.796875 4.203125q-0.796875 1.53125 -2.328125 2.375q-1.53125 0.84375 -3.34375 0.84375q-2.890625 0 -4.6875 -1.859375q-1.78125 -1.859375 -1.78125 -5.359375zm2.40625 0q0 2.65625 1.15625 3.984375q1.15625 1.3125 2.90625 1.3125q1.75 0 2.90625 -1.328125q1.15625 -1.328125 1.15625 -4.046875q0 -2.5625 -1.171875 -3.890625q-1.15625 -1.328125 -2.890625 -1.328125q-1.75 0 -2.90625 1.328125q-1.15625 1.3125 -1.15625 3.96875zm13.278076 6.90625l0 -13.828125l2.109375 0l0 1.96875q1.53125 -2.28125 4.40625 -2.28125q1.25 0 2.296875 0.453125q1.046875 0.453125 1.5625 1.1875q0.53125 0.71875 0.734375 1.71875q0.125 0.65625 0.125 2.28125l0 8.5l-2.34375 0l0 -8.40625q0 -1.4375 -0.28125 -2.140625q-0.265625 -0.71875 -0.96875 -1.140625q-0.6875 -0.421875 -1.625 -0.421875q-1.484375 0 -2.578125 0.953125q-1.09375 0.953125 -1.09375 3.609375l0 7.546875l-2.34375 0z" fill-rule="nonzero"/><path fill="#cfe2f3" d="m1468.3624 582.7012l223.307 0l0 226.20471l-223.307 0z" fill-rule="evenodd"/><path stroke="#000000" stroke-width="1.0" stroke-linejoin="round" stroke-linecap="butt" d="m1468.3624 582.7012l223.307 0l0 226.20471l-223.307 0z" fill-rule="evenodd"/><path fill="#cfe2f3" d="m1843.2233 582.7012l223.307 0l0 226.20471l-223.307 0z" fill-rule="evenodd"/><path stroke="#000000" stroke-width="1.0" stroke-linejoin="round" stroke-linecap="butt" d="m1843.2233 582.7012l223.307 0l0 226.20471l-223.307 0z" fill-rule="evenodd"/><path fill="#cfe2f3" d="m325.6406 582.7012l223.3071 0l0 226.20471l-223.3071 0z" fill-rule="evenodd"/><path stroke="#000000" stroke-width="1.0" stroke-linejoin="round" stroke-linecap="butt" d="m325.6406 582.7012l223.3071 0l0 226.20471l-223.3071 0z" fill-rule="evenodd"/><path fill="#cfe2f3" d="m720.19965 1002.98724l223.30707 0l0 226.20477l-223.30707 0z" fill-rule="evenodd"/><path stroke="#000000" stroke-width="1.0" stroke-linejoin="round" stroke-linecap="butt" d="m720.19965 1002.98724l223.30707 0l0 226.20477l-223.30707 0z" fill-rule="evenodd"/><path fill="#000000" d="m804.5357 1128.204l8.453125 -0.75q0.609375 5.09375 2.796875 8.359375q2.203125 3.25 6.828125 5.265625q4.625 2.0 10.390625 2.0q5.140625 0 9.0625 -1.515625q3.921875 -1.53125 5.84375 -4.1875q1.921875 -2.65625 1.921875 -5.796875q0 -3.1875 -1.859375 -5.5625q-1.84375 -2.390625 -6.09375 -4.015625q-2.71875 -1.0625 -12.0625 -3.296875q-9.328125 -2.25 -13.078125 -4.234375q-4.859375 -2.53125 -7.234375 -6.296875q-2.375 -3.78125 -2.375 -8.4375q0 -5.140625 2.90625 -9.59375q2.90625 -4.46875 8.5 -6.765625q5.59375 -2.3125 12.4375 -2.3125q7.53125 0 13.28125 2.421875q5.765625 2.421875 8.859375 7.140625q3.09375 4.71875 3.328125 10.671875l-8.59375 0.65625q-0.703125 -6.4375 -4.703125 -9.71875q-3.984375 -3.28125 -11.796875 -3.28125q-8.140625 0 -11.859375 2.984375q-3.71875 2.984375 -3.71875 7.1875q0 3.65625 2.640625 6.015625q2.578125 2.359375 13.5 4.828125q10.9375 2.46875 15.015625 4.3125q5.90625 2.734375 8.71875 6.921875q2.828125 4.171875 2.828125 9.625q0 5.40625 -3.09375 10.203125q-3.09375 4.78125 -8.90625 7.4375q-5.796875 2.65625 -13.046875 2.65625q-9.203125 0 -15.421875 -2.671875q-6.203125 -2.6875 -9.75 -8.0625q-3.53125 -5.390625 -3.71875 -12.1875z" fill-rule="nonzero"/><path fill="#cfe2f3" d="m325.6406 1002.98724l223.3071 0l0 226.20477l-223.3071 0z" fill-rule="evenodd"/><path stroke="#000000" stroke-width="1.0" stroke-linejoin="round" stroke-linecap="butt" d="m325.6406 1002.98724l223.3071 0l0 226.20477l-223.3071 0z" fill-rule="evenodd"/><path fill="#000000" fill-opacity="0.0" d="m437.29413 1002.98724l0 -92.464905l394.5512 0l0 92.52789" fill-rule="evenodd"/><path stroke="#000000" stroke-width="1.0" stroke-linejoin="round" stroke-linecap="butt" d="m437.29413 1002.98724l0 -92.464905l394.5512 0l0 92.52789" fill-rule="evenodd"/><path fill="#000000" fill-opacity="0.0" d="m548.9477 695.8035l154.39368 0" fill-rule="evenodd"/><path stroke="#000000" stroke-width="1.0" stroke-linejoin="round" stroke-linecap="butt" d="m548.9477 695.8035l154.39368 0" fill-rule="evenodd"/><path fill="#000000" fill-opacity="0.0" d="m626.4895 910.52234l0 -219.18115" fill-rule="evenodd"/><path stroke="#000000" stroke-width="1.0" stroke-linejoin="round" stroke-linecap="butt" d="m626.4895 910.52234l0 -219.18115" fill-rule="evenodd"/><path fill="#000000" fill-opacity="0.0" d="m1954.8776 582.70056l-3.2937012 0l0 -136.62991l-813.9977 0" fill-rule="evenodd"/><path stroke="#000000" stroke-width="1.0" stroke-linejoin="round" stroke-linecap="butt" d="m1954.8776 582.70056l-3.2937012 0l0 -136.62991l-813.9977 0" fill-rule="evenodd"/><path fill="#000000" fill-opacity="0.0" d="m1063.2799 290.07742l148.44092 0" fill-rule="evenodd"/><path stroke="#000000" stroke-width="1.0" stroke-linejoin="round" stroke-linecap="butt" d="m1063.2799 290.07742l148.44092 0" fill-rule="evenodd"/><path fill="#000000" fill-opacity="0.0" d="m1136.7074 446.92914l-1.2283936 -159.18112" fill-rule="evenodd"/><path stroke="#000000" stroke-width="1.0" stroke-linejoin="round" stroke-linecap="butt" d="m1136.7074 446.92914l-1.2283936 -159.18112" fill-rule="evenodd"/><path fill="#000000" fill-opacity="0.0" d="m1138.468 446.03915l-306.61414 119.590546" fill-rule="evenodd"/><path stroke="#000000" stroke-width="1.0" stroke-linejoin="round" stroke-linecap="butt" d="m1138.468 446.03915l-306.61414 119.590546" fill-rule="evenodd"/><path fill="#000000" fill-opacity="0.0" d="m1214.3605 565.631l-76.78735 -118.70865" fill-rule="evenodd"/><path stroke="#000000" stroke-width="1.0" stroke-linejoin="round" stroke-linecap="butt" d="m1214.3605 565.631l-76.78735 -118.70865" fill-rule="evenodd"/><path fill="#000000" fill-opacity="0.0" d="m984.0591 506.5l192.22046 -0.4409485" fill-rule="evenodd"/><path stroke="#000000" stroke-width="1.0" stroke-linejoin="round" stroke-linecap="butt" d="m984.0591 506.5l192.22046 -0.4409485" fill-rule="evenodd"/><path fill="#000000" fill-opacity="0.0" d="m1580.0159 582.7012l0 -138.86615" fill-rule="evenodd"/><path stroke="#000000" stroke-width="1.0" stroke-linejoin="round" stroke-linecap="butt" d="m1580.0159 582.7012l0 -138.86615" fill-rule="evenodd"/></g></svg>