<svg version="1.1" viewBox="0.0 0.0 1394.5433070866143 1135.0866141732283" fill="none" stroke="none" stroke-linecap="square" stroke-miterlimit="10" xmlns:xlink="http://www.w3.org/1999/xlink" xmlns="http://www.w3.org/2000/svg"><clipPath id="p.0"><path d="m0 0l1394.5433 0l0 1135.0867l-1394.5433 0l0 -1135.0867z" clip-rule="nonzero"/></clipPath><g clip-path="url(#p.0)"><path fill="#000000" fill-opacity="0.0" d="m0 0l1394.5433 0l0 1135.0867l-1394.5433 0z" fill-rule="evenodd"/><path fill="#cfe2f3" d="m19.212599 30.487469l223.30708 0l0 226.20473l-223.30708 0z" fill-rule="evenodd"/><path stroke="#000000" stroke-width="1.0" stroke-linejoin="round" stroke-linecap="butt" d="m19.212599 30.487469l223.30708 0l0 226.20473l-223.30708 0z" fill-rule="evenodd"/><path fill="#000000" d="m116.238304 65.72171l2.609375 -0.21875q0.296875 1.90625 1.359375 2.875q1.0625 0.96875 2.5625 0.96875q1.8125 0 3.0625 -1.359375q1.25 -1.359375 1.25 -3.609375q0 -2.1406288 -1.203125 -3.3750038q-1.203125 -1.234375 -3.15625 -1.234375q-1.203125 0 -2.171875 0.546875q-0.96875 0.546875 -1.53125 1.421875l-2.34375 -0.3125l1.96875 -10.453125l10.124992 0l0 2.390625l-8.124992 0l-1.09375 5.46875q1.828125 -1.28125 3.84375 -1.28125q2.671875 0 4.5 1.859375q1.8281174 1.84375 1.8281174 4.734379q0 2.765625 -1.609375 4.78125q-1.9531174 2.46875 -5.3437424 2.46875q-2.78125 0 -4.53125 -1.546875q-1.75 -1.5625 -2.0 -4.125zm19.65908 -5.703129q-1.5625 -0.578125 -2.3125 -1.625q-0.75 -1.0625 -0.75 -2.53125q0 -2.21875 1.59375 -3.734375q1.609375 -1.515625 4.25 -1.515625q2.671875 0 4.296875 1.546875q1.625 1.546875 1.625 3.765625q0 1.421875 -0.75 2.46875q-0.734375 1.046875 -2.25 1.625q1.875 0.609375 2.84375 1.96875q0.984375 1.359375 0.984375 3.2500038q0 2.609375 -1.84375 4.390625q-1.84375 1.765625 -4.859375 1.765625q-3.015625 0 -4.859375 -1.78125q-1.84375 -1.78125 -1.84375 -4.453125q0 -1.9843788 1.0 -3.3125038q1.015625 -1.34375 2.875 -1.828125zm-0.5 -4.25q0 1.453125 0.921875 2.375q0.9375 0.90625 2.421875 0.90625q1.4375 0 2.359375 -0.90625q0.921875 -0.90625 0.921875 -2.234375q0 -1.375 -0.953125 -2.3125q-0.9375 -0.9375 -2.359375 -0.9375q-1.421875 0 -2.375 0.921875q-0.9375 0.921875 -0.9375 2.1875zm-0.8125 9.406254q0 1.078125 0.5 2.078125q0.515625 0.984375 1.515625 1.546875q1.0 0.546875 2.15625 0.546875q1.78125 0 2.953125 -1.15625q1.171875 -1.15625 1.171875 -2.9375q0 -1.7968788 -1.203125 -2.9687538q-1.203125 -1.1875 -3.015625 -1.1875q-1.75 0 -2.921875 1.171875q-1.15625 1.15625 -1.15625 2.9062538z" fill-rule="nonzero"/><path fill="#000000" d="m32.696796 148.70984l0 -18.4375l2.4375 0l0 7.5625l9.59375 0l0 -7.5625l2.4375 0l0 18.4375l-2.4375 0l0 -8.6875l-9.59375 0l0 8.6875l-2.4375 0zm18.138367 5.140625l-0.25 -2.125q0.75 0.203125 1.296875 0.203125q0.75 0 1.203125 -0.25q0.453125 -0.25 0.75 -0.703125q0.21875 -0.34375 0.6875 -1.6875q0.0625 -0.1875 0.203125 -0.546875l-5.0625 -13.390625l2.4375 0l2.78125 7.734375q0.53125 1.46875 0.96875 3.09375q0.390625 -1.5625 0.921875 -3.046875l2.859375 -7.78125l2.265625 0l-5.078125 13.578125q-0.828125 2.203125 -1.28125 3.046875q-0.59375 1.109375 -1.375 1.625q-0.78125 0.53125 -1.859375 0.53125q-0.65625 0 -1.46875 -0.28125zm12.9921875 -0.015625l0 -18.484375l2.0625038 0l0 1.734375q0.71875 -1.015625 1.640625 -1.515625q0.921875 -0.515625 2.234375 -0.515625q1.703125 0 3.015625 0.875q1.3125 0.875 1.96875 2.484375q0.671875 1.609375 0.671875 3.515625q0 2.046875 -0.734375 3.6875q-0.734375 1.640625 -2.140625 2.515625q-1.40625 0.875 -2.953125 0.875q-1.125 0 -2.03125 -0.46875q-0.890625 -0.484375 -1.46875 -1.21875l0 6.515625l-2.2656288 0zm2.0468788 -11.734375q0 2.578125 1.046875 3.8125q1.046875 1.234375 2.53125 1.234375q1.5 0 2.578125 -1.265625q1.078125 -1.28125 1.078125 -3.96875q0 -2.546875 -1.0625 -3.8125q-1.046875 -1.28125 -2.5 -1.28125q-1.453125 0 -2.5625 1.359375q-1.109375 1.34375 -1.109375 3.921875zm21.42337 2.3125l2.34375 0.28125q-0.5625 2.046875 -2.0625 3.1875q-1.484375 1.125 -3.8125 1.125q-2.9375 0 -4.65625 -1.796875q-1.71875 -1.8125 -1.71875 -5.0625q0 -3.375 1.734375 -5.234375q1.75 -1.859375 4.515625 -1.859375q2.671875 0 4.375 1.828125q1.703125 1.8125 1.703125 5.125q0 0.203125 -0.015625 0.59375l-9.96875 0q0.125 2.203125 1.25 3.375q1.125 1.171875 2.796875 1.171875q1.234375 0 2.109375 -0.65625q0.890625 -0.65625 1.40625 -2.078125zm-7.4375 -3.671875l7.46875 0q-0.15625 -1.6875 -0.859375 -2.53125q-1.078125 -1.296875 -2.8125 -1.296875q-1.546875 0 -2.625 1.046875q-1.0625 1.03125 -1.171875 2.78125zm12.595245 7.96875l0 -13.359375l2.046875 0l0 2.03125q0.765625 -1.421875 1.421875 -1.875q0.671875 -0.453125 1.46875 -0.453125q1.140625 0 2.328125 0.71875l-0.78125 2.109375q-0.828125 -0.5 -1.671875 -0.5q-0.734375 0 -1.328125 0.453125q-0.59375 0.453125 -0.84375 1.234375q-0.375 1.21875 -0.375 2.640625l0 7.0l-2.265625 0zm17.330154 -4.890625l2.21875 0.28125q-0.359375 2.3125 -1.875 3.609375q-1.5 1.296875 -3.6875 1.296875q-2.734375 0 -4.40625 -1.78125q-1.671875 -1.796875 -1.671875 -5.140625q0 -2.171875 0.71875 -3.796875q0.71875 -1.625 2.1875 -2.421875q1.46875 -0.8125 3.1875 -0.8125q2.171875 0 3.5625 1.09375q1.390625 1.09375 1.78125 3.125l-2.203125 0.34375q-0.328125 -1.34375 -1.125 -2.015625q-0.796875 -0.6875 -1.921875 -0.6875q-1.71875 0 -2.796875 1.234375q-1.0625 1.21875 -1.0625 3.875q0 2.6875 1.03125 3.90625q1.03125 1.21875 2.703125 1.21875q1.328125 0 2.21875 -0.8125q0.890625 -0.828125 1.140625 -2.515625zm4.1640625 4.890625l0 -18.4375l2.265625 0l0 6.609375q1.578125 -1.828125 4.0 -1.828125q1.484375 0 2.578125 0.578125q1.09375 0.578125 1.5625 1.625q0.46875 1.03125 0.46875 2.984375l0 8.46875l-2.265625 0l0 -8.46875q0 -1.703125 -0.734375 -2.46875q-0.734375 -0.78125 -2.078125 -0.78125q-1.015625 0 -1.90625 0.53125q-0.875 0.515625 -1.25 1.421875q-0.375 0.890625 -0.375 2.453125l0 7.3125l-2.265625 0zm13.48587 -6.6875q0 -3.703125 2.0624924 -5.484375q1.71875 -1.484375 4.203125 -1.484375q2.75 0 4.5 1.8125q1.75 1.796875 1.75 4.96875q0 2.578125 -0.78125 4.0625q-0.765625 1.484375 -2.25 2.296875q-1.46875 0.8125 -3.21875 0.8125q-2.8125 0 -4.546875 -1.796875q-1.7187424 -1.796875 -1.7187424 -5.1875zm2.3281174 0q0 2.578125 1.109375 3.859375q1.125 1.265625 2.828125 1.265625q1.6875 0 2.796875 -1.28125q1.125 -1.28125 1.125 -3.90625q0 -2.484375 -1.125 -3.75q-1.125 -1.28125 -2.796875 -1.28125q-1.703125 0 -2.828125 1.265625q-1.109375 1.265625 -1.109375 3.828125zm12.782745 6.6875l0 -18.4375l2.265625 0l0 18.4375l-2.265625 0zm14.927444 -4.296875l2.34375 0.28125q-0.5625 2.046875 -2.0625 3.1875q-1.484375 1.125 -3.8125 1.125q-2.9375 0 -4.65625 -1.796875q-1.71875 -1.8125 -1.71875 -5.0625q0 -3.375 1.734375 -5.234375q1.75 -1.859375 4.515625 -1.859375q2.671875 0 4.375 1.828125q1.703125 1.8125 1.703125 5.125q0 0.203125 -0.015625 0.59375l-9.96875 0q0.125 2.203125 1.25 3.375q1.125 1.171875 2.796875 1.171875q1.234375 0 2.109375 -0.65625q0.890625 -0.65625 1.40625 -2.078125zm-7.4375 -3.671875l7.46875 0q-0.15625 -1.6875 -0.859375 -2.53125q-1.078125 -1.296875 -2.8125 -1.296875q-1.546875 0 -2.625 1.046875q-1.0625 1.03125 -1.171875 2.78125zm11.720245 3.984375l2.234375 -0.359375q0.1875 1.34375 1.046875 2.0625q0.859375 0.71875 2.40625 0.71875q1.5625 0 2.3125 -0.625q0.765625 -0.640625 0.765625 -1.5q0 -0.765625 -0.671875 -1.203125q-0.46875 -0.3125 -2.3125 -0.765625q-2.484375 -0.640625 -3.453125 -1.09375q-0.96875 -0.453125 -1.46875 -1.265625q-0.484375 -0.8125 -0.484375 -1.796875q0 -0.890625 0.40625 -1.65625q0.40625 -0.765625 1.109375 -1.265625q0.53125 -0.390625 1.4375 -0.65625q0.921875 -0.265625 1.96875 -0.265625q1.5625 0 2.75 0.453125q1.203125 0.453125 1.765625 1.234375q0.5625 0.765625 0.78125 2.0625l-2.21875 0.296875q-0.15625 -1.03125 -0.875 -1.609375q-0.71875 -0.578125 -2.046875 -0.578125q-1.5625 0 -2.234375 0.515625q-0.65625 0.515625 -0.65625 1.203125q0 0.4375 0.28125 0.796875q0.265625 0.359375 0.859375 0.59375q0.34375 0.125 2.0 0.578125q2.40625 0.65625 3.359375 1.0625q0.953125 0.40625 1.484375 1.1875q0.546875 0.78125 0.546875 1.9375q0 1.125 -0.671875 2.125q-0.65625 1.0 -1.90625 1.546875q-1.234375 0.546875 -2.8125 0.546875q-2.59375 0 -3.96875 -1.078125q-1.359375 -1.078125 -1.734375 -3.203125zm18.726562 1.953125l0.328125 2.0q-0.953125 0.203125 -1.703125 0.203125q-1.234375 0 -1.921875 -0.390625q-0.671875 -0.390625 -0.953125 -1.015625q-0.28125 -0.640625 -0.28125 -2.671875l0 -7.6875l-1.65625 0l0 -1.765625l1.65625 0l0 -3.3125l2.25 -1.359375l0 4.671875l2.28125 0l0 1.765625l-2.28125 0l0 7.8125q0 0.96875 0.125 1.25q0.125 0.265625 0.390625 0.4375q0.265625 0.15625 0.78125 0.15625q0.375 0 0.984375 -0.09375zm2.1897583 2.03125l0 -13.359375l2.046875 0l0 2.03125q0.765625 -1.421875 1.421875 -1.875q0.671875 -0.453125 1.46875 -0.453125q1.140625 0 2.328125 0.71875l-0.78125 2.109375q-0.828125 -0.5 -1.671875 -0.5q-0.734375 0 -1.328125 0.453125q-0.59375 0.453125 -0.84375 1.234375q-0.375 1.21875 -0.375 2.640625l0 7.0l-2.265625 0zm17.752045 -4.296875l2.34375 0.28125q-0.5625 2.046875 -2.0625 3.1875q-1.484375 1.125 -3.8125 1.125q-2.9375 0 -4.65625 -1.796875q-1.71875 -1.8125 -1.71875 -5.0625q0 -3.375 1.734375 -5.234375q1.75 -1.859375 4.515625 -1.859375q2.671875 0 4.375 1.828125q1.703125 1.8125 1.703125 5.125q0 0.203125 -0.015625 0.59375l-9.96875 0q0.125 2.203125 1.25 3.375q1.125 1.171875 2.796875 1.171875q1.234375 0 2.109375 -0.65625q0.890625 -0.65625 1.40625 -2.078125zm-7.4375 -3.671875l7.46875 0q-0.15625 -1.6875 -0.859375 -2.53125q-1.078125 -1.296875 -2.8125 -1.296875q-1.546875 0 -2.625 1.046875q-1.0625 1.03125 -1.171875 2.78125zm12.626495 7.96875l0 -13.359375l2.015625 0l0 1.875q0.640625 -0.984375 1.671875 -1.578125q1.046875 -0.59375 2.390625 -0.59375q1.484375 0 2.421875 0.609375q0.953125 0.609375 1.34375 1.71875q1.59375 -2.328125 4.125 -2.328125q1.984375 0 3.046875 1.09375q1.078125 1.09375 1.078125 3.390625l0 9.171875l-2.25 0l0 -8.421875q0 -1.359375 -0.21875 -1.953125q-0.21875 -0.59375 -0.796875 -0.953125q-0.578125 -0.375 -1.359375 -0.375q-1.40625 0 -2.34375 0.9375q-0.921875 0.9375 -0.921875 3.0l0 7.765625l-2.265625 0l0 -8.6875q0 -1.5 -0.5625 -2.25q-0.546875 -0.765625 -1.8125 -0.765625q-0.953125 0 -1.765625 0.515625q-0.8125 0.5 -1.171875 1.46875q-0.359375 0.96875 -0.359375 2.78125l0 6.9375l-2.265625 0zm21.478577 -15.84375l0 -2.59375l2.25 0l0 2.59375l-2.25 0zm0 15.84375l0 -13.359375l2.25 0l0 13.359375l-2.25 0z" fill-rule="nonzero"/><path fill="#000000" d="m134.1232 193.06921q-1.265625 1.0625 -2.4375 1.5q-1.15625 0.4375 -2.484375 0.4375q-2.2031174 0 -3.3906174 -1.0625q-1.171875 -1.078125 -1.171875 -2.75q0 -0.984375 0.4375 -1.796875q0.453125 -0.8125 1.171875 -1.296875q0.71875 -0.5 1.625 -0.75q0.6718674 -0.171875 2.0156174 -0.34375q2.75 -0.328125 4.046875 -0.78125q0 -0.453125 0 -0.59375q0 -1.375 -0.640625 -1.9375q-0.859375 -0.765625 -2.578125 -0.765625q-1.59375 0 -2.359375 0.5625q-0.7499924 0.546875 -1.1249924 1.96875l-2.203125 -0.296875q0.296875 -1.421875 0.984375 -2.296875q0.6875 -0.875 1.9999924 -1.34375q1.3125 -0.46875 3.03125 -0.46875q1.71875 0 2.78125 0.40625q1.078125 0.390625 1.578125 1.0q0.5 0.609375 0.703125 1.546875q0.109375 0.578125 0.109375 2.078125l0 3.03125q0 3.15625 0.140625 4.0q0.15625 0.828125 0.578125 1.59375l-2.359375 0q-0.359375 -0.703125 -0.453125 -1.640625zm-0.1875 -5.0625q-1.234375 0.5 -3.703125 0.859375q-1.390625 0.1875 -1.984375 0.453125q-0.5781174 0.25 -0.8906174 0.734375q-0.3125 0.484375 -0.3125 1.078125q0 0.890625 0.6875 1.5q0.6874924 0.609375 1.9999924 0.609375q1.3125 0 2.328125 -0.5625q1.03125 -0.578125 1.5 -1.578125q0.375 -0.765625 0.375 -2.265625l0 -0.828125z" fill-rule="nonzero"/><path fill="#ea9999" d="m496.51608 143.59055l0 0c0 -71.892685 57.533173 -130.17322 128.50394 -130.17322l0 0c34.08136 0 66.766846 13.714641 90.86603 38.126854c24.099121 24.41222 37.63794 57.52229 37.63794 92.04637l0 0c0 71.8927 -57.533203 130.17325 -128.50397 130.17325l0 0c-70.970764 0 -128.50394 -58.28055 -128.50394 -130.17325z" fill-rule="evenodd"/><path stroke="#000000" stroke-width="1.0" stroke-linejoin="round" stroke-linecap="butt" d="m496.51608 143.59055l0 0c0 -71.892685 57.533173 -130.17322 128.50394 -130.17322l0 0c34.08136 0 66.766846 13.714641 90.86603 38.126854c24.099121 24.41222 37.63794 57.52229 37.63794 92.04637l0 0c0 71.8927 -57.533203 130.17325 -128.50397 130.17325l0 0c-70.970764 0 -128.50394 -58.28055 -128.50394 -130.17325z" fill-rule="evenodd"/><path fill="#000000" fill-opacity="0.0" d="m496.51608 143.59055l-253.98425 0" fill-rule="evenodd"/><path stroke="#000000" stroke-width="1.0" stroke-linejoin="round" stroke-linecap="butt" d="m496.51608 143.59055l-253.98425 0" fill-rule="evenodd"/><path fill="#cfe2f3" d="m448.85187 422.3875l223.30707 0l0 226.20471l-223.30707 0z" fill-rule="evenodd"/><path stroke="#000000" stroke-width="1.0" stroke-linejoin="round" stroke-linecap="butt" d="m448.85187 422.3875l223.30707 0l0 226.20471l-223.30707 0z" fill-rule="evenodd"/><path fill="#ea9999" d="m1018.09015 536.1362l0 0c0 -71.89267 57.533142 -130.17322 128.50397 -130.17322l0 0c34.0813 0 66.766846 13.714661 90.86597 38.12686c24.099121 24.412231 37.63794 57.52231 37.63794 92.04636l0 0c0 71.8927 -57.533203 130.17328 -128.5039 130.17328l0 0c-70.970825 0 -128.50397 -58.28058 -128.50397 -130.17328z" fill-rule="evenodd"/><path stroke="#000000" stroke-width="1.0" stroke-linejoin="round" stroke-linecap="butt" d="m1018.09015 536.1362l0 0c0 -71.89267 57.533142 -130.17322 128.50397 -130.17322l0 0c34.0813 0 66.766846 13.714661 90.86597 38.12686c24.099121 24.412231 37.63794 57.52231 37.63794 92.04636l0 0c0 71.8927 -57.533203 130.17328 -128.5039 130.17328l0 0c-70.970825 0 -128.50397 -58.28058 -128.50397 -130.17328z" fill-rule="evenodd"/><path fill="#000000" fill-opacity="0.0" d="m672.15894 535.48987l345.92126 0.661438" fill-rule="evenodd"/><path stroke="#000000" stroke-width="1.0" stroke-linejoin="round" stroke-linecap="butt" d="m672.15894 535.48987l345.92126 0.661438" fill-rule="evenodd"/><path fill="#cfe2f3" d="m511.48648 802.53876l223.3071 0l0 226.20477l-223.3071 0z" fill-rule="evenodd"/><path stroke="#000000" stroke-width="1.0" stroke-linejoin="round" stroke-linecap="butt" d="m511.48648 802.53876l223.3071 0l0 226.20477l-223.3071 0z" fill-rule="evenodd"/><path fill="#ea9999" d="m917.7903 915.6392l0 0c0 -71.89264 57.533142 -130.17322 128.5039 -130.17322l0 0c34.08142 0 66.766846 13.714661 90.86597 38.126892c24.099243 24.41217 37.63794 57.522278 37.63794 92.046326l0 0c0 71.8927 -57.53308 130.17328 -128.5039 130.17328l0 0c-70.970764 0 -128.5039 -58.28058 -128.5039 -130.17328z" fill-rule="evenodd"/><path stroke="#000000" stroke-width="1.0" stroke-linejoin="round" stroke-linecap="butt" d="m917.7903 915.6392l0 0c0 -71.89264 57.533142 -130.17322 128.5039 -130.17322l0 0c34.08142 0 66.766846 13.714661 90.86597 38.126892c24.099243 24.41217 37.63794 57.522278 37.63794 92.046326l0 0c0 71.8927 -57.53308 130.17328 -128.5039 130.17328l0 0c-70.970764 0 -128.5039 -58.28058 -128.5039 -130.17328z" fill-rule="evenodd"/><path fill="#000000" d="m1018.9767 900.7536l8.453125 -0.75q0.609375 5.09375 2.796875 8.359375q2.203125 3.25 6.828125 5.265625q4.625 2.0 10.390625 2.0q5.140625 0 9.0625 -1.515625q3.921875 -1.53125 5.84375 -4.1875q1.921875 -2.65625 1.921875 -5.796875q0 -3.1875 -1.859375 -5.5625q-1.84375 -2.390625 -6.09375 -4.015625q-2.71875 -1.0625 -12.0625 -3.296875q-9.328125 -2.25 -13.078125 -4.234375q-4.859375 -2.53125 -7.234375 -6.296875q-2.375 -3.78125 -2.375 -8.4375q0 -5.140625 2.90625 -9.59375q2.90625 -4.46875 8.5 -6.765625q5.59375 -2.3125 12.4375 -2.3125q7.53125 0 13.28125 2.421875q5.765625 2.421875 8.859375 7.140625q3.09375 4.71875 3.328125 10.671875l-8.59375 0.65625q-0.703125 -6.4375 -4.703125 -9.71875q-3.984375 -3.28125 -11.796875 -3.28125q-8.140625 0 -11.859375 2.984375q-3.71875 2.984375 -3.71875 7.1875q0 3.65625 2.640625 6.015625q2.578125 2.359375 13.5 4.828125q10.9375 2.46875 15.015625 4.3125q5.90625 2.734375 8.71875 6.921875q2.828125 4.171875 2.828125 9.625q0 5.40625 -3.09375 10.203125q-3.09375 4.78125 -8.90625 7.4375q-5.796875 2.65625 -13.046875 2.65625q-9.203125 0 -15.421875 -2.671875q-6.203125 -2.6875 -9.75 -8.0625q-3.53125 -5.390625 -3.71875 -12.1875z" fill-rule="nonzero"/><path fill="#000000" d="m1048.4315 967.39923l-1.984375 0l0 -12.6875q-0.71875 0.6875 -1.890625 1.375q-1.171875 0.6875 -2.09375 1.03125l0 -1.9375q1.671875 -0.78125 2.921875 -1.890625q1.25 -1.125 1.765625 -2.171875l1.28125 0l0 16.28125z" fill-rule="nonzero"/><path fill="#000000" d="m1005.2732 994.39923l0 -16.21875l11.71875 0l0 1.921875l-9.578125 0l0 4.953125l8.96875 0l0 1.90625l-8.96875 0l0 5.53125l9.953125 0l0 1.90625l-12.09375 0zm14.814697 4.5l0 -16.25l1.8125 0l0 1.53125q0.640625 -0.90625 1.4375 -1.34375q0.8125 -0.453125 1.96875 -0.453125q1.5 0 2.640625 0.78125q1.15625 0.765625 1.734375 2.1875q0.59375 1.40625 0.59375 3.078125q0 1.8125 -0.640625 3.265625q-0.640625 1.4375 -1.875 2.203125q-1.234375 0.765625 -2.59375 0.765625q-1.0 0 -1.796875 -0.421875q-0.78125 -0.421875 -1.296875 -1.0625l0 5.71875l-1.984375 0zm1.796875 -10.3125q0 2.265625 0.921875 3.359375q0.921875 1.078125 2.21875 1.078125q1.328125 0 2.265625 -1.125q0.953125 -1.125 0.953125 -3.46875q0 -2.25 -0.921875 -3.359375q-0.921875 -1.125 -2.203125 -1.125q-1.28125 0 -2.265625 1.1875q-0.96875 1.1875 -0.96875 3.453125zm10.803467 -8.109375l0 -2.296875l2.0 0l0 2.296875l-2.0 0zm0 13.921875l0 -11.75l2.0 0l0 11.75l-2.0 0zm4.9865723 0l0 -16.21875l1.984375 0l0 16.21875l-1.984375 0zm13.111572 -3.78125l2.0625 0.25q-0.484375 1.8125 -1.8125 2.8125q-1.3125 0.984375 -3.359375 0.984375q-2.578125 0 -4.09375 -1.578125q-1.5 -1.59375 -1.5 -4.46875q0 -2.953125 1.53125 -4.59375q1.53125 -1.640625 3.953125 -1.640625q2.359375 0 3.84375 1.609375q1.5 1.59375 1.5 4.515625q0 0.171875 0 0.53125l-8.765625 0q0.109375 1.9375 1.09375 2.96875q0.984375 1.015625 2.453125 1.015625q1.09375 0 1.859375 -0.5625q0.78125 -0.578125 1.234375 -1.84375zm-6.53125 -3.21875l6.5625 0q-0.140625 -1.484375 -0.75 -2.21875q-0.953125 -1.15625 -2.46875 -1.15625q-1.375 0 -2.3125 0.921875q-0.9375 0.90625 -1.03125 2.453125zm11.100342 11.5l0 -16.25l1.8125 0l0 1.53125q0.640625 -0.90625 1.4375 -1.34375q0.8125 -0.453125 1.96875 -0.453125q1.5 0 2.640625 0.78125q1.15625 0.765625 1.734375 2.1875q0.59375 1.40625 0.59375 3.078125q0 1.8125 -0.640625 3.265625q-0.640625 1.4375 -1.875 2.203125q-1.234375 0.765625 -2.59375 0.765625q-1.0 0 -1.796875 -0.421875q-0.78125 -0.421875 -1.296875 -1.0625l0 5.71875l-1.984375 0zm1.796875 -10.3125q0 2.265625 0.921875 3.359375q0.921875 1.078125 2.21875 1.078125q1.328125 0 2.265625 -1.125q0.953125 -1.125 0.953125 -3.46875q0 -2.25 -0.921875 -3.359375q-0.921875 -1.125 -2.203125 -1.125q-1.28125 0 -2.265625 1.1875q-0.96875 1.1875 -0.96875 3.453125zm10.006592 2.3125l1.96875 -0.3125q0.15625 1.171875 0.90625 1.8125q0.765625 0.625 2.125 0.625q1.375 0 2.03125 -0.546875q0.671875 -0.5625 0.671875 -1.3125q0 -0.6875 -0.578125 -1.0625q-0.421875 -0.265625 -2.046875 -0.6875q-2.1875 -0.546875 -3.03125 -0.953125q-0.84375 -0.40625 -1.28125 -1.109375q-0.4375 -0.71875 -0.4375 -1.578125q0 -0.796875 0.359375 -1.453125q0.359375 -0.671875 0.984375 -1.125q0.453125 -0.328125 1.25 -0.5625q0.8125 -0.25 1.734375 -0.25q1.375 0 2.421875 0.40625q1.046875 0.390625 1.546875 1.078125q0.5 0.671875 0.6875 1.8125l-1.953125 0.265625q-0.125 -0.90625 -0.765625 -1.40625q-0.640625 -0.515625 -1.796875 -0.515625q-1.375 0 -1.96875 0.453125q-0.578125 0.453125 -0.578125 1.0625q0 0.390625 0.25 0.6875q0.234375 0.328125 0.75 0.53125q0.3125 0.125 1.765625 0.515625q2.109375 0.5625 2.9375 0.921875q0.84375 0.359375 1.3125 1.046875q0.484375 0.6875 0.484375 1.703125q0 1.0 -0.578125 1.875q-0.578125 0.875 -1.671875 1.359375q-1.09375 0.484375 -2.484375 0.484375q-2.296875 0 -3.5 -0.953125q-1.1875 -0.953125 -1.515625 -2.8125zm12.03125 8.03125l-0.21875 -1.875q0.65625 0.171875 1.140625 0.171875q0.65625 0 1.046875 -0.21875q0.40625 -0.21875 0.65625 -0.625q0.1875 -0.296875 0.609375 -1.46875q0.0625 -0.171875 0.1875 -0.5l-4.46875 -11.765625l2.15625 0l2.4375 6.8125q0.484375 1.28125 0.859375 2.71875q0.34375 -1.375 0.8125 -2.6875l2.515625 -6.84375l1.984375 0l-4.46875 11.953125q-0.71875 1.9375 -1.109375 2.65625q-0.53125 0.984375 -1.21875 1.4375q-0.6875 0.46875 -1.640625 0.46875q-0.578125 0 -1.28125 -0.234375z" fill-rule="nonzero"/><path fill="#000000" fill-opacity="0.0" d="m1046.2942 785.466l0 -73.00787l-293.7008 0" fill-rule="evenodd"/><path stroke="#000000" stroke-width="1.0" stroke-linejoin="round" stroke-linecap="butt" d="m1046.2942 785.466l0 -73.00787l-293.7008 0" fill-rule="evenodd"/><path fill="#000000" fill-opacity="0.0" d="m623.14 802.53876l0 -90.11023l142.48816 0" fill-rule="evenodd"/><path stroke="#000000" stroke-width="1.0" stroke-linejoin="round" stroke-linecap="butt" d="m623.14 802.53876l0 -90.11023l142.48816 0" fill-rule="evenodd"/><path fill="#000000" fill-opacity="0.0" d="m824.01575 534.3333l0 180.28351" fill-rule="evenodd"/><path stroke="#000000" stroke-width="1.0" stroke-linejoin="round" stroke-linecap="butt" d="m824.01575 534.3333l0 180.28351" fill-rule="evenodd"/><path fill="#ea9999" d="m39.990387 536.1362l0 0c0 -71.89267 57.533173 -130.17322 128.50394 -130.17322l0 0c34.08136 0 66.766846 13.714661 90.866 38.12686c24.099182 24.412231 37.63794 57.52231 37.63794 92.04636l0 0c0 71.8927 -57.533173 130.17328 -128.50394 130.17328l0 0c-70.970764 0 -128.50394 -58.28058 -128.50394 -130.17328z" fill-rule="evenodd"/><path stroke="#000000" stroke-width="1.0" stroke-linejoin="round" stroke-linecap="butt" d="m39.990387 536.1362l0 0c0 -71.89267 57.533173 -130.17322 128.50394 -130.17322l0 0c34.08136 0 66.766846 13.714661 90.866 38.12686c24.099182 24.412231 37.63794 57.52231 37.63794 92.04636l0 0c0 71.8927 -57.533173 130.17328 -128.50394 130.17328l0 0c-70.970764 0 -128.50394 -58.28058 -128.50394 -130.17328z" fill-rule="evenodd"/><path fill="#000000" d="m161.86649 484.59625l0 -4.875l-8.828125 0l0 -2.296875l9.296875 -13.1875l2.03125 0l0 13.1875l2.75 0l0 2.296875l-2.75 0l0 4.875l-2.5 0zm0 -7.171875l0 -9.171875l-6.375 9.171875l6.375 0zm17.221588 7.171875l-2.5 0l0 -15.921875q-0.90625 0.859375 -2.375 1.71875q-1.453125 0.859375 -2.625 1.296875l0 -2.421875q2.09375 -0.984375 3.65625 -2.390625q1.578125 -1.40625 2.234375 -2.71875l1.609375 0l0 20.4375z" fill-rule="nonzero"/><path fill="#000000" d="m94.9064 535.59625l0 -20.359375l2.6875 0l0 8.359375l10.578125 0l0 -8.359375l2.703125 0l0 20.359375l-2.703125 0l0 -9.59375l-10.578125 0l0 9.59375l-2.6875 0zm20.020706 5.671875l-0.28125 -2.34375q0.828125 0.234375 1.4375 0.234375q0.828125 0 1.328125 -0.28125q0.5 -0.28125 0.8125 -0.78125q0.234375 -0.375 0.765625 -1.859375q0.078125 -0.203125 0.21875 -0.609375l-5.59375 -14.78125l2.703125 0l3.0625 8.546875q0.59375 1.625 1.078125 3.40625q0.421875 -1.71875 1.015625 -3.359375l3.15625 -8.59375l2.5 0l-5.609375 15.0q-0.90625 2.4375 -1.40625 3.34375q-0.65625 1.234375 -1.53125 1.8125q-0.859375 0.578125 -2.046875 0.578125q-0.71875 0 -1.609375 -0.3125zm14.327896 -0.015625l0 -20.40625l2.28125 0l0 1.921875q0.796875 -1.125 1.8125 -1.6875q1.015625 -0.5625 2.453125 -0.5625q1.890625 0 3.328125 0.96875q1.453125 0.96875 2.1875 2.75q0.734375 1.765625 0.734375 3.875q0 2.265625 -0.8125 4.078125q-0.8125 1.8125 -2.359375 2.78125q-1.546875 0.953125 -3.25 0.953125q-1.25 0 -2.25 -0.515625q-0.984375 -0.53125 -1.625 -1.34375l0 7.1875l-2.5 0zm2.265625 -12.953125q0 2.859375 1.140625 4.21875q1.15625 1.359375 2.796875 1.359375q1.671875 0 2.859375 -1.40625q1.1875 -1.421875 1.1875 -4.375q0 -2.8125 -1.171875 -4.21875q-1.15625 -1.40625 -2.765625 -1.40625q-1.59375 0 -2.828125 1.5q-1.21875 1.484375 -1.21875 4.328125zm23.643463 2.546875l2.578125 0.328125q-0.609375 2.25 -2.265625 3.5q-1.640625 1.25 -4.21875 1.25q-3.234375 0 -5.125 -1.984375q-1.890625 -2.0 -1.890625 -5.59375q0 -3.71875 1.90625 -5.765625q1.921875 -2.0625 4.96875 -2.0625q2.96875 0 4.84375 2.015625q1.875 2.015625 1.875 5.65625q0 0.234375 -0.015625 0.671875l-11.0 0q0.140625 2.4375 1.375 3.734375q1.234375 1.28125 3.078125 1.28125q1.375 0 2.34375 -0.71875q0.984375 -0.734375 1.546875 -2.3125zm-8.203125 -4.046875l8.234375 0q-0.171875 -1.859375 -0.953125 -2.78125q-1.1875 -1.453125 -3.09375 -1.453125q-1.71875 0 -2.890625 1.15625q-1.171875 1.15625 -1.296875 3.078125zm13.893463 8.796875l0 -14.75l2.25 0l0 2.234375q0.859375 -1.5625 1.59375 -2.0625q0.734375 -0.5 1.609375 -0.5q1.25 0 2.5625 0.796875l-0.859375 2.328125q-0.921875 -0.546875 -1.828125 -0.546875q-0.828125 0 -1.484375 0.5q-0.640625 0.484375 -0.921875 1.359375q-0.421875 1.34375 -0.421875 2.921875l0 7.71875l-2.5 0zm14.954132 -2.234375l0.359375 2.203125q-1.046875 0.21875 -1.890625 0.21875q-1.359375 0 -2.109375 -0.421875q-0.75 -0.4375 -1.0625 -1.125q-0.296875 -0.703125 -0.296875 -2.953125l0 -8.484375l-1.828125 0l0 -1.953125l1.828125 0l0 -3.640625l2.484375 -1.5l0 5.140625l2.515625 0l0 1.953125l-2.515625 0l0 8.625q0 1.0625 0.125 1.375q0.140625 0.296875 0.4375 0.484375q0.296875 0.171875 0.859375 0.171875q0.421875 0 1.09375 -0.09375zm12.541351 -2.515625l2.578125 0.328125q-0.609375 2.25 -2.265625 3.5q-1.640625 1.25 -4.21875 1.25q-3.234375 0 -5.125 -1.984375q-1.890625 -2.0 -1.890625 -5.59375q0 -3.71875 1.90625 -5.765625q1.921875 -2.0625 4.96875 -2.0625q2.96875 0 4.84375 2.015625q1.875 2.015625 1.875 5.65625q0 0.234375 -0.015625 0.671875l-11.0 0q0.140625 2.4375 1.375 3.734375q1.234375 1.28125 3.078125 1.28125q1.375 0 2.34375 -0.71875q0.984375 -0.734375 1.546875 -2.3125zm-8.203125 -4.046875l8.234375 0q-0.171875 -1.859375 -0.953125 -2.78125q-1.1875 -1.453125 -3.09375 -1.453125q-1.71875 0 -2.890625 1.15625q-1.171875 1.15625 -1.296875 3.078125zm13.924713 8.796875l0 -14.75l2.25 0l0 2.09375q1.625 -2.421875 4.6875 -2.421875q1.34375 0 2.453125 0.484375q1.125 0.46875 1.671875 1.25q0.56248474 0.78125 0.78123474 1.84375q0.140625 0.703125 0.140625 2.4375l0 9.0625l-2.4999847 0l0 -8.96875q0 -1.53125 -0.296875 -2.28125q-0.28125 -0.765625 -1.03125 -1.203125q-0.734375 -0.453125 -1.734375 -0.453125q-1.609375 0 -2.765625 1.015625q-1.15625 1.0 -1.15625 3.84375l0 8.046875l-2.5 0zm14.815323 -4.40625l2.46875 -0.390625q0.21875 1.484375 1.15625 2.28125q0.953125 0.796875 2.671875 0.796875q1.71875 0 2.546875 -0.703125q0.828125 -0.703125 0.828125 -1.640625q0 -0.859375 -0.734375 -1.34375q-0.515625 -0.328125 -2.546875 -0.84375q-2.75 -0.6875 -3.8125 -1.1875q-1.0625 -0.515625 -1.609375 -1.40625q-0.546875 -0.90625 -0.546875 -1.984375q0 -0.984375 0.4375 -1.828125q0.453125 -0.84375 1.234375 -1.390625q0.59375 -0.4375 1.59375 -0.734375q1.0 -0.296875 2.15625 -0.296875q1.734375 0 3.046875 0.5q1.3125 0.5 1.9375 1.359375q0.625 0.84375 0.859375 2.28125l-2.4375 0.328125q-0.171875 -1.140625 -0.96875 -1.78125q-0.796875 -0.640625 -2.25 -0.640625q-1.734375 0 -2.46875 0.578125q-0.734375 0.5625 -0.734375 1.328125q0 0.484375 0.3125 0.875q0.296875 0.40625 0.953125 0.671875q0.375 0.140625 2.203125 0.640625q2.65625 0.703125 3.703125 1.15625q1.046875 0.453125 1.640625 1.3125q0.609375 0.859375 0.609375 2.140625q0 1.25 -0.734375 2.359375q-0.734375 1.09375 -2.109375 1.703125q-1.359375 0.59375 -3.109375 0.59375q-2.875 0 -4.375 -1.1875q-1.5 -1.203125 -1.921875 -3.546875zm15.234161 -13.078125l0 -2.875l2.5 0l0 2.875l-2.5 0zm0 17.484375l0 -14.75l2.5 0l0 14.75l-2.5 0zm5.3646545 -7.375q0 -4.09375 2.28125 -6.0625q1.90625 -1.640625 4.640625 -1.640625q3.046875 0 4.96875 2.0q1.9375 1.984375 1.9375 5.5q0 2.84375 -0.859375 4.484375q-0.859375 1.625 -2.484375 2.53125q-1.625 0.890625 -3.5625 0.890625q-3.09375 0 -5.015625 -1.984375q-1.90625 -1.984375 -1.90625 -5.71875zm2.578125 0q0 2.828125 1.234375 4.25q1.234375 1.40625 3.109375 1.40625q1.859375 0 3.09375 -1.40625q1.234375 -1.421875 1.234375 -4.328125q0 -2.734375 -1.25 -4.140625q-1.234375 -1.421875 -3.078125 -1.421875q-1.875 0 -3.109375 1.40625q-1.234375 1.40625 -1.234375 4.234375z" fill-rule="nonzero"/><path fill="#000000" d="m162.46165 586.59625l0 -14.75l2.25 0l0 2.09375q1.625 -2.421875 4.6875 -2.421875q1.34375 0 2.453125 0.484375q1.125 0.46875 1.671875 1.25q0.5625 0.78125 0.78125 1.84375q0.140625 0.703125 0.140625 2.4375l0 9.0625l-2.5 0l0 -8.96875q0 -1.53125 -0.296875 -2.28125q-0.28125 -0.765625 -1.03125 -1.203125q-0.734375 -0.453125 -1.734375 -0.453125q-1.609375 0 -2.765625 1.015625q-1.15625 1.0 -1.15625 3.84375l0 8.046875l-2.5 0z" fill-rule="nonzero"/><path fill="#000000" fill-opacity="0.0" d="m560.50543 422.3875l0 -98.74017l-239.02362 0" fill-rule="evenodd"/><path stroke="#000000" stroke-width="1.0" stroke-linejoin="round" stroke-linecap="butt" d="m560.50543 422.3875l0 -98.74017l-239.02362 0" fill-rule="evenodd"/><path fill="#000000" fill-opacity="0.0" d="m168.49432 405.963l0 -82.33069l155.1496 0" fill-rule="evenodd"/><path stroke="#000000" stroke-width="1.0" stroke-linejoin="round" stroke-linecap="butt" d="m168.49432 405.963l0 -82.33069l155.1496 0" fill-rule="evenodd"/><path fill="#000000" fill-opacity="0.0" d="m371.48557 143.59055l0 180.28348" fill-rule="evenodd"/><path stroke="#000000" stroke-width="1.0" stroke-linejoin="round" stroke-linecap="butt" d="m371.48557 143.59055l0 180.28348" fill-rule="evenodd"/></g></svg>