<svg version="1.1" viewBox="0.0 0.0 2414.514435695538 1619.8110236220473" fill="none" stroke="none" stroke-linecap="square" stroke-miterlimit="10" xmlns:xlink="http://www.w3.org/1999/xlink" xmlns="http://www.w3.org/2000/svg"><clipPath id="p.0"><path d="m0 0l2414.5144 0l0 1619.811l-2414.5144 0l0 -1619.811z" clip-rule="nonzero"/></clipPath><g clip-path="url(#p.0)"><path fill="#000000" fill-opacity="0.0" d="m0 0l2414.5144 0l0 1619.811l-2414.5144 0z" fill-rule="evenodd"/><path fill="#000000" d="m393.9239 128.76175l223.30707 0l0 226.20471l-223.30707 0z" fill-rule="evenodd"/><path stroke="#000000" stroke-width="1.0" stroke-linejoin="round" stroke-linecap="butt" d="m393.9239 128.76175l223.30707 0l0 226.20471l-223.30707 0z" fill-rule="evenodd"/><path fill="#ffffff" d="m461.24344 189.53348l0 -3.046875l16.6875 0l0 2.46875q-2.46875 2.609375 -4.890625 6.953125q-2.40625 4.34375 -3.71875 8.9375q-0.953125 3.234375 -1.21875 7.078125l-3.25 0q0.046875 -3.046875 1.1875 -7.34375q1.140625 -4.3125 3.28125 -8.3125q2.140625 -4.0 4.546875 -6.734375l-12.625 0zm20.021484 0l0 -3.046875l16.6875 0l0 2.46875q-2.46875 2.609375 -4.890625 6.953125q-2.40625 4.34375 -3.71875 8.9375q-0.953125 3.234375 -1.21875 7.078125l-3.25 0q0.046875 -3.046875 1.1875 -7.34375q1.140625 -4.3125 3.28125 -8.3125q2.140625 -4.0 4.546875 -6.734375l-12.625 0zm19.458984 14.65625l0 -3.1875l9.71875 0l0 3.1875l-9.71875 0zm12.550812 -14.65625l0 -3.046875l16.687439 0l0 2.46875q-2.46875 2.609375 -4.890625 6.953125q-2.40625 4.34375 -3.718689 8.9375q-0.953125 3.234375 -1.21875 7.078125l-3.25 0q0.046875 -3.046875 1.1875 -7.34375q1.140625 -4.3125 3.28125 -8.3125q2.140564 -4.0 4.546814 -6.734375l-12.624939 0zm24.677673 8.421875q-1.96875 -0.734375 -2.921875 -2.0625q-0.9375 -1.34375 -0.9375 -3.203125q0 -2.8125 2.015625 -4.71875q2.03125 -1.921875 5.375 -1.921875q3.375 0 5.4375 1.96875q2.0625 1.953125 2.0625 4.765625q0 1.796875 -0.953125 3.125q-0.9375 1.3125 -2.84375 2.046875q2.375 0.765625 3.609375 2.5q1.234375 1.71875 1.234375 4.109375q0 3.296875 -2.34375 5.546875q-2.328125 2.25 -6.140625 2.25q-3.8125 0 -6.15625 -2.25q-2.34375 -2.265625 -2.34375 -5.640625q0 -2.515625 1.28125 -4.203125q1.28125 -1.703125 3.625 -2.3125zm-0.625 -5.375q0 1.828125 1.171875 3.0q1.1875 1.15625 3.0625 1.15625q1.828125 0 3.0 -1.140625q1.171875 -1.15625 1.171875 -2.828125q0 -1.75 -1.21875 -2.9375q-1.203125 -1.1875 -2.984375 -1.1875q-1.8125 0 -3.015625 1.171875q-1.1875 1.15625 -1.1875 2.765625zm-1.015625 11.90625q0 1.359375 0.640625 2.625q0.640625 1.265625 1.90625 1.96875q1.265625 0.6875 2.71875 0.6875q2.265625 0 3.734375 -1.453125q1.484375 -1.46875 1.484375 -3.71875q0 -2.28125 -1.515625 -3.78125q-1.515625 -1.5 -3.8125 -1.5q-2.234375 0 -3.703125 1.484375q-1.453125 1.46875 -1.453125 3.6875z" fill-rule="nonzero"/><path fill="#ffffff" d="m410.42606 297.9241l0 -25.765625l3.40625 0l0 10.578125l13.390625 0l0 -10.578125l3.40625 0l0 25.765625l-3.40625 0l0 -12.140625l-13.390625 0l0 12.140625l-3.40625 0zm38.26367 -6.015625l3.265625 0.40625q-0.765625 2.859375 -2.859375 4.453125q-2.09375 1.578125 -5.34375 1.578125q-4.09375 0 -6.5 -2.515625q-2.40625 -2.53125 -2.40625 -7.078125q0 -4.71875 2.421875 -7.3125q2.4375 -2.609375 6.296875 -2.609375q3.75 0 6.125 2.546875q2.375 2.546875 2.375 7.171875q0 0.28125 -0.015625 0.84375l-13.921875 0q0.171875 3.078125 1.734375 4.71875q1.5625 1.625 3.90625 1.625q1.734375 0 2.96875 -0.90625q1.234375 -0.921875 1.953125 -2.921875zm-10.390625 -5.109375l10.421875 0q-0.203125 -2.359375 -1.1875 -3.53125q-1.515625 -1.828125 -3.921875 -1.828125q-2.1875 0 -3.671875 1.453125q-1.484375 1.453125 -1.640625 3.90625zm29.81836 8.828125q-1.765625 1.484375 -3.390625 2.109375q-1.625 0.609375 -3.484375 0.609375q-3.078125 0 -4.734375 -1.5q-1.65625 -1.5 -1.65625 -3.84375q0 -1.375 0.625 -2.5q0.625 -1.140625 1.640625 -1.828125q1.015625 -0.6875 2.28125 -1.03125q0.921875 -0.25 2.8125 -0.484375q3.828125 -0.453125 5.640625 -1.078125q0.015625 -0.65625 0.015625 -0.828125q0 -1.9375 -0.90625 -2.734375q-1.203125 -1.0625 -3.59375 -1.0625q-2.234375 0 -3.296875 0.78125q-1.0625 0.78125 -1.578125 2.765625l-3.09375 -0.421875q0.421875 -1.984375 1.390625 -3.203125q0.96875 -1.21875 2.796875 -1.875q1.828125 -0.671875 4.234375 -0.671875q2.390625 0 3.875 0.5625q1.5 0.5625 2.203125 1.421875q0.703125 0.84375 0.984375 2.15625q0.15625 0.796875 0.15625 2.90625l0 4.21875q0 4.421875 0.203125 5.59375q0.203125 1.15625 0.8125 2.234375l-3.3125 0q-0.484375 -0.984375 -0.625 -2.296875zm-0.265625 -7.078125q-1.734375 0.703125 -5.171875 1.203125q-1.953125 0.28125 -2.765625 0.640625q-0.796875 0.34375 -1.25 1.015625q-0.4375 0.671875 -0.4375 1.5q0 1.265625 0.953125 2.109375q0.96875 0.84375 2.8125 0.84375q1.828125 0 3.25 -0.796875q1.421875 -0.796875 2.09375 -2.1875q0.515625 -1.078125 0.515625 -3.15625l0 -1.171875zm8.068359 9.375l0 -18.671875l2.84375 0l0 2.828125q1.09375 -1.984375 2.015625 -2.609375q0.921875 -0.640625 2.03125 -0.640625q1.59375 0 3.25 1.015625l-1.09375 2.9375q-1.15625 -0.6875 -2.3125 -0.6875q-1.046875 0 -1.875 0.625q-0.828125 0.625 -1.171875 1.734375q-0.53125 1.6875 -0.53125 3.6875l0 9.78125l-3.15625 0zm18.925781 -2.828125l0.453125 2.796875q-1.328125 0.28125 -2.390625 0.28125q-1.71875 0 -2.671875 -0.546875q-0.9375 -0.546875 -1.328125 -1.4375q-0.390625 -0.890625 -0.390625 -3.734375l0 -10.734375l-2.3125 0l0 -2.46875l2.3125 0l0 -4.625l3.140625 -1.890625l0 6.515625l3.1875 0l0 2.46875l-3.1875 0l0 10.90625q0 1.359375 0.171875 1.75q0.171875 0.375 0.546875 0.609375q0.375 0.234375 1.078125 0.234375q0.53125 0 1.390625 -0.125zm8.689453 2.828125l9.8906555 -25.765625l3.671875 0l10.546814 25.765625l-3.875 0l-3.015564 -7.8125l-10.7656555 0l-2.84375 7.8125l-3.609375 0zm7.4375 -10.578125l8.7344055 0l-2.6875 -7.140625q-1.234375 -3.25 -1.828125 -5.34375q-0.5 2.484375 -1.390625 4.921875l-2.8281555 7.5625zm25.902313 7.75l0.453125 2.796875q-1.328125 0.28125 -2.390625 0.28125q-1.71875 0 -2.671875 -0.546875q-0.9375 -0.546875 -1.328125 -1.4375q-0.390625 -0.890625 -0.390625 -3.734375l0 -10.734375l-2.3125 0l0 -2.46875l2.3125 0l0 -4.625l3.140625 -1.890625l0 6.515625l3.1875 0l0 2.46875l-3.1875 0l0 10.90625q0 1.359375 0.171875 1.75q0.171875 0.375 0.546875 0.609375q0.375 0.234375 1.078125 0.234375q0.53125 0 1.390625 -0.125zm10.001953 0l0.453125 2.796875q-1.328125 0.28125 -2.390625 0.28125q-1.71875 0 -2.671875 -0.546875q-0.9375 -0.546875 -1.328125 -1.4375q-0.390625 -0.890625 -0.390625 -3.734375l0 -10.734375l-2.3125 0l0 -2.46875l2.3125 0l0 -4.625l3.140625 -1.890625l0 6.515625l3.1875 0l0 2.46875l-3.1875 0l0 10.90625q0 1.359375 0.171875 1.75q0.171875 0.375 0.546875 0.609375q0.375 0.234375 1.078125 0.234375q0.53125 0 1.390625 -0.125zm15.283203 0.53125q-1.765625 1.484375 -3.390625 2.109375q-1.625 0.609375 -3.484375 0.609375q-3.078125 0 -4.734375 -1.5q-1.65625 -1.5 -1.65625 -3.84375q0 -1.375 0.625 -2.5q0.625 -1.140625 1.640625 -1.828125q1.015625 -0.6875 2.28125 -1.03125q0.921875 -0.25 2.8125 -0.484375q3.828125 -0.453125 5.640625 -1.078125q0.015625 -0.65625 0.015625 -0.828125q0 -1.9375 -0.90625 -2.734375q-1.203125 -1.0625 -3.59375 -1.0625q-2.234375 0 -3.296875 0.78125q-1.0625 0.78125 -1.578125 2.765625l-3.09375 -0.421875q0.421875 -1.984375 1.390625 -3.203125q0.96875 -1.21875 2.796875 -1.875q1.828125 -0.671875 4.234375 -0.671875q2.390625 0 3.875 0.5625q1.5 0.5625 2.203125 1.421875q0.703125 0.84375 0.984375 2.15625q0.15625 0.796875 0.15625 2.90625l0 4.21875q0 4.421875 0.203125 5.59375q0.203125 1.15625 0.8125 2.234375l-3.3125 0q-0.484375 -0.984375 -0.625 -2.296875zm-0.265625 -7.078125q-1.734375 0.703125 -5.171875 1.203125q-1.953125 0.28125 -2.765625 0.640625q-0.796875 0.34375 -1.25 1.015625q-0.4375 0.671875 -0.4375 1.5q0 1.265625 0.953125 2.109375q0.96875 0.84375 2.8125 0.84375q1.828125 0 3.25 -0.796875q1.421875 -0.796875 2.09375 -2.1875q0.515625 -1.078125 0.515625 -3.15625l0 -1.171875zm20.28711 2.53125l3.109375 0.40625q-0.515625 3.21875 -2.625 5.046875q-2.09375 1.8125 -5.15625 1.8125q-3.828125 0 -6.15625 -2.5q-2.328125 -2.515625 -2.328125 -7.1875q0 -3.015625 1.0 -5.28125q1.0 -2.28125 3.046875 -3.40625q2.046875 -1.140625 4.46875 -1.140625q3.03125 0 4.96875 1.546875q1.9375 1.53125 2.484375 4.359375l-3.078125 0.484375q-0.4375 -1.890625 -1.5625 -2.828125q-1.109375 -0.953125 -2.703125 -0.953125q-2.390625 0 -3.890625 1.71875q-1.484375 1.703125 -1.484375 5.40625q0 3.765625 1.4375 5.46875q1.453125 1.703125 3.765625 1.703125q1.859375 0 3.109375 -1.140625q1.25 -1.140625 1.59375 -3.515625zm5.828125 6.84375l0 -25.765625l3.171875 0l0 14.6875l7.484375 -7.59375l4.09375 0l-7.140625 6.921875l7.859375 11.75l-3.90625 0l-6.171875 -9.546875l-2.21875 2.140625l0 7.40625l-3.171875 0z" fill-rule="nonzero"/><path fill="#000000" d="m840.5095 241.8517l0 0c0 -71.892685 57.533203 -130.17322 128.50397 -130.17322l0 0c34.08136 0 66.766785 13.714645 90.86603 38.126854c24.099121 24.412216 37.63794 57.522293 37.63794 92.04637l0 0c0 71.892685 -57.533203 130.17323 -128.50397 130.17323l0 0c-70.970764 0 -128.50397 -58.28055 -128.50397 -130.17323z" fill-rule="evenodd"/><path stroke="#000000" stroke-width="1.0" stroke-linejoin="round" stroke-linecap="butt" d="m840.5095 241.8517l0 0c0 -71.892685 57.533203 -130.17322 128.50397 -130.17322l0 0c34.08136 0 66.766785 13.714645 90.86603 38.126854c24.099121 24.412216 37.63794 57.522293 37.63794 92.04637l0 0c0 71.892685 -57.533203 130.17323 -128.50397 130.17323l0 0c-70.970764 0 -128.50397 -58.28055 -128.50397 -130.17323z" fill-rule="evenodd"/><path fill="#ffffff" d="m940.8826 170.95857l-3.140625 0.234375q-0.421875 -1.859375 -1.1875 -2.703125q-1.296875 -1.359375 -3.171875 -1.359375q-1.515625 0 -2.65625 0.84375q-1.484375 1.09375 -2.359375 3.1875q-0.859375 2.09375 -0.890625 5.953125q1.140625 -1.734375 2.796875 -2.578125q1.65625 -0.84375 3.46875 -0.84375q3.15625 0 5.375 2.328125q2.234375 2.328125 2.234375 6.015625q0 2.4375 -1.046875 4.515625q-1.046875 2.078125 -2.875 3.1875q-1.828125 1.109375 -4.15625 1.109375q-3.953125 0 -6.453125 -2.90625q-2.484375 -2.90625 -2.484375 -9.59375q0 -7.46875 2.75 -10.859375q2.40625 -2.953125 6.484375 -2.953125q3.046875 0 4.984375 1.703125q1.953125 1.703125 2.328125 4.71875zm-12.90625 11.109375q0 1.625 0.6875 3.125q0.6875 1.484375 1.9375 2.28125q1.25 0.78125 2.625 0.78125q2.0 0 3.4375 -1.609375q1.453125 -1.625 1.453125 -4.40625q0 -2.671875 -1.4375 -4.203125q-1.421875 -1.546875 -3.578125 -1.546875q-2.140625 0 -3.640625 1.546875q-1.484375 1.53125 -1.484375 4.03125zm21.38086 -5.625q-1.96875 -0.734375 -2.921875 -2.0625q-0.9375 -1.34375 -0.9375 -3.203125q0 -2.8125 2.015625 -4.71875q2.03125 -1.921875 5.375 -1.921875q3.375 0 5.4375 1.96875q2.0625 1.953125 2.0625 4.765625q0 1.796875 -0.953125 3.125q-0.9375 1.3125 -2.84375 2.046875q2.375 0.765625 3.609375 2.5q1.234375 1.71875 1.234375 4.109375q0 3.296875 -2.34375 5.546875q-2.328125 2.25 -6.140625 2.25q-3.8125 0 -6.15625 -2.25q-2.34375 -2.265625 -2.34375 -5.640625q0 -2.515625 1.28125 -4.203125q1.28125 -1.703125 3.625 -2.3125zm-0.625 -5.375q0 1.828125 1.171875 3.0q1.1875 1.15625 3.0625 1.15625q1.828125 0 3.0 -1.140625q1.171875 -1.15625 1.171875 -2.828125q0 -1.75 -1.21875 -2.9375q-1.203125 -1.1875 -2.984375 -1.1875q-1.8125 0 -3.015625 1.171875q-1.1875 1.15625 -1.1875 2.765625zm-1.015625 11.90625q0 1.359375 0.640625 2.625q0.640625 1.265625 1.90625 1.96875q1.265625 0.6875 2.71875 0.6875q2.265625 0 3.734375 -1.453125q1.484375 -1.46875 1.484375 -3.71875q0 -2.28125 -1.515625 -3.78125q-1.515625 -1.5 -3.8125 -1.5q-2.234375 0 -3.703125 1.484375q-1.453125 1.46875 -1.453125 3.6875zm16.44336 -0.296875l0 -3.1875l9.71875 0l0 3.1875l-9.71875 0zm28.753906 -11.71875l-3.140625 0.234375q-0.421875 -1.859375 -1.1875 -2.703125q-1.296875 -1.359375 -3.171875 -1.359375q-1.515625 0 -2.65625 0.84375q-1.484375 1.09375 -2.359375 3.1875q-0.859375 2.09375 -0.890625 5.953125q1.140625 -1.734375 2.796875 -2.578125q1.65625 -0.84375 3.46875 -0.84375q3.15625 0 5.375 2.328125q2.234375 2.328125 2.234375 6.015625q0 2.4375 -1.046875 4.515625q-1.046875 2.078125 -2.875 3.1875q-1.828125 1.109375 -4.15625 1.109375q-3.953125 0 -6.453125 -2.90625q-2.484375 -2.90625 -2.484375 -9.59375q0 -7.46875 2.75 -10.859375q2.40625 -2.953125 6.484375 -2.953125q3.046875 0 4.984375 1.703125q1.953125 1.703125 2.328125 4.71875zm-12.90625 11.109375q0 1.625 0.6875 3.125q0.6875 1.484375 1.9375 2.28125q1.25 0.78125 2.625 0.78125q2.0 0 3.4375 -1.609375q1.453125 -1.625 1.453125 -4.40625q0 -2.671875 -1.4375 -4.203125q-1.421875 -1.546875 -3.578125 -1.546875q-2.140625 0 -3.640625 1.546875q-1.484375 1.53125 -1.484375 4.03125zm21.38086 -5.625q-1.96875 -0.734375 -2.921875 -2.0625q-0.9375 -1.34375 -0.9375 -3.203125q0 -2.8125 2.015625 -4.71875q2.03125 -1.921875 5.375 -1.921875q3.374939 0 5.437439 1.96875q2.0625 1.953125 2.0625 4.765625q0 1.796875 -0.953125 3.125q-0.9375 1.3125 -2.84375 2.046875q2.375 0.765625 3.609375 2.5q1.234375 1.71875 1.234375 4.109375q0 3.296875 -2.34375 5.546875q-2.328125 2.25 -6.140564 2.25q-3.8125 0 -6.15625 -2.25q-2.34375 -2.265625 -2.34375 -5.640625q0 -2.515625 1.28125 -4.203125q1.28125 -1.703125 3.625 -2.3125zm-0.625 -5.375q0 1.828125 1.171875 3.0q1.1875 1.15625 3.0625 1.15625q1.828064 0 2.999939 -1.140625q1.171875 -1.15625 1.171875 -2.828125q0 -1.75 -1.21875 -2.9375q-1.203125 -1.1875 -2.984314 -1.1875q-1.8125 0 -3.015625 1.171875q-1.1875 1.15625 -1.1875 2.765625zm-1.015625 11.90625q0 1.359375 0.640625 2.625q0.640625 1.265625 1.90625 1.96875q1.265625 0.6875 2.71875 0.6875q2.265564 0 3.734314 -1.453125q1.484375 -1.46875 1.484375 -3.71875q0 -2.28125 -1.515625 -3.78125q-1.515625 -1.5 -3.812439 -1.5q-2.234375 0 -3.703125 1.484375q-1.453125 1.46875 -1.453125 3.6875z" fill-rule="nonzero"/><path fill="#ffffff" d="m918.616 268.13046l3.203125 -0.28125q0.234375 1.9375 1.0625 3.171875q0.84375 1.234375 2.59375 2.0q1.765625 0.765625 3.96875 0.765625q1.9375 0 3.4375 -0.578125q1.5 -0.578125 2.21875 -1.578125q0.734375 -1.015625 0.734375 -2.21875q0 -1.203125 -0.703125 -2.109375q-0.703125 -0.90625 -2.3125 -1.53125q-1.046875 -0.40625 -4.59375 -1.25q-3.546875 -0.859375 -4.96875 -1.609375q-1.859375 -0.96875 -2.765625 -2.390625q-0.890625 -1.4375 -0.890625 -3.21875q0 -1.9531403 1.09375 -3.6406403q1.109375 -1.703125 3.234375 -2.578125q2.140625 -0.875 4.734375 -0.875q2.859375 0 5.046875 0.921875q2.203125 0.921875 3.375 2.71875q1.171875 1.78125 1.265625 4.0468903l-3.265625 0.25q-0.265625 -2.4375153 -1.796875 -3.6875153q-1.515625 -1.25 -4.484375 -1.25q-3.09375 0 -4.515625 1.140625q-1.40625 1.125 -1.40625 2.7187653q0 1.390625 1.0 2.296875q0.984375 0.890625 5.140625 1.828125q4.15625 0.9375 5.703125 1.640625q2.25 1.046875 3.3125 2.640625q1.078125 1.578125 1.078125 3.65625q0 2.0625 -1.171875 3.890625q-1.171875 1.8125 -3.390625 2.828125q-2.203125 1.0 -4.953125 1.0q-3.5 0 -5.875 -1.015625q-2.359375 -1.015625 -3.703125 -3.0625q-1.34375 -2.0625 -1.40625 -4.640625zm31.667969 5.453125l0.453125 2.796875q-1.328125 0.28125 -2.390625 0.28125q-1.71875 0 -2.671875 -0.546875q-0.9375 -0.546875 -1.328125 -1.4375q-0.390625 -0.890625 -0.390625 -3.734375l0 -10.734375l-2.3125 0l0 -2.46875l2.3125 0l0 -4.6250153l3.140625 -1.890625l0 6.5156403l3.1875 0l0 2.46875l-3.1875 0l0 10.90625q0 1.359375 0.171875 1.75q0.171875 0.375 0.546875 0.609375q0.375 0.234375 1.078125 0.234375q0.53125 0 1.390625 -0.125zm3.0644531 2.828125l0 -18.671875l2.84375 0l0 2.828125q1.09375 -1.984375 2.015625 -2.609375q0.921875 -0.640625 2.03125 -0.640625q1.59375 0 3.25 1.015625l-1.09375 2.9375q-1.15625 -0.6875 -2.3125 -0.6875q-1.046875 0 -1.875 0.625q-0.828125 0.625 -1.171875 1.734375q-0.53125 1.6875 -0.53125 3.6875l0 9.78125l-3.15625 0zm10.847656 -9.328125q0 -5.1875 2.875 -7.6875q2.40625 -2.078125 5.875 -2.078125q3.84375 0 6.28125 2.53125q2.453125 2.515625 2.453125 6.96875q0 3.59375 -1.078125 5.671875q-1.078125 2.0625 -3.15625 3.203125q-2.0625 1.140625 -4.5 1.140625q-3.921875 0 -6.34375 -2.515625q-2.40625 -2.515625 -2.40625 -7.234375zm3.25 0q0 3.578125 1.5625 5.359375q1.5625 1.78125 3.9375 1.78125q2.359375 0 3.921875 -1.78125q1.5625 -1.796875 1.5625 -5.46875q0 -3.46875 -1.578125 -5.25q-1.578125 -1.78125 -3.90625 -1.78125q-2.375 0 -3.9375 1.78125q-1.5625 1.765625 -1.5625 5.359375zm17.958984 9.328125l0 -25.76564l3.171875 0l0 14.687515l7.484375 -7.59375l4.09375 0l-7.140625 6.921875l7.859375 11.75l-3.90625 0l-6.171875 -9.546875l-2.21875 2.140625l0 7.40625l-3.171875 0zm30.765564 -6.015625l3.265625 0.40625q-0.765625 2.859375 -2.859375 4.453125q-2.09375 1.578125 -5.34375 1.578125q-4.09375 0 -6.499939 -2.515625q-2.40625 -2.53125 -2.40625 -7.078125q0 -4.71875 2.421875 -7.3125q2.437439 -2.609375 6.296814 -2.609375q3.75 0 6.125 2.546875q2.375 2.546875 2.375 7.171875q0 0.28125 -0.015625 0.84375l-13.921814 0q0.171875 3.078125 1.734314 4.71875q1.5625 1.625 3.90625 1.625q1.734375 0 2.96875 -0.90625q1.234375 -0.921875 1.953125 -2.921875zm-10.390564 -5.109375l10.421814 0q-0.203125 -2.359375 -1.1875 -3.53125q-1.515625 -1.828125 -3.921875 -1.828125q-2.1875 0 -3.671875 1.453125q-1.484314 1.453125 -1.640564 3.90625z" fill-rule="nonzero"/><path fill="#000000" fill-opacity="0.0" d="m840.5095 241.8517l-223.27557 0" fill-rule="evenodd"/><path stroke="#000000" stroke-width="1.0" stroke-linejoin="round" stroke-linecap="butt" d="m840.5095 241.8517l-223.27557 0" fill-rule="evenodd"/><path fill="#000000" fill-opacity="0.0" d="m840.5095 241.8517l-101.3858 0l0 288.15753" fill-rule="evenodd"/><path stroke="#000000" stroke-width="1.0" stroke-linejoin="round" stroke-linecap="butt" d="m840.5095 241.8517l-101.3858 0l0 288.15753" fill-rule="evenodd"/><path fill="#000000" d="m1617.7997 241.8517l0 0c0 -71.892685 57.533203 -130.17322 128.50403 -130.17322l0 0c34.0813 0 66.766846 13.714645 90.86597 38.126854c24.099121 24.412216 37.63794 57.522293 37.63794 92.04637l0 0c0 71.892685 -57.533203 130.17323 -128.5039 130.17323l0 0c-70.970825 0 -128.50403 -58.28055 -128.50403 -130.17323z" fill-rule="evenodd"/><path stroke="#000000" stroke-width="1.0" stroke-linejoin="round" stroke-linecap="butt" d="m1617.7997 241.8517l0 0c0 -71.892685 57.533203 -130.17322 128.50403 -130.17322l0 0c34.0813 0 66.766846 13.714645 90.86597 38.126854c24.099121 24.412216 37.63794 57.522293 37.63794 92.04637l0 0c0 71.892685 -57.533203 130.17323 -128.5039 130.17323l0 0c-70.970825 0 -128.50403 -58.28055 -128.50403 -130.17323z" fill-rule="evenodd"/><path fill="#ffffff" d="m1706.8975 214.66545l0 -2.703125l14.828125 0l0 2.1875q-2.1875 2.328125 -4.34375 6.1875q-2.140625 3.859375 -3.3125 7.9375q-0.84375 2.875 -1.078125 6.296875l-2.890625 0q0.046875 -2.703125 1.0625 -6.53125q1.015625 -3.828125 2.90625 -7.375q1.90625 -3.5625 4.046875 -6.0l-11.21875 0zm32.203125 2.609375l-2.796875 0.21875q-0.375 -1.65625 -1.0625 -2.40625q-1.140625 -1.203125 -2.8125 -1.203125q-1.34375 0 -2.359375 0.75q-1.328125 0.96875 -2.09375 2.828125q-0.765625 1.859375 -0.796875 5.296875q1.015625 -1.546875 2.484375 -2.296875q1.46875 -0.75 3.078125 -0.75q2.8125 0 4.78125 2.078125q1.984375 2.0625 1.984375 5.34375q0 2.15625 -0.9375 4.015625q-0.921875 1.84375 -2.546875 2.828125q-1.625 0.984375 -3.6875 0.984375q-3.515625 0 -5.734375 -2.578125q-2.21875 -2.59375 -2.21875 -8.53125q0 -6.640625 2.453125 -9.65625q2.140625 -2.625 5.765625 -2.625q2.703125 0 4.421875 1.515625q1.734375 1.515625 2.078125 4.1875zm-11.484375 9.875q0 1.453125 0.609375 2.78125q0.625 1.328125 1.734375 2.03125q1.109375 0.6875 2.328125 0.6875q1.78125 0 3.0625 -1.4375q1.28125 -1.4375 1.28125 -3.90625q0 -2.375 -1.265625 -3.734375q-1.265625 -1.375 -3.1875 -1.375q-1.90625 0 -3.234375 1.375q-1.328125 1.359375 -1.328125 3.578125zm14.375 0.546875l0 -2.828125l8.640625 0l0 2.828125l-8.640625 0zm15.296875 -5.546875q-1.75 -0.640625 -2.59375 -1.828125q-0.84375 -1.1875 -0.84375 -2.84375q0 -2.5 1.796875 -4.203125q1.796875 -1.703125 4.78125 -1.703125q3.0 0 4.828125 1.75q1.828125 1.734375 1.828125 4.234375q0 1.59375 -0.84375 2.78125q-0.828125 1.171875 -2.53125 1.8125q2.109375 0.6875 3.203125 2.21875q1.109375 1.53125 1.109375 3.65625q0 2.9375 -2.078125 4.9375q-2.078125 2.0 -5.46875 2.0q-3.390625 0 -5.46875 -2.0q-2.078125 -2.015625 -2.078125 -5.015625q0 -2.234375 1.125 -3.734375q1.140625 -1.515625 3.234375 -2.0625zm-0.5625 -4.765625q0 1.625 1.046875 2.65625q1.046875 1.03125 2.71875 1.03125q1.625 0 2.65625 -1.015625q1.046875 -1.03125 1.046875 -2.515625q0 -1.546875 -1.078125 -2.59375q-1.0625 -1.0625 -2.65625 -1.0625q-1.609375 0 -2.671875 1.03125q-1.0625 1.03125 -1.0625 2.46875zm-0.90625 10.578125q0 1.203125 0.5625 2.328125q0.578125 1.125 1.703125 1.75q1.125 0.609375 2.421875 0.609375q2.015625 0 3.328125 -1.296875q1.3125 -1.296875 1.3125 -3.296875q0 -2.03125 -1.359375 -3.359375q-1.34375 -1.328125 -3.375 -1.328125q-1.984375 0 -3.296875 1.3125q-1.296875 1.3125 -1.296875 3.28125zm14.953125 0.5625l2.8125 -0.375q0.484375 2.390625 1.640625 3.453125q1.171875 1.046875 2.84375 1.046875q1.984375 0 3.34375 -1.375q1.375 -1.375 1.375 -3.40625q0 -1.9375 -1.265625 -3.1875q-1.265625 -1.265625 -3.21875 -1.265625q-0.796875 0 -1.984375 0.3125l0.3125 -2.46875q0.28125 0.03125 0.453125 0.03125q1.796875 0 3.234375 -0.9375q1.4375 -0.9375 1.4375 -2.890625q0 -1.546875 -1.046875 -2.5625q-1.046875 -1.015625 -2.703125 -1.015625q-1.640625 0 -2.734375 1.03125q-1.09375 1.03125 -1.40625 3.09375l-2.8125 -0.5q0.515625 -2.828125 2.34375 -4.375q1.828125 -1.5625 4.546875 -1.5625q1.875 0 3.453125 0.8125q1.578125 0.796875 2.40625 2.1875q0.84375 1.390625 0.84375 2.953125q0 1.484375 -0.796875 2.703125q-0.796875 1.21875 -2.359375 1.9375q2.03125 0.46875 3.15625 1.953125q1.125 1.46875 1.125 3.6875q0 3.0 -2.1875 5.09375q-2.1875 2.078125 -5.53125 2.078125q-3.015625 0 -5.015625 -1.796875q-1.984375 -1.796875 -2.265625 -4.65625z" fill-rule="nonzero"/><path fill="#ffffff" d="m1667.124 272.57172l8.796875 -22.906265l3.265625 0l9.375 22.906265l-3.453125 0l-2.671875 -6.9375l-9.578125 0l-2.515625 6.9375l-3.21875 0zm6.609375 -9.40625l7.765625 0l-2.390625 -6.34375q-1.09375 -2.8906403 -1.625 -4.7500153q-0.4375 2.203125 -1.234375 4.3750153l-2.515625 6.71875zm16.828125 9.40625l0 -22.906265l2.8125 0l0 22.906265l-2.8125 0zm5.6875 0l0 -2.28125l10.5625 -12.125q-1.796875 0.09375 -3.171875 0.09375l-6.765625 0l0 -2.2812653l13.5625 0l0 1.8593903l-8.984375 10.53125l-1.734375 1.921875q1.890625 -0.140625 3.546875 -0.140625l7.671875 0l0 2.421875l-14.6875 0zm17.484375 0l0 -22.906265l2.8125 0l0 8.218765q1.96875 -2.2812653 4.96875 -2.2812653q1.84375 0 3.203125 0.73439026q1.359375 0.71875 1.9375 2.0q0.59375 1.28125 0.59375 3.71875l0 10.515625l-2.8125 0l0 -10.515625q0 -2.109375 -0.921875 -3.0625q-0.90625 -0.96875 -2.578125 -0.96875q-1.25 0 -2.359375 0.65625q-1.09375 0.640625 -1.5625 1.75q-0.46875 1.109375 -0.46875 3.0625l0 9.078125l-2.8125 0zm29.15625 -5.34375l2.90625 0.359375q-0.6875 2.546875 -2.546875 3.953125q-1.859375 1.40625 -4.75 1.40625q-3.640625 0 -5.78125 -2.234375q-2.125 -2.25 -2.125 -6.296875q0 -4.1875 2.15625 -6.5q2.15625 -2.3125153 5.59375 -2.3125153q3.328125 0 5.4375 2.2656403q2.109375 2.265625 2.109375 6.375q0 0.25 -0.015625 0.75l-12.375 0q0.15625 2.734375 1.546875 4.1875q1.390625 1.453125 3.46875 1.453125q1.546875 0 2.640625 -0.8125q1.09375 -0.8125 1.734375 -2.59375zm-9.234375 -4.546875l9.265625 0q-0.1875 -2.09375 -1.0625 -3.140625q-1.34375 -1.625 -3.484375 -1.625q-1.9375 0 -3.265625 1.296875q-1.3125 1.296875 -1.453125 3.46875zm15.6875 -9.781265l0 -3.234375l2.8125 0l0 3.234375l-2.8125 0zm0 19.67189l0 -16.593765l2.8125 0l0 16.593765l-2.8125 0zm7.09375 0l0 -16.593765l2.515625 0l0 2.3281403q0.78125 -1.21875 2.078125 -1.953125q1.296875 -0.75001526 2.953125 -0.75001526q1.84375 0 3.015625 0.76564026q1.1875 0.765625 1.671875 2.140625q1.96875 -2.9062653 5.125 -2.9062653q2.46875 0 3.796875 1.3750153q1.328125 1.359375 1.328125 4.203125l0 11.390625l-2.796875 0l0 -10.453125q0 -1.6875 -0.28125 -2.421875q-0.265625 -0.75 -0.984375 -1.203125q-0.71875 -0.453125 -1.6875 -0.453125q-1.75 0 -2.90625 1.171875q-1.15625 1.15625 -1.15625 3.71875l0 9.640625l-2.8125 0l0 -10.78125q0 -1.875 -0.6875 -2.8125q-0.6875 -0.9375 -2.25 -0.9375q-1.1875 0 -2.203125 0.625q-1.0 0.625 -1.453125 1.828125q-0.453125 1.203125 -0.453125 3.46875l0 8.609375l-2.8125 0zm38.015625 -5.34375l2.90625 0.359375q-0.6875 2.546875 -2.546875 3.953125q-1.859375 1.40625 -4.75 1.40625q-3.640625 0 -5.78125 -2.234375q-2.125 -2.25 -2.125 -6.296875q0 -4.1875 2.15625 -6.5q2.15625 -2.3125153 5.59375 -2.3125153q3.328125 0 5.4375 2.2656403q2.109375 2.265625 2.109375 6.375q0 0.25 -0.015625 0.75l-12.375 0q0.15625 2.734375 1.546875 4.1875q1.390625 1.453125 3.46875 1.453125q1.546875 0 2.640625 -0.8125q1.09375 -0.8125 1.734375 -2.59375zm-9.234375 -4.546875l9.265625 0q-0.1875 -2.09375 -1.0625 -3.140625q-1.34375 -1.625 -3.484375 -1.625q-1.9375 0 -3.265625 1.296875q-1.3125 1.296875 -1.453125 3.46875zm15.640625 9.890625l0 -16.593765l2.53125 0l0 2.5156403q0.96875 -1.765625 1.78125 -2.328125q0.828125 -0.56251526 1.8125 -0.56251526q1.421875 0 2.890625 0.90626526l-0.96875 2.609375q-1.03125 -0.609375 -2.0625 -0.609375q-0.921875 0 -1.65625 0.5625q-0.734375 0.546875 -1.046875 1.53125q-0.46875 1.5 -0.46875 3.28125l0 8.6875l-2.8125 0zm9.5625 -4.953125l2.78125 -0.4375q0.234375 1.671875 1.296875 2.5625q1.078125 0.890625 3.0 0.890625q1.9375 0 2.875 -0.78125q0.9375 -0.796875 0.9375 -1.859375q0 -0.953125 -0.828125 -1.5q-0.578125 -0.375 -2.875 -0.953125q-3.09375 -0.78125 -4.296875 -1.34375q-1.1875 -0.578125 -1.8125 -1.578125q-0.609375 -1.015625 -0.609375 -2.234375q0 -1.109375 0.5 -2.046875q0.515625 -0.953125 1.390625 -1.578125q0.65625 -0.484375 1.78125 -0.81251526q1.140625 -0.34375 2.4375 -0.34375q1.953125 0 3.421875 0.56251526q1.484375 0.5625 2.1875 1.53125q0.703125 0.953125 0.96875 2.5625l-2.75 0.375q-0.1875 -1.28125 -1.09375 -2.0q-0.890625 -0.71875 -2.53125 -0.71875q-1.9375 0 -2.765625 0.640625q-0.828125 0.640625 -0.828125 1.5q0 0.546875 0.34375 0.984375q0.34375 0.453125 1.078125 0.75q0.421875 0.15625 2.484375 0.71875q2.984375 0.796875 4.15625 1.3125q1.1875 0.5 1.859375 1.46875q0.671875 0.96875 0.671875 2.40625q0 1.40625 -0.828125 2.65625q-0.8125 1.234375 -2.359375 1.921875q-1.546875 0.671875 -3.5 0.671875q-3.234375 0 -4.9375 -1.34375q-1.6875 -1.34375 -2.15625 -3.984375z" fill-rule="nonzero"/><path fill="#000000" fill-opacity="0.0" d="m1617.7997 241.8517l-176.94482 0" fill-rule="evenodd"/><path stroke="#000000" stroke-width="1.0" stroke-linejoin="round" stroke-linecap="butt" d="m1617.7997 241.8517l-176.94482 0" fill-rule="evenodd"/><path fill="#cfe2f3" d="m627.47394 530.01874l223.30707 0l0 226.20471l-223.30707 0z" fill-rule="evenodd"/><path stroke="#000000" stroke-width="1.0" stroke-linejoin="round" stroke-linecap="butt" d="m627.47394 530.01874l223.30707 0l0 226.20471l-223.30707 0z" fill-rule="evenodd"/><path fill="#000000" fill-opacity="0.0" d="m1175.329 646.52997l-324.53546 -3.4016113" fill-rule="evenodd"/><path stroke="#000000" stroke-width="1.0" stroke-linejoin="round" stroke-linecap="butt" d="m1175.329 646.52997l-324.53546 -3.4016113" fill-rule="evenodd"/><path fill="#ea9999" d="m1175.329 646.52997l0 0c0 -71.8927 57.533203 -130.17322 128.5039 -130.17322l0 0c34.08142 0 66.766846 13.7146 90.86597 38.12683c24.099243 24.412231 37.63794 57.522278 37.63794 92.04639l0 0c0 71.8927 -57.53308 130.17322 -128.5039 130.17322l0 0c-70.9707 0 -128.5039 -58.280518 -128.5039 -130.17322z" fill-rule="evenodd"/><path stroke="#000000" stroke-width="1.0" stroke-linejoin="round" stroke-linecap="butt" d="m1175.329 646.52997l0 0c0 -71.8927 57.533203 -130.17322 128.5039 -130.17322l0 0c34.08142 0 66.766846 13.7146 90.86597 38.12683c24.099243 24.412231 37.63794 57.522278 37.63794 92.04639l0 0c0 71.8927 -57.53308 130.17322 -128.5039 130.17322l0 0c-70.9707 0 -128.5039 -58.280518 -128.5039 -130.17322z" fill-rule="evenodd"/><path fill="#000000" fill-opacity="0.0" d="m1303.8329 516.35675l0 -25.00003l408.85046 0l0 36.433075" fill-rule="evenodd"/><path stroke="#000000" stroke-width="1.0" stroke-linejoin="round" stroke-linecap="butt" d="m1303.8329 516.35675l0 -25.00003l408.85046 0l0 36.433075" fill-rule="evenodd"/><path fill="#cfe2f3" d="m1217.5356 128.76152l223.307 0l0 226.20473l-223.307 0z" fill-rule="evenodd"/><path stroke="#000000" stroke-width="1.0" stroke-linejoin="round" stroke-linecap="butt" d="m1217.5356 128.76152l223.307 0l0 226.20473l-223.307 0z" fill-rule="evenodd"/><path fill="#cfe2f3" d="m1601.0448 527.8035l223.30713 0l0 226.20471l-223.30713 0z" fill-rule="evenodd"/><path stroke="#000000" stroke-width="1.0" stroke-linejoin="round" stroke-linecap="butt" d="m1601.0448 527.8035l223.30713 0l0 226.20471l-223.30713 0z" fill-rule="evenodd"/><path fill="#000000" d="m1697.6062 611.06586l2.703125 -0.234375q0.296875 1.984375 1.390625 2.984375q1.109375 0.984375 2.65625 0.984375q1.859375 0 3.140625 -1.390625q1.296875 -1.40625 1.296875 -3.734375q0 -2.203125 -1.25 -3.46875q-1.234375 -1.28125 -3.234375 -1.28125q-1.25 0 -2.25 0.5625q-1.0 0.5625 -1.578125 1.46875l-2.421875 -0.3125l2.03125 -10.78125l10.453125 0l0 2.453125l-8.390625 0l-1.125 5.640625q1.890625 -1.3125 3.96875 -1.3125q2.75 0 4.640625 1.90625q1.890625 1.90625 1.890625 4.890625q0 2.859375 -1.671875 4.9375q-2.015625 2.546875 -5.5 2.546875q-2.875 0 -4.6875 -1.59375q-1.8125 -1.609375 -2.0625 -4.265625zm29.857788 3.015625l0 2.484375l-13.875 0q-0.03125 -0.9375 0.296875 -1.796875q0.53125 -1.40625 1.6875 -2.78125q1.171875 -1.375 3.390625 -3.1875q3.421875 -2.796875 4.625 -4.4375q1.203125 -1.640625 1.203125 -3.109375q0 -1.53125 -1.109375 -2.578125q-1.09375 -1.0625 -2.84375 -1.0625q-1.875 0 -3.0 1.125q-1.109375 1.109375 -1.109375 3.09375l-2.65625 -0.265625q0.265625 -2.96875 2.046875 -4.515625q1.78125 -1.5625 4.765625 -1.5625q3.03125 0 4.78125 1.671875q1.765625 1.671875 1.765625 4.15625q0 1.265625 -0.515625 2.484375q-0.515625 1.203125 -1.71875 2.5625q-1.1875 1.34375 -3.96875 3.6875q-2.3125 1.953125 -2.984375 2.65625q-0.65625 0.6875 -1.078125 1.375l10.296875 0z" fill-rule="nonzero"/><path fill="#000000" d="m1628.64 686.56586l0 -21.0l2.78125 0l0 8.625l10.90625 0l0 -8.625l2.78125 0l0 21.0l-2.78125 0l0 -9.890625l-10.90625 0l0 9.890625l-2.78125 0zm20.648682 5.859375l-0.28125 -2.421875q0.84375 0.234375 1.46875 0.234375q0.859375 0 1.375 -0.296875q0.515625 -0.28125 0.859375 -0.796875q0.234375 -0.390625 0.78125 -1.921875q0.078125 -0.21875 0.234375 -0.625l-5.78125 -15.234375l2.78125 0l3.171875 8.796875q0.609375 1.6875 1.09375 3.53125q0.453125 -1.78125 1.0625 -3.46875l3.25 -8.859375l2.578125 0l-5.78125 15.453125q-0.9375 2.515625 -1.453125 3.453125q-0.6875 1.28125 -1.578125 1.875q-0.875 0.59375 -2.109375 0.59375q-0.75 0 -1.671875 -0.3125zm14.7890625 -0.03125l0 -21.03125l2.34375 0l0 1.96875q0.828125 -1.15625 1.875 -1.734375q1.046875 -0.578125 2.53125 -0.578125q1.953125 0 3.4375 1.0q1.5 1.0 2.25 2.828125q0.765625 1.828125 0.765625 4.0q0 2.328125 -0.84375 4.203125q-0.828125 1.875 -2.4375 2.875q-1.59375 0.984375 -3.359375 0.984375q-1.28125 0 -2.3125 -0.546875q-1.015625 -0.546875 -1.671875 -1.375l0 7.40625l-2.578125 0zm2.328125 -13.34375q0 2.9375 1.1875 4.34375q1.1875 1.390625 2.875 1.390625q1.71875 0 2.9375 -1.453125q1.234375 -1.453125 1.234375 -4.5q0 -2.90625 -1.203125 -4.34375q-1.1875 -1.453125 -2.84375 -1.453125q-1.65625 0 -2.921875 1.546875q-1.265625 1.53125 -1.265625 4.46875zm24.389038 2.625l2.65625 0.328125q-0.625 2.328125 -2.328125 3.625q-1.703125 1.28125 -4.359375 1.28125q-3.328125 0 -5.28125 -2.046875q-1.953125 -2.0625 -1.953125 -5.765625q0 -3.84375 1.96875 -5.953125q1.984375 -2.125 5.125 -2.125q3.0625 0 4.984375 2.078125q1.9375 2.0625 1.9375 5.84375q0 0.21875 -0.015625 0.671875l-11.34375 0q0.140625 2.515625 1.421875 3.84375q1.28125 1.328125 3.171875 1.328125q1.421875 0 2.421875 -0.734375q1.0 -0.75 1.59375 -2.375zm-8.46875 -4.171875l8.5 0q-0.171875 -1.921875 -0.96875 -2.875q-1.234375 -1.5 -3.203125 -1.5q-1.765625 0 -2.984375 1.1875q-1.203125 1.1875 -1.34375 3.1875zm14.342163 9.0625l0 -15.203125l2.3125 0l0 2.296875q0.890625 -1.609375 1.640625 -2.125q0.75 -0.515625 1.65625 -0.515625q1.3125 0 2.65625 0.828125l-0.890625 2.390625q-0.953125 -0.5625 -1.890625 -0.5625q-0.84375 0 -1.515625 0.515625q-0.671875 0.5 -0.96875 1.40625q-0.421875 1.375 -0.421875 3.0l0 7.96875l-2.578125 0zm15.4227295 -2.3125l0.375 2.28125q-1.09375 0.234375 -1.953125 0.234375q-1.40625 0 -2.1875 -0.4375q-0.765625 -0.453125 -1.078125 -1.171875q-0.3125 -0.734375 -0.3125 -3.046875l0 -8.75l-1.890625 0l0 -2.0l1.890625 0l0 -3.765625l2.5625 -1.546875l0 5.3125l2.59375 0l0 2.0l-2.59375 0l0 8.890625q0 1.109375 0.125 1.421875q0.140625 0.3125 0.453125 0.5q0.3125 0.1875 0.890625 0.1875q0.421875 0 1.125 -0.109375zm12.929565 -2.578125l2.65625 0.328125q-0.625 2.328125 -2.328125 3.625q-1.703125 1.28125 -4.359375 1.28125q-3.328125 0 -5.28125 -2.046875q-1.953125 -2.0625 -1.953125 -5.765625q0 -3.84375 1.96875 -5.953125q1.984375 -2.125 5.125 -2.125q3.0625 0 4.984375 2.078125q1.9375 2.0625 1.9375 5.84375q0 0.21875 -0.015625 0.671875l-11.34375 0q0.140625 2.515625 1.421875 3.84375q1.28125 1.328125 3.171875 1.328125q1.421875 0 2.421875 -0.734375q1.0 -0.75 1.59375 -2.375zm-8.46875 -4.171875l8.5 0q-0.171875 -1.921875 -0.96875 -2.875q-1.234375 -1.5 -3.203125 -1.5q-1.765625 0 -2.984375 1.1875q-1.203125 1.1875 -1.34375 3.1875zm14.373413 9.0625l0 -15.203125l2.3125 0l0 2.15625q1.671875 -2.5 4.84375 -2.5q1.375 0 2.53125 0.5q1.15625 0.484375 1.71875 1.296875q0.578125 0.796875 0.8125 1.890625q0.140625 0.71875 0.140625 2.515625l0 9.34375l-2.578125 0l0 -9.25q0 -1.578125 -0.3125 -2.359375q-0.296875 -0.78125 -1.0625 -1.234375q-0.765625 -0.46875 -1.796875 -0.46875q-1.640625 0 -2.84375 1.046875q-1.1875 1.03125 -1.1875 3.953125l0 8.3125l-2.578125 0zm15.279663 -4.546875l2.546875 -0.390625q0.21875 1.53125 1.1875 2.34375q0.984375 0.8125 2.75 0.8125q1.78125 0 2.640625 -0.71875q0.859375 -0.71875 0.859375 -1.703125q0 -0.859375 -0.765625 -1.375q-0.53125 -0.34375 -2.640625 -0.859375q-2.828125 -0.71875 -3.921875 -1.234375q-1.09375 -0.53125 -1.671875 -1.453125q-0.5625 -0.921875 -0.5625 -2.046875q0 -1.015625 0.46875 -1.875q0.46875 -0.875 1.265625 -1.453125q0.609375 -0.4375 1.640625 -0.734375q1.046875 -0.3125 2.234375 -0.3125q1.78125 0 3.125 0.515625q1.359375 0.515625 2.0 1.390625q0.65625 0.875 0.890625 2.359375l-2.515625 0.34375q-0.171875 -1.171875 -1.0 -1.828125q-0.8125 -0.671875 -2.3125 -0.671875q-1.78125 0 -2.546875 0.59375q-0.75 0.578125 -0.75 1.375q0 0.5 0.3125 0.90625q0.3125 0.40625 0.984375 0.6875q0.390625 0.140625 2.28125 0.65625q2.734375 0.734375 3.8125 1.203125q1.078125 0.453125 1.6875 1.34375q0.625 0.890625 0.625 2.203125q0 1.296875 -0.75 2.4375q-0.75 1.125 -2.171875 1.75q-1.421875 0.625 -3.203125 0.625q-2.96875 0 -4.53125 -1.234375q-1.546875 -1.234375 -1.96875 -3.65625zm15.7109375 -13.484375l0 -2.96875l2.578125 0l0 2.96875l-2.578125 0zm0 18.03125l0 -15.203125l2.578125 0l0 15.203125l-2.578125 0zm5.531372 -7.609375q0 -4.21875 2.359375 -6.25q1.953125 -1.6875 4.78125 -1.6875q3.125 0 5.109375 2.0625q2.0 2.046875 2.0 5.671875q0 2.921875 -0.875 4.609375q-0.875 1.6875 -2.5625 2.625q-1.6875 0.921875 -3.671875 0.921875q-3.203125 0 -5.171875 -2.046875q-1.96875 -2.046875 -1.96875 -5.90625zm2.65625 0q0 2.921875 1.265625 4.375q1.28125 1.453125 3.21875 1.453125q1.921875 0 3.1875 -1.453125q1.28125 -1.46875 1.28125 -4.453125q0 -2.828125 -1.28125 -4.28125q-1.28125 -1.453125 -3.1875 -1.453125q-1.9375 0 -3.21875 1.453125q-1.265625 1.4375 -1.265625 4.359375zm14.623413 7.609375l0 -15.203125l2.3125 0l0 2.15625q1.671875 -2.5 4.84375 -2.5q1.375 0 2.53125 0.5q1.15625 0.484375 1.71875 1.296875q0.578125 0.796875 0.8125 1.890625q0.140625 0.71875 0.140625 2.515625l0 9.34375l-2.578125 0l0 -9.25q0 -1.578125 -0.3125 -2.359375q-0.296875 -0.78125 -1.0625 -1.234375q-0.765625 -0.46875 -1.796875 -0.46875q-1.640625 0 -2.84375 1.046875q-1.1875 1.03125 -1.1875 3.953125l0 8.3125l-2.578125 0z" fill-rule="nonzero"/><path fill="#000000" fill-opacity="0.0" d="m1712.6984 527.8035l0 -35.22873l-174.9292 0l0 -247.0075" fill-rule="evenodd"/><path stroke="#000000" stroke-width="1.0" stroke-linejoin="round" stroke-linecap="butt" d="m1712.6984 527.8035l0 -35.22873l-174.9292 0l0 -247.0075" fill-rule="evenodd"/><path fill="#ea9999" d="m524.83545 1003.84265l0 0c0 -71.8927 57.533203 -130.17322 128.50397 -130.17322l0 0c34.08136 0 66.766846 13.714661 90.86597 38.12683c24.099182 24.412231 37.63794 57.522278 37.63794 92.04639l0 0c0 71.8927 -57.533142 130.17322 -128.5039 130.17322l0 0c-70.970764 0 -128.50397 -58.280518 -128.50397 -130.17322z" fill-rule="evenodd"/><path stroke="#000000" stroke-width="1.0" stroke-linejoin="round" stroke-linecap="butt" d="m524.83545 1003.84265l0 0c0 -71.8927 57.533203 -130.17322 128.50397 -130.17322l0 0c34.08136 0 66.766846 13.714661 90.86597 38.12683c24.099182 24.412231 37.63794 57.522278 37.63794 92.04639l0 0c0 71.8927 -57.533142 130.17322 -128.5039 130.17322l0 0c-70.970764 0 -128.50397 -58.280518 -128.50397 -130.17322z" fill-rule="evenodd"/><path fill="#cfe2f3" d="m901.407 890.74054l223.30713 0l0 226.20465l-223.30713 0z" fill-rule="evenodd"/><path stroke="#000000" stroke-width="1.0" stroke-linejoin="round" stroke-linecap="butt" d="m901.407 890.74054l223.30713 0l0 226.20465l-223.30713 0z" fill-rule="evenodd"/><path fill="#000000" d="m985.74304 1015.9573l8.453125 -0.75q0.609375 5.09375 2.796875 8.359375q2.203125 3.25 6.828125 5.265625q4.625 2.0 10.390625 2.0q5.140625 0 9.0625 -1.515625q3.921875 -1.53125 5.84375 -4.1875q1.921875 -2.65625 1.921875 -5.796875q0 -3.1875 -1.859375 -5.5625q-1.84375 -2.390625 -6.09375 -4.015625q-2.71875 -1.0625 -12.0625 -3.296875q-9.328125 -2.25 -13.078125 -4.234375q-4.859375 -2.53125 -7.234375 -6.296875q-2.375 -3.78125 -2.375 -8.4375q0 -5.140625 2.90625 -9.59375q2.90625 -4.46875 8.5 -6.765625q5.59375 -2.3125 12.4375 -2.3125q7.53125 0 13.28125 2.421875q5.765625 2.421875 8.859375 7.140625q3.09375 4.71875 3.328125 10.671875l-8.59375 0.65625q-0.703125 -6.4375 -4.703125 -9.71875q-3.984375 -3.28125 -11.796875 -3.28125q-8.140625 0 -11.859375 2.984375q-3.71875 2.984375 -3.71875 7.1875q0 3.65625 2.640625 6.015625q2.578125 2.359375 13.5 4.828125q10.9375 2.46875 15.015625 4.3125q5.90625 2.734375 8.71875 6.921875q2.828125 4.171875 2.828125 9.625q0 5.40625 -3.09375 10.203125q-3.09375 4.78125 -8.90625 7.4375q-5.796875 2.65625 -13.046875 2.65625q-9.203125 0 -15.421875 -2.671875q-6.203125 -2.6875 -9.75 -8.0625q-3.53125 -5.390625 -3.71875 -12.1875z" fill-rule="nonzero"/><path fill="#ea9999" d="m1244.279 999.84l0 0c0 -71.8927 57.533203 -130.17322 128.5039 -130.17322l0 0c34.08142 0 66.766846 13.714661 90.86597 38.12683c24.099243 24.412231 37.63794 57.522278 37.63794 92.04639l0 0c0 71.89264 -57.53308 130.17328 -128.5039 130.17328l0 0c-70.9707 0 -128.5039 -58.28064 -128.5039 -130.17328z" fill-rule="evenodd"/><path stroke="#000000" stroke-width="1.0" stroke-linejoin="round" stroke-linecap="butt" d="m1244.279 999.84l0 0c0 -71.8927 57.533203 -130.17322 128.5039 -130.17322l0 0c34.08142 0 66.766846 13.714661 90.86597 38.12683c24.099243 24.412231 37.63794 57.522278 37.63794 92.04639l0 0c0 71.89264 -57.53308 130.17328 -128.5039 130.17328l0 0c-70.9707 0 -128.5039 -58.28064 -128.5039 -130.17328z" fill-rule="evenodd"/><path fill="#000000" fill-opacity="0.0" d="m653.3499 873.6668l-2.7554321 0l0 -59.55133l722.1885 0l0 55.55133" fill-rule="evenodd"/><path stroke="#000000" stroke-width="1.0" stroke-linejoin="round" stroke-linecap="butt" d="m653.3499 873.6668l-2.7554321 0l0 -59.55133l722.1885 0l0 55.55133" fill-rule="evenodd"/><path fill="#000000" fill-opacity="0.0" d="m1013.06055 890.74054l0 -244.22052l162.2677 0" fill-rule="evenodd"/><path stroke="#000000" stroke-width="1.0" stroke-linejoin="round" stroke-linecap="butt" d="m1013.06055 890.74054l0 -244.22052l162.2677 0" fill-rule="evenodd"/><path fill="#cfe2f3" d="m1671.3047 882.0437l223.307 0l0 226.20471l-223.307 0z" fill-rule="evenodd"/><path stroke="#000000" stroke-width="1.0" stroke-linejoin="round" stroke-linecap="butt" d="m1671.3047 882.0437l223.307 0l0 226.20471l-223.307 0z" fill-rule="evenodd"/><path fill="#000000" fill-opacity="0.0" d="m1671.3047 995.14606l-170.01575 4.692871" fill-rule="evenodd"/><path stroke="#000000" stroke-width="1.0" stroke-linejoin="round" stroke-linecap="butt" d="m1671.3047 995.14606l-170.01575 4.692871" fill-rule="evenodd"/><path fill="#cfe2f3" d="m1474.6432 1197.7747l223.30713 0l0 226.20471l-223.30713 0z" fill-rule="evenodd"/><path stroke="#000000" stroke-width="1.0" stroke-linejoin="round" stroke-linecap="butt" d="m1474.6432 1197.7747l223.30713 0l0 226.20471l-223.30713 0z" fill-rule="evenodd"/><path fill="#000000" fill-opacity="0.0" d="m1586.2968 1197.7747l0 -197.25989" fill-rule="evenodd"/><path stroke="#000000" stroke-width="1.0" stroke-linejoin="round" stroke-linecap="butt" d="m1586.2968 1197.7747l0 -197.25989" fill-rule="evenodd"/></g></svg>