<svg version="1.1" viewBox="0.0 0.0 1394.4776902887138 1133.8267716535433" fill="none" stroke="none" stroke-linecap="square" stroke-miterlimit="10" xmlns:xlink="http://www.w3.org/1999/xlink" xmlns="http://www.w3.org/2000/svg"><clipPath id="p.0"><path d="m0 0l1394.4777 0l0 1133.8268l-1394.4777 0l0 -1133.8268z" clip-rule="nonzero"/></clipPath><g clip-path="url(#p.0)"><path fill="#000000" fill-opacity="0.0" d="m0 0l1394.4777 0l0 1133.8268l-1394.4777 0z" fill-rule="evenodd"/><path fill="#000000" d="m355.05463 82.51015l173.66931 0l0 178.86613l-173.66931 0z" fill-rule="evenodd"/><path stroke="#ffffff" stroke-width="1.0" stroke-linejoin="round" stroke-linecap="butt" d="m355.05463 82.51015l173.66931 0l0 178.86613l-173.66931 0z" fill-rule="evenodd"/><path fill="#ffffff" d="m412.3385 122.28572l0 -2.015625l11.125 0l0 1.640625q-1.640625 1.734375 -3.265625 4.640625q-1.609375 2.890625 -2.484375 5.953125q-0.625 2.15625 -0.8125 4.71875l-2.15625 0q0.03125 -2.03125 0.78125 -4.890625q0.765625 -2.875 2.1875 -5.546875q1.4375 -2.671875 3.03125 -4.5l-8.40625 0zm13.207031 6.46875q0 -3.046875 0.625 -4.90625q0.625 -1.859375 1.859375 -2.859375q1.234375 -1.015625 3.109375 -1.015625q1.390625 0 2.421875 0.5625q1.046875 0.546875 1.71875 1.59375q0.6875 1.046875 1.078125 2.5625q0.390625 1.5 0.390625 4.0625q0 3.015625 -0.625 4.875q-0.625 1.859375 -1.859375 2.875q-1.234375 1.015625 -3.125 1.015625q-2.484375 0 -3.890625 -1.78125q-1.703125 -2.15625 -1.703125 -6.984375zm2.171875 0q0 4.21875 0.984375 5.625q0.984375 1.40625 2.4375 1.40625q1.453125 0 2.4375 -1.40625q1.0 -1.40625 1.0 -5.625q0 -4.25 -1.0 -5.640625q-0.984375 -1.390625 -2.453125 -1.390625q-1.453125 0 -2.328125 1.21875q-1.078125 1.578125 -1.078125 5.8125zm10.941406 3.3125l0 -2.125l6.484375 0l0 2.125l-6.484375 0zm8.3671875 -9.78125l0 -2.015625l11.125 0l0 1.640625q-1.640625 1.734375 -3.265625 4.640625q-1.609375 2.890625 -2.484375 5.953125q-0.625 2.15625 -0.8125 4.71875l-2.15625 0q0.03125 -2.03125 0.78125 -4.890625q0.765625 -2.875 2.1875 -5.546875q1.4375 -2.671875 3.03125 -4.5l-8.40625 0zm13.207031 6.46875q0 -3.046875 0.625 -4.90625q0.625 -1.859375 1.859375 -2.859375q1.234375 -1.015625 3.109375 -1.015625q1.390625 0 2.421875 0.5625q1.046875 0.546875 1.71875 1.59375q0.6875 1.046875 1.078125 2.5625q0.390625 1.5 0.390625 4.0625q0 3.015625 -0.625 4.875q-0.625 1.859375 -1.859375 2.875q-1.234375 1.015625 -3.125 1.015625q-2.484375 0 -3.890625 -1.78125q-1.703125 -2.15625 -1.703125 -6.984375zm2.171875 0q0 4.21875 0.984375 5.625q0.984375 1.40625 2.4375 1.40625q1.453125 0 2.4375 -1.40625q1.0 -1.40625 1.0 -5.625q0 -4.25 -1.0 -5.640625q-0.984375 -1.390625 -2.453125 -1.390625q-1.453125 0 -2.328125 1.21875q-1.078125 1.578125 -1.078125 5.8125z" fill-rule="nonzero"/><path fill="#ffffff" d="m414.4674 191.22322l0 -17.1875l2.28125 0l0 7.0625l8.921875 0l0 -7.0625l2.28125 0l0 17.1875l-2.28125 0l0 -8.09375l-8.921875 0l0 8.09375l-2.28125 0zm25.519531 -4.015625l2.171875 0.28125q-0.515625 1.90625 -1.90625 2.96875q-1.390625 1.046875 -3.5625 1.046875q-2.734375 0 -4.34375 -1.671875q-1.59375 -1.6875 -1.59375 -4.734375q0 -3.140625 1.609375 -4.875q1.625 -1.734375 4.203125 -1.734375q2.5 0 4.078125 1.703125q1.59375 1.703125 1.59375 4.78125q0 0.1875 -0.015625 0.5625l-9.28125 0q0.109375 2.046875 1.15625 3.140625q1.046875 1.09375 2.609375 1.09375q1.15625 0 1.96875 -0.609375q0.828125 -0.609375 1.3125 -1.953125zm-6.9375 -3.40625l6.953125 0q-0.140625 -1.5625 -0.796875 -2.359375q-1.0 -1.21875 -2.609375 -1.21875q-1.453125 0 -2.453125 0.984375q-0.984375 0.96875 -1.09375 2.59375zm19.878906 5.890625q-1.171875 0.984375 -2.265625 1.40625q-1.078125 0.40625 -2.3125 0.40625q-2.046875 0 -3.15625 -1.0q-1.09375 -1.0 -1.09375 -2.5625q0 -0.921875 0.40625 -1.671875q0.421875 -0.75 1.09375 -1.203125q0.671875 -0.46875 1.515625 -0.703125q0.625 -0.15625 1.875 -0.3125q2.5625 -0.3125 3.765625 -0.734375q0.015625 -0.421875 0.015625 -0.546875q0 -1.28125 -0.609375 -1.8125q-0.796875 -0.71875 -2.390625 -0.71875q-1.5 0 -2.203125 0.53125q-0.703125 0.515625 -1.046875 1.84375l-2.0625 -0.28125q0.28125 -1.328125 0.921875 -2.140625q0.640625 -0.8125 1.859375 -1.25q1.21875 -0.453125 2.828125 -0.453125q1.59375 0 2.59375 0.375q1.0 0.375 1.46875 0.953125q0.46875 0.5625 0.65625 1.4375q0.09375 0.53125 0.09375 1.9375l0 2.8125q0 2.9375 0.140625 3.71875q0.140625 0.78125 0.53125 1.5l-2.203125 0q-0.328125 -0.65625 -0.421875 -1.53125zm-0.171875 -4.71875q-1.15625 0.46875 -3.453125 0.796875q-1.296875 0.1875 -1.84375 0.421875q-0.53125 0.234375 -0.828125 0.6875q-0.28125 0.453125 -0.28125 1.0q0 0.84375 0.625 1.40625q0.640625 0.5625 1.875 0.5625q1.21875 0 2.171875 -0.53125q0.953125 -0.53125 1.390625 -1.453125q0.34375 -0.71875 0.34375 -2.109375l0 -0.78125zm5.3789062 6.25l0 -12.453125l1.890625 0l0 1.890625q0.734375 -1.328125 1.34375 -1.75q0.625 -0.421875 1.359375 -0.421875q1.0625 0 2.171875 0.6875l-0.734375 1.953125q-0.765625 -0.453125 -1.546875 -0.453125q-0.6875 0 -1.25 0.421875q-0.546875 0.40625 -0.78125 1.140625q-0.34375 1.125 -0.34375 2.46875l0 6.515625l-2.109375 0zm12.6171875 -1.890625l0.3125 1.859375q-0.890625 0.203125 -1.59375 0.203125q-1.15625 0 -1.796875 -0.359375q-0.625 -0.375 -0.890625 -0.96875q-0.25 -0.59375 -0.25 -2.484375l0 -7.171875l-1.546875 0l0 -1.640625l1.546875 0l0 -3.078125l2.09375 -1.265625l0 4.34375l2.125 0l0 1.640625l-2.125 0l0 7.28125q0 0.90625 0.109375 1.171875q0.125 0.25 0.375 0.40625q0.25 0.140625 0.71875 0.140625q0.34375 0 0.921875 -0.078125z" fill-rule="nonzero"/><path fill="#ffffff" d="m419.57678 211.69197q-1.171875 0.984375 -2.265625 1.40625q-1.078125 0.40625 -2.3125 0.40625q-2.046875 0 -3.15625 -1.0q-1.09375 -1.0 -1.09375 -2.5625q0 -0.921875 0.40625 -1.671875q0.421875 -0.75 1.09375 -1.203125q0.671875 -0.46875 1.515625 -0.703125q0.625 -0.15625 1.875 -0.3125q2.5625 -0.3125 3.765625 -0.734375q0.015625 -0.421875 0.015625 -0.546875q0 -1.28125 -0.609375 -1.8125q-0.796875 -0.71875 -2.390625 -0.71875q-1.5 0 -2.203125 0.53125q-0.703125 0.515625 -1.046875 1.84375l-2.0625 -0.28125q0.28125 -1.328125 0.921875 -2.140625q0.640625 -0.8125 1.859375 -1.25q1.21875 -0.453125 2.828125 -0.453125q1.59375 0 2.59375 0.375q1.0 0.375 1.46875 0.953125q0.46875 0.5625 0.65625 1.4375q0.09375 0.53125 0.09375 1.9375l0 2.8125q0 2.9375 0.140625 3.71875q0.140625 0.78125 0.53125 1.5l-2.203125 0q-0.328125 -0.65625 -0.421875 -1.53125zm-0.171875 -4.71875q-1.15625 0.46875 -3.453125 0.796875q-1.296875 0.1875 -1.84375 0.421875q-0.53125 0.234375 -0.828125 0.6875q-0.28125 0.453125 -0.28125 1.0q0 0.84375 0.625 1.40625q0.640625 0.5625 1.875 0.5625q1.21875 0 2.171875 -0.53125q0.953125 -0.53125 1.390625 -1.453125q0.34375 -0.71875 0.34375 -2.109375l0 -0.78125zm10.003906 4.359375l0.3125 1.859375q-0.890625 0.203125 -1.59375 0.203125q-1.15625 0 -1.796875 -0.359375q-0.625 -0.375 -0.890625 -0.96875q-0.25 -0.59375 -0.25 -2.484375l0 -7.171875l-1.546875 0l0 -1.640625l1.546875 0l0 -3.078125l2.09375 -1.265625l0 4.34375l2.125 0l0 1.640625l-2.125 0l0 7.28125q0 0.90625 0.109375 1.171875q0.125 0.25 0.375 0.40625q0.25 0.140625 0.71875 0.140625q0.34375 0 0.921875 -0.078125zm6.6679688 0l0.3125 1.859375q-0.890625 0.203125 -1.59375 0.203125q-1.15625 0 -1.796875 -0.359375q-0.625 -0.375 -0.890625 -0.96875q-0.25 -0.59375 -0.25 -2.484375l0 -7.171875l-1.546875 0l0 -1.640625l1.546875 0l0 -3.078125l2.09375 -1.265625l0 4.34375l2.125 0l0 1.640625l-2.125 0l0 7.28125q0 0.90625 0.109375 1.171875q0.125 0.25 0.375 0.40625q0.25 0.140625 0.71875 0.140625q0.34375 0 0.921875 -0.078125zm10.183594 0.359375q-1.171875 0.984375 -2.265625 1.40625q-1.078125 0.40625 -2.3125 0.40625q-2.046875 0 -3.15625 -1.0q-1.09375 -1.0 -1.09375 -2.5625q0 -0.921875 0.40625 -1.671875q0.421875 -0.75 1.09375 -1.203125q0.671875 -0.46875 1.515625 -0.703125q0.625 -0.15625 1.875 -0.3125q2.5625 -0.3125 3.765625 -0.734375q0.015625 -0.421875 0.015625 -0.546875q0 -1.28125 -0.609375 -1.8125q-0.796875 -0.71875 -2.390625 -0.71875q-1.5 0 -2.203125 0.53125q-0.703125 0.515625 -1.046875 1.84375l-2.0625 -0.28125q0.28125 -1.328125 0.921875 -2.140625q0.640625 -0.8125 1.859375 -1.25q1.21875 -0.453125 2.828125 -0.453125q1.59375 0 2.59375 0.375q1.0 0.375 1.46875 0.953125q0.46875 0.5625 0.65625 1.4375q0.09375 0.53125 0.09375 1.9375l0 2.8125q0 2.9375 0.140625 3.71875q0.140625 0.78125 0.53125 1.5l-2.203125 0q-0.328125 -0.65625 -0.421875 -1.53125zm-0.171875 -4.71875q-1.15625 0.46875 -3.453125 0.796875q-1.296875 0.1875 -1.84375 0.421875q-0.53125 0.234375 -0.828125 0.6875q-0.28125 0.453125 -0.28125 1.0q0 0.84375 0.625 1.40625q0.640625 0.5625 1.875 0.5625q1.21875 0 2.171875 -0.53125q0.953125 -0.53125 1.390625 -1.453125q0.34375 -0.71875 0.34375 -2.109375l0 -0.78125zm13.519531 1.6875l2.078125 0.265625q-0.34375 2.15625 -1.75 3.375q-1.390625 1.203125 -3.4375 1.203125q-2.546875 0 -4.109375 -1.671875q-1.546875 -1.671875 -1.546875 -4.78125q0 -2.015625 0.671875 -3.53125q0.671875 -1.515625 2.03125 -2.265625q1.359375 -0.765625 2.96875 -0.765625q2.03125 0 3.3125 1.03125q1.296875 1.03125 1.65625 2.90625l-2.046875 0.328125q-0.296875 -1.265625 -1.046875 -1.890625q-0.734375 -0.640625 -1.796875 -0.640625q-1.59375 0 -2.59375 1.15625q-0.984375 1.140625 -0.984375 3.609375q0 2.5 0.953125 3.640625q0.96875 1.140625 2.515625 1.140625q1.234375 0 2.0625 -0.765625q0.84375 -0.765625 1.0625 -2.34375zm3.890625 4.5625l0 -17.1875l2.109375 0l0 9.796875l5.0 -5.0625l2.71875 0l-4.75 4.625l5.234375 7.828125l-2.59375 0l-4.125 -6.359375l-1.484375 1.421875l0 4.9375l-2.109375 0z" fill-rule="nonzero"/><path fill="#000000" d="m702.3586 171.91602l0 0c0 -56.8375 44.743347 -102.91339 99.93701 -102.91339l0 0c26.504944 0 51.924316 10.8426285 70.66614 30.142632c18.741821 19.300003 29.270874 45.476433 29.270874 72.77076l0 0c0 56.837494 -44.743286 102.91339 -99.93701 102.91339l0 0c-55.193665 0 -99.93701 -46.075897 -99.93701 -102.91339z" fill-rule="evenodd"/><path stroke="#000000" stroke-width="1.0" stroke-linejoin="round" stroke-linecap="butt" d="m702.3586 171.91602l0 0c0 -56.8375 44.743347 -102.91339 99.93701 -102.91339l0 0c26.504944 0 51.924316 10.8426285 70.66614 30.142632c18.741821 19.300003 29.270874 45.476433 29.270874 72.77076l0 0c0 56.837494 -44.743286 102.91339 -99.93701 102.91339l0 0c-55.193665 0 -99.93701 -46.075897 -99.93701 -102.91339z" fill-rule="evenodd"/><path fill="#ffffff" d="m782.1588 125.114136l-2.25 0.171875q-0.296875 -1.328125 -0.84375 -1.9375q-0.921875 -0.96875 -2.265625 -0.96875q-1.09375 0 -1.90625 0.609375q-1.0625 0.78125 -1.6875 2.28125q-0.609375 1.484375 -0.640625 4.25q0.8125 -1.234375 2.0 -1.84375q1.1875 -0.609375 2.484375 -0.609375q2.265625 0 3.84375 1.671875q1.59375 1.671875 1.59375 4.3125q0 1.734375 -0.75 3.234375q-0.734375 1.484375 -2.046875 2.28125q-1.3125 0.78125 -2.96875 0.78125q-2.828125 0 -4.625 -2.078125q-1.78125 -2.078125 -1.78125 -6.859375q0 -5.359375 1.96875 -7.78125q1.734375 -2.109375 4.65625 -2.109375q2.171875 0 3.5625 1.21875q1.390625 1.21875 1.65625 3.375zm-9.234375 7.953125q0 1.15625 0.484375 2.234375q0.5 1.0625 1.390625 1.625q0.90625 0.5625 1.875 0.5625q1.4375 0 2.46875 -1.15625q1.03125 -1.15625 1.03125 -3.140625q0 -1.921875 -1.015625 -3.015625q-1.015625 -1.109375 -2.5625 -1.109375q-1.53125 0 -2.609375 1.109375q-1.0625 1.09375 -1.0625 2.890625zm23.563965 -7.953125l-2.25 0.171875q-0.296875 -1.328125 -0.84375 -1.9375q-0.921875 -0.96875 -2.265625 -0.96875q-1.09375 0 -1.90625 0.609375q-1.0625 0.78125 -1.6875 2.28125q-0.609375 1.484375 -0.640625 4.25q0.8125 -1.234375 2.0 -1.84375q1.1875 -0.609375 2.484375 -0.609375q2.265625 0 3.84375 1.671875q1.59375 1.671875 1.59375 4.3125q0 1.734375 -0.75 3.234375q-0.734375 1.484375 -2.046875 2.28125q-1.3125 0.78125 -2.96875 0.78125q-2.828125 0 -4.625 -2.078125q-1.78125 -2.078125 -1.78125 -6.859375q0 -5.359375 1.96875 -7.78125q1.734375 -2.109375 4.65625 -2.109375q2.171875 0 3.5625 1.21875q1.390625 1.21875 1.65625 3.375zm-9.234375 7.953125q0 1.15625 0.484375 2.234375q0.5 1.0625 1.390625 1.625q0.90625 0.5625 1.875 0.5625q1.4375 0 2.46875 -1.15625q1.03125 -1.15625 1.03125 -3.140625q0 -1.921875 -1.015625 -3.015625q-1.015625 -1.109375 -2.5625 -1.109375q-1.53125 0 -2.609375 1.109375q-1.0625 1.09375 -1.0625 2.890625zm11.564026 0.4375l0 -2.28125l6.96875 0l0 2.28125l-6.96875 0zm20.58014 -8.390625l-2.25 0.171875q-0.296875 -1.328125 -0.84375 -1.9375q-0.921875 -0.96875 -2.265625 -0.96875q-1.09375 0 -1.90625 0.609375q-1.0625 0.78125 -1.6875 2.28125q-0.609375 1.484375 -0.640625 4.25q0.8125 -1.234375 2.0 -1.84375q1.1875 -0.609375 2.484375 -0.609375q2.265625 0 3.84375 1.671875q1.59375 1.671875 1.59375 4.3125q0 1.734375 -0.75 3.234375q-0.734375 1.484375 -2.046875 2.28125q-1.3125 0.78125 -2.96875 0.78125q-2.828125 0 -4.625 -2.078125q-1.78125 -2.078125 -1.78125 -6.859375q0 -5.359375 1.96875 -7.78125q1.734375 -2.109375 4.65625 -2.109375q2.171875 0 3.5625 1.21875q1.390625 1.21875 1.65625 3.375zm-9.234375 7.953125q0 1.15625 0.484375 2.234375q0.5 1.0625 1.390625 1.625q0.90625 0.5625 1.875 0.5625q1.4375 0 2.46875 -1.15625q1.03125 -1.15625 1.03125 -3.140625q0 -1.921875 -1.015625 -3.015625q-1.015625 -1.109375 -2.5625 -1.109375q-1.53125 0 -2.609375 1.109375q-1.0625 1.09375 -1.0625 2.890625zm15.298401 -4.03125q-1.40625 -0.515625 -2.09375 -1.46875q-0.671875 -0.96875 -0.671875 -2.296875q0 -2.015625 1.453125 -3.375q1.453125 -1.375 3.84375 -1.375q2.421875 0 3.890625 1.40625q1.46875 1.390625 1.46875 3.40625q0 1.28125 -0.671875 2.234375q-0.671875 0.953125 -2.046875 1.46875q1.703125 0.546875 2.59375 1.78125q0.890625 1.234375 0.890625 2.953125q0 2.359375 -1.6875 3.96875q-1.671875 1.609375 -4.390625 1.609375q-2.734375 0 -4.40625 -1.609375q-1.671875 -1.625 -1.671875 -4.03125q0 -1.8125 0.90625 -3.015625q0.921875 -1.21875 2.59375 -1.65625zm-0.453125 -3.84375q0 1.3125 0.84375 2.140625q0.84375 0.828125 2.203125 0.828125q1.296875 0 2.125 -0.8125q0.84375 -0.828125 0.84375 -2.03125q0 -1.234375 -0.859375 -2.078125q-0.859375 -0.859375 -2.140625 -0.859375q-1.296875 0 -2.15625 0.828125q-0.859375 0.828125 -0.859375 1.984375zm-0.71875 8.515625q0 0.96875 0.453125 1.875q0.46875 0.90625 1.375 1.40625q0.90625 0.5 1.9375 0.5q1.625 0 2.671875 -1.046875q1.0625 -1.046875 1.0625 -2.65625q0 -1.625 -1.09375 -2.6875q-1.078125 -1.078125 -2.703125 -1.078125q-1.609375 0 -2.65625 1.0625q-1.046875 1.046875 -1.046875 2.625z" fill-rule="nonzero"/><path fill="#ffffff" d="m775.9068 202.56726l2.453125 0.625q-0.765625 3.0 -2.765625 4.578125q-2.0 1.578125 -4.875 1.578125q-2.984375 0 -4.859375 -1.203125q-1.859375 -1.21875 -2.84375 -3.515625q-0.96875 -2.3125 -0.96875 -4.953125q0 -2.875 1.09375 -5.015625q1.109375 -2.15625 3.140625 -3.265625q2.03125 -1.125 4.46875 -1.125q2.765625 0 4.65625 1.421875q1.890625 1.40625 2.640625 3.953125l-2.40625 0.578125q-0.640625 -2.015625 -1.875 -2.9375q-1.21875 -0.921875 -3.0625 -0.921875q-2.125 0 -3.5625 1.03125q-1.421875 1.015625 -2.0 2.734375q-0.578125 1.703125 -0.578125 3.53125q0 2.359375 0.6875 4.109375q0.6875 1.75 2.125 2.625q1.453125 0.859375 3.140625 0.859375q2.046875 0 3.46875 -1.171875q1.421875 -1.1875 1.921875 -3.515625zm13.888367 4.828125q-1.265625 1.0625 -2.4375 1.5q-1.15625 0.4375 -2.484375 0.4375q-2.203125 0 -3.390625 -1.0625q-1.171875 -1.078125 -1.171875 -2.75q0 -0.984375 0.4375 -1.796875q0.453125 -0.8125 1.171875 -1.296875q0.71875 -0.5 1.625 -0.75q0.671875 -0.171875 2.015625 -0.34375q2.75 -0.328125 4.046875 -0.78125q0 -0.453125 0 -0.59375q0 -1.375 -0.640625 -1.9375q-0.859375 -0.765625 -2.578125 -0.765625q-1.59375 0 -2.359375 0.5625q-0.75 0.546875 -1.125 1.96875l-2.203125 -0.296875q0.296875 -1.421875 0.984375 -2.296875q0.6875 -0.875 2.0 -1.34375q1.3125 -0.46875 3.03125 -0.46875q1.71875 0 2.78125 0.40625q1.078125 0.390625 1.578125 1.0q0.5 0.609375 0.703125 1.546875q0.109375 0.578125 0.109375 2.078125l0 3.03125q0 3.15625 0.140625 4.0q0.15625 0.828125 0.578125 1.59375l-2.359375 0q-0.359375 -0.703125 -0.453125 -1.640625zm-0.1875 -5.0625q-1.234375 0.5 -3.703125 0.859375q-1.390625 0.1875 -1.984375 0.453125q-0.578125 0.25 -0.890625 0.734375q-0.3125 0.484375 -0.3125 1.078125q0 0.890625 0.6875 1.5q0.6875 0.609375 2.0 0.609375q1.3125 0 2.328125 -0.5625q1.03125 -0.578125 1.5 -1.578125q0.375 -0.765625 0.375 -2.265625l0 -0.828125zm5.79834 6.703125l0 -13.359375l2.03125 0l0 1.890625q1.46875 -2.1875 4.25 -2.1875q1.21875 0 2.21875 0.4375q1.015625 0.421875 1.515625 1.125q0.515625 0.703125 0.71875 1.671875q0.125 0.640625 0.125 2.203125l0 8.21875l-2.265625 0l0 -8.125q0 -1.390625 -0.265625 -2.0625q-0.265625 -0.6875 -0.9375 -1.09375q-0.671875 -0.421875 -1.578125 -0.421875q-1.453125 0 -2.5 0.921875q-1.046875 0.921875 -1.046875 3.484375l0 7.296875l-2.265625 0zm23.0484 -4.890625l2.21875 0.28125q-0.359375 2.3125 -1.875 3.609375q-1.5 1.296875 -3.6875 1.296875q-2.734375 0 -4.40625 -1.78125q-1.671875 -1.796875 -1.671875 -5.140625q0 -2.171875 0.71875 -3.796875q0.71875 -1.625 2.1875 -2.421875q1.46875 -0.8125 3.1875 -0.8125q2.171875 0 3.5625 1.09375q1.390625 1.09375 1.78125 3.125l-2.203125 0.34375q-0.328125 -1.34375 -1.125 -2.015625q-0.796875 -0.6875 -1.921875 -0.6875q-1.71875 0 -2.796875 1.234375q-1.0625 1.21875 -1.0625 3.875q0 2.6875 1.03125 3.90625q1.03125 1.21875 2.703125 1.21875q1.328125 0 2.21875 -0.8125q0.890625 -0.828125 1.140625 -2.515625zm13.3046875 0.59375l2.34375 0.28125q-0.5625 2.046875 -2.0625 3.1875q-1.484375 1.125 -3.8125 1.125q-2.9375 0 -4.65625 -1.796875q-1.71875 -1.8125 -1.71875 -5.0625q0 -3.375 1.734375 -5.234375q1.75 -1.859375 4.515625 -1.859375q2.671875 0 4.375 1.828125q1.703125 1.8125 1.703125 5.125q0 0.203125 -0.015625 0.59375l-9.96875 0q0.125 2.203125 1.25 3.375q1.125 1.171875 2.796875 1.171875q1.234375 0 2.109375 -0.65625q0.890625 -0.65625 1.40625 -2.078125zm-7.4375 -3.671875l7.46875 0q-0.15625 -1.6875 -0.859375 -2.53125q-1.078125 -1.296875 -2.8125 -1.296875q-1.546875 0 -2.625 1.046875q-1.0625 1.03125 -1.171875 2.78125zm12.595215 7.96875l0 -13.359375l2.046875 0l0 2.03125q0.765625 -1.421875 1.421875 -1.875q0.671875 -0.453125 1.46875 -0.453125q1.140625 0 2.328125 0.71875l-0.78125 2.109375q-0.828125 -0.5 -1.671875 -0.5q-0.734375 0 -1.328125 0.453125q-0.59375 0.453125 -0.84375 1.234375q-0.375 1.21875 -0.375 2.640625l0 7.0l-2.265625 0z" fill-rule="nonzero"/><path fill="#000000" fill-opacity="0.0" d="m702.3586 171.91602l-173.63776 0.03149414" fill-rule="evenodd"/><path stroke="#000000" stroke-width="1.0" stroke-linejoin="round" stroke-linecap="butt" d="m702.3586 171.91602l-173.63776 0.03149414" fill-rule="evenodd"/><path fill="#cfe2f3" d="m677.1854 367.16742l173.66931 0l0 178.86615l-173.66931 0z" fill-rule="evenodd"/><path stroke="#000000" stroke-width="1.0" stroke-linejoin="round" stroke-linecap="butt" d="m677.1854 367.16742l173.66931 0l0 178.86615l-173.66931 0z" fill-rule="evenodd"/><path fill="#ea9999" d="m965.5306 456.59125l0 0c0 -56.837494 44.743286 -102.91339 99.93695 -102.91339l0 0c26.505005 0 51.924316 10.842621 70.66614 30.14264c18.741821 19.299988 29.270874 45.47641 29.270874 72.77075l0 0c0 56.837463 -44.743286 102.91339 -99.93701 102.91339l0 0c-55.193665 0 -99.93695 -46.075928 -99.93695 -102.91339z" fill-rule="evenodd"/><path stroke="#0b5394" stroke-width="1.0" stroke-linejoin="round" stroke-linecap="butt" d="m965.5306 456.59125l0 0c0 -56.837494 44.743286 -102.91339 99.93695 -102.91339l0 0c26.505005 0 51.924316 10.842621 70.66614 30.14264c18.741821 19.299988 29.270874 45.47641 29.270874 72.77075l0 0c0 56.837463 -44.743286 102.91339 -99.93701 102.91339l0 0c-55.193665 0 -99.93695 -46.075928 -99.93695 -102.91339z" fill-rule="evenodd"/><path fill="#000000" d="m1052.3567 421.18l0 -2.171875l11.9375 0l0 1.765625q-1.765625 1.875 -3.5 4.984375q-1.71875 3.09375 -2.65625 6.390625q-0.6875 2.3125 -0.875 5.0625l-2.328125 0q0.046875 -2.171875 0.859375 -5.25q0.8125 -3.09375 2.34375 -5.953125q1.53125 -2.859375 3.25 -4.828125l-9.03125 0zm22.70459 16.03125l-2.265625 0l0 -14.4375q-0.8125 0.78125 -2.140625 1.5625q-1.328125 0.78125 -2.375 1.171875l0 -2.1875q1.890625 -0.890625 3.3125 -2.15625q1.421875 -1.28125 2.015625 -2.46875l1.453125 0l0 18.515625z" fill-rule="nonzero"/><path fill="#000000" d="m1007.2247 483.21124l0 -18.4375l3.671875 0l4.375 13.046875q0.609375 1.828125 0.875 2.734375q0.3125 -1.0 0.984375 -2.953125l4.421875 -12.828125l3.281189 0l0 18.4375l-2.359314 0l0 -15.4375l-5.359375 15.4375l-2.203125 0l-5.328125 -15.703125l0 15.703125l-2.359375 0zm30.400452 -4.296875l2.34375 0.28125q-0.5625 2.046875 -2.0625 3.1875q-1.484375 1.125 -3.8125 1.125q-2.9375 0 -4.65625 -1.796875q-1.71875 -1.8125 -1.71875 -5.0625q0 -3.375 1.734375 -5.234375q1.75 -1.859375 4.515625 -1.859375q2.671875 0 4.375 1.828125q1.703125 1.8125 1.703125 5.125q0 0.203125 -0.015625 0.59375l-9.96875 0q0.125 2.203125 1.25 3.375q1.125 1.171875 2.796875 1.171875q1.234375 0 2.109375 -0.65625q0.890625 -0.65625 1.40625 -2.078125zm-7.4375 -3.671875l7.46875 0q-0.15625 -1.6875 -0.859375 -2.53125q-1.078125 -1.296875 -2.8125 -1.296875q-1.546875 0 -2.625 1.046875q-1.0625 1.03125 -1.171875 2.78125zm12.563965 7.96875l0 -18.4375l2.265625 0l0 18.4375l-2.265625 0zm14.505615 -1.640625q-1.265625 1.0625 -2.4375 1.5q-1.15625 0.4375 -2.484375 0.4375q-2.203125 0 -3.390625 -1.0625q-1.171875 -1.078125 -1.171875 -2.75q0 -0.984375 0.4375 -1.796875q0.453125 -0.8125 1.171875 -1.296875q0.71875 -0.5 1.625 -0.75q0.671875 -0.171875 2.015625 -0.34375q2.75 -0.328125 4.046875 -0.78125q0 -0.453125 0 -0.59375q0 -1.375 -0.640625 -1.9375q-0.859375 -0.765625 -2.578125 -0.765625q-1.59375 0 -2.359375 0.5625q-0.75 0.546875 -1.125 1.96875l-2.203125 -0.296875q0.296875 -1.421875 0.984375 -2.296875q0.6875 -0.875 2.0 -1.34375q1.3125 -0.46875 3.03125 -0.46875q1.71875 0 2.78125 0.40625q1.078125 0.390625 1.578125 1.0q0.5 0.609375 0.703125 1.546875q0.109375 0.578125 0.109375 2.078125l0 3.03125q0 3.15625 0.140625 4.0q0.15625 0.828125 0.578125 1.59375l-2.359375 0q-0.359375 -0.703125 -0.453125 -1.640625zm-0.1875 -5.0625q-1.234375 0.5 -3.703125 0.859375q-1.390625 0.1875 -1.984375 0.453125q-0.578125 0.25 -0.890625 0.734375q-0.3125 0.484375 -0.3125 1.078125q0 0.890625 0.6875 1.5q0.6875 0.609375 2.0 0.609375q1.3125 0 2.328125 -0.5625q1.03125 -0.578125 1.5 -1.578125q0.375 -0.765625 0.375 -2.265625l0 -0.828125zm5.79834 6.703125l0 -13.359375l2.03125 0l0 1.890625q1.46875 -2.1875 4.25 -2.1875q1.21875 0 2.21875 0.4375q1.015625 0.421875 1.515625 1.125q0.515625 0.703125 0.71875 1.671875q0.125 0.640625 0.125 2.203125l0 8.21875l-2.265625 0l0 -8.125q0 -1.390625 -0.265625 -2.0625q-0.265625 -0.6875 -0.9375 -1.09375q-0.671875 -0.421875 -1.578125 -0.421875q-1.453125 0 -2.5 0.921875q-1.046875 0.921875 -1.046875 3.484375l0 7.296875l-2.265625 0zm13.48584 -6.6875q0 -3.703125 2.0625 -5.484375q1.71875 -1.484375 4.203125 -1.484375q2.75 0 4.5 1.8125q1.75 1.796875 1.75 4.96875q0 2.578125 -0.78125 4.0625q-0.765625 1.484375 -2.25 2.296875q-1.46875 0.8125 -3.21875 0.8125q-2.8125 0 -4.546875 -1.796875q-1.71875 -1.796875 -1.71875 -5.1875zm2.328125 0q0 2.578125 1.109375 3.859375q1.125 1.265625 2.828125 1.265625q1.6875 0 2.796875 -1.28125q1.125 -1.28125 1.125 -3.90625q0 -2.484375 -1.125 -3.75q-1.125 -1.28125 -2.796875 -1.28125q-1.703125 0 -2.828125 1.265625q-1.109375 1.265625 -1.109375 3.828125zm12.845215 6.6875l0 -13.359375l2.015625 0l0 1.875q0.640625 -0.984375 1.671875 -1.578125q1.046875 -0.59375 2.390625 -0.59375q1.484375 0 2.421875 0.609375q0.953125 0.609375 1.34375 1.71875q1.59375 -2.328125 4.125 -2.328125q1.984375 0 3.046875 1.09375q1.078125 1.09375 1.078125 3.390625l0 9.171875l-2.25 0l0 -8.421875q0 -1.359375 -0.21875 -1.953125q-0.21875 -0.59375 -0.796875 -0.953125q-0.578125 -0.375 -1.359375 -0.375q-1.40625 0 -2.34375 0.9375q-0.921875 0.9375 -0.921875 3.0l0 7.765625l-2.265625 0l0 -8.6875q0 -1.5 -0.5625 -2.25q-0.546875 -0.765625 -1.8125 -0.765625q-0.953125 0 -1.765625 0.515625q-0.8125 0.5 -1.171875 1.46875q-0.359375 0.96875 -0.359375 2.78125l0 6.9375l-2.265625 0zm30.181763 -1.640625q-1.265625 1.0625 -2.4375 1.5q-1.15625 0.4375 -2.484375 0.4375q-2.203125 0 -3.390625 -1.0625q-1.171875 -1.078125 -1.171875 -2.75q0 -0.984375 0.4375 -1.796875q0.453125 -0.8125 1.171875 -1.296875q0.71875 -0.5 1.625 -0.75q0.671875 -0.171875 2.015625 -0.34375q2.75 -0.328125 4.046875 -0.78125q0 -0.453125 0 -0.59375q0 -1.375 -0.640625 -1.9375q-0.859375 -0.765625 -2.578125 -0.765625q-1.59375 0 -2.359375 0.5625q-0.75 0.546875 -1.125 1.96875l-2.203125 -0.296875q0.296875 -1.421875 0.984375 -2.296875q0.6875 -0.875 2.0 -1.34375q1.3125 -0.46875 3.03125 -0.46875q1.71875 0 2.78125 0.40625q1.078125 0.390625 1.578125 1.0q0.5 0.609375 0.703125 1.546875q0.109375 0.578125 0.109375 2.078125l0 3.03125q0 3.15625 0.140625 4.0q0.15625 0.828125 0.578125 1.59375l-2.359375 0q-0.359375 -0.703125 -0.453125 -1.640625zm-0.1875 -5.0625q-1.234375 0.5 -3.703125 0.859375q-1.390625 0.1875 -1.984375 0.453125q-0.578125 0.25 -0.890625 0.734375q-0.3125 0.484375 -0.3125 1.078125q0 0.890625 0.6875 1.5q0.6875 0.609375 2.0 0.609375q1.3125 0 2.328125 -0.5625q1.03125 -0.578125 1.5 -1.578125q0.375 -0.765625 0.375 -2.265625l0 -0.828125z" fill-rule="nonzero"/><path fill="#ea9999" d="m804.71045 980.27606l0 0c0 -58.855286 46.329712 -106.566956 103.48035 -106.566956l0 0c27.444641 0 53.76526 11.2276 73.17163 31.212769c19.406311 19.985168 30.308655 47.09088 30.308655 75.35419l0 0c0 58.855286 -46.329712 106.566956 -103.480286 106.566956l0 0c-57.150635 0 -103.48035 -47.71167 -103.48035 -106.566956z" fill-rule="evenodd"/><path stroke="#000000" stroke-width="1.0" stroke-linejoin="round" stroke-linecap="butt" d="m804.71045 980.27606l0 0c0 -58.855286 46.329712 -106.566956 103.48035 -106.566956l0 0c27.444641 0 53.76526 11.2276 73.17163 31.212769c19.406311 19.985168 30.308655 47.09088 30.308655 75.35419l0 0c0 58.855286 -46.329712 106.566956 -103.480286 106.566956l0 0c-57.150635 0 -103.48035 -47.71167 -103.48035 -106.566956z" fill-rule="evenodd"/><path fill="#cfe2f3" d="m1116.5603 615.00256l173.66931 0l0 178.86615l-173.66931 0z" fill-rule="evenodd"/><path stroke="#000000" stroke-width="1.0" stroke-linejoin="round" stroke-linecap="butt" d="m1116.5603 615.00256l173.66931 0l0 178.86615l-173.66931 0z" fill-rule="evenodd"/><path fill="#ea9999" d="m811.25775 704.4247l0 0c0 -56.837463 44.743286 -102.91339 99.93695 -102.91339l0 0c26.504944 0 51.924316 10.842651 70.66614 30.14264c18.741882 19.299988 29.270874 45.47644 29.270874 72.77075l0 0c0 56.837524 -44.743286 102.91339 -99.93701 102.91339l0 0c-55.193665 0 -99.93695 -46.075867 -99.93695 -102.91339z" fill-rule="evenodd"/><path stroke="#000000" stroke-width="1.0" stroke-linejoin="round" stroke-linecap="butt" d="m811.25775 704.4247l0 0c0 -56.837463 44.743286 -102.91339 99.93695 -102.91339l0 0c26.504944 0 51.924316 10.842651 70.66614 30.14264c18.741882 19.299988 29.270874 45.47644 29.270874 72.77075l0 0c0 56.837524 -44.743286 102.91339 -99.93701 102.91339l0 0c-55.193665 0 -99.93695 -46.075867 -99.93695 -102.91339z" fill-rule="evenodd"/><path fill="#000000" d="m884.2577 716.5559l8.34375 -0.71875q0.59375 5.0 2.75 8.21875q2.171875 3.21875 6.71875 5.203125q4.5625 1.96875 10.265625 1.96875q5.0625 0 8.921875 -1.5q3.875 -1.5 5.765625 -4.109375q1.890625 -2.625 1.890625 -5.734375q0 -3.140625 -1.828125 -5.484375q-1.8125 -2.34375 -6.0 -3.9375q-2.6875 -1.0625 -11.890625 -3.265625q-9.203125 -2.203125 -12.90625 -4.171875q-4.78125 -2.5 -7.125 -6.21875q-2.34375 -3.71875 -2.34375 -8.3125q0 -5.0625 2.859375 -9.453125q2.875 -4.40625 8.390625 -6.6875q5.515625 -2.28125 12.265625 -2.28125q7.421875 0 13.09375 2.40625q5.671875 2.390625 8.71875 7.046875q3.0625 4.640625 3.296875 10.515625l-8.484375 0.640625q-0.6875 -6.34375 -4.625 -9.578125q-3.9375 -3.234375 -11.640625 -3.234375q-8.015625 0 -11.6875 2.9375q-3.671875 2.9375 -3.671875 7.09375q0 3.59375 2.59375 5.921875q2.5625 2.328125 13.328125 4.765625q10.78125 2.4375 14.796875 4.25q5.828125 2.703125 8.609375 6.828125q2.78125 4.109375 2.78125 9.5q0 5.328125 -3.0625 10.046875q-3.046875 4.71875 -8.765625 7.34375q-5.71875 2.609375 -12.875 2.609375q-9.0625 0 -15.203125 -2.640625q-6.125 -2.640625 -9.609375 -7.953125q-3.484375 -5.3125 -3.671875 -12.015625z" fill-rule="nonzero"/><path fill="#000000" d="m388.84164 367.1668l173.66928 0l0 178.86615l-173.66928 0z" fill-rule="evenodd"/><path stroke="#000000" stroke-width="1.0" stroke-linejoin="round" stroke-linecap="butt" d="m388.84164 367.1668l173.66928 0l0 178.86615l-173.66928 0z" fill-rule="evenodd"/><path fill="#ffffff" d="m446.12552 414.72238l0 -2.015625l11.125 0l0 1.640625q-1.640625 1.734375 -3.265625 4.640625q-1.609375 2.890625 -2.484375 5.953125q-0.625 2.15625 -0.8125 4.71875l-2.15625 0q0.03125 -2.03125 0.78125 -4.890625q0.765625 -2.875 2.1875 -5.546875q1.4375 -2.671875 3.03125 -4.5l-8.40625 0zm13.207031 10.4375l2.21875 -0.1875q0.234375 1.609375 1.125 2.4375q0.90625 0.8125 2.171875 0.8125q1.53125 0 2.578125 -1.140625q1.0625 -1.15625 1.0625 -3.0625q0 -1.796875 -1.015625 -2.84375q-1.015625 -1.046875 -2.65625 -1.046875q-1.015625 0 -1.84375 0.46875q-0.8125 0.453125 -1.28125 1.203125l-1.984375 -0.265625l1.65625 -8.828125l8.546875 0l0 2.015625l-6.859375 0l-0.921875 4.625q1.546875 -1.078125 3.25 -1.078125q2.25 0 3.796875 1.5625q1.546875 1.546875 1.546875 4.0q0 2.328125 -1.359375 4.03125q-1.65625 2.09375 -4.515625 2.09375q-2.34375 0 -3.828125 -1.3125q-1.484375 -1.3125 -1.6875 -3.484375zm13.113281 -0.65625l0 -2.125l6.484375 0l0 2.125l-6.484375 0zm8.3671875 -9.78125l0 -2.015625l11.125 0l0 1.640625q-1.640625 1.734375 -3.265625 4.640625q-1.609375 2.890625 -2.484375 5.953125q-0.625 2.15625 -0.8125 4.71875l-2.15625 0q0.03125 -2.03125 0.78125 -4.890625q0.765625 -2.875 2.1875 -5.546875q1.4375 -2.671875 3.03125 -4.5l-8.40625 0zm13.519531 10.96875l2.03125 -0.1875q0.25 1.421875 0.96875 2.078125q0.734375 0.640625 1.875 0.640625q0.96875 0 1.703125 -0.4375q0.734375 -0.453125 1.203125 -1.203125q0.46875 -0.75 0.78125 -2.015625q0.328125 -1.265625 0.328125 -2.578125q0 -0.140625 -0.015625 -0.421875q-0.640625 1.015625 -1.734375 1.640625q-1.09375 0.625 -2.375 0.625q-2.125 0 -3.609375 -1.546875q-1.46875 -1.546875 -1.46875 -4.078125q0 -2.609375 1.53125 -4.203125q1.546875 -1.59375 3.875 -1.59375q1.671875 0 3.0625 0.90625q1.390625 0.890625 2.109375 2.5625q0.71875 1.671875 0.71875 4.84375q0 3.28125 -0.71875 5.234375q-0.71875 1.953125 -2.125 2.984375q-1.40625 1.015625 -3.3125 1.015625q-2.015625 0 -3.296875 -1.125q-1.265625 -1.125 -1.53125 -3.140625zm8.640625 -7.59375q0 -1.8125 -0.96875 -2.875q-0.96875 -1.0625 -2.328125 -1.0625q-1.40625 0 -2.453125 1.15625q-1.03125 1.140625 -1.03125 2.96875q0 1.640625 0.984375 2.671875q0.984375 1.015625 2.4375 1.015625q1.46875 0 2.40625 -1.015625q0.953125 -1.03125 0.953125 -2.859375z" fill-rule="nonzero"/><path fill="#ffffff" d="m426.17825 493.65988l0 -17.1875l5.90625 0q2.015625 0 3.0625 0.25q1.484375 0.34375 2.515625 1.234375q1.359375 1.140625 2.03125 2.9375q0.6875 1.78125 0.6875 4.078125q0 1.953125 -0.46875 3.46875q-0.453125 1.515625 -1.171875 2.515625q-0.703125 0.984375 -1.5625 1.546875q-0.84375 0.5625 -2.046875 0.859375q-1.203125 0.296875 -2.765625 0.296875l-6.1875 0zm2.265625 -2.03125l3.671875 0q1.703125 0 2.65625 -0.3125q0.96875 -0.3125 1.546875 -0.890625q0.8125 -0.8125 1.265625 -2.171875q0.453125 -1.375 0.453125 -3.3125q0 -2.703125 -0.890625 -4.140625q-0.890625 -1.453125 -2.15625 -1.9375q-0.90625 -0.359375 -2.9375 -0.359375l-3.609375 0l0 13.125zm23.316406 -1.984375l2.171875 0.28125q-0.515625 1.90625 -1.90625 2.96875q-1.390625 1.046875 -3.5625 1.046875q-2.734375 0 -4.34375 -1.671875q-1.59375 -1.6875 -1.59375 -4.734375q0 -3.140625 1.609375 -4.875q1.625 -1.734375 4.203125 -1.734375q2.5 0 4.078125 1.703125q1.59375 1.703125 1.59375 4.78125q0 0.1875 -0.015625 0.5625l-9.28125 0q0.109375 2.046875 1.15625 3.140625q1.046875 1.09375 2.609375 1.09375q1.15625 0 1.96875 -0.609375q0.828125 -0.609375 1.3125 -1.953125zm-6.9375 -3.40625l6.953125 0q-0.140625 -1.5625 -0.796875 -2.359375q-1.0 -1.21875 -2.609375 -1.21875q-1.453125 0 -2.453125 0.984375q-0.984375 0.96875 -1.09375 2.59375zm11.753906 7.421875l0 -12.453125l1.890625 0l0 1.75q0.59375 -0.90625 1.5625 -1.46875q0.96875 -0.5625 2.21875 -0.5625q1.375 0 2.25 0.578125q0.890625 0.578125 1.265625 1.609375q1.46875 -2.1875 3.84375 -2.1875q1.84375 0 2.84375 1.03125q1.0 1.03125 1.0 3.15625l0 8.546875l-2.109375 0l0 -7.84375q0 -1.265625 -0.203125 -1.8125q-0.203125 -0.5625 -0.75 -0.90625q-0.53125 -0.34375 -1.25 -0.34375q-1.3125 0 -2.1875 0.875q-0.859375 0.875 -0.859375 2.796875l0 7.234375l-2.109375 0l0 -8.09375q0 -1.40625 -0.515625 -2.109375q-0.515625 -0.703125 -1.6875 -0.703125q-0.890625 0 -1.65625 0.46875q-0.75 0.46875 -1.09375 1.375q-0.34375 0.90625 -0.34375 2.609375l0 6.453125l-2.109375 0zm28.523438 -4.015625l2.171875 0.28125q-0.515625 1.90625 -1.90625 2.96875q-1.390625 1.046875 -3.5625 1.046875q-2.734375 0 -4.34375 -1.671875q-1.59375 -1.6875 -1.59375 -4.734375q0 -3.140625 1.609375 -4.875q1.625 -1.734375 4.203125 -1.734375q2.5 0 4.078125 1.703125q1.59375 1.703125 1.59375 4.78125q0 0.1875 -0.015625 0.5625l-9.28125 0q0.109375 2.046875 1.15625 3.140625q1.046875 1.09375 2.609375 1.09375q1.15625 0 1.96875 -0.609375q0.828125 -0.609375 1.3125 -1.953125zm-6.9375 -3.40625l6.953125 0q-0.140625 -1.5625 -0.796875 -2.359375q-1.0 -1.21875 -2.609375 -1.21875q-1.453125 0 -2.453125 0.984375q-0.984375 0.96875 -1.09375 2.59375zm11.753906 7.421875l0 -12.453125l1.90625 0l0 1.78125q1.375 -2.0625 3.953125 -2.0625q1.125 0 2.0625 0.40625q0.953125 0.40625 1.421875 1.0625q0.46875 0.65625 0.65625 1.5625q0.125 0.578125 0.125 2.046875l0 7.65625l-2.109375 0l0 -7.578125q0 -1.28125 -0.25 -1.921875q-0.25 -0.640625 -0.875 -1.015625q-0.625 -0.390625 -1.46875 -0.390625q-1.34375 0 -2.328125 0.859375q-0.984375 0.859375 -0.984375 3.25l0 6.796875l-2.109375 0zm17.957031 -1.890625l0.3125 1.859375q-0.890625 0.203125 -1.59375 0.203125q-1.15625 0 -1.796875 -0.359375q-0.625 -0.375 -0.890625 -0.96875q-0.25 -0.59375 -0.25 -2.484375l0 -7.171875l-1.546875 0l0 -1.640625l1.546875 0l0 -3.078125l2.09375 -1.265625l0 4.34375l2.125 0l0 1.640625l-2.125 0l0 7.28125q0 0.90625 0.109375 1.171875q0.125 0.25 0.375 0.40625q0.25 0.140625 0.71875 0.140625q0.34375 0 0.921875 -0.078125zm2.0742188 -12.859375l0 -2.4375l2.1093445 0l0 2.4375l-2.1093445 0zm0 14.75l0 -12.453125l2.1093445 0l0 12.453125l-2.1093445 0zm13.441437 -1.53125q-1.171875 0.984375 -2.265625 1.40625q-1.078125 0.40625 -2.3125 0.40625q-2.046936 0 -3.156311 -1.0q-1.09375 -1.0 -1.09375 -2.5625q0 -0.921875 0.40625 -1.671875q0.421875 -0.75 1.09375 -1.203125q0.671875 -0.46875 1.515686 -0.703125q0.625 -0.15625 1.875 -0.3125q2.5625 -0.3125 3.765625 -0.734375q0.015625 -0.421875 0.015625 -0.546875q0 -1.28125 -0.609375 -1.8125q-0.796875 -0.71875 -2.390625 -0.71875q-1.5 0 -2.203125 0.53125q-0.703125 0.515625 -1.046875 1.84375l-2.062561 -0.28125q0.28125 -1.328125 0.921875 -2.140625q0.640625 -0.8125 1.859436 -1.25q1.21875 -0.453125 2.828125 -0.453125q1.59375 0 2.59375 0.375q1.0 0.375 1.46875 0.953125q0.46875 0.5625 0.65625 1.4375q0.09375 0.53125 0.09375 1.9375l0 2.8125q0 2.9375 0.140625 3.71875q0.140625 0.78125 0.53125 1.5l-2.203125 0q-0.328125 -0.65625 -0.421875 -1.53125zm-0.171875 -4.71875q-1.15625 0.46875 -3.453125 0.796875q-1.296875 0.1875 -1.84375 0.421875q-0.53125 0.234375 -0.828125 0.6875q-0.28131104 0.453125 -0.28131104 1.0q0 0.84375 0.62506104 1.40625q0.640625 0.5625 1.875 0.5625q1.21875 0 2.171875 -0.53125q0.953125 -0.53125 1.390625 -1.453125q0.34375 -0.71875 0.34375 -2.109375l0 -0.78125z" fill-rule="nonzero"/><path fill="#000000" fill-opacity="0.0" d="m623.8311 172.26976l0 138.45918l140.18896 0l0 56.438477" fill-rule="evenodd"/><path stroke="#000000" stroke-width="1.0" stroke-linejoin="round" stroke-linecap="butt" d="m623.8311 172.26976l0 138.45918l140.18896 0l0 56.438477" fill-rule="evenodd"/><path fill="#000000" fill-opacity="0.0" d="m657.40857 311.07233l-181.73227 0l0 56.094482" fill-rule="evenodd"/><path stroke="#000000" stroke-width="1.0" stroke-linejoin="round" stroke-linecap="butt" d="m657.40857 311.07233l-181.73227 0l0 56.094482" fill-rule="evenodd"/><path fill="#000000" d="m84.291306 456.59042l0 0c0 -56.837494 44.743332 -102.91339 99.93701 -102.91339l0 0c26.504944 0 51.924316 10.842621 70.66614 30.14264c18.741837 19.300018 29.270859 45.47644 29.270859 72.77075l0 0c0 56.837494 -44.743317 102.91336 -99.937 102.91336l0 0c-55.19368 0 -99.93701 -46.075867 -99.93701 -102.91336z" fill-rule="evenodd"/><path stroke="#000000" stroke-width="1.0" stroke-linejoin="round" stroke-linecap="butt" d="m84.291306 456.59042l0 0c0 -56.837494 44.743332 -102.91339 99.93701 -102.91339l0 0c26.504944 0 51.924316 10.842621 70.66614 30.14264c18.741837 19.300018 29.270859 45.47644 29.270859 72.77075l0 0c0 56.837494 -44.743317 102.91336 -99.937 102.91336l0 0c-55.19368 0 -99.93701 -46.075867 -99.93701 -102.91336z" fill-rule="evenodd"/><path fill="#ffffff" d="m165.47441 423.90167l-2.09375 0.15625q-0.28125 -1.234375 -0.796875 -1.796875q-0.859375 -0.90625 -2.109375 -0.90625q-1.0 0 -1.765625 0.5625q-1.0 0.71875 -1.578125 2.125q-0.5625 1.390625 -0.59375 3.96875q0.765625 -1.15625 1.859375 -1.71875q1.109375 -0.5625 2.3125 -0.5625q2.109375 0 3.59375 1.546875q1.484375 1.546875 1.484375 4.015625q0 1.609375 -0.703125 3.0q-0.6875 1.390625 -1.90625 2.140625q-1.21875 0.734375 -2.765625 0.734375q-2.640625 0 -4.3125 -1.9375q-1.65625 -1.953125 -1.65625 -6.40625q0 -4.96875 1.84375 -7.234375q1.59375 -1.96875 4.3125 -1.96875q2.03125 0 3.328125 1.140625q1.296875 1.125 1.546875 3.140625zm-8.609375 7.40625q0 1.078125 0.453125 2.078125q0.46875 1.0 1.296875 1.53125q0.84375 0.515625 1.75 0.515625q1.34375 0 2.296875 -1.078125q0.96875 -1.078125 0.96875 -2.9375q0 -1.78125 -0.953125 -2.796875q-0.953125 -1.03125 -2.390625 -1.03125q-1.421875 0 -2.421875 1.03125q-1.0 1.015625 -1.0 2.6875zm21.957031 -7.40625l-2.09375 0.15625q-0.28125 -1.234375 -0.796875 -1.796875q-0.859375 -0.90625 -2.109375 -0.90625q-1.0 0 -1.765625 0.5625q-1.0 0.71875 -1.578125 2.125q-0.5625 1.390625 -0.59375 3.96875q0.765625 -1.15625 1.859375 -1.71875q1.109375 -0.5625 2.3125 -0.5625q2.109375 0 3.59375 1.546875q1.484375 1.546875 1.484375 4.015625q0 1.609375 -0.703125 3.0q-0.6875 1.390625 -1.90625 2.140625q-1.21875 0.734375 -2.765625 0.734375q-2.640625 0 -4.3125 -1.9375q-1.65625 -1.953125 -1.65625 -6.40625q0 -4.96875 1.84375 -7.234375q1.59375 -1.96875 4.3125 -1.96875q2.03125 0 3.328125 1.140625q1.296875 1.125 1.546875 3.140625zm-8.609375 7.40625q0 1.078125 0.453125 2.078125q0.46875 1.0 1.296875 1.53125q0.84375 0.515625 1.75 0.515625q1.34375 0 2.296875 -1.078125q0.96875 -1.078125 0.96875 -2.9375q0 -1.78125 -0.953125 -2.796875q-0.953125 -1.03125 -2.390625 -1.03125q-1.421875 0 -2.421875 1.03125q-1.0 1.015625 -1.0 2.6875zm10.785156 0.40625l0 -2.125l6.484375 0l0 2.125l-6.484375 0zm19.164062 -7.8125l-2.09375 0.15625q-0.28125 -1.234375 -0.796875 -1.796875q-0.859375 -0.90625 -2.109375 -0.90625q-1.0 0 -1.765625 0.5625q-1.0 0.71875 -1.578125 2.125q-0.5625 1.390625 -0.59375 3.96875q0.765625 -1.15625 1.859375 -1.71875q1.109375 -0.5625 2.3125 -0.5625q2.109375 0 3.59375 1.546875q1.484375 1.546875 1.484375 4.015625q0 1.609375 -0.703125 3.0q-0.6875 1.390625 -1.90625 2.140625q-1.21875 0.734375 -2.765625 0.734375q-2.640625 0 -4.3125 -1.9375q-1.65625 -1.953125 -1.65625 -6.40625q0 -4.96875 1.84375 -7.234375q1.59375 -1.96875 4.3125 -1.96875q2.03125 0 3.328125 1.140625q1.296875 1.125 1.546875 3.140625zm-8.609375 7.40625q0 1.078125 0.453125 2.078125q0.46875 1.0 1.296875 1.53125q0.84375 0.515625 1.75 0.515625q1.34375 0 2.296875 -1.078125q0.96875 -1.078125 0.96875 -2.9375q0 -1.78125 -0.953125 -2.796875q-0.953125 -1.03125 -2.390625 -1.03125q-1.421875 0 -2.421875 1.03125q-1.0 1.015625 -1.0 2.6875zm11.160156 -9.375l0 -2.015625l11.125 0l0 1.640625q-1.640625 1.734375 -3.265625 4.640625q-1.609375 2.890625 -2.484375 5.953125q-0.625 2.15625 -0.8125 4.71875l-2.15625 0q0.03125 -2.03125 0.78125 -4.890625q0.765625 -2.875 2.1875 -5.546875q1.4375 -2.671875 3.03125 -4.5l-8.40625 0z" fill-rule="nonzero"/><path fill="#ffffff" d="m158.66972 463.68292l2.28125 0l0 9.9375q0 2.578125 -0.59375 4.109375q-0.578125 1.515625 -2.109375 2.484375q-1.53125 0.953125 -4.015625 0.953125q-2.421875 0 -3.953125 -0.828125q-1.53125 -0.84375 -2.1875 -2.421875q-0.65625 -1.578125 -0.65625 -4.296875l0 -9.9375l2.265625 0l0 9.921875q0 2.234375 0.421875 3.296875q0.421875 1.0625 1.421875 1.640625q1.015625 0.5625 2.484375 0.5625q2.515625 0 3.578125 -1.125q1.0625 -1.140625 1.0625 -4.375l0 -9.921875zm10.394531 15.296875l0.3125 1.859375q-0.890625 0.203125 -1.59375 0.203125q-1.15625 0 -1.796875 -0.359375q-0.625 -0.375 -0.890625 -0.96875q-0.25 -0.59375 -0.25 -2.484375l0 -7.171875l-1.546875 0l0 -1.640625l1.546875 0l0 -3.078125l2.09375 -1.265625l0 4.34375l2.125 0l0 1.640625l-2.125 0l0 7.28125q0 0.90625 0.109375 1.171875q0.125 0.25 0.375 0.40625q0.25 0.140625 0.71875 0.140625q0.34375 0 0.921875 -0.078125zm10.589844 -2.125l2.171875 0.28125q-0.515625 1.90625 -1.90625 2.96875q-1.390625 1.046875 -3.5625 1.046875q-2.734375 0 -4.34375 -1.671875q-1.59375 -1.6875 -1.59375 -4.734375q0 -3.140625 1.609375 -4.875q1.625 -1.734375 4.203125 -1.734375q2.5 0 4.078125 1.703125q1.59375 1.703125 1.59375 4.78125q0 0.1875 -0.015625 0.5625l-9.28125 0q0.109375 2.046875 1.15625 3.140625q1.046875 1.09375 2.609375 1.09375q1.15625 0 1.96875 -0.609375q0.828125 -0.609375 1.3125 -1.953125zm-6.9375 -3.40625l6.953125 0q-0.140625 -1.5625 -0.796875 -2.359375q-1.0 -1.21875 -2.609375 -1.21875q-1.453125 0 -2.453125 0.984375q-0.984375 0.96875 -1.09375 2.59375zm11.738281 7.421875l0 -12.453125l1.890625 0l0 1.890625q0.734375 -1.328125 1.34375 -1.75q0.625 -0.421875 1.359375 -0.421875q1.0625 0 2.171875 0.6875l-0.734375 1.953125q-0.765625 -0.453125 -1.546875 -0.453125q-0.6875 0 -1.25 0.421875q-0.546875 0.40625 -0.78125 1.140625q-0.34375 1.125 -0.34375 2.46875l0 6.515625l-2.109375 0zm8.0234375 -14.75l0 -2.4375l2.109375 0l0 2.4375l-2.109375 0zm0 14.75l0 -12.453125l2.109375 0l0 12.453125l-2.109375 0zm5.3164062 0l0 -12.453125l1.90625 0l0 1.78125q1.375 -2.0625 3.953125 -2.0625q1.125 0 2.0625 0.40625q0.953125 0.40625 1.421875 1.0625q0.46875 0.65625 0.65625 1.5625q0.125 0.578125 0.125 2.046875l0 7.65625l-2.109375 0l0 -7.578125q0 -1.28125 -0.25 -1.921875q-0.25 -0.640625 -0.875 -1.015625q-0.625 -0.390625 -1.46875 -0.390625q-1.34375 0 -2.328125 0.859375q-0.984375 0.859375 -0.984375 3.25l0 6.796875l-2.109375 0zm21.878906 -4.015625l2.171875 0.28125q-0.515625 1.90625 -1.90625 2.96875q-1.390625 1.046875 -3.5625 1.046875q-2.734375 0 -4.34375 -1.671875q-1.59375 -1.6875 -1.59375 -4.734375q0 -3.140625 1.609375 -4.875q1.625 -1.734375 4.203125 -1.734375q2.5 0 4.078125 1.703125q1.59375 1.703125 1.59375 4.78125q0 0.1875 -0.015625 0.5625l-9.28125 0q0.109375 2.046875 1.15625 3.140625q1.046875 1.09375 2.609375 1.09375q1.15625 0 1.96875 -0.609375q0.828125 -0.609375 1.3125 -1.953125zm-6.9375 -3.40625l6.953125 0q-0.140625 -1.5625 -0.796875 -2.359375q-1.0 -1.21875 -2.609375 -1.21875q-1.453125 0 -2.453125 0.984375q-0.984375 0.96875 -1.09375 2.59375z" fill-rule="nonzero"/><path fill="#ffffff" d="m159.6541 496.83917l2.28125 0.578125q-0.71875 2.796875 -2.578125 4.28125q-1.859375 1.46875 -4.546875 1.46875q-2.765625 0 -4.515625 -1.125q-1.734375 -1.140625 -2.640625 -3.28125q-0.90625 -2.15625 -0.90625 -4.609375q0 -2.6875 1.015625 -4.6875q1.03125 -2.0 2.921875 -3.03125q1.890625 -1.03125 4.171875 -1.03125q2.578125 0 4.328125 1.3125q1.765625 1.3125 2.453125 3.6875l-2.234375 0.53125q-0.609375 -1.875 -1.75 -2.734375q-1.125 -0.859375 -2.84375 -0.859375q-1.984375 0 -3.3125 0.953125q-1.328125 0.953125 -1.875 2.546875q-0.53125 1.59375 -0.53125 3.296875q0 2.1875 0.625 3.828125q0.640625 1.640625 1.984375 2.453125q1.359375 0.796875 2.921875 0.796875q1.921875 0 3.234375 -1.09375q1.328125 -1.109375 1.796875 -3.28125zm12.925781 4.5q-1.171875 0.984375 -2.265625 1.40625q-1.078125 0.40625 -2.3125 0.40625q-2.046875 0 -3.15625 -1.0q-1.09375 -1.0 -1.09375 -2.5625q0 -0.921875 0.40625 -1.671875q0.421875 -0.75 1.09375 -1.203125q0.671875 -0.46875 1.515625 -0.703125q0.625 -0.15625 1.875 -0.3125q2.5625 -0.3125 3.765625 -0.734375q0.015625 -0.421875 0.015625 -0.546875q0 -1.28125 -0.609375 -1.8125q-0.796875 -0.71875 -2.390625 -0.71875q-1.5 0 -2.203125 0.53125q-0.703125 0.515625 -1.046875 1.84375l-2.0625 -0.28125q0.28125 -1.328125 0.921875 -2.140625q0.640625 -0.8125 1.859375 -1.25q1.21875 -0.453125 2.828125 -0.453125q1.59375 0 2.59375 0.375q1.0 0.375 1.46875 0.953125q0.46875 0.5625 0.65625 1.4375q0.09375 0.53125 0.09375 1.9375l0 2.8125q0 2.9375 0.140625 3.71875q0.140625 0.78125 0.53125 1.5l-2.203125 0q-0.328125 -0.65625 -0.421875 -1.53125zm-0.171875 -4.71875q-1.15625 0.46875 -3.453125 0.796875q-1.296875 0.1875 -1.84375 0.421875q-0.53125 0.234375 -0.828125 0.6875q-0.28125 0.453125 -0.28125 1.0q0 0.84375 0.625 1.40625q0.640625 0.5625 1.875 0.5625q1.21875 0 2.171875 -0.53125q0.953125 -0.53125 1.390625 -1.453125q0.34375 -0.71875 0.34375 -2.109375l0 -0.78125zm5.3945312 6.25l0 -12.453125l1.90625 0l0 1.78125q1.375 -2.0625 3.953125 -2.0625q1.125 0 2.0625 0.40625q0.953125 0.40625 1.421875 1.0625q0.46875 0.65625 0.65625 1.5625q0.125 0.578125 0.125 2.046875l0 7.65625l-2.109375 0l0 -7.578125q0 -1.28125 -0.25 -1.921875q-0.25 -0.640625 -0.875 -1.015625q-0.625 -0.390625 -1.46875 -0.390625q-1.34375 0 -2.328125 0.859375q-0.984375 0.859375 -0.984375 3.25l0 6.796875l-2.109375 0zm21.472656 -4.5625l2.078125 0.265625q-0.34375 2.15625 -1.75 3.375q-1.390625 1.203125 -3.4375 1.203125q-2.546875 0 -4.109375 -1.671875q-1.546875 -1.671875 -1.546875 -4.78125q0 -2.015625 0.671875 -3.53125q0.671875 -1.515625 2.03125 -2.265625q1.359375 -0.765625 2.96875 -0.765625q2.03125 0 3.3125 1.03125q1.296875 1.03125 1.65625 2.90625l-2.046875 0.328125q-0.296875 -1.265625 -1.046875 -1.890625q-0.734375 -0.640625 -1.796875 -0.640625q-1.59375 0 -2.59375 1.15625q-0.984375 1.140625 -0.984375 3.609375q0 2.5 0.953125 3.640625q0.96875 1.140625 2.515625 1.140625q1.234375 0 2.0625 -0.765625q0.84375 -0.765625 1.0625 -2.34375zm12.40625 0.546875l2.171875 0.28125q-0.515625 1.90625 -1.90625 2.96875q-1.390625 1.046875 -3.5625 1.046875q-2.734375 0 -4.34375 -1.671875q-1.59375 -1.6875 -1.59375 -4.734375q0 -3.140625 1.609375 -4.875q1.625 -1.734375 4.203125 -1.734375q2.5 0 4.078125 1.703125q1.59375 1.703125 1.59375 4.78125q0 0.1875 -0.015625 0.5625l-9.28125 0q0.109375 2.046875 1.15625 3.140625q1.046875 1.09375 2.609375 1.09375q1.15625 0 1.96875 -0.609375q0.828125 -0.609375 1.3125 -1.953125zm-6.9375 -3.40625l6.953125 0q-0.140625 -1.5625 -0.796875 -2.359375q-1.0 -1.21875 -2.609375 -1.21875q-1.453125 0 -2.453125 0.984375q-0.984375 0.96875 -1.09375 2.59375zm11.738281 7.421875l0 -12.453125l1.890625 0l0 1.890625q0.734375 -1.328125 1.34375 -1.75q0.625 -0.421875 1.359375 -0.421875q1.0625 0 2.171875 0.6875l-0.734375 1.953125q-0.765625 -0.453125 -1.546875 -0.453125q-0.6875 0 -1.25 0.421875q-0.546875 0.40625 -0.78125 1.140625q-0.34375 1.125 -0.34375 2.46875l0 6.515625l-2.109375 0z" fill-rule="nonzero"/><path fill="#000000" fill-opacity="0.0" d="m388.82675 456.59042l-104.66144 0" fill-rule="evenodd"/><path stroke="#000000" stroke-width="1.0" stroke-linejoin="round" stroke-linecap="butt" d="m388.82675 456.59042l-104.66144 0" fill-rule="evenodd"/><path fill="#000000" fill-opacity="0.0" d="m965.5306 456.59125l-114.677185 0" fill-rule="evenodd"/><path stroke="#000000" stroke-width="1.0" stroke-linejoin="round" stroke-linecap="butt" d="m965.5306 456.59125l-114.677185 0" fill-rule="evenodd"/><path fill="#000000" fill-opacity="0.0" d="m911.1947 601.5113l0 -143.93701" fill-rule="evenodd"/><path stroke="#000000" stroke-width="1.0" stroke-linejoin="round" stroke-linecap="butt" d="m911.1947 601.5113l0 -143.93701" fill-rule="evenodd"/><path fill="#000000" fill-opacity="0.0" d="m1116.5603 704.4356l-105.4173 0" fill-rule="evenodd"/><path stroke="#000000" stroke-width="1.0" stroke-linejoin="round" stroke-linecap="butt" d="m1116.5603 704.4356l-105.4173 0" fill-rule="evenodd"/><path fill="#ea9999" d="m1116.5582 980.27606l0 0c0 -58.855286 46.329712 -106.566956 103.48035 -106.566956l0 0c27.444702 0 53.76526 11.2276 73.17163 31.212769c19.40625 19.985168 30.308594 47.09088 30.308594 75.35419l0 0c0 58.855286 -46.329712 106.566956 -103.480225 106.566956l0 0c-57.150635 0 -103.48035 -47.71167 -103.48035 -106.566956z" fill-rule="evenodd"/><path stroke="#000000" stroke-width="1.0" stroke-linejoin="round" stroke-linecap="butt" d="m1116.5582 980.27606l0 0c0 -58.855286 46.329712 -106.566956 103.48035 -106.566956l0 0c27.444702 0 53.76526 11.2276 73.17163 31.212769c19.40625 19.985168 30.308594 47.09088 30.308594 75.35419l0 0c0 58.855286 -46.329712 106.566956 -103.480225 106.566956l0 0c-57.150635 0 -103.48035 -47.71167 -103.48035 -106.566956z" fill-rule="evenodd"/><path fill="#000000" fill-opacity="0.0" d="m1064.3168 701.5831l0 136.84192l-156.12598 0l0 35.284058" fill-rule="evenodd"/><path stroke="#000000" stroke-width="1.0" stroke-linejoin="round" stroke-linecap="butt" d="m1064.3168 701.5831l0 136.84192l-156.12598 0l0 35.284058" fill-rule="evenodd"/><path fill="#000000" fill-opacity="0.0" d="m1049.1094 838.43353l170.9292 0l0 35.275574" fill-rule="evenodd"/><path stroke="#000000" stroke-width="1.0" stroke-linejoin="round" stroke-linecap="butt" d="m1049.1094 838.43353l170.9292 0l0 35.275574" fill-rule="evenodd"/></g></svg>