<svg version="1.1" viewBox="0.0 0.0 2866.2047244094488 1819.5826771653544" fill="none" stroke="none" stroke-linecap="square" stroke-miterlimit="10" xmlns:xlink="http://www.w3.org/1999/xlink" xmlns="http://www.w3.org/2000/svg"><clipPath id="p.0"><path d="m0 0l2866.2048 0l0 1819.5826l-2866.2048 0l0 -1819.5826z" clip-rule="nonzero"/></clipPath><g clip-path="url(#p.0)"><path fill="#000000" fill-opacity="0.0" d="m0 0l2866.2048 0l0 1819.5826l-2866.2048 0z" fill-rule="evenodd"/><path fill="#000000" d="m521.03674 130.46516l223.30707 0l0 226.20473l-223.30707 0z" fill-rule="evenodd"/><path stroke="#000000" stroke-width="1.0" stroke-linejoin="round" stroke-linecap="butt" d="m521.03674 130.46516l223.30707 0l0 226.20473l-223.30707 0z" fill-rule="evenodd"/><path fill="#ffffff" d="m614.37195 234.2369l0 -3.046875l16.6875 0l0 2.46875q-2.46875 2.609375 -4.890625 6.953125q-2.40625 4.34375 -3.71875 8.9375q-0.953125 3.234375 -1.21875 7.0781403l-3.25 0q0.046875 -3.0468903 1.1875 -7.3437653q1.140625 -4.3125 3.28125 -8.3125q2.140625 -4.0 4.546875 -6.734375l-12.625 0zm19.81836 9.6875q0 -4.578125 0.9375 -7.359375q0.9375 -2.796875 2.78125 -4.296875q1.859375 -1.515625 4.671875 -1.515625q2.078125 0 3.640625 0.84375q1.5625 0.828125 2.578125 2.40625q1.03125 1.5625 1.609375 3.828125q0.578125 2.25 0.578125 6.09375q0 4.53125 -0.9375 7.3125q-0.921875 2.78125 -2.78125 4.3125q-1.84375 1.5156403 -4.6875 1.5156403q-3.71875 0 -5.84375 -2.6718903q-2.546875 -3.21875 -2.546875 -10.46875zm3.25 0q0 6.34375 1.484375 8.453125q1.484375 2.09375 3.65625 2.09375q2.1875 0 3.671875 -2.109375q1.484375 -2.109375 1.484375 -8.4375q0 -6.375 -1.484375 -8.453125q-1.484375 -2.09375 -3.703125 -2.09375q-2.171875 0 -3.484375 1.84375q-1.625 2.34375 -1.625 8.703125z" fill-rule="nonzero"/><path fill="#000000" d="m967.6224 243.55511l0 0c0 -71.892685 57.533142 -130.17322 128.50397 -130.17322l0 0c34.0813 0 66.766846 13.714638 90.86597 38.126854c24.099243 24.412216 37.63794 57.522293 37.63794 92.04637l0 0c0 71.8927 -57.533203 130.17322 -128.5039 130.17322l0 0c-70.970825 0 -128.50397 -58.280518 -128.50397 -130.17322z" fill-rule="evenodd"/><path stroke="#000000" stroke-width="1.0" stroke-linejoin="round" stroke-linecap="butt" d="m967.6224 243.55511l0 0c0 -71.892685 57.533142 -130.17322 128.50397 -130.17322l0 0c34.0813 0 66.766846 13.714638 90.86597 38.126854c24.099243 24.412216 37.63794 57.522293 37.63794 92.04637l0 0c0 71.8927 -57.533203 130.17322 -128.5039 130.17322l0 0c-70.970825 0 -128.50397 -58.280518 -128.50397 -130.17322z" fill-rule="evenodd"/><path fill="#ffffff" d="m1077.808 234.22449l0 -3.046875l16.6875 0l0 2.46875q-2.46875 2.609375 -4.890625 6.953125q-2.40625 4.34375 -3.71875 8.9375q-0.953125 3.234375 -1.21875 7.078125l-3.25 0q0.046875 -3.046875 1.1875 -7.34375q1.140625 -4.3125 3.28125 -8.3125q2.140625 -4.0 4.546875 -6.734375l-12.625 0zm31.72461 22.390625l-3.15625 0l0 -20.15625q-1.140625 1.078125 -3.0 2.171875q-1.859375 1.09375 -3.328125 1.640625l0 -3.0625q2.65625 -1.25 4.640625 -3.015625q1.984375 -1.78125 2.8125 -3.453125l2.03125 0l0 25.875z" fill-rule="nonzero"/><path fill="#000000" fill-opacity="0.0" d="m967.6224 243.55511l-223.27557 0" fill-rule="evenodd"/><path stroke="#000000" stroke-width="1.0" stroke-linejoin="round" stroke-linecap="butt" d="m967.6224 243.55511l-223.27557 0" fill-rule="evenodd"/><path fill="#cfe2f3" d="m1506.0211 1286.1473l223.30713 0l0 226.20471l-223.30713 0z" fill-rule="evenodd"/><path stroke="#000000" stroke-width="1.0" stroke-linejoin="round" stroke-linecap="butt" d="m1506.0211 1286.1473l223.30713 0l0 226.20471l-223.30713 0z" fill-rule="evenodd"/><path fill="#000000" fill-opacity="0.0" d="m967.6224 243.55511l-101.3858 0l0 288.15747" fill-rule="evenodd"/><path stroke="#000000" stroke-width="1.0" stroke-linejoin="round" stroke-linecap="butt" d="m967.6224 243.55511l-101.3858 0l0 288.15747" fill-rule="evenodd"/><path fill="#000000" d="m1769.9309 241.8517l0 0c0 -71.892685 57.533203 -130.17322 128.50403 -130.17322l0 0c34.0813 0 66.766846 13.714645 90.86597 38.126854c24.099121 24.412216 37.63794 57.522293 37.63794 92.04637l0 0c0 71.892685 -57.533203 130.17323 -128.5039 130.17323l0 0c-70.970825 0 -128.50403 -58.28055 -128.50403 -130.17323z" fill-rule="evenodd"/><path stroke="#000000" stroke-width="1.0" stroke-linejoin="round" stroke-linecap="butt" d="m1769.9309 241.8517l0 0c0 -71.892685 57.533203 -130.17322 128.50403 -130.17322l0 0c34.0813 0 66.766846 13.714645 90.86597 38.126854c24.099121 24.412216 37.63794 57.522293 37.63794 92.04637l0 0c0 71.892685 -57.533203 130.17323 -128.5039 130.17323l0 0c-70.970825 0 -128.50403 -58.28055 -128.50403 -130.17323z" fill-rule="evenodd"/><path fill="#000000" d="m1848.0333 250.17982l1.390625 0.34375q-0.4375 1.703125 -1.578125 2.609375q-1.125 0.890625 -2.765625 0.890625q-1.6875 0 -2.75 -0.6875q-1.0625 -0.6875 -1.625 -2.0q-0.546875 -1.3125 -0.546875 -2.8125q0 -1.640625 0.625 -2.859375q0.625 -1.21875 1.78125 -1.84375q1.15625 -0.640625 2.546875 -0.640625q1.5625 0 2.640625 0.8125q1.078125 0.796875 1.5 2.25l-1.375 0.3125q-0.359375 -1.140625 -1.0625 -1.65625q-0.6875 -0.53125 -1.734375 -0.53125q-1.21875 0 -2.03125 0.578125q-0.8125 0.578125 -1.140625 1.5625q-0.328125 0.96875 -0.328125 2.015625q0 1.328125 0.390625 2.328125q0.390625 1.0 1.21875 1.5q0.828125 0.484375 1.78125 0.484375q1.171875 0 1.96875 -0.671875q0.8125 -0.671875 1.09375 -1.984375z" fill-rule="nonzero"/><path fill="#ffffff" d="m1869.6019 245.49232l3.15625 0.796875q-1.0 3.890625 -3.578125 5.9375q-2.578125 2.03125 -6.296875 2.03125q-3.859375 0 -6.28125 -1.5625q-2.40625 -1.578125 -3.671875 -4.546875q-1.265625 -2.984375 -1.265625 -6.40625q0 -3.71875 1.421875 -6.5q1.421875 -2.78125 4.046875 -4.21875q2.640625 -1.4375 5.796875 -1.4375q3.578125 0 6.015625 1.828125q2.453125 1.8125 3.40625 5.125l-3.109375 0.734375q-0.828125 -2.609375 -2.40625 -3.796875q-1.578125 -1.1875 -3.96875 -1.1875q-2.75 0 -4.609375 1.328125q-1.84375 1.3125 -2.59375 3.53125q-0.734375 2.21875 -0.734375 4.578125q0 3.046875 0.875 5.3125q0.890625 2.265625 2.765625 3.390625q1.875 1.125 4.046875 1.125q2.65625 0 4.484375 -1.53125q1.84375 -1.53125 2.5 -4.53125zm17.943481 6.234375q-1.625 1.375 -3.125 1.953125q-1.5 0.5625 -3.234375 0.5625q-2.84375 0 -4.375 -1.390625q-1.53125 -1.390625 -1.53125 -3.5625q0 -1.265625 0.578125 -2.3125q0.578125 -1.046875 1.515625 -1.671875q0.9375 -0.640625 2.109375 -0.96875q0.859375 -0.234375 2.59375 -0.4375q3.546875 -0.421875 5.234375 -1.015625q0.015625 -0.609375 0.015625 -0.765625q0 -1.78125 -0.828125 -2.515625q-1.125 -1.0 -3.34375 -1.0q-2.0625 0 -3.046875 0.734375q-0.984375 0.71875 -1.453125 2.546875l-2.875 -0.390625q0.390625 -1.828125 1.28125 -2.953125q0.90625 -1.140625 2.59375 -1.75q1.703125 -0.609375 3.921875 -0.609375q2.21875 0 3.59375 0.53125q1.390625 0.515625 2.03125 1.3125q0.65625 0.78125 0.921875 1.984375q0.140625 0.75 0.140625 2.703125l0 3.90625q0 4.078125 0.1875 5.15625q0.1875 1.078125 0.75 2.078125l-3.0625 0q-0.453125 -0.90625 -0.59375 -2.125zm-0.234375 -6.546875q-1.59375 0.65625 -4.78125 1.109375q-1.8125 0.25 -2.5625 0.578125q-0.75 0.328125 -1.15625 0.953125q-0.40625 0.625 -0.40625 1.390625q0 1.171875 0.890625 1.953125q0.890625 0.78125 2.59375 0.78125q1.6875 0 3.0 -0.734375q1.328125 -0.75 1.953125 -2.03125q0.46875 -0.984375 0.46875 -2.921875l0 -1.078125zm7.5042725 8.671875l0 -17.28125l2.625 0l0 2.453125q1.90625 -2.84375 5.5 -2.84375q1.5625 0 2.875 0.5625q1.3125 0.5625 1.953125 1.46875q0.65625 0.90625 0.921875 2.171875q0.15625 0.8125 0.15625 2.84375l0 10.625l-2.921875 0l0 -10.515625q0 -1.78125 -0.34375 -2.671875q-0.34375 -0.890625 -1.21875 -1.421875q-0.859375 -0.53125 -2.03125 -0.53125q-1.875 0 -3.234375 1.1875q-1.359375 1.1875 -1.359375 4.515625l0 9.4375l-2.921875 0zm29.801147 -6.328125l2.890625 0.375q-0.46875 2.96875 -2.421875 4.65625q-1.9375 1.6875 -4.78125 1.6875q-3.546875 0 -5.703125 -2.3125q-2.15625 -2.328125 -2.15625 -6.65625q0 -2.796875 0.921875 -4.890625q0.9375 -2.109375 2.828125 -3.15625q1.90625 -1.046875 4.125 -1.046875q2.828125 0 4.609375 1.421875q1.796875 1.421875 2.296875 4.046875l-2.84375 0.4375q-0.40625 -1.734375 -1.453125 -2.609375q-1.03125 -0.890625 -2.484375 -0.890625q-2.21875 0 -3.609375 1.59375q-1.375 1.578125 -1.375 5.015625q0 3.484375 1.328125 5.0625q1.34375 1.578125 3.484375 1.578125q1.734375 0 2.890625 -1.0625q1.15625 -1.0625 1.453125 -3.25zm17.226562 0.765625l3.015625 0.375q-0.703125 2.65625 -2.640625 4.125q-1.9375 1.453125 -4.953125 1.453125q-3.796875 0 -6.015625 -2.328125q-2.21875 -2.34375 -2.21875 -6.5625q0 -4.359375 2.25 -6.765625q2.25 -2.40625 5.828125 -2.40625q3.46875 0 5.65625 2.359375q2.203125 2.359375 2.203125 6.640625q0 0.265625 -0.015625 0.78125l-12.890625 0q0.15625 2.84375 1.609375 4.359375q1.453125 1.515625 3.609375 1.515625q1.609375 0 2.75 -0.84375q1.140625 -0.84375 1.8125 -2.703125zm-9.625 -4.734375l9.65625 0q-0.203125 -2.1875 -1.109375 -3.28125q-1.40625 -1.6875 -3.625 -1.6875q-2.015625 0 -3.390625 1.359375q-1.375 1.34375 -1.53125 3.609375zm16.301147 10.296875l0 -17.28125l2.625 0l0 2.625q1.015625 -1.84375 1.859375 -2.421875q0.859375 -0.59375 1.890625 -0.59375q1.484375 0 3.0 0.9375l-1.0 2.71875q-1.078125 -0.625 -2.15625 -0.625q-0.953125 0 -1.71875 0.578125q-0.765625 0.578125 -1.09375 1.59375q-0.484375 1.5625 -0.484375 3.421875l0 9.046875l-2.921875 0z" fill-rule="nonzero"/><path fill="#000000" fill-opacity="0.0" d="m1769.9309 241.8517l-195.9054 1.7007904" fill-rule="evenodd"/><path stroke="#000000" stroke-width="1.0" stroke-linejoin="round" stroke-linecap="butt" d="m1769.9309 241.8517l-195.9054 1.7007904" fill-rule="evenodd"/><path fill="#000000" fill-opacity="0.0" d="m1769.9309 241.8517l-96.12598 0l0 274.48822" fill-rule="evenodd"/><path stroke="#000000" stroke-width="1.0" stroke-linejoin="round" stroke-linecap="butt" d="m1769.9309 241.8517l-96.12598 0l0 274.48822" fill-rule="evenodd"/><path fill="#000000" d="m1350.7097 130.46516l223.307 0l0 226.20473l-223.307 0z" fill-rule="evenodd"/><path stroke="#000000" stroke-width="1.0" stroke-linejoin="round" stroke-linecap="butt" d="m1350.7097 130.46516l223.307 0l0 226.20473l-223.307 0z" fill-rule="evenodd"/><path fill="#ffffff" d="m1428.2382 247.20815l3.15625 0.796875q-1.0 3.890625 -3.578125 5.9375q-2.578125 2.03125 -6.296875 2.03125q-3.859375 0 -6.28125 -1.5625q-2.40625 -1.578125 -3.671875 -4.546875q-1.265625 -2.984375 -1.265625 -6.40625q0 -3.71875 1.421875 -6.5q1.421875 -2.78125 4.046875 -4.21875q2.640625 -1.4375 5.796875 -1.4375q3.578125 0 6.015625 1.828125q2.453125 1.8125 3.40625 5.125l-3.109375 0.734375q-0.828125 -2.609375 -2.40625 -3.796875q-1.578125 -1.1875 -3.96875 -1.1875q-2.75 0 -4.609375 1.328125q-1.84375 1.3125 -2.59375 3.53125q-0.734375 2.21875 -0.734375 4.578125q0 3.046875 0.875 5.3125q0.890625 2.265625 2.765625 3.390625q1.875 1.125 4.046875 1.125q2.65625 0 4.484375 -1.53125q1.84375 -1.53125 2.5 -4.53125zm17.943481 6.234375q-1.625 1.375 -3.125 1.953125q-1.5 0.5625 -3.234375 0.5625q-2.84375 0 -4.375 -1.390625q-1.53125 -1.390625 -1.53125 -3.5625q0 -1.265625 0.578125 -2.3125q0.578125 -1.046875 1.515625 -1.671875q0.9375 -0.640625 2.109375 -0.96875q0.859375 -0.234375 2.59375 -0.4375q3.546875 -0.421875 5.234375 -1.015625q0.015625 -0.609375 0.015625 -0.765625q0 -1.78125 -0.828125 -2.515625q-1.125 -1.0 -3.34375 -1.0q-2.0625 0 -3.046875 0.734375q-0.984375 0.71875 -1.453125 2.546875l-2.875 -0.390625q0.390625 -1.828125 1.28125 -2.953125q0.90625 -1.140625 2.59375 -1.75q1.703125 -0.609375 3.921875 -0.609375q2.21875 0 3.59375 0.53125q1.390625 0.515625 2.03125 1.3125q0.65625 0.78125 0.921875 1.984375q0.140625 0.75 0.140625 2.703125l0 3.90625q0 4.078125 0.1875 5.15625q0.1875 1.078125 0.75 2.078125l-3.0625 0q-0.453125 -0.90625 -0.59375 -2.125zm-0.234375 -6.546875q-1.59375 0.65625 -4.78125 1.109375q-1.8125 0.25 -2.5625 0.578125q-0.75 0.328125 -1.15625 0.953125q-0.40625 0.625 -0.40625 1.390625q0 1.171875 0.890625 1.953125q0.890625 0.78125 2.59375 0.78125q1.6875 0 3.0 -0.734375q1.328125 -0.75 1.953125 -2.03125q0.46875 -0.984375 0.46875 -2.921875l0 -1.078125zm7.5042725 8.671875l0 -17.28125l2.625 0l0 2.453125q1.90625 -2.84375 5.5 -2.84375q1.5625 0 2.875 0.5625q1.3125 0.5625 1.953125 1.46875q0.65625 0.90625 0.921875 2.171875q0.15625 0.8125 0.15625 2.84375l0 10.625l-2.921875 0l0 -10.515625q0 -1.78125 -0.34375 -2.671875q-0.34375 -0.890625 -1.21875 -1.421875q-0.859375 -0.53125 -2.03125 -0.53125q-1.875 0 -3.234375 1.1875q-1.359375 1.1875 -1.359375 4.515625l0 9.4375l-2.921875 0zm29.801147 -6.328125l2.890625 0.375q-0.46875 2.96875 -2.421875 4.65625q-1.9375 1.6875 -4.78125 1.6875q-3.546875 0 -5.703125 -2.3125q-2.15625 -2.328125 -2.15625 -6.65625q0 -2.796875 0.921875 -4.890625q0.9375 -2.109375 2.828125 -3.15625q1.90625 -1.046875 4.125 -1.046875q2.828125 0 4.609375 1.421875q1.796875 1.421875 2.296875 4.046875l-2.84375 0.4375q-0.40625 -1.734375 -1.453125 -2.609375q-1.03125 -0.890625 -2.484375 -0.890625q-2.21875 0 -3.609375 1.59375q-1.375 1.578125 -1.375 5.015625q0 3.484375 1.328125 5.0625q1.34375 1.578125 3.484375 1.578125q1.734375 0 2.890625 -1.0625q1.15625 -1.0625 1.453125 -3.25zm17.226562 0.765625l3.015625 0.375q-0.703125 2.65625 -2.640625 4.125q-1.9375 1.453125 -4.953125 1.453125q-3.796875 0 -6.015625 -2.328125q-2.21875 -2.34375 -2.21875 -6.5625q0 -4.359375 2.25 -6.765625q2.25 -2.40625 5.828125 -2.40625q3.46875 0 5.65625 2.359375q2.203125 2.359375 2.203125 6.640625q0 0.265625 -0.015625 0.78125l-12.890625 0q0.15625 2.84375 1.609375 4.359375q1.453125 1.515625 3.609375 1.515625q1.609375 0 2.75 -0.84375q1.140625 -0.84375 1.8125 -2.703125zm-9.625 -4.734375l9.65625 0q-0.203125 -2.1875 -1.109375 -3.28125q-1.40625 -1.6875 -3.625 -1.6875q-2.015625 0 -3.390625 1.359375q-1.375 1.34375 -1.53125 3.609375zm16.301147 10.296875l0 -17.28125l2.625 0l0 2.625q1.015625 -1.84375 1.859375 -2.421875q0.859375 -0.59375 1.890625 -0.59375q1.484375 0 3.0 0.9375l-1.0 2.71875q-1.078125 -0.625 -2.15625 -0.625q-0.953125 0 -1.71875 0.578125q-0.765625 0.578125 -1.09375 1.59375q-0.484375 1.5625 -0.484375 3.421875l0 9.046875l-2.921875 0z" fill-rule="nonzero"/><path fill="#ea9999" d="m1875.4706 1399.2495l0 0c0 -71.8927 57.533203 -130.17322 128.50403 -130.17322l0 0c34.0813 0 66.766846 13.7146 90.86597 38.12683c24.099121 24.412231 37.63794 57.522217 37.63794 92.04639l0 0c0 71.8927 -57.533203 130.17322 -128.5039 130.17322l0 0c-70.970825 0 -128.50403 -58.280518 -128.50403 -130.17322z" fill-rule="evenodd"/><path stroke="#000000" stroke-width="1.0" stroke-linejoin="round" stroke-linecap="butt" d="m1875.4706 1399.2495l0 0c0 -71.8927 57.533203 -130.17322 128.50403 -130.17322l0 0c34.0813 0 66.766846 13.7146 90.86597 38.12683c24.099121 24.412231 37.63794 57.522217 37.63794 92.04639l0 0c0 71.8927 -57.533203 130.17322 -128.5039 130.17322l0 0c-70.970825 0 -128.50403 -58.280518 -128.50403 -130.17322z" fill-rule="evenodd"/><path fill="#cfe2f3" d="m754.5868 531.72217l223.30707 0l0 226.20471l-223.30707 0z" fill-rule="evenodd"/><path stroke="#000000" stroke-width="1.0" stroke-linejoin="round" stroke-linecap="butt" d="m754.5868 531.72217l223.30707 0l0 226.20471l-223.30707 0z" fill-rule="evenodd"/><path fill="#000000" fill-opacity="0.0" d="m1140.5364 644.8239l-162.64575 0" fill-rule="evenodd"/><path stroke="#000000" stroke-width="1.0" stroke-linejoin="round" stroke-linecap="butt" d="m1140.5364 644.8239l-162.64575 0" fill-rule="evenodd"/><path fill="#000000" d="m1140.5364 644.8239l0 0c0 -71.8927 57.53308 -130.17322 128.5039 -130.17322l0 0c34.0813 0 66.766846 13.714661 90.86597 38.12683c24.099121 24.412231 37.63794 57.522278 37.63794 92.04639l0 0c0 71.8927 -57.533203 130.17322 -128.5039 130.17322l0 0c-70.970825 0 -128.5039 -58.280518 -128.5039 -130.17322z" fill-rule="evenodd"/><path stroke="#000000" stroke-width="1.0" stroke-linejoin="round" stroke-linecap="butt" d="m1140.5364 644.8239l0 0c0 -71.8927 57.53308 -130.17322 128.5039 -130.17322l0 0c34.0813 0 66.766846 13.714661 90.86597 38.12683c24.099121 24.412231 37.63794 57.522278 37.63794 92.04639l0 0c0 71.8927 -57.533203 130.17322 -128.5039 130.17322l0 0c-70.970825 0 -128.5039 -58.280518 -128.5039 -130.17322z" fill-rule="evenodd"/><path fill="#ffffff" d="m1229.634 598.6377l0 -2.703125l14.828125 0l0 2.1875q-2.1875 2.328125 -4.34375 6.1875q-2.140625 3.859375 -3.3125 7.9375q-0.84375 2.875 -1.078125 6.296875l-2.890625 0q0.046875 -2.703125 1.0625 -6.53125q1.015625 -3.828125 2.90625 -7.375q1.90625 -3.5625 4.046875 -6.0l-11.21875 0zm17.625 13.859375l2.8125 -0.375q0.484375 2.390625 1.640625 3.453125q1.171875 1.046875 2.84375 1.046875q1.984375 0 3.34375 -1.375q1.375 -1.375 1.375 -3.40625q0 -1.9375 -1.265625 -3.1875q-1.265625 -1.265625 -3.21875 -1.265625q-0.796875 0 -1.984375 0.3125l0.3125 -2.46875q0.28125 0.03125 0.453125 0.03125q1.796875 0 3.234375 -0.9375q1.4375 -0.9375 1.4375 -2.890625q0 -1.546875 -1.046875 -2.5625q-1.046875 -1.015625 -2.703125 -1.015625q-1.640625 0 -2.734375 1.03125q-1.09375 1.03125 -1.40625 3.09375l-2.8125 -0.5q0.515625 -2.828125 2.34375 -4.375q1.828125 -1.5625 4.546875 -1.5625q1.875 0 3.453125 0.8125q1.578125 0.796875 2.40625 2.1875q0.84375 1.390625 0.84375 2.953125q0 1.484375 -0.796875 2.703125q-0.796875 1.21875 -2.359375 1.9375q2.03125 0.46875 3.15625 1.953125q1.125 1.46875 1.125 3.6875q0 3.0 -2.1875 5.09375q-2.1875 2.078125 -5.53125 2.078125q-3.015625 0 -5.015625 -1.796875q-1.984375 -1.796875 -2.265625 -4.65625zm17.46875 -0.828125l0 -2.828125l8.640625 0l0 2.828125l-8.640625 0zm15.296875 -5.546875q-1.75 -0.640625 -2.59375 -1.828125q-0.84375 -1.1875 -0.84375 -2.84375q0 -2.5 1.796875 -4.203125q1.796875 -1.703125 4.78125 -1.703125q3.0 0 4.828125 1.75q1.828125 1.734375 1.828125 4.234375q0 1.59375 -0.84375 2.78125q-0.828125 1.171875 -2.53125 1.8125q2.109375 0.6875 3.203125 2.21875q1.109375 1.53125 1.109375 3.65625q0 2.9375 -2.078125 4.9375q-2.078125 2.0 -5.46875 2.0q-3.390625 0 -5.46875 -2.0q-2.078125 -2.015625 -2.078125 -5.015625q0 -2.234375 1.125 -3.734375q1.140625 -1.515625 3.234375 -2.0625zm-0.5625 -4.765625q0 1.625 1.046875 2.65625q1.046875 1.03125 2.71875 1.03125q1.625 0 2.65625 -1.015625q1.046875 -1.03125 1.046875 -2.515625q0 -1.546875 -1.078125 -2.59375q-1.0625 -1.0625 -2.65625 -1.0625q-1.609375 0 -2.671875 1.03125q-1.0625 1.03125 -1.0625 2.46875zm-0.90625 10.578125q0 1.203125 0.5625 2.328125q0.578125 1.125 1.703125 1.75q1.125 0.609375 2.421875 0.609375q2.015625 0 3.328125 -1.296875q1.3125 -1.296875 1.3125 -3.296875q0 -2.03125 -1.359375 -3.359375q-1.34375 -1.328125 -3.375 -1.328125q-1.984375 0 -3.296875 1.3125q-1.296875 1.3125 -1.296875 3.28125zm14.953125 0.5625l2.8125 -0.375q0.484375 2.390625 1.640625 3.453125q1.171875 1.046875 2.84375 1.046875q1.984375 0 3.34375 -1.375q1.375 -1.375 1.375 -3.40625q0 -1.9375 -1.265625 -3.1875q-1.265625 -1.265625 -3.21875 -1.265625q-0.796875 0 -1.984375 0.3125l0.3125 -2.46875q0.28125 0.03125 0.453125 0.03125q1.796875 0 3.234375 -0.9375q1.4375 -0.9375 1.4375 -2.890625q0 -1.546875 -1.046875 -2.5625q-1.046875 -1.015625 -2.703125 -1.015625q-1.640625 0 -2.734375 1.03125q-1.09375 1.03125 -1.40625 3.09375l-2.8125 -0.5q0.515625 -2.828125 2.34375 -4.375q1.828125 -1.5625 4.546875 -1.5625q1.875 0 3.453125 0.8125q1.578125 0.796875 2.40625 2.1875q0.84375 1.390625 0.84375 2.953125q0 1.484375 -0.796875 2.703125q-0.796875 1.21875 -2.359375 1.9375q2.03125 0.46875 3.15625 1.953125q1.125 1.46875 1.125 3.6875q0 3.0 -2.1875 5.09375q-2.1875 2.078125 -5.53125 2.078125q-3.015625 0 -5.015625 -1.796875q-1.984375 -1.796875 -2.265625 -4.65625z" fill-rule="nonzero"/><path fill="#ffffff" d="m1189.8606 694.54395l8.796875 -22.90625l3.265625 0l9.375 22.90625l-3.453125 0l-2.671875 -6.9375l-9.578125 0l-2.515625 6.9375l-3.21875 0zm6.609375 -9.40625l7.765625 0l-2.390625 -6.34375q-1.09375 -2.890625 -1.625 -4.75q-0.4375 2.203125 -1.234375 4.375l-2.515625 6.71875zm16.828125 9.40625l0 -22.90625l2.8125 0l0 22.90625l-2.8125 0zm5.6875 0l0 -2.28125l10.5625 -12.125q-1.796875 0.09375 -3.171875 0.09375l-6.765625 0l0 -2.28125l13.5625 0l0 1.859375l-8.984375 10.53125l-1.734375 1.921875q1.890625 -0.140625 3.546875 -0.140625l7.671875 0l0 2.421875l-14.6875 0zm17.484375 0l0 -22.90625l2.8125 0l0 8.21875q1.96875 -2.28125 4.96875 -2.28125q1.84375 0 3.203125 0.734375q1.359375 0.71875 1.9375 2.0q0.59375 1.28125 0.59375 3.71875l0 10.515625l-2.8125 0l0 -10.515625q0 -2.109375 -0.921875 -3.0625q-0.90625 -0.96875 -2.578125 -0.96875q-1.25 0 -2.359375 0.65625q-1.09375 0.640625 -1.5625 1.75q-0.46875 1.109375 -0.46875 3.0625l0 9.078125l-2.8125 0zm29.15625 -5.34375l2.90625 0.359375q-0.6875 2.546875 -2.546875 3.953125q-1.859375 1.40625 -4.75 1.40625q-3.640625 0 -5.78125 -2.234375q-2.125 -2.25 -2.125 -6.296875q0 -4.1875 2.15625 -6.5q2.15625 -2.3125 5.59375 -2.3125q3.328125 0 5.4375 2.265625q2.109375 2.265625 2.109375 6.375q0 0.25 -0.015625 0.75l-12.375 0q0.15625 2.734375 1.546875 4.1875q1.390625 1.453125 3.46875 1.453125q1.546875 0 2.640625 -0.8125q1.09375 -0.8125 1.734375 -2.59375zm-9.234375 -4.546875l9.265625 0q-0.1875 -2.09375 -1.0625 -3.140625q-1.34375 -1.625 -3.484375 -1.625q-1.9375 0 -3.265625 1.296875q-1.3125 1.296875 -1.453125 3.46875zm15.6875 -9.78125l0 -3.234375l2.8125 0l0 3.234375l-2.8125 0zm0 19.671875l0 -16.59375l2.8125 0l0 16.59375l-2.8125 0zm7.09375 0l0 -16.59375l2.515625 0l0 2.328125q0.78125 -1.21875 2.078125 -1.953125q1.296875 -0.75 2.953125 -0.75q1.84375 0 3.015625 0.765625q1.1875 0.765625 1.671875 2.140625q1.96875 -2.90625 5.125 -2.90625q2.46875 0 3.796875 1.375q1.328125 1.359375 1.328125 4.203125l0 11.390625l-2.796875 0l0 -10.453125q0 -1.6875 -0.28125 -2.421875q-0.265625 -0.75 -0.984375 -1.203125q-0.71875 -0.453125 -1.6875 -0.453125q-1.75 0 -2.90625 1.171875q-1.15625 1.15625 -1.15625 3.71875l0 9.640625l-2.8125 0l0 -10.78125q0 -1.875 -0.6875 -2.8125q-0.6875 -0.9375 -2.25 -0.9375q-1.1875 0 -2.203125 0.625q-1.0 0.625 -1.453125 1.828125q-0.453125 1.203125 -0.453125 3.46875l0 8.609375l-2.8125 0zm38.015625 -5.34375l2.90625 0.359375q-0.6875 2.546875 -2.546875 3.953125q-1.859375 1.40625 -4.75 1.40625q-3.640625 0 -5.78125 -2.234375q-2.125 -2.25 -2.125 -6.296875q0 -4.1875 2.15625 -6.5q2.15625 -2.3125 5.59375 -2.3125q3.328125 0 5.4375 2.265625q2.109375 2.265625 2.109375 6.375q0 0.25 -0.015625 0.75l-12.375 0q0.15625 2.734375 1.546875 4.1875q1.390625 1.453125 3.46875 1.453125q1.546875 0 2.640625 -0.8125q1.09375 -0.8125 1.734375 -2.59375zm-9.234375 -4.546875l9.265625 0q-0.1875 -2.09375 -1.0625 -3.140625q-1.34375 -1.625 -3.484375 -1.625q-1.9375 0 -3.265625 1.296875q-1.3125 1.296875 -1.453125 3.46875zm15.640625 9.890625l0 -16.59375l2.53125 0l0 2.515625q0.96875 -1.765625 1.78125 -2.328125q0.828125 -0.5625 1.8125 -0.5625q1.421875 0 2.890625 0.90625l-0.96875 2.609375q-1.03125 -0.609375 -2.0625 -0.609375q-0.921875 0 -1.65625 0.5625q-0.734375 0.546875 -1.046875 1.53125q-0.46875 1.5 -0.46875 3.28125l0 8.6875l-2.8125 0zm9.5625 -4.953125l2.78125 -0.4375q0.234375 1.671875 1.296875 2.5625q1.078125 0.890625 3.0 0.890625q1.9375 0 2.875 -0.78125q0.9375 -0.796875 0.9375 -1.859375q0 -0.953125 -0.828125 -1.5q-0.578125 -0.375 -2.875 -0.953125q-3.09375 -0.78125 -4.296875 -1.34375q-1.1875 -0.578125 -1.8125 -1.578125q-0.609375 -1.015625 -0.609375 -2.234375q0 -1.109375 0.5 -2.046875q0.515625 -0.953125 1.390625 -1.578125q0.65625 -0.484375 1.78125 -0.8125q1.140625 -0.34375 2.4375 -0.34375q1.953125 0 3.421875 0.5625q1.484375 0.5625 2.1875 1.53125q0.703125 0.953125 0.96875 2.5625l-2.75 0.375q-0.1875 -1.28125 -1.09375 -2.0q-0.890625 -0.71875 -2.53125 -0.71875q-1.9375 0 -2.765625 0.640625q-0.828125 0.640625 -0.828125 1.5q0 0.546875 0.34375 0.984375q0.34375 0.453125 1.078125 0.75q0.421875 0.15625 2.484375 0.71875q2.984375 0.796875 4.15625 1.3125q1.1875 0.5 1.859375 1.46875q0.671875 0.96875 0.671875 2.40625q0 1.40625 -0.828125 2.65625q-0.8125 1.234375 -2.359375 1.921875q-1.546875 0.671875 -3.5 0.671875q-3.234375 0 -4.9375 -1.34375q-1.6875 -1.34375 -2.15625 -3.984375z" fill-rule="nonzero"/><path fill="#000000" d="m1545.2896 646.5286l0 0c0 -71.8927 57.533203 -130.17322 128.50403 -130.17322l0 0c34.0813 0 66.766846 13.714661 90.86597 38.126892c24.099121 24.41217 37.63794 57.522278 37.63794 92.046326l0 0c0 71.8927 -57.533203 130.17322 -128.5039 130.17322l0 0c-70.970825 0 -128.50403 -58.280518 -128.50403 -130.17322z" fill-rule="evenodd"/><path stroke="#000000" stroke-width="1.0" stroke-linejoin="round" stroke-linecap="butt" d="m1545.2896 646.5286l0 0c0 -71.8927 57.533203 -130.17322 128.50403 -130.17322l0 0c34.0813 0 66.766846 13.714661 90.86597 38.126892c24.099121 24.41217 37.63794 57.522278 37.63794 92.046326l0 0c0 71.8927 -57.533203 130.17322 -128.5039 130.17322l0 0c-70.970825 0 -128.50403 -58.280518 -128.50403 -130.17322z" fill-rule="evenodd"/><path fill="#ffffff" d="m1634.2021 637.80865l0 -24.8125l3.28125 0l0 10.1875l12.890625 0l0 -10.1875l3.28125 0l0 24.8125l-3.28125 0l0 -11.6875l-12.890625 0l0 11.6875l-3.28125 0zm36.840088 -5.78125l3.140625 0.390625q-0.75 2.75 -2.765625 4.28125q-2.0 1.515625 -5.140625 1.515625q-3.9375 0 -6.25 -2.421875q-2.3125 -2.4375 -2.3125 -6.8125q0 -4.546875 2.328125 -7.046875q2.34375 -2.5 6.0625 -2.5q3.609375 0 5.890625 2.453125q2.28125 2.453125 2.28125 6.90625q0 0.265625 -0.015625 0.8125l-13.390625 0q0.15625 2.953125 1.65625 4.53125q1.515625 1.578125 3.765625 1.578125q1.6875 0 2.859375 -0.875q1.1875 -0.890625 1.890625 -2.8125zm-10.015625 -4.9375l10.046875 0q-0.203125 -2.265625 -1.15625 -3.390625q-1.453125 -1.765625 -3.765625 -1.765625q-2.109375 0 -3.546875 1.40625q-1.421875 1.40625 -1.578125 3.75zm28.71167 8.5q-1.703125 1.4375 -3.265625 2.03125q-1.5625 0.59375 -3.359375 0.59375q-2.953125 0 -4.546875 -1.4375q-1.59375 -1.453125 -1.59375 -3.703125q0 -1.328125 0.59375 -2.40625q0.609375 -1.09375 1.578125 -1.75q0.984375 -0.671875 2.203125 -1.015625q0.890625 -0.234375 2.703125 -0.453125q3.6875 -0.4375 5.421875 -1.046875q0.03125 -0.625 0.03125 -0.796875q0 -1.859375 -0.875 -2.625q-1.15625 -1.03125 -3.46875 -1.03125q-2.140625 0 -3.171875 0.765625q-1.015625 0.75 -1.515625 2.65625l-2.96875 -0.40625q0.40625 -1.90625 1.328125 -3.078125q0.9375 -1.1875 2.6875 -1.8125q1.765625 -0.640625 4.078125 -0.640625q2.3125 0 3.75 0.546875q1.4375 0.53125 2.109375 1.359375q0.6875 0.8125 0.953125 2.0625q0.15625 0.78125 0.15625 2.8125l0 4.0625q0 4.25 0.1875 5.375q0.203125 1.125 0.765625 2.15625l-3.171875 0q-0.484375 -0.953125 -0.609375 -2.21875zm-0.265625 -6.796875q-1.65625 0.671875 -4.96875 1.140625q-1.875 0.28125 -2.65625 0.625q-0.78125 0.328125 -1.203125 0.984375q-0.421875 0.640625 -0.421875 1.4375q0 1.21875 0.921875 2.03125q0.921875 0.8125 2.703125 0.8125q1.75 0 3.125 -0.765625q1.375 -0.765625 2.015625 -2.109375q0.484375 -1.03125 0.484375 -3.046875l0 -1.109375zm7.77417 9.015625l0 -17.96875l2.734375 0l0 2.71875q1.0625 -1.90625 1.9375 -2.515625q0.890625 -0.609375 1.96875 -0.609375q1.53125 0 3.125 0.984375l-1.046875 2.828125q-1.125 -0.671875 -2.234375 -0.671875q-1.0 0 -1.796875 0.609375q-0.796875 0.59375 -1.140625 1.65625q-0.5 1.625 -0.5 3.5625l0 9.40625l-3.046875 0zm18.228271 -2.71875l0.4375 2.6875q-1.28125 0.265625 -2.296875 0.265625q-1.65625 0 -2.578125 -0.515625q-0.90625 -0.53125 -1.28125 -1.375q-0.375 -0.859375 -0.375 -3.609375l0 -10.34375l-2.234375 0l0 -2.359375l2.234375 0l0 -4.453125l3.03125 -1.828125l0 6.28125l3.0625 0l0 2.359375l-3.0625 0l0 10.515625q0 1.296875 0.15625 1.671875q0.15625 0.375 0.515625 0.59375q0.375 0.21875 1.046875 0.21875q0.515625 0 1.34375 -0.109375z" fill-rule="nonzero"/><path fill="#ffffff" d="m1613.8624 679.80865l0 -24.8125l8.546875 0q2.890625 0 4.421875 0.359375q2.125 0.484375 3.640625 1.78125q1.953125 1.65625 2.921875 4.234375q0.984375 2.578125 0.984375 5.890625q0 2.828125 -0.671875 5.015625q-0.65625 2.1875 -1.6875 3.625q-1.03125 1.421875 -2.265625 2.25q-1.21875 0.8125 -2.953125 1.234375q-1.734375 0.421875 -3.984375 0.421875l-8.953125 0zm3.28125 -2.921875l5.296875 0q2.453125 0 3.84375 -0.453125q1.40625 -0.46875 2.234375 -1.296875q1.171875 -1.171875 1.8125 -3.140625q0.65625 -1.96875 0.65625 -4.78125q0 -3.890625 -1.28125 -5.96875q-1.265625 -2.09375 -3.09375 -2.8125q-1.328125 -0.5 -4.25 -0.5l-5.21875 0l0 18.953125zm21.37146 -18.390625l0 -3.5l3.046875 0l0 3.5l-3.046875 0zm0 21.3125l0 -17.96875l3.046875 0l0 17.96875l-3.046875 0zm6.465088 -5.359375l3.015625 -0.484375q0.25 1.8125 1.40625 2.78125q1.171875 0.96875 3.25 0.96875q2.09375 0 3.109375 -0.859375q1.015625 -0.859375 1.015625 -2.0q0 -1.03125 -0.890625 -1.625q-0.625 -0.40625 -3.125 -1.03125q-3.34375 -0.859375 -4.640625 -1.46875q-1.296875 -0.625 -1.96875 -1.703125q-0.65625 -1.09375 -0.65625 -2.421875q0 -1.203125 0.546875 -2.21875q0.546875 -1.03125 1.5 -1.703125q0.703125 -0.53125 1.921875 -0.890625q1.234375 -0.359375 2.640625 -0.359375q2.125 0 3.71875 0.609375q1.59375 0.609375 2.359375 1.65625q0.765625 1.03125 1.046875 2.78125l-2.96875 0.40625q-0.203125 -1.390625 -1.1875 -2.171875q-0.96875 -0.78125 -2.75 -0.78125q-2.09375 0 -3.0 0.703125q-0.890625 0.6875 -0.890625 1.625q0 0.578125 0.375 1.0625q0.375 0.484375 1.171875 0.8125q0.453125 0.171875 2.6875 0.78125q3.234375 0.859375 4.5 1.40625q1.28125 0.546875 2.0 1.59375q0.734375 1.046875 0.734375 2.609375q0 1.53125 -0.890625 2.875q-0.875 1.34375 -2.5625 2.078125q-1.671875 0.734375 -3.78125 0.734375q-3.5 0 -5.34375 -1.453125q-1.828125 -1.453125 -2.34375 -4.3125zm30.859375 -0.421875l3.140625 0.390625q-0.75 2.75 -2.765625 4.28125q-2.0 1.515625 -5.140625 1.515625q-3.9375 0 -6.25 -2.421875q-2.3125 -2.4375 -2.3125 -6.8125q0 -4.546875 2.328125 -7.046875q2.34375 -2.5 6.0625 -2.5q3.609375 0 5.890625 2.453125q2.28125 2.453125 2.28125 6.90625q0 0.265625 -0.015625 0.8125l-13.390625 0q0.15625 2.953125 1.65625 4.53125q1.515625 1.578125 3.765625 1.578125q1.6875 0 2.859375 -0.875q1.1875 -0.890625 1.890625 -2.8125zm-10.015625 -4.9375l10.046875 0q-0.203125 -2.265625 -1.15625 -3.390625q-1.453125 -1.765625 -3.765625 -1.765625q-2.109375 0 -3.546875 1.40625q-1.421875 1.40625 -1.578125 3.75zm28.71167 8.5q-1.703125 1.4375 -3.265625 2.03125q-1.5625 0.59375 -3.359375 0.59375q-2.953125 0 -4.546875 -1.4375q-1.59375 -1.453125 -1.59375 -3.703125q0 -1.328125 0.59375 -2.40625q0.609375 -1.09375 1.578125 -1.75q0.984375 -0.671875 2.203125 -1.015625q0.890625 -0.234375 2.703125 -0.453125q3.6875 -0.4375 5.421875 -1.046875q0.03125 -0.625 0.03125 -0.796875q0 -1.859375 -0.875 -2.625q-1.15625 -1.03125 -3.46875 -1.03125q-2.140625 0 -3.171875 0.765625q-1.015625 0.75 -1.515625 2.65625l-2.96875 -0.40625q0.40625 -1.90625 1.328125 -3.078125q0.9375 -1.1875 2.6875 -1.8125q1.765625 -0.640625 4.078125 -0.640625q2.3125 0 3.75 0.546875q1.4375 0.53125 2.109375 1.359375q0.6875 0.8125 0.953125 2.0625q0.15625 0.78125 0.15625 2.8125l0 4.0625q0 4.25 0.1875 5.375q0.203125 1.125 0.765625 2.15625l-3.171875 0q-0.484375 -0.953125 -0.609375 -2.21875zm-0.265625 -6.796875q-1.65625 0.671875 -4.96875 1.140625q-1.875 0.28125 -2.65625 0.625q-0.78125 0.328125 -1.203125 0.984375q-0.421875 0.640625 -0.421875 1.4375q0 1.21875 0.921875 2.03125q0.921875 0.8125 2.703125 0.8125q1.75 0 3.125 -0.765625q1.375 -0.765625 2.015625 -2.109375q0.484375 -1.03125 0.484375 -3.046875l0 -1.109375zm6.58667 3.65625l3.015625 -0.484375q0.25 1.8125 1.40625 2.78125q1.171875 0.96875 3.25 0.96875q2.09375 0 3.109375 -0.859375q1.015625 -0.859375 1.015625 -2.0q0 -1.03125 -0.890625 -1.625q-0.625 -0.40625 -3.125 -1.03125q-3.34375 -0.859375 -4.640625 -1.46875q-1.296875 -0.625 -1.96875 -1.703125q-0.65625 -1.09375 -0.65625 -2.421875q0 -1.203125 0.546875 -2.21875q0.546875 -1.03125 1.5 -1.703125q0.703125 -0.53125 1.921875 -0.890625q1.234375 -0.359375 2.640625 -0.359375q2.125 0 3.71875 0.609375q1.59375 0.609375 2.359375 1.65625q0.765625 1.03125 1.046875 2.78125l-2.96875 0.40625q-0.203125 -1.390625 -1.1875 -2.171875q-0.96875 -0.78125 -2.75 -0.78125q-2.09375 0 -3.0 0.703125q-0.890625 0.6875 -0.890625 1.625q0 0.578125 0.375 1.0625q0.375 0.484375 1.171875 0.8125q0.453125 0.171875 2.6875 0.78125q3.234375 0.859375 4.5 1.40625q1.28125 0.546875 2.0 1.59375q0.734375 1.046875 0.734375 2.609375q0 1.53125 -0.890625 2.875q-0.875 1.34375 -2.5625 2.078125q-1.671875 0.734375 -3.78125 0.734375q-3.5 0 -5.34375 -1.453125q-1.828125 -1.453125 -2.34375 -4.3125zm30.859375 -0.421875l3.140625 0.390625q-0.75 2.75 -2.765625 4.28125q-2.0 1.515625 -5.140625 1.515625q-3.9375 0 -6.25 -2.421875q-2.3125 -2.4375 -2.3125 -6.8125q0 -4.546875 2.328125 -7.046875q2.34375 -2.5 6.0625 -2.5q3.609375 0 5.890625 2.453125q2.28125 2.453125 2.28125 6.90625q0 0.265625 -0.015625 0.8125l-13.390625 0q0.15625 2.953125 1.65625 4.53125q1.515625 1.578125 3.765625 1.578125q1.6875 0 2.859375 -0.875q1.1875 -0.890625 1.890625 -2.8125zm-10.015625 -4.9375l10.046875 0q-0.203125 -2.265625 -1.15625 -3.390625q-1.453125 -1.765625 -3.765625 -1.765625q-2.109375 0 -3.546875 1.40625q-1.421875 1.40625 -1.578125 3.75z" fill-rule="nonzero"/><path fill="#ea9999" d="m1913.1295 644.8239l0 0c0 -71.8927 57.533203 -130.17322 128.5039 -130.17322l0 0c34.08142 0 66.76697 13.714661 90.86609 38.12683c24.099121 24.412231 37.63794 57.522278 37.63794 92.04639l0 0c0 71.8927 -57.533203 130.17322 -128.50403 130.17322l0 0c-70.9707 0 -128.5039 -58.280518 -128.5039 -130.17322z" fill-rule="evenodd"/><path stroke="#000000" stroke-width="1.0" stroke-linejoin="round" stroke-linecap="butt" d="m1913.1295 644.8239l0 0c0 -71.8927 57.533203 -130.17322 128.5039 -130.17322l0 0c34.08142 0 66.76697 13.714661 90.86609 38.12683c24.099121 24.412231 37.63794 57.522278 37.63794 92.04639l0 0c0 71.8927 -57.533203 130.17322 -128.50403 130.17322l0 0c-70.9707 0 -128.5039 -58.280518 -128.5039 -130.17322z" fill-rule="evenodd"/><path fill="#000000" fill-opacity="0.0" d="m1269.0403 514.6507l0 -88.17825l772.5984 0l0 88.24124" fill-rule="evenodd"/><path stroke="#000000" stroke-width="1.0" stroke-linejoin="round" stroke-linecap="butt" d="m1269.0403 514.6507l0 -88.17825l772.5984 0l0 88.24124" fill-rule="evenodd"/><path fill="#000000" d="m2329.9897 533.42554l223.30713 0l0 226.20477l-223.30713 0z" fill-rule="evenodd"/><path stroke="#000000" stroke-width="1.0" stroke-linejoin="round" stroke-linecap="butt" d="m2329.9897 533.42554l223.30713 0l0 226.20477l-223.30713 0z" fill-rule="evenodd"/><path fill="#ffffff" d="m2355.3826 659.58795l0 -25.765625l9.71875 0q2.5625 0 3.921875 0.234375q1.890625 0.328125 3.171875 1.21875q1.296875 0.875 2.078125 2.484375q0.78125 1.59375 0.78125 3.515625q0 3.28125 -2.09375 5.5625q-2.09375 2.265625 -7.5625 2.265625l-6.609375 0l0 10.484375l-3.40625 0zm3.40625 -13.515625l6.65625 0q3.3125 0 4.703125 -1.234375q1.390625 -1.234375 1.390625 -3.46875q0 -1.609375 -0.828125 -2.75q-0.8125 -1.15625 -2.140625 -1.53125q-0.875 -0.234375 -3.1875 -0.234375l-6.59375 0l0 9.21875zm32.38672 11.21875q-1.765625 1.484375 -3.390625 2.109375q-1.625 0.609375 -3.484375 0.609375q-3.078125 0 -4.734375 -1.5q-1.65625 -1.5 -1.65625 -3.84375q0 -1.375 0.625 -2.5q0.625 -1.140625 1.640625 -1.828125q1.015625 -0.6875 2.28125 -1.03125q0.921875 -0.25 2.8125 -0.484375q3.828125 -0.453125 5.640625 -1.078125q0.015625 -0.65625 0.015625 -0.828125q0 -1.9375 -0.90625 -2.734375q-1.203125 -1.0625 -3.59375 -1.0625q-2.234375 0 -3.296875 0.78125q-1.0625 0.78125 -1.578125 2.765625l-3.09375 -0.421875q0.421875 -1.984375 1.390625 -3.203125q0.96875 -1.21875 2.796875 -1.875q1.828125 -0.671875 4.234375 -0.671875q2.390625 0 3.875 0.5625q1.5 0.5625 2.203125 1.421875q0.703125 0.84375 0.984375 2.15625q0.15625 0.796875 0.15625 2.90625l0 4.21875q0 4.421875 0.203125 5.59375q0.203125 1.15625 0.8125 2.234375l-3.3125 0q-0.484375 -0.984375 -0.625 -2.296875zm-0.265625 -7.078125q-1.734375 0.703125 -5.171875 1.203125q-1.953125 0.28125 -2.765625 0.640625q-0.796875 0.34375 -1.25 1.015625q-0.4375 0.671875 -0.4375 1.5q0 1.265625 0.953125 2.109375q0.96875 0.84375 2.8125 0.84375q1.828125 0 3.25 -0.796875q1.421875 -0.796875 2.09375 -2.1875q0.515625 -1.078125 0.515625 -3.15625l0 -1.171875zm8.068359 9.375l0 -18.671875l2.84375 0l0 2.828125q1.09375 -1.984375 2.015625 -2.609375q0.921875 -0.640625 2.03125 -0.640625q1.59375 0 3.25 1.015625l-1.09375 2.9375q-1.15625 -0.6875 -2.3125 -0.6875q-1.046875 0 -1.875 0.625q-0.828125 0.625 -1.171875 1.734375q-0.53125 1.6875 -0.53125 3.6875l0 9.78125l-3.15625 0zm12.035156 0l0 -25.765625l3.171875 0l0 14.6875l7.484375 -7.59375l4.09375 0l-7.140625 6.921875l7.859375 11.75l-3.90625 0l-6.171875 -9.546875l-2.21875 2.140625l0 7.40625l-3.171875 0zm18.0 -22.125l0 -3.640625l3.171875 0l0 3.640625l-3.171875 0zm0 22.125l0 -18.671875l3.171875 0l0 18.671875l-3.171875 0zm7.982422 0l0 -18.671875l2.84375 0l0 2.65625q2.0625 -3.078125 5.9375 -3.078125q1.6875 0 3.109375 0.609375q1.421875 0.609375 2.125 1.59375q0.703125 0.984375 0.984375 2.328125q0.171875 0.890625 0.171875 3.078125l0 11.484375l-3.171875 0l0 -11.359375q0 -1.9375 -0.375 -2.890625q-0.359375 -0.953125 -1.296875 -1.515625q-0.9375 -0.578125 -2.203125 -0.578125q-2.03125 0 -3.5 1.28125q-1.46875 1.28125 -1.46875 4.859375l0 10.203125l-3.15625 0zm18.75586 -5.578125l3.125 -0.484375q0.265625 1.875 1.46875 2.875q1.203125 1.0 3.375 1.0q2.171875 0 3.21875 -0.875q1.0625 -0.890625 1.0625 -2.09375q0 -1.0625 -0.9375 -1.6875q-0.640625 -0.421875 -3.234375 -1.0625q-3.46875 -0.890625 -4.8125 -1.53125q-1.34375 -0.640625 -2.046875 -1.765625q-0.6875 -1.140625 -0.6875 -2.515625q0 -1.234375 0.5625 -2.296875q0.578125 -1.078125 1.5625 -1.78125q0.734375 -0.53125 2.0 -0.90625q1.28125 -0.390625 2.75 -0.390625q2.1875 0 3.84375 0.640625q1.671875 0.625 2.453125 1.71875q0.796875 1.078125 1.09375 2.875l-3.09375 0.421875q-0.203125 -1.4375 -1.21875 -2.234375q-1.015625 -0.8125 -2.859375 -0.8125q-2.171875 0 -3.109375 0.71875q-0.9375 0.71875 -0.9375 1.6875q0 0.609375 0.390625 1.109375q0.390625 0.5 1.21875 0.84375q0.46875 0.171875 2.796875 0.796875q3.359375 0.90625 4.671875 1.484375q1.328125 0.5625 2.078125 1.65625q0.765625 1.078125 0.765625 2.703125q0 1.578125 -0.921875 2.984375q-0.921875 1.390625 -2.671875 2.15625q-1.734375 0.765625 -3.921875 0.765625q-3.640625 0 -5.546875 -1.515625q-1.90625 -1.515625 -2.4375 -4.484375zm18.09375 -3.75q0 -5.1875 2.875 -7.6875q2.40625 -2.078125 5.875 -2.078125q3.84375 0 6.28125 2.53125q2.453125 2.515625 2.453125 6.96875q0 3.59375 -1.078125 5.671875q-1.078125 2.0625 -3.15625 3.203125q-2.0625 1.140625 -4.5 1.140625q-3.921875 0 -6.34375 -2.515625q-2.40625 -2.515625 -2.40625 -7.234375zm3.25 0q0 3.578125 1.5625 5.359375q1.5625 1.78125 3.9375 1.78125q2.359375 0 3.921875 -1.78125q1.5625 -1.796875 1.5625 -5.46875q0 -3.46875 -1.578125 -5.25q-1.578125 -1.78125 -3.90625 -1.78125q-2.375 0 -3.9375 1.78125q-1.5625 1.765625 -1.5625 5.359375zm17.94336 9.328125l0 -18.671875l2.84375 0l0 2.65625q2.0625 -3.078125 5.9375 -3.078125q1.6875 0 3.109375 0.609375q1.421875 0.609375 2.125 1.59375q0.703125 0.984375 0.984375 2.328125q0.171875 0.890625 0.171875 3.078125l0 11.484375l-3.171875 0l0 -11.359375q0 -1.9375 -0.375 -2.890625q-0.359375 -0.953125 -1.296875 -1.515625q-0.9375 -0.578125 -2.203125 -0.578125q-2.03125 0 -3.5 1.28125q-1.46875 1.28125 -1.46875 4.859375l0 10.203125l-3.15625 0zm18.75586 -5.578125l3.125 -0.484375q0.265625 1.875 1.46875 2.875q1.203125 1.0 3.375 1.0q2.171875 0 3.21875 -0.875q1.0625 -0.890625 1.0625 -2.09375q0 -1.0625 -0.9375 -1.6875q-0.640625 -0.421875 -3.234375 -1.0625q-3.46875 -0.890625 -4.8125 -1.53125q-1.34375 -0.640625 -2.046875 -1.765625q-0.6875 -1.140625 -0.6875 -2.515625q0 -1.234375 0.5625 -2.296875q0.578125 -1.078125 1.5625 -1.78125q0.734375 -0.53125 2.0 -0.90625q1.28125 -0.390625 2.75 -0.390625q2.1875 0 3.84375 0.640625q1.671875 0.625 2.453125 1.71875q0.796875 1.078125 1.09375 2.875l-3.09375 0.421875q-0.203125 -1.4375 -1.21875 -2.234375q-1.015625 -0.8125 -2.859375 -0.8125q-2.171875 0 -3.109375 0.71875q-0.9375 0.71875 -0.9375 1.6875q0 0.609375 0.390625 1.109375q0.390625 0.5 1.21875 0.84375q0.46875 0.171875 2.796875 0.796875q3.359375 0.90625 4.671875 1.484375q1.328125 0.5625 2.078125 1.65625q0.765625 1.078125 0.765625 2.703125q0 1.578125 -0.921875 2.984375q-0.921875 1.390625 -2.671875 2.15625q-1.734375 0.765625 -3.921875 0.765625q-3.640625 0 -5.546875 -1.515625q-1.90625 -1.515625 -2.4375 -4.484375z" fill-rule="nonzero"/><path fill="#000000" fill-opacity="0.0" d="m2329.9897 646.5279l-159.84253 -1.7007446" fill-rule="evenodd"/><path stroke="#000000" stroke-width="1.0" stroke-linejoin="round" stroke-linecap="butt" d="m2329.9897 646.5279l-159.84253 -1.7007446" fill-rule="evenodd"/><path fill="#ea9999" d="m2121.5652 999.6747l0 0c0 -71.8927 57.533203 -130.17322 128.5039 -130.17322l0 0c34.0813 0 66.766846 13.7146 90.86597 38.12683c24.099121 24.412231 37.63794 57.522278 37.63794 92.04639l0 0c0 71.8927 -57.533203 130.17322 -128.5039 130.17322l0 0c-70.9707 0 -128.5039 -58.280518 -128.5039 -130.17322z" fill-rule="evenodd"/><path stroke="#000000" stroke-width="1.0" stroke-linejoin="round" stroke-linecap="butt" d="m2121.5652 999.6747l0 0c0 -71.8927 57.533203 -130.17322 128.5039 -130.17322l0 0c34.0813 0 66.766846 13.7146 90.86597 38.12683c24.099121 24.412231 37.63794 57.522278 37.63794 92.04639l0 0c0 71.8927 -57.533203 130.17322 -128.5039 130.17322l0 0c-70.9707 0 -128.5039 -58.280518 -128.5039 -130.17322z" fill-rule="evenodd"/><path fill="#000000" fill-opacity="0.0" d="m2250.069 869.50146l0 -222.96063l79.90552 0" fill-rule="evenodd"/><path stroke="#000000" stroke-width="1.0" stroke-linejoin="round" stroke-linecap="butt" d="m2250.069 869.50146l0 -222.96063l79.90552 0" fill-rule="evenodd"/><path fill="#ea9999" d="m331.89847 1036.5487l0 0c0 -71.8927 57.533173 -130.17322 128.50394 -130.17322l0 0c34.08136 0 66.766846 13.7146 90.86597 38.12683c24.099182 24.412231 37.63794 57.522278 37.63794 92.04639l0 0c0 71.8927 -57.533142 130.17322 -128.5039 130.17322l0 0c-70.970764 0 -128.50394 -58.280518 -128.50394 -130.17322z" fill-rule="evenodd"/><path stroke="#000000" stroke-width="1.0" stroke-linejoin="round" stroke-linecap="butt" d="m331.89847 1036.5487l0 0c0 -71.8927 57.533173 -130.17322 128.50394 -130.17322l0 0c34.08136 0 66.766846 13.7146 90.86597 38.12683c24.099182 24.412231 37.63794 57.522278 37.63794 92.04639l0 0c0 71.8927 -57.533142 130.17322 -128.5039 130.17322l0 0c-70.970764 0 -128.50394 -58.280518 -128.50394 -130.17322z" fill-rule="evenodd"/><path fill="#cfe2f3" d="m744.3309 919.6828l223.30707 0l0 226.20465l-223.30707 0z" fill-rule="evenodd"/><path stroke="#000000" stroke-width="1.0" stroke-linejoin="round" stroke-linecap="butt" d="m744.3309 919.6828l223.30707 0l0 226.20465l-223.30707 0z" fill-rule="evenodd"/><path fill="#000000" d="m838.83954 961.53516l3.0625 -0.265625q0.34375 2.25 1.59375 3.390625q1.25 1.125 3.0 1.125q2.109375 0 3.578125 -1.59375q1.46875 -1.59375 1.46875 -4.234375q0 -2.5 -1.40625 -3.953125q-1.40625 -1.453125 -3.6875 -1.453125q-1.421875 0 -2.5625 0.65625q-1.125 0.640625 -1.78125 1.65625l-2.75 -0.359375l2.3125 -12.25l11.859375 0l0 2.796875l-9.515625 0l-1.296875 6.40625q2.15625 -1.484375 4.515625 -1.484375q3.125 0 5.265625 2.171875q2.15625 2.15625 2.15625 5.546875q0 3.25 -1.890625 5.609375q-2.296875 2.890625 -6.265625 2.890625q-3.25 0 -5.3125 -1.8125q-2.0625 -1.828125 -2.34375 -4.84375zm33.926147 3.4375l0 2.8125l-15.765625 0q-0.046875 -1.0625 0.328125 -2.03125q0.609375 -1.609375 1.9375 -3.171875q1.328125 -1.5625 3.828125 -3.609375q3.890625 -3.203125 5.25 -5.0625q1.375 -1.859375 1.375 -3.515625q0 -1.75 -1.25 -2.9375q-1.234375 -1.203125 -3.234375 -1.203125q-2.125 0 -3.390625 1.28125q-1.265625 1.265625 -1.28125 3.5l-3.015625 -0.296875q0.3125 -3.375 2.328125 -5.140625q2.015625 -1.765625 5.421875 -1.765625q3.421875 0 5.421875 1.90625q2.015625 1.90625 2.015625 4.71875q0 1.421875 -0.59375 2.8125q-0.578125 1.390625 -1.9375 2.921875q-1.359375 1.515625 -4.515625 4.1875q-2.640625 2.21875 -3.390625 3.015625q-0.75 0.78125 -1.234375 1.578125l11.703125 0z" fill-rule="nonzero"/><path fill="#000000" d="m760.4701 1007.78516l0 -23.859375l3.15625 0l0 9.796875l12.390625 0l0 -9.796875l3.171875 0l0 23.859375l-3.171875 0l0 -11.25l-12.390625 0l0 11.25l-3.15625 0zm23.459167 6.65625l-0.328125 -2.75q0.96875 0.265625 1.6875 0.265625q0.96875 0 1.546875 -0.328125q0.59375 -0.328125 0.96875 -0.921875q0.28125 -0.4375 0.890625 -2.171875q0.09375 -0.25 0.265625 -0.71875l-6.5625 -17.3125l3.15625 0l3.609375 10.0q0.6875 1.90625 1.25 4.015625q0.5 -2.015625 1.203125 -3.9375l3.6875 -10.078125l2.9375 0l-6.578125 17.578125q-1.0625 2.84375 -1.640625 3.921875q-0.78125 1.4375 -1.796875 2.109375q-1.0 0.6875 -2.40625 0.6875q-0.84375 0 -1.890625 -0.359375zm16.804688 -0.03125l0 -23.90625l2.65625 0l0 2.25q0.953125 -1.328125 2.140625 -1.984375q1.1875 -0.65625 2.875 -0.65625q2.21875 0 3.90625 1.140625q1.6875 1.140625 2.546875 3.21875q0.875 2.0625 0.875 4.546875q0 2.640625 -0.953125 4.765625q-0.953125 2.125 -2.765625 3.265625q-1.8125 1.125 -3.8125 1.125q-1.46875 0 -2.640625 -0.609375q-1.15625 -0.625 -1.90625 -1.578125l0 8.421875l-2.921875 0zm2.640625 -15.171875q0 3.34375 1.34375 4.9375q1.359375 1.59375 3.28125 1.59375q1.953125 0 3.34375 -1.65625q1.390625 -1.65625 1.390625 -5.109375q0 -3.3125 -1.359375 -4.953125q-1.359375 -1.640625 -3.25 -1.640625q-1.859375 0 -3.3125 1.75q-1.4375 1.75 -1.4375 5.078125zm27.723022 2.984375l3.015625 0.375q-0.703125 2.65625 -2.640625 4.125q-1.9375 1.453125 -4.953125 1.453125q-3.796875 0 -6.015625 -2.328125q-2.21875 -2.34375 -2.21875 -6.5625q0 -4.359375 2.25 -6.765625q2.25 -2.40625 5.828125 -2.40625q3.46875 0 5.65625 2.359375q2.203125 2.359375 2.203125 6.640625q0 0.265625 -0.015625 0.78125l-12.890625 0q0.15625 2.84375 1.609375 4.359375q1.453125 1.515625 3.609375 1.515625q1.609375 0 2.75 -0.84375q1.140625 -0.84375 1.8125 -2.703125zm-9.625 -4.734375l9.65625 0q-0.203125 -2.1875 -1.109375 -3.28125q-1.40625 -1.6875 -3.625 -1.6875q-2.015625 0 -3.390625 1.359375q-1.375 1.34375 -1.53125 3.609375zm16.301147 10.296875l0 -17.28125l2.625 0l0 2.625q1.015625 -1.84375 1.859375 -2.421875q0.859375 -0.59375 1.890625 -0.59375q1.484375 0 3.0 0.9375l-1.0 2.71875q-1.078125 -0.625 -2.15625 -0.625q-0.953125 0 -1.71875 0.578125q-0.765625 0.578125 -1.09375 1.59375q-0.484375 1.5625 -0.484375 3.421875l0 9.046875l-2.921875 0zm17.520386 -2.625l0.421875 2.59375q-1.234375 0.265625 -2.21875 0.265625q-1.59375 0 -2.46875 -0.5q-0.875 -0.515625 -1.234375 -1.328125q-0.359375 -0.828125 -0.359375 -3.46875l0 -9.9375l-2.15625 0l0 -2.28125l2.15625 0l0 -4.28125l2.90625 -1.75l0 6.03125l2.953125 0l0 2.28125l-2.953125 0l0 10.109375q0 1.25 0.15625 1.609375q0.15625 0.359375 0.5 0.578125q0.359375 0.203125 1.015625 0.203125q0.484375 0 1.28125 -0.125zm14.697144 -2.9375l3.015625 0.375q-0.703125 2.65625 -2.640625 4.125q-1.9375 1.453125 -4.953125 1.453125q-3.796875 0 -6.015625 -2.328125q-2.21875 -2.34375 -2.21875 -6.5625q0 -4.359375 2.25 -6.765625q2.25 -2.40625 5.828125 -2.40625q3.46875 0 5.65625 2.359375q2.203125 2.359375 2.203125 6.640625q0 0.265625 -0.015625 0.78125l-12.890625 0q0.15625 2.84375 1.609375 4.359375q1.453125 1.515625 3.609375 1.515625q1.609375 0 2.75 -0.84375q1.140625 -0.84375 1.8125 -2.703125zm-9.625 -4.734375l9.65625 0q-0.203125 -2.1875 -1.109375 -3.28125q-1.40625 -1.6875 -3.625 -1.6875q-2.015625 0 -3.390625 1.359375q-1.375 1.34375 -1.53125 3.609375zm16.332397 10.296875l0 -17.28125l2.625 0l0 2.453125q1.90625 -2.84375 5.5 -2.84375q1.5625 0 2.875 0.5625q1.3125 0.5625 1.953125 1.46875q0.65625 0.90625 0.921875 2.171875q0.15625 0.8125 0.15625 2.84375l0 10.625l-2.921875 0l0 -10.515625q0 -1.78125 -0.34375 -2.671875q-0.34375 -0.890625 -1.21875 -1.421875q-0.859375 -0.53125 -2.03125 -0.53125q-1.875 0 -3.234375 1.1875q-1.359375 1.1875 -1.359375 4.515625l0 9.4375l-2.921875 0zm17.363647 -5.15625l2.890625 -0.453125q0.25 1.734375 1.359375 2.671875q1.109375 0.921875 3.109375 0.921875q2.03125 0 3.0 -0.8125q0.984375 -0.828125 0.984375 -1.9375q0 -1.0 -0.875 -1.5625q-0.59375 -0.390625 -2.984375 -1.0q-3.234375 -0.8125 -4.484375 -1.40625q-1.234375 -0.59375 -1.875 -1.640625q-0.640625 -1.046875 -0.640625 -2.3125q0 -1.15625 0.53125 -2.140625q0.53125 -0.984375 1.4375 -1.640625q0.6875 -0.5 1.859375 -0.84375q1.1875 -0.359375 2.53125 -0.359375q2.03125 0 3.5625 0.59375q1.546875 0.578125 2.28125 1.578125q0.734375 1.0 1.015625 2.671875l-2.875 0.390625q-0.1875 -1.328125 -1.125 -2.078125q-0.9375 -0.75 -2.640625 -0.75q-2.03125 0 -2.890625 0.671875q-0.859375 0.65625 -0.859375 1.5625q0 0.5625 0.359375 1.015625q0.359375 0.484375 1.125 0.78125q0.4375 0.171875 2.578125 0.75q3.109375 0.828125 4.34375 1.359375q1.234375 0.53125 1.921875 1.546875q0.703125 1.0 0.703125 2.5q0 1.46875 -0.859375 2.765625q-0.84375 1.28125 -2.453125 2.0q-1.609375 0.703125 -3.65625 0.703125q-3.359375 0 -5.125 -1.390625q-1.765625 -1.40625 -2.25 -4.15625zm17.851562 -15.328125l0 -3.375l2.921875 0l0 3.375l-2.921875 0zm0 20.484375l0 -17.28125l2.921875 0l0 17.28125l-2.921875 0zm6.295044 -8.640625q0 -4.796875 2.671875 -7.109375q2.21875 -1.921875 5.421875 -1.921875q3.578125 0 5.828125 2.34375q2.265625 2.328125 2.265625 6.4375q0 3.34375 -1.0 5.265625q-1.0 1.90625 -2.921875 2.96875q-1.90625 1.046875 -4.171875 1.046875q-3.625 0 -5.859375 -2.328125q-2.234375 -2.328125 -2.234375 -6.703125zm3.015625 0q0 3.3125 1.4375 4.96875q1.453125 1.65625 3.640625 1.65625q2.1875 0 3.625 -1.65625q1.453125 -1.671875 1.453125 -5.0625q0 -3.203125 -1.453125 -4.859375q-1.453125 -1.65625 -3.625 -1.65625q-2.1875 0 -3.640625 1.640625q-1.4375 1.640625 -1.4375 4.96875zm16.613647 8.640625l0 -17.28125l2.625 0l0 2.453125q1.90625 -2.84375 5.5 -2.84375q1.5625 0 2.875 0.5625q1.3125 0.5625 1.953125 1.46875q0.65625 0.90625 0.921875 2.171875q0.15625 0.8125 0.15625 2.84375l0 10.625l-2.921875 0l0 -10.515625q0 -1.78125 -0.34375 -2.671875q-0.34375 -0.890625 -1.21875 -1.421875q-0.859375 -0.53125 -2.03125 -0.53125q-1.875 0 -3.234375 1.1875q-1.359375 1.1875 -1.359375 4.515625l0 9.4375l-2.921875 0z" fill-rule="nonzero"/><path fill="#000000" d="m828.66693 1084.8995l8.453125 -0.75q0.609375 5.09375 2.796875 8.359375q2.203125 3.25 6.828125 5.265625q4.625 2.0 10.390625 2.0q5.140625 0 9.0625 -1.515625q3.921875 -1.53125 5.84375 -4.1875q1.921875 -2.65625 1.921875 -5.796875q0 -3.1875 -1.859375 -5.5625q-1.84375 -2.390625 -6.09375 -4.015625q-2.71875 -1.0625 -12.0625 -3.296875q-9.328125 -2.25 -13.078125 -4.234375q-4.859375 -2.53125 -7.234375 -6.296875q-2.375 -3.78125 -2.375 -8.4375q0 -5.140625 2.90625 -9.59375q2.90625 -4.46875 8.5 -6.765625q5.59375 -2.3125 12.4375 -2.3125q7.53125 0 13.28125 2.421875q5.765625 2.421875 8.859375 7.140625q3.09375 4.71875 3.328125 10.671875l-8.59375 0.65625q-0.703125 -6.4375 -4.703125 -9.71875q-3.984375 -3.28125 -11.796875 -3.28125q-8.140625 0 -11.859375 2.984375q-3.71875 2.984375 -3.71875 7.1875q0 3.65625 2.640625 6.015625q2.578125 2.359375 13.5 4.828125q10.9375 2.46875 15.015625 4.3125q5.90625 2.734375 8.71875 6.921875q2.828125 4.171875 2.828125 9.625q0 5.40625 -3.09375 10.203125q-3.09375 4.78125 -8.90625 7.4375q-5.796875 2.65625 -13.046875 2.65625q-9.203125 0 -15.421875 -2.671875q-6.203125 -2.6875 -9.75 -8.0625q-3.53125 -5.390625 -3.71875 -12.1875z" fill-rule="nonzero"/><path fill="#ea9999" d="m1249.0139 1022.8886l0 0c0 -71.8927 57.533203 -130.17328 128.5039 -130.17328l0 0c34.08142 0 66.766846 13.714661 90.86609 38.126892c24.099121 24.412231 37.63794 57.522278 37.63794 92.04639l0 0c0 71.89264 -57.533203 130.17316 -128.50403 130.17316l0 0c-70.9707 0 -128.5039 -58.280518 -128.5039 -130.17316z" fill-rule="evenodd"/><path stroke="#000000" stroke-width="1.0" stroke-linejoin="round" stroke-linecap="butt" d="m1249.0139 1022.8886l0 0c0 -71.8927 57.533203 -130.17328 128.5039 -130.17328l0 0c34.08142 0 66.766846 13.714661 90.86609 38.126892c24.099121 24.412231 37.63794 57.522278 37.63794 92.04639l0 0c0 71.89264 -57.533203 130.17316 -128.50403 130.17316l0 0c-70.9707 0 -128.5039 -58.280518 -128.5039 -130.17316z" fill-rule="evenodd"/><path fill="#cfe2f3" d="m1729.3282 909.78516l223.30713 0l0 226.20471l-223.30713 0z" fill-rule="evenodd"/><path stroke="#000000" stroke-width="1.0" stroke-linejoin="round" stroke-linecap="butt" d="m1729.3282 909.78516l223.30713 0l0 226.20471l-223.30713 0z" fill-rule="evenodd"/><path fill="#000000" fill-opacity="0.0" d="m1506.0219 1022.8886l223.307 0" fill-rule="evenodd"/><path stroke="#000000" stroke-width="1.0" stroke-linejoin="round" stroke-linecap="butt" d="m1506.0219 1022.8886l223.307 0" fill-rule="evenodd"/><path fill="#000000" fill-opacity="0.0" d="m744.3309 1032.7852l-155.43304 3.7480469" fill-rule="evenodd"/><path stroke="#000000" stroke-width="1.0" stroke-linejoin="round" stroke-linecap="butt" d="m744.3309 1032.7852l-155.43304 3.7480469" fill-rule="evenodd"/><path fill="#000000" fill-opacity="0.0" d="m1249.012 838.4623l-170.48181 0l0 -193.63776l-100.63629 0" fill-rule="evenodd"/><path stroke="#000000" stroke-width="1.0" stroke-linejoin="round" stroke-linecap="butt" d="m1249.012 838.4623l-170.48181 0l0 -193.63776l-100.63629 0" fill-rule="evenodd"/><path fill="#000000" fill-opacity="0.0" d="m855.98444 919.6828l0 -81.22839l222.55121 0" fill-rule="evenodd"/><path stroke="#000000" stroke-width="1.0" stroke-linejoin="round" stroke-linecap="butt" d="m855.98444 919.6828l0 -81.22839l222.55121 0" fill-rule="evenodd"/><path fill="#000000" fill-opacity="0.0" d="m1246.0 838.50134l22.992065 -0.5039673" fill-rule="evenodd"/><path stroke="#000000" stroke-width="1.0" stroke-linejoin="round" stroke-linecap="butt" d="m1246.0 838.50134l22.992065 -0.5039673" fill-rule="evenodd"/><path fill="#ea9999" d="m353.38663 1400.462l0 0c0 -71.8927 57.533173 -130.17322 128.50397 -130.17322l0 0c34.08133 0 66.766815 13.714722 90.866 38.12683c24.099182 24.412231 37.63794 57.52234 37.63794 92.04639l0 0c0 71.8927 -57.533203 130.17322 -128.50394 130.17322l0 0c-70.970795 0 -128.50397 -58.280518 -128.50397 -130.17322z" fill-rule="evenodd"/><path stroke="#000000" stroke-width="1.0" stroke-linejoin="round" stroke-linecap="butt" d="m353.38663 1400.462l0 0c0 -71.8927 57.533173 -130.17322 128.50397 -130.17322l0 0c34.08133 0 66.766815 13.714722 90.866 38.12683c24.099182 24.412231 37.63794 57.52234 37.63794 92.04639l0 0c0 71.8927 -57.533203 130.17322 -128.50394 130.17322l0 0c-70.970795 0 -128.50397 -58.280518 -128.50397 -130.17322z" fill-rule="evenodd"/><path fill="#cfe2f3" d="m743.3755 1286.1473l223.30707 0l0 226.20471l-223.30707 0z" fill-rule="evenodd"/><path stroke="#000000" stroke-width="1.0" stroke-linejoin="round" stroke-linecap="butt" d="m743.3755 1286.1473l223.30707 0l0 226.20471l-223.30707 0z" fill-rule="evenodd"/><path fill="#000000" fill-opacity="0.0" d="m610.39453 1400.462l132.97638 -1.1967773" fill-rule="evenodd"/><path stroke="#000000" stroke-width="1.0" stroke-linejoin="round" stroke-linecap="butt" d="m610.39453 1400.462l132.97638 -1.1967773" fill-rule="evenodd"/><path fill="#000000" fill-opacity="0.0" d="m666.6142 1032.7848l0 361.82678" fill-rule="evenodd"/><path stroke="#000000" stroke-width="1.0" stroke-linejoin="round" stroke-linecap="butt" d="m666.6142 1032.7848l0 361.82678" fill-rule="evenodd"/><path fill="#ea9999" d="m1128.9929 1399.2495l0 0c0 -71.8927 57.533203 -130.17322 128.5039 -130.17322l0 0c34.08142 0 66.766846 13.7146 90.86609 38.12683c24.099121 24.412231 37.63794 57.522217 37.63794 92.04639l0 0c0 71.8927 -57.533203 130.17322 -128.50403 130.17322l0 0c-70.9707 0 -128.5039 -58.280518 -128.5039 -130.17322z" fill-rule="evenodd"/><path stroke="#000000" stroke-width="1.0" stroke-linejoin="round" stroke-linecap="butt" d="m1128.9929 1399.2495l0 0c0 -71.8927 57.533203 -130.17322 128.5039 -130.17322l0 0c34.08142 0 66.766846 13.7146 90.86609 38.12683c24.099121 24.412231 37.63794 57.522217 37.63794 92.04639l0 0c0 71.8927 -57.533203 130.17322 -128.50403 130.17322l0 0c-70.9707 0 -128.5039 -58.280518 -128.5039 -130.17322z" fill-rule="evenodd"/><path fill="#000000" fill-opacity="0.0" d="m1265.4863 838.0067l112.031494 0l0 54.70862" fill-rule="evenodd"/><path stroke="#000000" stroke-width="1.0" stroke-linejoin="round" stroke-linecap="butt" d="m1265.4863 838.0067l112.031494 0l0 54.70862" fill-rule="evenodd"/><path fill="#000000" fill-opacity="0.0" d="m2003.9746 1269.0763l0 -66.76135l-746.4883 0l0 66.82434" fill-rule="evenodd"/><path stroke="#000000" stroke-width="1.0" stroke-linejoin="round" stroke-linecap="butt" d="m2003.9746 1269.0763l0 -66.76135l-746.4883 0l0 66.82434" fill-rule="evenodd"/><path fill="#000000" fill-opacity="0.0" d="m1617.8007 1017.9269l-0.12597656 268.22046" fill-rule="evenodd"/><path stroke="#000000" stroke-width="1.0" stroke-linejoin="round" stroke-linecap="butt" d="m1617.8007 1017.9269l-0.12597656 268.22046" fill-rule="evenodd"/></g></svg>